<svg version="1.1" xmlns="http://www.w3.org/2000/svg" xmlns:xlink="http://www.w3.org/1999/xlink" width="462.4072265625" height="212"><defs/><g><g transform="translate(-10,-10) scale(1,1)"><path fill="none" stroke="#000000" d="M 41.003173828125 112 L 64.003173828125 112 L 64.003173828125 135 L 41.003173828125 135 L 41.003173828125 112 Z Z" stroke-miterlimit="10"/></g><g transform="translate(-10,-10) scale(1,1)"><path fill="none" stroke="#000000" d="M 41.003173828125 112 L 64.003173828125 135" stroke-miterlimit="10"/></g><g transform="translate(-10,-10) scale(1,1)"><path fill="none" stroke="#000000" d="M 64.003173828125 112 L 41.003173828125 135" stroke-miterlimit="10"/></g><g transform="translate(-10,-10) scale(1,1)"><g><path fill="none" stroke="none"/><text fill="#000000" stroke="none" font-family="Arial" font-size="13px" font-style="normal" font-weight="normal" text-decoration="none" x="52.503173828125" y="152.5"></text></g></g><g transform="translate(-10,-10) scale(1,1)"><g><path fill="none" stroke="none"/><text fill="#000000" stroke="none" font-family="Arial" font-size="13px" font-style="normal" font-weight="bold" text-decoration="none" x="40.2236328125" y="167.5">Cart</text></g></g><g transform="translate(-10,-10) scale(1,1)"><path fill="none" stroke="#000000" d="M 212.697265625 112 L 235.697265625 112 L 235.697265625 135 L 212.697265625 135 L 212.697265625 112 Z Z" stroke-miterlimit="10"/></g><g transform="translate(-10,-10) scale(1,1)"><path fill="none" stroke="#000000" d="M 212.697265625 112 L 235.697265625 135" stroke-miterlimit="10"/></g><g transform="translate(-10,-10) scale(1,1)"><path fill="none" stroke="#000000" d="M 235.697265625 112 L 212.697265625 135" stroke-miterlimit="10"/></g><g transform="translate(-10,-10) scale(1,1)"><g><path fill="none" stroke="none"/><text fill="#000000" stroke="none" font-family="Arial" font-size="13px" font-style="normal" font-weight="normal" text-decoration="none" x="224.197265625" y="152.5"></text></g></g><g transform="translate(-10,-10) scale(1,1)"><g><path fill="none" stroke="none"/><text fill="#000000" stroke="none" font-family="Arial" font-size="13px" font-style="normal" font-weight="bold" text-decoration="none" x="183.016845703125" y="167.5">CartBookDAO</text></g></g><g transform="translate(-10,-10) scale(1,1)"><path fill="none" stroke="#000000" d="M 175 155 Q 52 189 52 174" stroke-miterlimit="10"/></g><g transform="translate(-10,-10) scale(1,1)"><path fill="none" stroke="#000000" d="M 56.20951775601599 184.16267485762415 L 52 174 L 47.790482243984016 184.16267485762415" stroke-miterlimit="10"/></g><g transform="translate(-10,-10) scale(1,1)"><g><path fill="none" stroke="none"/><text fill="#000000" stroke="none" font-family="Arial" font-size="13px" font-style="normal" font-weight="normal" text-decoration="none" x="39" y="213">~cart</text></g></g><g transform="translate(-10,-10) scale(1,1)"><path fill="#C0C0C0" stroke="none" d="M 422.70361328125 122.5 C 422.70361328125 116.1487248 427.85233808125 111 434.20361328125 111 C 440.55488848125 111 445.70361328125 116.1487248 445.70361328125 122.5 C 445.70361328125 128.8512752 440.55488848125 134 434.20361328125 134 C 427.85233808125 134 422.70361328125 128.8512752 422.70361328125 122.5 Z" opacity="0.2"/></g><g transform="translate(-10,-10) scale(1,1)"><path fill="#ffffff" stroke="none" d="M 415.70361328125 115.5 C 415.70361328125 109.1487248 420.85233808125 104 427.20361328125 104 C 433.55488848125 104 438.70361328125 109.1487248 438.70361328125 115.5 C 438.70361328125 121.8512752 433.55488848125 127 427.20361328125 127 C 420.85233808125 127 415.70361328125 121.8512752 415.70361328125 115.5 Z"/></g><g transform="translate(-10,-10) scale(1,1)"><path fill="none" stroke="#000000" d="M 415.70361328125 115.5 C 415.70361328125 109.1487248 420.85233808125 104 427.20361328125 104 C 433.55488848125 104 438.70361328125 109.1487248 438.70361328125 115.5 C 438.70361328125 121.8512752 433.55488848125 127 427.20361328125 127 C 420.85233808125 127 415.70361328125 121.8512752 415.70361328125 115.5 Z" stroke-miterlimit="10"/></g><g transform="translate(-10,-10) scale(1,1)"><g><path fill="none" stroke="none"/><text fill="#000000" stroke="none" font-family="Arial" font-size="13px" font-style="normal" font-weight="bold" text-decoration="none" x="398.2900390625" y="146.5">Paginable</text></g></g><g transform="translate(-10,-10) scale(1,1)"><path fill="none" stroke="#000000" d="M 273 139 L 415.70361328125 119.70682779947917" stroke-miterlimit="10"/></g><g transform="translate(-10,-10) scale(1,1)"><path fill="#C0C0C0" stroke="none" d="M 48.9072265625 45 C 48.9072265625 38.6487248 54.0559513625 33.5 60.4072265625 33.5 C 66.7585017625 33.5 71.9072265625 38.6487248 71.9072265625 45 C 71.9072265625 51.3512752 66.7585017625 56.5 60.4072265625 56.5 C 54.0559513625 56.5 48.9072265625 51.3512752 48.9072265625 45 Z" opacity="0.2"/></g><g transform="translate(-10,-10) scale(1,1)"><path fill="#ffffff" stroke="none" d="M 41.9072265625 38 C 41.9072265625 31.6487248 47.0559513625 26.5 53.4072265625 26.5 C 59.7585017625 26.5 64.9072265625 31.6487248 64.9072265625 38 C 64.9072265625 44.3512752 59.7585017625 49.5 53.4072265625 49.5 C 47.0559513625 49.5 41.9072265625 44.3512752 41.9072265625 38 Z"/></g><g transform="translate(-10,-10) scale(1,1)"><path fill="none" stroke="#000000" d="M 41.9072265625 38 C 41.9072265625 31.6487248 47.0559513625 26.5 53.4072265625 26.5 C 59.7585017625 26.5 64.9072265625 31.6487248 64.9072265625 38 C 64.9072265625 44.3512752 59.7585017625 49.5 53.4072265625 49.5 C 47.0559513625 49.5 41.9072265625 44.3512752 41.9072265625 38 Z" stroke-miterlimit="10"/></g><g transform="translate(-10,-10) scale(1,1)"><g><path fill="none" stroke="none"/><text fill="#000000" stroke="none" font-family="Arial" font-size="13px" font-style="normal" font-weight="bold" text-decoration="none" x="26.30908203125" y="69">Priceable</text></g></g><g transform="translate(-10,-10) scale(1,1)"><path fill="none" stroke="#000000" d="M 52 111 Q 52 97 52.69736842105263 49.5" stroke-miterlimit="10"/></g><g transform="translate(-10,-10) scale(1,1)"><path fill="none" stroke="#000000" d="M 139.154052734375 20 L 162.154052734375 20 L 162.154052734375 43 L 139.154052734375 43 L 139.154052734375 20 Z Z" stroke-miterlimit="10"/></g><g transform="translate(-10,-10) scale(1,1)"><path fill="none" stroke="#000000" d="M 139.154052734375 20 L 162.154052734375 43" stroke-miterlimit="10"/></g><g transform="translate(-10,-10) scale(1,1)"><path fill="none" stroke="#000000" d="M 162.154052734375 20 L 139.154052734375 43" stroke-miterlimit="10"/></g><g transform="translate(-10,-10) scale(1,1)"><g><path fill="none" stroke="none"/><text fill="#000000" stroke="none" font-family="Arial" font-size="13px" font-style="normal" font-weight="normal" text-decoration="none" x="150.654052734375" y="60.5"></text></g></g><g transform="translate(-10,-10) scale(1,1)"><g><path fill="none" stroke="none"/><text fill="#000000" stroke="none" font-family="Arial" font-size="13px" font-style="normal" font-weight="bold" text-decoration="none" x="119.58544921875" y="75.5">ReqParam</text></g></g><g transform="translate(-10,-10) scale(1,1)"><path fill="none" stroke="#000000" d="M 266.496826171875 20 L 289.496826171875 20 L 289.496826171875 43 L 266.496826171875 43 L 266.496826171875 20 Z Z" stroke-miterlimit="10"/></g><g transform="translate(-10,-10) scale(1,1)"><path fill="none" stroke="#000000" d="M 266.496826171875 20 L 289.496826171875 43" stroke-miterlimit="10"/></g><g transform="translate(-10,-10) scale(1,1)"><path fill="none" stroke="#000000" d="M 289.496826171875 20 L 266.496826171875 43" stroke-miterlimit="10"/></g><g transform="translate(-10,-10) scale(1,1)"><g><path fill="none" stroke="none"/><text fill="#000000" stroke="none" font-family="Arial" font-size="13px" font-style="normal" font-weight="normal" text-decoration="none" x="277.996826171875" y="60.5"></text></g></g><g transform="translate(-10,-10) scale(1,1)"><g><path fill="none" stroke="none"/><text fill="#000000" stroke="none" font-family="Arial" font-size="13px" font-style="normal" font-weight="bold" text-decoration="none" x="222.721435546875" y="75.5">SQLCountWrapper</text></g></g><g transform="translate(-10,-10) scale(1,1)"><path fill="none" stroke="#000000" d="M 366.470458984375 20 L 389.470458984375 20 L 389.470458984375 43 L 366.470458984375 43 L 366.470458984375 20 Z Z" stroke-miterlimit="10"/></g><g transform="translate(-10,-10) scale(1,1)"><path fill="none" stroke="#000000" d="M 366.470458984375 20 L 389.470458984375 43" stroke-miterlimit="10"/></g><g transform="translate(-10,-10) scale(1,1)"><path fill="none" stroke="#000000" d="M 389.470458984375 20 L 366.470458984375 43" stroke-miterlimit="10"/></g><g transform="translate(-10,-10) scale(1,1)"><g><path fill="none" stroke="none"/><text fill="#000000" stroke="none" font-family="Arial" font-size="13px" font-style="normal" font-weight="normal" text-decoration="none" x="377.970458984375" y="60.5"></text></g></g><g transform="translate(-10,-10) scale(1,1)"><g><path fill="none" stroke="none"/><text fill="#000000" stroke="none" font-family="Arial" font-size="13px" font-style="normal" font-weight="bold" text-decoration="none" x="368.582275390625" y="75.5">Util</text></g></g></g></svg>