<svg version="1.1" xmlns="http://www.w3.org/2000/svg" xmlns:xlink="http://www.w3.org/1999/xlink" width="390.78173828125" height="173"><defs/><g><g transform="translate(-10,-10) scale(1,1)"><path fill="none" stroke="#000000" d="M 211.832275390625 112 L 234.832275390625 112 L 234.832275390625 135 L 211.832275390625 135 L 211.832275390625 112 Z Z" stroke-miterlimit="10"/></g><g transform="translate(-10,-10) scale(1,1)"><path fill="none" stroke="#000000" d="M 211.832275390625 112 L 234.832275390625 135" stroke-miterlimit="10"/></g><g transform="translate(-10,-10) scale(1,1)"><path fill="none" stroke="#000000" d="M 234.832275390625 112 L 211.832275390625 135" stroke-miterlimit="10"/></g><g transform="translate(-10,-10) scale(1,1)"><g><path fill="none" stroke="none"/><text fill="#000000" stroke="none" font-family="Arial" font-size="13px" font-style="normal" font-weight="normal" text-decoration="none" x="223.332275390625" y="152.5"></text></g></g><g transform="translate(-10,-10) scale(1,1)"><g><path fill="none" stroke="none"/><text fill="#000000" stroke="none" font-family="Arial" font-size="13px" font-style="normal" font-weight="bold" text-decoration="none" x="180.333251953125" y="167.5">CountValidator</text></g></g><g transform="translate(-10,-10) scale(1,1)"><path fill="none" stroke="#000000" d="M 28.89453125 20 L 51.89453125 20 L 51.89453125 43 L 28.89453125 43 L 28.89453125 20 Z Z" stroke-miterlimit="10"/></g><g transform="translate(-10,-10) scale(1,1)"><path fill="none" stroke="#000000" d="M 28.89453125 20 L 51.89453125 43" stroke-miterlimit="10"/></g><g transform="translate(-10,-10) scale(1,1)"><path fill="none" stroke="#000000" d="M 51.89453125 20 L 28.89453125 43" stroke-miterlimit="10"/></g><g transform="translate(-10,-10) scale(1,1)"><g><path fill="none" stroke="none"/><text fill="#000000" stroke="none" font-family="Arial" font-size="13px" font-style="normal" font-weight="normal" text-decoration="none" x="40.39453125" y="60.5"></text></g></g><g transform="translate(-10,-10) scale(1,1)"><g><path fill="none" stroke="none"/><text fill="#000000" stroke="none" font-family="Arial" font-size="13px" font-style="normal" font-weight="bold" text-decoration="none" x="25.220458984375" y="75.5">Hash</text></g></g><g transform="translate(-10,-10) scale(1,1)"><path fill="none" stroke="#000000" d="M 116.2236328125 20 L 139.2236328125 20 L 139.2236328125 43 L 116.2236328125 43 L 116.2236328125 20 Z Z" stroke-miterlimit="10"/></g><g transform="translate(-10,-10) scale(1,1)"><path fill="none" stroke="#000000" d="M 116.2236328125 20 L 139.2236328125 43" stroke-miterlimit="10"/></g><g transform="translate(-10,-10) scale(1,1)"><path fill="none" stroke="#000000" d="M 139.2236328125 20 L 116.2236328125 43" stroke-miterlimit="10"/></g><g transform="translate(-10,-10) scale(1,1)"><g><path fill="none" stroke="none"/><text fill="#000000" stroke="none" font-family="Arial" font-size="13px" font-style="normal" font-weight="normal" text-decoration="none" x="127.7236328125" y="60.5"></text></g></g><g transform="translate(-10,-10) scale(1,1)"><g><path fill="none" stroke="none"/><text fill="#000000" stroke="none" font-family="Arial" font-size="13px" font-style="normal" font-weight="bold" text-decoration="none" x="97.004150390625" y="75.5">Pagination</text></g></g><g transform="translate(-10,-10) scale(1,1)"><path fill="none" stroke="#000000" d="M 332.515869140625 112 L 355.515869140625 112 L 355.515869140625 135 L 332.515869140625 135 L 332.515869140625 112 Z Z" stroke-miterlimit="10"/></g><g transform="translate(-10,-10) scale(1,1)"><path fill="none" stroke="#000000" d="M 332.515869140625 112 L 355.515869140625 135" stroke-miterlimit="10"/></g><g transform="translate(-10,-10) scale(1,1)"><path fill="none" stroke="#000000" d="M 355.515869140625 112 L 332.515869140625 135" stroke-miterlimit="10"/></g><g transform="translate(-10,-10) scale(1,1)"><g><path fill="none" stroke="none"/><text fill="#000000" stroke="none" font-family="Arial" font-size="13px" font-style="normal" font-weight="normal" text-decoration="none" x="344.015869140625" y="152.5"></text></g></g><g transform="translate(-10,-10) scale(1,1)"><g><path fill="none" stroke="none"/><text fill="#000000" stroke="none" font-family="Arial" font-size="13px" font-style="normal" font-weight="bold" text-decoration="none" x="304.63818359375" y="167.5">UserValidator</text></g></g><g transform="translate(-10,-10) scale(1,1)"><path fill="none" stroke="#000000" d="M 194.470458984375 20 L 217.470458984375 20 L 217.470458984375 43 L 194.470458984375 43 L 194.470458984375 20 Z Z" stroke-miterlimit="10"/></g><g transform="translate(-10,-10) scale(1,1)"><path fill="none" stroke="#000000" d="M 194.470458984375 20 L 217.470458984375 43" stroke-miterlimit="10"/></g><g transform="translate(-10,-10) scale(1,1)"><path fill="none" stroke="#000000" d="M 217.470458984375 20 L 194.470458984375 43" stroke-miterlimit="10"/></g><g transform="translate(-10,-10) scale(1,1)"><g><path fill="none" stroke="none"/><text fill="#000000" stroke="none" font-family="Arial" font-size="13px" font-style="normal" font-weight="normal" text-decoration="none" x="205.970458984375" y="60.5"></text></g></g><g transform="translate(-10,-10) scale(1,1)"><g><path fill="none" stroke="none"/><text fill="#000000" stroke="none" font-family="Arial" font-size="13px" font-style="normal" font-weight="bold" text-decoration="none" x="196.582275390625" y="75.5">Util</text></g></g><g transform="translate(-10,-10) scale(1,1)"><path fill="#C0C0C0" stroke="none" d="M 277.812255859375 45 C 277.812255859375 38.6487248 282.960980659375 33.5 289.312255859375 33.5 C 295.663531059375 33.5 300.812255859375 38.6487248 300.812255859375 45 C 300.812255859375 51.3512752 295.663531059375 56.5 289.312255859375 56.5 C 282.960980659375 56.5 277.812255859375 51.3512752 277.812255859375 45 Z" opacity="0.2"/></g><g transform="translate(-10,-10) scale(1,1)"><path fill="#ffffff" stroke="none" d="M 270.812255859375 38 C 270.812255859375 31.6487248 275.960980659375 26.5 282.312255859375 26.5 C 288.663531059375 26.5 293.812255859375 31.6487248 293.812255859375 38 C 293.812255859375 44.3512752 288.663531059375 49.5 282.312255859375 49.5 C 275.960980659375 49.5 270.812255859375 44.3512752 270.812255859375 38 Z"/></g><g transform="translate(-10,-10) scale(1,1)"><path fill="none" stroke="#000000" d="M 270.812255859375 38 C 270.812255859375 31.6487248 275.960980659375 26.5 282.312255859375 26.5 C 288.663531059375 26.5 293.812255859375 31.6487248 293.812255859375 38 C 293.812255859375 44.3512752 288.663531059375 49.5 282.312255859375 49.5 C 275.960980659375 49.5 270.812255859375 44.3512752 270.812255859375 38 Z" stroke-miterlimit="10"/></g><g transform="translate(-10,-10) scale(1,1)"><g><path fill="none" stroke="none"/><text fill="#000000" stroke="none" font-family="Arial" font-size="13px" font-style="normal" font-weight="bold" text-decoration="none" x="256.658203125" y="69">Validator</text></g></g><g transform="translate(-10,-10) scale(1,1)"><path fill="none" stroke="#000000" d="M 221 111 Q 220 97 271.7432432432432 49.5" stroke-miterlimit="10"/></g><g transform="translate(-10,-10) scale(1,1)"><path fill="none" stroke="#000000" d="M 342 111 Q 341 97 291.6842105263158 49.5" stroke-miterlimit="10"/></g></g></svg>