<svg version="1.1" xmlns="http://www.w3.org/2000/svg" xmlns:xlink="http://www.w3.org/1999/xlink" width="2827" height="1899"><defs/><g><g transform="translate(-174,-70) scale(1,1)"><rect fill="#C0C0C0" stroke="none" x="1623" y="87" width="291.1025390625" height="227" opacity="0.2"/></g><g transform="translate(-174,-70) scale(1,1)"><rect fill="#fffff8" stroke="none" x="1616" y="80" width="291.1025390625" height="227"/></g><g transform="translate(-174,-70) scale(1,1)"><path fill="none" stroke="#000000" d="M 1616 80 L 1907.1025390625 80 L 1907.1025390625 307 L 1616 307 L 1616 80 Z Z" stroke-miterlimit="10"/></g><g transform="translate(-174,-70) scale(1,1)"><path fill="none" stroke="#000000" d="M 1878.1025390625 85 L 1902.1025390625 85 L 1902.1025390625 109 L 1878.1025390625 109 L 1878.1025390625 85 Z Z" stroke-miterlimit="10"/></g><g transform="translate(-174,-70) scale(1,1)"><path fill="none" stroke="#000000" d="M 1878.1025390625 85 L 1902.1025390625 109" stroke-miterlimit="10"/></g><g transform="translate(-174,-70) scale(1,1)"><path fill="none" stroke="#000000" d="M 1902.1025390625 85 L 1878.1025390625 109" stroke-miterlimit="10"/></g><g transform="translate(-174,-70) scale(1,1)"><path fill="none" stroke="#000000" d="M 1616 133 L 1907.1025390625 133" stroke-miterlimit="10"/></g><g transform="translate(-174,-70) scale(1,1)"><path fill="none" stroke="#000000" d="M 1616 186 L 1907.1025390625 186" stroke-miterlimit="10"/></g><g transform="translate(-174,-70) scale(1,1)"><g><path fill="none" stroke="none"/><text fill="#000000" stroke="none" font-family="Arial" font-size="13px" font-style="normal" font-weight="normal" text-decoration="none" x="1749.55126953125" y="97.5"></text></g></g><g transform="translate(-174,-70) scale(1,1)"><g><path fill="none" stroke="none"/><text fill="#000000" stroke="none" font-family="Arial" font-size="13px" font-style="italic" font-weight="bold" text-decoration="none" x="1713.794921875" y="112.5">DAOFactory</text></g></g><g transform="translate(-174,-70) scale(1,1)"><g><path fill="none" stroke="none"/><text fill="#000000" stroke="none" font-family="Arial" font-size="13px" font-style="normal" font-weight="normal" text-decoration="none" x="1719.5712890625" y="127.5">(from dao)</text></g></g><g transform="translate(-174,-70) scale(1,1)"><g><path fill="none" stroke="none"/><text fill="#000000" stroke="none" font-family="Arial" font-size="13px" font-style="normal" font-weight="normal" text-decoration="none" x="1621" y="150.5">+MYSQL: int = 1 {readOnly}</text><path fill="none" stroke="#000000" d="M 1621 150.5 L 1782.14794921875 150.5" stroke-miterlimit="10"/></g></g><g transform="translate(-174,-70) scale(1,1)"><g><path fill="none" stroke="none"/><text fill="#000000" stroke="none" font-family="Arial" font-size="13px" font-style="normal" font-weight="normal" text-decoration="none" x="1621" y="165.5">+WSFACTORY: int = 2 {readOnly}</text><path fill="none" stroke="#000000" d="M 1621 165.5 L 1819.68798828125 165.5" stroke-miterlimit="10"/></g></g><g transform="translate(-174,-70) scale(1,1)"><g><path fill="none" stroke="none"/><text fill="#000000" stroke="none" font-family="Arial" font-size="13px" font-style="normal" font-weight="normal" text-decoration="none" x="1621" y="180.5">-defaultFactory: int</text><path fill="none" stroke="#000000" d="M 1621 180.5 L 1728.65625 180.5" stroke-miterlimit="10"/></g></g><g transform="translate(-174,-70) scale(1,1)"><g><path fill="none" stroke="none"/><text fill="#000000" stroke="none" font-family="Arial" font-size="13px" font-style="italic" font-weight="normal" text-decoration="none" x="1621" y="203.5">+getUserDAO(): UserDAO</text></g></g><g transform="translate(-174,-70) scale(1,1)"><g><path fill="none" stroke="none"/><text fill="#000000" stroke="none" font-family="Arial" font-size="13px" font-style="italic" font-weight="normal" text-decoration="none" x="1621" y="218.5">+getBookDAO(): BookDAO</text></g></g><g transform="translate(-174,-70) scale(1,1)"><g><path fill="none" stroke="none"/><text fill="#000000" stroke="none" font-family="Arial" font-size="13px" font-style="italic" font-weight="normal" text-decoration="none" x="1621" y="233.5">+getOrderDAO(): OrderDAO</text></g></g><g transform="translate(-174,-70) scale(1,1)"><g><path fill="none" stroke="none"/><text fill="#000000" stroke="none" font-family="Arial" font-size="13px" font-style="normal" font-weight="normal" text-decoration="none" x="1621" y="248.5">+getDAOFactory(whichFactory: int): DAOFactory</text><path fill="none" stroke="#000000" d="M 1621 248.5 L 1903.1025390625 248.5" stroke-miterlimit="10"/></g></g><g transform="translate(-174,-70) scale(1,1)"><g><path fill="none" stroke="none"/><text fill="#000000" stroke="none" font-family="Arial" font-size="13px" font-style="normal" font-weight="normal" text-decoration="none" x="1621" y="263.5">+getDAOFactory(): DAOFactory</text><path fill="none" stroke="#000000" d="M 1621 263.5 L 1805.57080078125 263.5" stroke-miterlimit="10"/></g></g><g transform="translate(-174,-70) scale(1,1)"><g><path fill="none" stroke="none"/><text fill="#000000" stroke="none" font-family="Arial" font-size="13px" font-style="normal" font-weight="normal" text-decoration="none" x="1621" y="278.5">+setDefaultFactory(whichFactory: int): void</text><path fill="none" stroke="#000000" d="M 1621 278.5 L 1867.72705078125 278.5" stroke-miterlimit="10"/></g></g><g transform="translate(-174,-70) scale(1,1)"><rect fill="#C0C0C0" stroke="none" x="927" y="1903" width="107.32080078125" height="63" opacity="0.2"/></g><g transform="translate(-174,-70) scale(1,1)"><rect fill="#fffff8" stroke="none" x="920" y="1896" width="107.32080078125" height="63"/></g><g transform="translate(-174,-70) scale(1,1)"><path fill="none" stroke="#000000" d="M 920 1896 L 1027.32080078125 1896 L 1027.32080078125 1959 L 920 1959 L 920 1896 Z Z" stroke-miterlimit="10"/></g><g transform="translate(-174,-70) scale(1,1)"><path fill="#fffff8" stroke="none" d="M 1001.32080078125 1913 C 1001.32080078125 1908.0294368 1005.35023758125 1904 1010.32080078125 1904 C 1015.29136398125 1904 1019.32080078125 1908.0294368 1019.32080078125 1913 C 1019.32080078125 1917.9705632 1015.29136398125 1922 1010.32080078125 1922 C 1005.35023758125 1922 1001.32080078125 1917.9705632 1001.32080078125 1913 Z"/></g><g transform="translate(-174,-70) scale(1,1)"><path fill="none" stroke="#000000" d="M 1001.32080078125 1913 C 1001.32080078125 1908.0294368 1005.35023758125 1904 1010.32080078125 1904 C 1015.29136398125 1904 1019.32080078125 1908.0294368 1019.32080078125 1913 C 1019.32080078125 1917.9705632 1015.29136398125 1922 1010.32080078125 1922 C 1005.35023758125 1922 1001.32080078125 1917.9705632 1001.32080078125 1913 Z" stroke-miterlimit="10"/></g><g transform="translate(-174,-70) scale(1,1)"><g><path fill="none" stroke="none"/><text fill="#000000" stroke="none" font-family="Arial" font-size="13px" font-style="normal" font-weight="normal" text-decoration="none" x="929.5" y="1913.5">«interface»</text></g></g><g transform="translate(-174,-70) scale(1,1)"><g><path fill="none" stroke="none"/><text fill="#000000" stroke="none" font-family="Arial" font-size="13px" font-style="normal" font-weight="bold" text-decoration="none" x="932.759521484375" y="1928.5">BookDAO</text></g></g><g transform="translate(-174,-70) scale(1,1)"><g><path fill="none" stroke="none"/><text fill="#000000" stroke="none" font-family="Arial" font-size="13px" font-style="normal" font-weight="normal" text-decoration="none" x="931.680419921875" y="1943.5">(from dao)</text></g></g><g transform="translate(-174,-70) scale(1,1)"><rect fill="#C0C0C0" stroke="none" x="1605" y="1903" width="107.32080078125" height="63" opacity="0.2"/></g><g transform="translate(-174,-70) scale(1,1)"><rect fill="#fffff8" stroke="none" x="1598" y="1896" width="107.32080078125" height="63"/></g><g transform="translate(-174,-70) scale(1,1)"><path fill="none" stroke="#000000" d="M 1598 1896 L 1705.32080078125 1896 L 1705.32080078125 1959 L 1598 1959 L 1598 1896 Z Z" stroke-miterlimit="10"/></g><g transform="translate(-174,-70) scale(1,1)"><path fill="#fffff8" stroke="none" d="M 1679.32080078125 1913 C 1679.32080078125 1908.0294368 1683.35023758125 1904 1688.32080078125 1904 C 1693.29136398125 1904 1697.32080078125 1908.0294368 1697.32080078125 1913 C 1697.32080078125 1917.9705632 1693.29136398125 1922 1688.32080078125 1922 C 1683.35023758125 1922 1679.32080078125 1917.9705632 1679.32080078125 1913 Z"/></g><g transform="translate(-174,-70) scale(1,1)"><path fill="none" stroke="#000000" d="M 1679.32080078125 1913 C 1679.32080078125 1908.0294368 1683.35023758125 1904 1688.32080078125 1904 C 1693.29136398125 1904 1697.32080078125 1908.0294368 1697.32080078125 1913 C 1697.32080078125 1917.9705632 1693.29136398125 1922 1688.32080078125 1922 C 1683.35023758125 1922 1679.32080078125 1917.9705632 1679.32080078125 1913 Z" stroke-miterlimit="10"/></g><g transform="translate(-174,-70) scale(1,1)"><g><path fill="none" stroke="none"/><text fill="#000000" stroke="none" font-family="Arial" font-size="13px" font-style="normal" font-weight="normal" text-decoration="none" x="1607.5" y="1913.5">«interface»</text></g></g><g transform="translate(-174,-70) scale(1,1)"><g><path fill="none" stroke="none"/><text fill="#000000" stroke="none" font-family="Arial" font-size="13px" font-style="normal" font-weight="bold" text-decoration="none" x="1608.9599609375" y="1928.5">OrderDAO</text></g></g><g transform="translate(-174,-70) scale(1,1)"><g><path fill="none" stroke="none"/><text fill="#000000" stroke="none" font-family="Arial" font-size="13px" font-style="normal" font-weight="normal" text-decoration="none" x="1609.680419921875" y="1943.5">(from dao)</text></g></g><g transform="translate(-174,-70) scale(1,1)"><rect fill="#C0C0C0" stroke="none" x="2286" y="1903" width="107.32080078125" height="63" opacity="0.2"/></g><g transform="translate(-174,-70) scale(1,1)"><rect fill="#fffff8" stroke="none" x="2279" y="1896" width="107.32080078125" height="63"/></g><g transform="translate(-174,-70) scale(1,1)"><path fill="none" stroke="#000000" d="M 2279 1896 L 2386.32080078125 1896 L 2386.32080078125 1959 L 2279 1959 L 2279 1896 Z Z" stroke-miterlimit="10"/></g><g transform="translate(-174,-70) scale(1,1)"><path fill="#fffff8" stroke="none" d="M 2360.32080078125 1913 C 2360.32080078125 1908.0294368 2364.35023758125 1904 2369.32080078125 1904 C 2374.29136398125 1904 2378.32080078125 1908.0294368 2378.32080078125 1913 C 2378.32080078125 1917.9705632 2374.29136398125 1922 2369.32080078125 1922 C 2364.35023758125 1922 2360.32080078125 1917.9705632 2360.32080078125 1913 Z"/></g><g transform="translate(-174,-70) scale(1,1)"><path fill="none" stroke="#000000" d="M 2360.32080078125 1913 C 2360.32080078125 1908.0294368 2364.35023758125 1904 2369.32080078125 1904 C 2374.29136398125 1904 2378.32080078125 1908.0294368 2378.32080078125 1913 C 2378.32080078125 1917.9705632 2374.29136398125 1922 2369.32080078125 1922 C 2364.35023758125 1922 2360.32080078125 1917.9705632 2360.32080078125 1913 Z" stroke-miterlimit="10"/></g><g transform="translate(-174,-70) scale(1,1)"><g><path fill="none" stroke="none"/><text fill="#000000" stroke="none" font-family="Arial" font-size="13px" font-style="normal" font-weight="normal" text-decoration="none" x="2288.5" y="1913.5">«interface»</text></g></g><g transform="translate(-174,-70) scale(1,1)"><g><path fill="none" stroke="none"/><text fill="#000000" stroke="none" font-family="Arial" font-size="13px" font-style="normal" font-weight="bold" text-decoration="none" x="2292.851318359375" y="1928.5">UserDAO</text></g></g><g transform="translate(-174,-70) scale(1,1)"><g><path fill="none" stroke="none"/><text fill="#000000" stroke="none" font-family="Arial" font-size="13px" font-style="normal" font-weight="normal" text-decoration="none" x="2290.680419921875" y="1943.5">(from dao)</text></g></g><g transform="translate(-174,-70) scale(1,1)"><rect fill="#C0C0C0" stroke="none" x="191" y="1191" width="815.78076171875" height="422" opacity="0.2"/></g><g transform="translate(-174,-70) scale(1,1)"><rect fill="#fffff8" stroke="none" x="184" y="1184" width="815.78076171875" height="422"/></g><g transform="translate(-174,-70) scale(1,1)"><path fill="none" stroke="#000000" d="M 184 1184 L 999.78076171875 1184 L 999.78076171875 1606 L 184 1606 L 184 1184 Z Z" stroke-miterlimit="10"/></g><g transform="translate(-174,-70) scale(1,1)"><path fill="none" stroke="#000000" d="M 970.78076171875 1189 L 994.78076171875 1189 L 994.78076171875 1213 L 970.78076171875 1213 L 970.78076171875 1189 Z Z" stroke-miterlimit="10"/></g><g transform="translate(-174,-70) scale(1,1)"><path fill="none" stroke="#000000" d="M 970.78076171875 1189 L 994.78076171875 1213" stroke-miterlimit="10"/></g><g transform="translate(-174,-70) scale(1,1)"><path fill="none" stroke="#000000" d="M 994.78076171875 1189 L 970.78076171875 1213" stroke-miterlimit="10"/></g><g transform="translate(-174,-70) scale(1,1)"><path fill="none" stroke="#000000" d="M 184 1237 L 999.78076171875 1237" stroke-miterlimit="10"/></g><g transform="translate(-174,-70) scale(1,1)"><path fill="none" stroke="#000000" d="M 184 1260 L 999.78076171875 1260" stroke-miterlimit="10"/></g><g transform="translate(-174,-70) scale(1,1)"><g><path fill="none" stroke="none"/><text fill="#000000" stroke="none" font-family="Arial" font-size="13px" font-style="normal" font-weight="normal" text-decoration="none" x="579.890380859375" y="1201.5"></text></g></g><g transform="translate(-174,-70) scale(1,1)"><g><path fill="none" stroke="none"/><text fill="#000000" stroke="none" font-family="Arial" font-size="13px" font-style="normal" font-weight="bold" text-decoration="none" x="534.015869140625" y="1216.5">MysqlBookDAO</text></g></g><g transform="translate(-174,-70) scale(1,1)"><g><path fill="none" stroke="none"/><text fill="#000000" stroke="none" font-family="Arial" font-size="13px" font-style="normal" font-weight="normal" text-decoration="none" x="543.78173828125" y="1231.5">(from mysql)</text></g></g><g transform="translate(-174,-70) scale(1,1)"><g><path fill="none" stroke="none"/><text fill="#000000" stroke="none" font-family="Arial" font-size="13px" font-style="normal" font-weight="normal" text-decoration="none" x="189" y="1254.5">-log: Logger {readOnly}</text><path fill="none" stroke="#000000" d="M 189 1254.5 L 323.42431640625 1254.5" stroke-miterlimit="10"/></g></g><g transform="translate(-174,-70) scale(1,1)"><g><path fill="none" stroke="none"/><text fill="#000000" stroke="none" font-family="Arial" font-size="13px" font-style="normal" font-weight="normal" text-decoration="none" x="189" y="1277.5">+getInstance(): BookDAO</text><path fill="none" stroke="#000000" d="M 189 1277.5 L 337.49072265625 1277.5" stroke-miterlimit="10"/></g></g><g transform="translate(-174,-70) scale(1,1)"><g><path fill="none" stroke="none"/><text fill="#000000" stroke="none" font-family="Arial" font-size="13px" font-style="normal" font-weight="normal" text-decoration="none" x="189" y="1292.5">~getConnection(): Connection</text></g></g><g transform="translate(-174,-70) scale(1,1)"><g><path fill="none" stroke="none"/><text fill="#000000" stroke="none" font-family="Arial" font-size="13px" font-style="normal" font-weight="normal" text-decoration="none" x="189" y="1307.5">~mapBook(st: PreparedStatement, item: Book): void</text></g></g><g transform="translate(-174,-70) scale(1,1)"><g><path fill="none" stroke="none"/><text fill="#000000" stroke="none" font-family="Arial" font-size="13px" font-style="normal" font-weight="normal" text-decoration="none" x="189" y="1322.5">~unmapBook(rs: ResultSet): Book</text></g></g><g transform="translate(-174,-70) scale(1,1)"><g><path fill="none" stroke="none"/><text fill="#000000" stroke="none" font-family="Arial" font-size="13px" font-style="normal" font-weight="normal" text-decoration="none" x="189" y="1337.5">~getExistedAuthors(con: Connection, auth: Author[*]): Integer[*]</text></g></g><g transform="translate(-174,-70) scale(1,1)"><g><path fill="none" stroke="none"/><text fill="#000000" stroke="none" font-family="Arial" font-size="13px" font-style="normal" font-weight="normal" text-decoration="none" x="189" y="1352.5">+addBook(item: Book): int</text></g></g><g transform="translate(-174,-70) scale(1,1)"><g><path fill="none" stroke="none"/><text fill="#000000" stroke="none" font-family="Arial" font-size="13px" font-style="normal" font-weight="normal" text-decoration="none" x="189" y="1367.5">~addBook(con: Connection, item: Book): int</text></g></g><g transform="translate(-174,-70) scale(1,1)"><g><path fill="none" stroke="none"/><text fill="#000000" stroke="none" font-family="Arial" font-size="13px" font-style="normal" font-weight="normal" text-decoration="none" x="189" y="1382.5">+listBooks(pattern: String): Book[*]</text></g></g><g transform="translate(-174,-70) scale(1,1)"><g><path fill="none" stroke="none"/><text fill="#000000" stroke="none" font-family="Arial" font-size="13px" font-style="normal" font-weight="normal" text-decoration="none" x="189" y="1397.5">+list(pattern: String, orderColumn: String, ascending: boolean, start: int, count: int, total: SQLCountWrapper): Book[*]</text></g></g><g transform="translate(-174,-70) scale(1,1)"><g><path fill="none" stroke="none"/><text fill="#000000" stroke="none" font-family="Arial" font-size="13px" font-style="normal" font-weight="normal" text-decoration="none" x="189" y="1412.5">~listBooks(con: Connection, pattern: String, orderColumn: String, ascending: boolean, start: int, count: int, total: SQLCountWrapper): Book[*]</text></g></g><g transform="translate(-174,-70) scale(1,1)"><g><path fill="none" stroke="none"/><text fill="#000000" stroke="none" font-family="Arial" font-size="13px" font-style="normal" font-weight="normal" text-decoration="none" x="189" y="1427.5">+listAuthors(): Map</text></g></g><g transform="translate(-174,-70) scale(1,1)"><g><path fill="none" stroke="none"/><text fill="#000000" stroke="none" font-family="Arial" font-size="13px" font-style="normal" font-weight="normal" text-decoration="none" x="189" y="1442.5">+listAuthors(con: Connection): Map</text></g></g><g transform="translate(-174,-70) scale(1,1)"><g><path fill="none" stroke="none"/><text fill="#000000" stroke="none" font-family="Arial" font-size="13px" font-style="normal" font-weight="normal" text-decoration="none" x="189" y="1457.5">~addAuthors(con: Connection, list: Author[*]): Integer[*]</text></g></g><g transform="translate(-174,-70) scale(1,1)"><g><path fill="none" stroke="none"/><text fill="#000000" stroke="none" font-family="Arial" font-size="13px" font-style="normal" font-weight="normal" text-decoration="none" x="189" y="1472.5">+getBook(id: int): Book</text></g></g><g transform="translate(-174,-70) scale(1,1)"><g><path fill="none" stroke="none"/><text fill="#000000" stroke="none" font-family="Arial" font-size="13px" font-style="normal" font-weight="normal" text-decoration="none" x="189" y="1487.5">+getBook(con: Connection, id: int): Book</text></g></g><g transform="translate(-174,-70) scale(1,1)"><g><path fill="none" stroke="none"/><text fill="#000000" stroke="none" font-family="Arial" font-size="13px" font-style="normal" font-weight="normal" text-decoration="none" x="189" y="1502.5">+getBooksCount(books: Book[*]): boolean</text></g></g><g transform="translate(-174,-70) scale(1,1)"><g><path fill="none" stroke="none"/><text fill="#000000" stroke="none" font-family="Arial" font-size="13px" font-style="normal" font-weight="normal" text-decoration="none" x="189" y="1517.5">~getBooksCount(con: Connection, books: Book[*]): boolean</text></g></g><g transform="translate(-174,-70) scale(1,1)"><g><path fill="none" stroke="none"/><text fill="#000000" stroke="none" font-family="Arial" font-size="13px" font-style="normal" font-weight="normal" text-decoration="none" x="189" y="1532.5">+updateBook(item: Book): void</text></g></g><g transform="translate(-174,-70) scale(1,1)"><g><path fill="none" stroke="none"/><text fill="#000000" stroke="none" font-family="Arial" font-size="13px" font-style="normal" font-weight="normal" text-decoration="none" x="189" y="1547.5">~updateBook(con: Connection, item: Book): void</text></g></g><g transform="translate(-174,-70) scale(1,1)"><g><path fill="none" stroke="none"/><text fill="#000000" stroke="none" font-family="Arial" font-size="13px" font-style="normal" font-weight="normal" text-decoration="none" x="189" y="1562.5">+getCategories(): Map</text></g></g><g transform="translate(-174,-70) scale(1,1)"><g><path fill="none" stroke="none"/><text fill="#000000" stroke="none" font-family="Arial" font-size="13px" font-style="normal" font-weight="normal" text-decoration="none" x="189" y="1577.5">~getCategories(con: Connection): Map</text></g></g><g transform="translate(-174,-70) scale(1,1)"><path fill="none" stroke="#000000" d="M 743 1607 L 950 1895" stroke-miterlimit="10" stroke-dasharray="3"/></g><g transform="translate(-174,-70) scale(1,1)"><path fill="#FFFFFF" stroke="none" d="M 931.3010069672233 1883.4091562188007 L 950 1895 L 944.9737794625236 1873.5818509878036"/></g><g transform="translate(-174,-70) scale(1,1)"><path fill="none" stroke="#000000" d="M 931.3010069672233 1883.4091562188007 L 950 1895 L 944.9737794625236 1873.5818509878036 L 931.3010069672233 1883.4091562188007" stroke-miterlimit="10"/></g><g transform="translate(-174,-70) scale(1,1)"><path fill="none" stroke="#000000" d="M 591 1606 L 591 1672 L 1104 1672 L 1104 1344 L 1000 1344" stroke-miterlimit="10"/></g><g transform="translate(-174,-70) scale(1,1)"><path fill="none" stroke="#000000" d="M 1010.1626748576241 1339.7904822439841 L 1000 1344 L 1010.1626748576241 1348.2095177560159" stroke-miterlimit="10"/></g><g transform="translate(-174,-70) scale(1,1)"><g><path fill="none" stroke="none"/><text fill="#000000" stroke="none" font-family="Arial" font-size="13px" font-style="normal" font-weight="normal" text-decoration="none" x="1039" y="1356">-dao</text></g></g><g transform="translate(-174,-70) scale(1,1)"><g><path fill="none" stroke="none"/><text fill="#000000" stroke="none" font-family="Arial" font-size="13px" font-style="normal" font-weight="normal" text-decoration="none" x="1024" y="1372">{static=true}</text></g></g><g transform="translate(-174,-70) scale(1,1)"><rect fill="#C0C0C0" stroke="none" x="1532" y="447" width="473" height="362" opacity="0.2"/></g><g transform="translate(-174,-70) scale(1,1)"><rect fill="#fffff8" stroke="none" x="1525" y="440" width="473" height="362"/></g><g transform="translate(-174,-70) scale(1,1)"><path fill="none" stroke="#000000" d="M 1525 440 L 1998 440 L 1998 802 L 1525 802 L 1525 440 Z Z" stroke-miterlimit="10"/></g><g transform="translate(-174,-70) scale(1,1)"><path fill="none" stroke="#000000" d="M 1969 445 L 1993 445 L 1993 469 L 1969 469 L 1969 445 Z Z" stroke-miterlimit="10"/></g><g transform="translate(-174,-70) scale(1,1)"><path fill="none" stroke="#000000" d="M 1969 445 L 1993 469" stroke-miterlimit="10"/></g><g transform="translate(-174,-70) scale(1,1)"><path fill="none" stroke="#000000" d="M 1993 445 L 1969 469" stroke-miterlimit="10"/></g><g transform="translate(-174,-70) scale(1,1)"><path fill="none" stroke="#000000" d="M 1525 493 L 1998 493" stroke-miterlimit="10"/></g><g transform="translate(-174,-70) scale(1,1)"><path fill="none" stroke="#000000" d="M 1525 546 L 1998 546" stroke-miterlimit="10"/></g><g transform="translate(-174,-70) scale(1,1)"><g><path fill="none" stroke="none"/><text fill="#000000" stroke="none" font-family="Arial" font-size="13px" font-style="normal" font-weight="normal" text-decoration="none" x="1749.5" y="457.5"></text></g></g><g transform="translate(-174,-70) scale(1,1)"><g><path fill="none" stroke="none"/><text fill="#000000" stroke="none" font-family="Arial" font-size="13px" font-style="normal" font-weight="bold" text-decoration="none" x="1696.77001953125" y="472.5">MysqlDAOFactory</text></g></g><g transform="translate(-174,-70) scale(1,1)"><g><path fill="none" stroke="none"/><text fill="#000000" stroke="none" font-family="Arial" font-size="13px" font-style="normal" font-weight="normal" text-decoration="none" x="1713.391357421875" y="487.5">(from mysql)</text></g></g><g transform="translate(-174,-70) scale(1,1)"><g><path fill="none" stroke="none"/><text fill="#000000" stroke="none" font-family="Arial" font-size="13px" font-style="normal" font-weight="normal" text-decoration="none" x="1530" y="510.5">-log: Logger {readOnly}</text><path fill="none" stroke="#000000" d="M 1530 510.5 L 1664.42431640625 510.5" stroke-miterlimit="10"/></g></g><g transform="translate(-174,-70) scale(1,1)"><g><path fill="none" stroke="none"/><text fill="#000000" stroke="none" font-family="Arial" font-size="13px" font-style="normal" font-weight="normal" text-decoration="none" x="1530" y="525.5">-DRIVER: String = "com.mysql.jdbc.Driver"</text><path fill="none" stroke="#000000" d="M 1530 525.5 L 1776.5302734375 525.5" stroke-miterlimit="10"/></g></g><g transform="translate(-174,-70) scale(1,1)"><g><path fill="none" stroke="none"/><text fill="#000000" stroke="none" font-family="Arial" font-size="13px" font-style="normal" font-weight="normal" text-decoration="none" x="1530" y="540.5">-DB_URL: String = "jdbc:mysql://localhost:3306/ws?user=root&amp;password=root"</text><path fill="none" stroke="#000000" d="M 1530 540.5 L 1983.248046875 540.5" stroke-miterlimit="10"/></g></g><g transform="translate(-174,-70) scale(1,1)"><g><path fill="none" stroke="none"/><text fill="#000000" stroke="none" font-family="Arial" font-size="13px" font-style="normal" font-weight="normal" text-decoration="none" x="1530" y="563.5">+getDriver(): String</text><path fill="none" stroke="#000000" d="M 1530 563.5 L 1640.169921875 563.5" stroke-miterlimit="10"/></g></g><g transform="translate(-174,-70) scale(1,1)"><g><path fill="none" stroke="none"/><text fill="#000000" stroke="none" font-family="Arial" font-size="13px" font-style="normal" font-weight="normal" text-decoration="none" x="1530" y="578.5">+setDriver(driver: String): void</text><path fill="none" stroke="#000000" d="M 1530 578.5 L 1703.01806640625 578.5" stroke-miterlimit="10"/></g></g><g transform="translate(-174,-70) scale(1,1)"><g><path fill="none" stroke="none"/><text fill="#000000" stroke="none" font-family="Arial" font-size="13px" font-style="normal" font-weight="normal" text-decoration="none" x="1530" y="593.5">+getDbUrl(): String</text><path fill="none" stroke="#000000" d="M 1530 593.5 L 1638.72900390625 593.5" stroke-miterlimit="10"/></g></g><g transform="translate(-174,-70) scale(1,1)"><g><path fill="none" stroke="none"/><text fill="#000000" stroke="none" font-family="Arial" font-size="13px" font-style="normal" font-weight="normal" text-decoration="none" x="1530" y="608.5">+setDbUrl(db_url: String): void</text><path fill="none" stroke="#000000" d="M 1530 608.5 L 1705.2080078125 608.5" stroke-miterlimit="10"/></g></g><g transform="translate(-174,-70) scale(1,1)"><g><path fill="none" stroke="none"/><text fill="#000000" stroke="none" font-family="Arial" font-size="13px" font-style="normal" font-weight="normal" text-decoration="none" x="1530" y="623.5">«constructor»+MysqlDAOFactory()</text></g></g><g transform="translate(-174,-70) scale(1,1)"><g><path fill="none" stroke="none"/><text fill="#000000" stroke="none" font-family="Arial" font-size="13px" font-style="normal" font-weight="normal" text-decoration="none" x="1530" y="638.5">~getConnection(): Connection</text><path fill="none" stroke="#000000" d="M 1530 638.5 L 1703.08154296875 638.5" stroke-miterlimit="10"/></g></g><g transform="translate(-174,-70) scale(1,1)"><g><path fill="none" stroke="none"/><text fill="#000000" stroke="none" font-family="Arial" font-size="13px" font-style="normal" font-weight="normal" text-decoration="none" x="1530" y="653.5">#getDBConnection(): Connection</text><path fill="none" stroke="#000000" d="M 1530 653.5 L 1720.77880859375 653.5" stroke-miterlimit="10"/></g></g><g transform="translate(-174,-70) scale(1,1)"><g><path fill="none" stroke="none"/><text fill="#000000" stroke="none" font-family="Arial" font-size="13px" font-style="normal" font-weight="normal" text-decoration="none" x="1530" y="668.5">+rollback(con: Connection): void</text><path fill="none" stroke="#000000" d="M 1530 668.5 L 1716.06884765625 668.5" stroke-miterlimit="10"/></g></g><g transform="translate(-174,-70) scale(1,1)"><g><path fill="none" stroke="none"/><text fill="#000000" stroke="none" font-family="Arial" font-size="13px" font-style="normal" font-weight="normal" text-decoration="none" x="1530" y="683.5">#commit(con: Connection): void</text><path fill="none" stroke="#000000" d="M 1530 683.5 L 1712.7998046875 683.5" stroke-miterlimit="10"/></g></g><g transform="translate(-174,-70) scale(1,1)"><g><path fill="none" stroke="none"/><text fill="#000000" stroke="none" font-family="Arial" font-size="13px" font-style="normal" font-weight="normal" text-decoration="none" x="1530" y="698.5">#close(con: Connection): void</text><path fill="none" stroke="#000000" d="M 1530 698.5 L 1701.259765625 698.5" stroke-miterlimit="10"/></g></g><g transform="translate(-174,-70) scale(1,1)"><g><path fill="none" stroke="none"/><text fill="#000000" stroke="none" font-family="Arial" font-size="13px" font-style="normal" font-weight="normal" text-decoration="none" x="1530" y="713.5">~closeStatement(stmt: Statement): void</text><path fill="none" stroke="#000000" d="M 1530 713.5 L 1757.95703125 713.5" stroke-miterlimit="10"/></g></g><g transform="translate(-174,-70) scale(1,1)"><g><path fill="none" stroke="none"/><text fill="#000000" stroke="none" font-family="Arial" font-size="13px" font-style="normal" font-weight="normal" text-decoration="none" x="1530" y="728.5">#commitAndClose(con: Connection): void</text><path fill="none" stroke="#000000" d="M 1530 728.5 L 1769.1669921875 728.5" stroke-miterlimit="10"/></g></g><g transform="translate(-174,-70) scale(1,1)"><g><path fill="none" stroke="none"/><text fill="#000000" stroke="none" font-family="Arial" font-size="13px" font-style="normal" font-weight="normal" text-decoration="none" x="1530" y="743.5">+getUserDAO(): UserDAO</text></g></g><g transform="translate(-174,-70) scale(1,1)"><g><path fill="none" stroke="none"/><text fill="#000000" stroke="none" font-family="Arial" font-size="13px" font-style="normal" font-weight="normal" text-decoration="none" x="1530" y="758.5">+getBookDAO(): BookDAO</text></g></g><g transform="translate(-174,-70) scale(1,1)"><g><path fill="none" stroke="none"/><text fill="#000000" stroke="none" font-family="Arial" font-size="13px" font-style="normal" font-weight="normal" text-decoration="none" x="1530" y="773.5">+getOrderDAO(): OrderDAO</text></g></g><g transform="translate(-174,-70) scale(1,1)"><path fill="none" stroke="#000000" d="M 1761 439 L 1761 308" stroke-miterlimit="10"/></g><g transform="translate(-174,-70) scale(1,1)"><path fill="#FFFFFF" stroke="none" d="M 1769.419035512032 328.3253497152483 L 1761 308 L 1752.580964487968 328.3253497152483"/></g><g transform="translate(-174,-70) scale(1,1)"><path fill="none" stroke="#000000" d="M 1769.419035512032 328.3253497152483 L 1761 308 L 1752.580964487968 328.3253497152483 L 1769.419035512032 328.3253497152483" stroke-miterlimit="10"/></g><g transform="translate(-174,-70) scale(1,1)"><rect fill="#C0C0C0" stroke="none" x="1359" y="1191" width="819.71630859375" height="377" opacity="0.2"/></g><g transform="translate(-174,-70) scale(1,1)"><rect fill="#fffff8" stroke="none" x="1352" y="1184" width="819.71630859375" height="377"/></g><g transform="translate(-174,-70) scale(1,1)"><path fill="none" stroke="#000000" d="M 1352 1184 L 2171.71630859375 1184 L 2171.71630859375 1561 L 1352 1561 L 1352 1184 Z Z" stroke-miterlimit="10"/></g><g transform="translate(-174,-70) scale(1,1)"><path fill="none" stroke="#000000" d="M 2142.71630859375 1189 L 2166.71630859375 1189 L 2166.71630859375 1213 L 2142.71630859375 1213 L 2142.71630859375 1189 Z Z" stroke-miterlimit="10"/></g><g transform="translate(-174,-70) scale(1,1)"><path fill="none" stroke="#000000" d="M 2142.71630859375 1189 L 2166.71630859375 1213" stroke-miterlimit="10"/></g><g transform="translate(-174,-70) scale(1,1)"><path fill="none" stroke="#000000" d="M 2166.71630859375 1189 L 2142.71630859375 1213" stroke-miterlimit="10"/></g><g transform="translate(-174,-70) scale(1,1)"><path fill="none" stroke="#000000" d="M 1352 1237 L 2171.71630859375 1237" stroke-miterlimit="10"/></g><g transform="translate(-174,-70) scale(1,1)"><path fill="none" stroke="#000000" d="M 1352 1260 L 2171.71630859375 1260" stroke-miterlimit="10"/></g><g transform="translate(-174,-70) scale(1,1)"><g><path fill="none" stroke="none"/><text fill="#000000" stroke="none" font-family="Arial" font-size="13px" font-style="normal" font-weight="normal" text-decoration="none" x="1749.858154296875" y="1201.5"></text></g></g><g transform="translate(-174,-70) scale(1,1)"><g><path fill="none" stroke="none"/><text fill="#000000" stroke="none" font-family="Arial" font-size="13px" font-style="normal" font-weight="bold" text-decoration="none" x="1702.18408203125" y="1216.5">MysqlOrderDAO</text></g></g><g transform="translate(-174,-70) scale(1,1)"><g><path fill="none" stroke="none"/><text fill="#000000" stroke="none" font-family="Arial" font-size="13px" font-style="normal" font-weight="normal" text-decoration="none" x="1713.74951171875" y="1231.5">(from mysql)</text></g></g><g transform="translate(-174,-70) scale(1,1)"><g><path fill="none" stroke="none"/><text fill="#000000" stroke="none" font-family="Arial" font-size="13px" font-style="normal" font-weight="normal" text-decoration="none" x="1357" y="1254.5">-log: Logger {readOnly}</text><path fill="none" stroke="#000000" d="M 1357 1254.5 L 1491.42431640625 1254.5" stroke-miterlimit="10"/></g></g><g transform="translate(-174,-70) scale(1,1)"><g><path fill="none" stroke="none"/><text fill="#000000" stroke="none" font-family="Arial" font-size="13px" font-style="normal" font-weight="normal" text-decoration="none" x="1357" y="1277.5">+getInstance(): OrderDAO</text><path fill="none" stroke="#000000" d="M 1357 1277.5 L 1509.08984375 1277.5" stroke-miterlimit="10"/></g></g><g transform="translate(-174,-70) scale(1,1)"><g><path fill="none" stroke="none"/><text fill="#000000" stroke="none" font-family="Arial" font-size="13px" font-style="normal" font-weight="normal" text-decoration="none" x="1357" y="1292.5">~getConnection(): Connection</text></g></g><g transform="translate(-174,-70) scale(1,1)"><g><path fill="none" stroke="none"/><text fill="#000000" stroke="none" font-family="Arial" font-size="13px" font-style="normal" font-weight="normal" text-decoration="none" x="1357" y="1307.5">+makeOrder(userId: Integer, items: Map, delivery: Delivery): int</text></g></g><g transform="translate(-174,-70) scale(1,1)"><g><path fill="none" stroke="none"/><text fill="#000000" stroke="none" font-family="Arial" font-size="13px" font-style="normal" font-weight="normal" text-decoration="none" x="1357" y="1322.5">~addDelivery(con: Connection, delivery: Delivery, userId: Integer): int</text></g></g><g transform="translate(-174,-70) scale(1,1)"><g><path fill="none" stroke="none"/><text fill="#000000" stroke="none" font-family="Arial" font-size="13px" font-style="normal" font-weight="normal" text-decoration="none" x="1357" y="1337.5">-addBookHasOrder(con: Connection, bookId: Integer, orderId: int, count: Integer): void</text></g></g><g transform="translate(-174,-70) scale(1,1)"><g><path fill="none" stroke="none"/><text fill="#000000" stroke="none" font-family="Arial" font-size="13px" font-style="normal" font-weight="normal" text-decoration="none" x="1357" y="1352.5">+addOrder(con: Connection, items: Map, deliveryId: int, userId: Integer): int</text></g></g><g transform="translate(-174,-70) scale(1,1)"><g><path fill="none" stroke="none"/><text fill="#000000" stroke="none" font-family="Arial" font-size="13px" font-style="normal" font-weight="normal" text-decoration="none" x="1357" y="1367.5">+list(pattern: String, orderColumn: String, ascending: boolean, start: int, count: int, total: SQLCountWrapper): Order[*]</text></g></g><g transform="translate(-174,-70) scale(1,1)"><g><path fill="none" stroke="none"/><text fill="#000000" stroke="none" font-family="Arial" font-size="13px" font-style="normal" font-weight="normal" text-decoration="none" x="1357" y="1382.5">-listOrders(con: Connection, pattern: String, orderColumn: String, ascending: boolean, start: int, count: int, total: SQLCountWrapper): Order[*]</text></g></g><g transform="translate(-174,-70) scale(1,1)"><g><path fill="none" stroke="none"/><text fill="#000000" stroke="none" font-family="Arial" font-size="13px" font-style="normal" font-weight="normal" text-decoration="none" x="1357" y="1397.5">~unmapOrder(rs: ResultSet): Order</text></g></g><g transform="translate(-174,-70) scale(1,1)"><g><path fill="none" stroke="none"/><text fill="#000000" stroke="none" font-family="Arial" font-size="13px" font-style="normal" font-weight="normal" text-decoration="none" x="1357" y="1412.5">~unmapDelivery(rs: ResultSet): Delivery</text></g></g><g transform="translate(-174,-70) scale(1,1)"><g><path fill="none" stroke="none"/><text fill="#000000" stroke="none" font-family="Arial" font-size="13px" font-style="normal" font-weight="normal" text-decoration="none" x="1357" y="1427.5">~unmapProductForOrder(rs: ResultSet): Product</text></g></g><g transform="translate(-174,-70) scale(1,1)"><g><path fill="none" stroke="none"/><text fill="#000000" stroke="none" font-family="Arial" font-size="13px" font-style="normal" font-weight="normal" text-decoration="none" x="1357" y="1442.5">+getOrders(): Order[*]</text></g></g><g transform="translate(-174,-70) scale(1,1)"><g><path fill="none" stroke="none"/><text fill="#000000" stroke="none" font-family="Arial" font-size="13px" font-style="normal" font-weight="normal" text-decoration="none" x="1357" y="1457.5">+getOrderStatus(id: int): Order</text></g></g><g transform="translate(-174,-70) scale(1,1)"><g><path fill="none" stroke="none"/><text fill="#000000" stroke="none" font-family="Arial" font-size="13px" font-style="normal" font-weight="normal" text-decoration="none" x="1357" y="1472.5">~getOrderStatus(con: Connection, id: int): Order</text></g></g><g transform="translate(-174,-70) scale(1,1)"><g><path fill="none" stroke="none"/><text fill="#000000" stroke="none" font-family="Arial" font-size="13px" font-style="normal" font-weight="normal" text-decoration="none" x="1357" y="1487.5">+updateStatus(id: int, status: OrderStatus): void</text></g></g><g transform="translate(-174,-70) scale(1,1)"><g><path fill="none" stroke="none"/><text fill="#000000" stroke="none" font-family="Arial" font-size="13px" font-style="normal" font-weight="normal" text-decoration="none" x="1357" y="1502.5">-updateOrder(con: Connection, id: int, status: OrderStatus): void</text></g></g><g transform="translate(-174,-70) scale(1,1)"><g><path fill="none" stroke="none"/><text fill="#000000" stroke="none" font-family="Arial" font-size="13px" font-style="normal" font-weight="normal" text-decoration="none" x="1357" y="1517.5">+getOrderDetal(id: int): Order</text></g></g><g transform="translate(-174,-70) scale(1,1)"><g><path fill="none" stroke="none"/><text fill="#000000" stroke="none" font-family="Arial" font-size="13px" font-style="normal" font-weight="normal" text-decoration="none" x="1357" y="1532.5">~getOrderDetal(con: Connection, id: int): Order</text></g></g><g transform="translate(-174,-70) scale(1,1)"><path fill="none" stroke="#000000" d="M 1723 1562 L 1657 1895" stroke-miterlimit="10" stroke-dasharray="3"/></g><g transform="translate(-174,-70) scale(1,1)"><path fill="#FFFFFF" stroke="none" d="M 1652.6931885822448 1873.425677869006 L 1657 1895 L 1669.2099739195426 1876.6992749628848"/></g><g transform="translate(-174,-70) scale(1,1)"><path fill="none" stroke="#000000" d="M 1652.6931885822448 1873.425677869006 L 1657 1895 L 1669.2099739195426 1876.6992749628848 L 1652.6931885822448 1873.425677869006" stroke-miterlimit="10"/></g><g transform="translate(-174,-70) scale(1,1)"><path fill="none" stroke="#000000" d="M 1761 1561 L 1761 1624 L 2256 1624 L 2256 1388 L 2172 1388" stroke-miterlimit="10"/></g><g transform="translate(-174,-70) scale(1,1)"><path fill="none" stroke="#000000" d="M 2182.162674857624 1383.7904822439841 L 2172 1388 L 2182.162674857624 1392.2095177560159" stroke-miterlimit="10"/></g><g transform="translate(-174,-70) scale(1,1)"><g><path fill="none" stroke="none"/><text fill="#000000" stroke="none" font-family="Arial" font-size="13px" font-style="normal" font-weight="normal" text-decoration="none" x="2184" y="1409">-dao</text></g></g><g transform="translate(-174,-70) scale(1,1)"><g><path fill="none" stroke="none"/><text fill="#000000" stroke="none" font-family="Arial" font-size="13px" font-style="normal" font-weight="normal" text-decoration="none" x="2166" y="1423">{static=true}</text></g></g><g transform="translate(-174,-70) scale(1,1)"><rect fill="#C0C0C0" stroke="none" x="2551" y="1191" width="328" height="227" opacity="0.2"/></g><g transform="translate(-174,-70) scale(1,1)"><rect fill="#fffff8" stroke="none" x="2544" y="1184" width="328" height="227"/></g><g transform="translate(-174,-70) scale(1,1)"><path fill="none" stroke="#000000" d="M 2544 1184 L 2872 1184 L 2872 1411 L 2544 1411 L 2544 1184 Z Z" stroke-miterlimit="10"/></g><g transform="translate(-174,-70) scale(1,1)"><path fill="none" stroke="#000000" d="M 2843 1189 L 2867 1189 L 2867 1213 L 2843 1213 L 2843 1189 Z Z" stroke-miterlimit="10"/></g><g transform="translate(-174,-70) scale(1,1)"><path fill="none" stroke="#000000" d="M 2843 1189 L 2867 1213" stroke-miterlimit="10"/></g><g transform="translate(-174,-70) scale(1,1)"><path fill="none" stroke="#000000" d="M 2867 1189 L 2843 1213" stroke-miterlimit="10"/></g><g transform="translate(-174,-70) scale(1,1)"><path fill="none" stroke="#000000" d="M 2544 1237 L 2872 1237" stroke-miterlimit="10"/></g><g transform="translate(-174,-70) scale(1,1)"><path fill="none" stroke="#000000" d="M 2544 1260 L 2872 1260" stroke-miterlimit="10"/></g><g transform="translate(-174,-70) scale(1,1)"><g><path fill="none" stroke="none"/><text fill="#000000" stroke="none" font-family="Arial" font-size="13px" font-style="normal" font-weight="normal" text-decoration="none" x="2628.076904296875" y="1201.5">«ImplementationClass»</text></g></g><g transform="translate(-174,-70) scale(1,1)"><g><path fill="none" stroke="none"/><text fill="#000000" stroke="none" font-family="Arial" font-size="13px" font-style="normal" font-weight="bold" text-decoration="none" x="2651.21728515625" y="1216.5">MysqlUserDAO</text></g></g><g transform="translate(-174,-70) scale(1,1)"><g><path fill="none" stroke="none"/><text fill="#000000" stroke="none" font-family="Arial" font-size="13px" font-style="normal" font-weight="normal" text-decoration="none" x="2659.891357421875" y="1231.5">(from mysql)</text></g></g><g transform="translate(-174,-70) scale(1,1)"><g><path fill="none" stroke="none"/><text fill="#000000" stroke="none" font-family="Arial" font-size="13px" font-style="normal" font-weight="normal" text-decoration="none" x="2549" y="1254.5">-log: Logger {readOnly}</text><path fill="none" stroke="#000000" d="M 2549 1254.5 L 2683.42431640625 1254.5" stroke-miterlimit="10"/></g></g><g transform="translate(-174,-70) scale(1,1)"><g><path fill="none" stroke="none"/><text fill="#000000" stroke="none" font-family="Arial" font-size="13px" font-style="normal" font-weight="normal" text-decoration="none" x="2549" y="1277.5">+getInstance(): UserDAO</text><path fill="none" stroke="#000000" d="M 2549 1277.5 L 2695.30712890625 1277.5" stroke-miterlimit="10"/></g></g><g transform="translate(-174,-70) scale(1,1)"><g><path fill="none" stroke="none"/><text fill="#000000" stroke="none" font-family="Arial" font-size="13px" font-style="normal" font-weight="normal" text-decoration="none" x="2549" y="1292.5">+getUser(login: String): User</text></g></g><g transform="translate(-174,-70) scale(1,1)"><g><path fill="none" stroke="none"/><text fill="#000000" stroke="none" font-family="Arial" font-size="13px" font-style="normal" font-weight="normal" text-decoration="none" x="2549" y="1307.5">~getUser(con: Connection, login: String): User</text></g></g><g transform="translate(-174,-70) scale(1,1)"><g><path fill="none" stroke="none"/><text fill="#000000" stroke="none" font-family="Arial" font-size="13px" font-style="normal" font-weight="normal" text-decoration="none" x="2549" y="1322.5">~unmapUser(rs: ResultSet): User</text></g></g><g transform="translate(-174,-70) scale(1,1)"><g><path fill="none" stroke="none"/><text fill="#000000" stroke="none" font-family="Arial" font-size="13px" font-style="normal" font-weight="normal" text-decoration="none" x="2549" y="1337.5">+updateUser(user: User): void</text></g></g><g transform="translate(-174,-70) scale(1,1)"><g><path fill="none" stroke="none"/><text fill="#000000" stroke="none" font-family="Arial" font-size="13px" font-style="normal" font-weight="normal" text-decoration="none" x="2549" y="1352.5">+updateUser(con: Connection, user: User): int</text></g></g><g transform="translate(-174,-70) scale(1,1)"><g><path fill="none" stroke="none"/><text fill="#000000" stroke="none" font-family="Arial" font-size="13px" font-style="normal" font-weight="normal" text-decoration="none" x="2549" y="1367.5">+addUser(user: User): int</text></g></g><g transform="translate(-174,-70) scale(1,1)"><g><path fill="none" stroke="none"/><text fill="#000000" stroke="none" font-family="Arial" font-size="13px" font-style="normal" font-weight="normal" text-decoration="none" x="2549" y="1382.5">+addUser(con: Connection, user: User): int</text></g></g><g transform="translate(-174,-70) scale(1,1)"><path fill="none" stroke="#000000" d="M 2639 1412 L 2351 1895" stroke-miterlimit="10" stroke-dasharray="3"/></g><g transform="translate(-174,-70) scale(1,1)"><path fill="#FFFFFF" stroke="none" d="M 2354.1783041627396 1873.2307927877675 L 2351 1895 L 2368.640554466971 1881.8542463853219"/></g><g transform="translate(-174,-70) scale(1,1)"><path fill="none" stroke="#000000" d="M 2354.1783041627396 1873.2307927877675 L 2351 1895 L 2368.640554466971 1881.8542463853219 L 2354.1783041627396 1873.2307927877675" stroke-miterlimit="10"/></g><g transform="translate(-174,-70) scale(1,1)"><path fill="none" stroke="#000000" d="M 2752 1411 L 2752 1472 L 2990 1472 L 2990 1297 L 2872 1297" stroke-miterlimit="10"/></g><g transform="translate(-174,-70) scale(1,1)"><path fill="none" stroke="#000000" d="M 2882.162674857624 1292.7904822439841 L 2872 1297 L 2882.162674857624 1301.2095177560159" stroke-miterlimit="10"/></g><g transform="translate(-174,-70) scale(1,1)"><g><path fill="none" stroke="none"/><text fill="#000000" stroke="none" font-family="Arial" font-size="13px" font-style="normal" font-weight="normal" text-decoration="none" x="2884" y="1318">-dao</text></g></g><g transform="translate(-174,-70) scale(1,1)"><g><path fill="none" stroke="none"/><text fill="#000000" stroke="none" font-family="Arial" font-size="13px" font-style="normal" font-weight="normal" text-decoration="none" x="2866" y="1332">{static=true}</text></g></g><g transform="translate(-174,-70) scale(1,1)"><path fill="none" stroke="#000000" d="M 1524 778 L 911 1183" stroke-miterlimit="10" stroke-dasharray="3"/></g><g transform="translate(-174,-70) scale(1,1)"><path fill="none" stroke="#000000" d="M 917.1587361653401 1173.8857271905142 L 911 1183 L 921.7996482152224 1180.9101199968793" stroke-miterlimit="10"/></g><g transform="translate(-174,-70) scale(1,1)"><g><path fill="none" stroke="none"/><text fill="#000000" stroke="none" font-family="Arial" font-size="13px" font-style="normal" font-weight="normal" text-decoration="none" x="1229" y="1002">+creates</text></g></g><g transform="translate(-174,-70) scale(1,1)"><path fill="none" stroke="#000000" d="M 1761 803 L 1761 1183" stroke-miterlimit="10" stroke-dasharray="3"/></g><g transform="translate(-174,-70) scale(1,1)"><path fill="none" stroke="#000000" d="M 1756.7904822439841 1172.837325142376 L 1761 1183 L 1765.2095177560159 1172.837325142376" stroke-miterlimit="10"/></g><g transform="translate(-174,-70) scale(1,1)"><g><path fill="none" stroke="none"/><text fill="#000000" stroke="none" font-family="Arial" font-size="13px" font-style="normal" font-weight="normal" text-decoration="none" x="1768" y="999">+creates</text></g></g><g transform="translate(-174,-70) scale(1,1)"><path fill="none" stroke="#000000" d="M 1999 791 L 2548 1183" stroke-miterlimit="10" stroke-dasharray="3"/></g><g transform="translate(-174,-70) scale(1,1)"><path fill="none" stroke="#000000" d="M 2537.2831313483052 1180.520337462007 L 2548 1183 L 2542.17541569897 1173.6686433076322" stroke-miterlimit="10"/></g><g transform="translate(-174,-70) scale(1,1)"><g><path fill="none" stroke="none"/><text fill="#000000" stroke="none" font-family="Arial" font-size="13px" font-style="normal" font-weight="normal" text-decoration="none" x="2307" y="982">+creates</text></g></g></g></svg>