<svg version="1.1" xmlns="http://www.w3.org/2000/svg" xmlns:xlink="http://www.w3.org/1999/xlink" width="5758.2890625" height="81"><defs/><g><g transform="translate(-10,-10) scale(1,1)"><rect fill="#C0C0C0" stroke="none" x="27" y="38" width="19.6" height="15" opacity="0.2"/></g><g transform="translate(-10,-10) scale(1,1)"><rect fill="#C0C0C0" stroke="none" x="27" y="52" width="49" height="25" opacity="0.2"/></g><g transform="translate(-10,-10) scale(1,1)"><rect fill="#ffffff" stroke="none" x="20" y="46" width="49" height="24"/></g><g transform="translate(-10,-10) scale(1,1)"><path fill="none" stroke="#000000" d="M 20 46 L 69 46 L 69 70 L 20 70 L 20 46 Z Z" stroke-miterlimit="10"/></g><g transform="translate(-10,-10) scale(1,1)"><rect fill="#ffffff" stroke="none" x="20" y="31" width="19.6" height="15"/></g><g transform="translate(-10,-10) scale(1,1)"><path fill="none" stroke="#000000" d="M 20 31 L 39.6 31 L 39.6 46 L 20 46 L 20 31 Z Z" stroke-miterlimit="10"/></g><g transform="translate(-10,-10) scale(1,1)"><rect fill="#ffffff" stroke="none" x="20" y="45" width="49" height="25"/></g><g transform="translate(-10,-10) scale(1,1)"><path fill="none" stroke="#000000" d="M 20 45 L 69 45 L 69 70 L 20 70 L 20 45 Z Z" stroke-miterlimit="10"/></g><g transform="translate(-10,-10) scale(1,1)"><g><path fill="none" stroke="none"/><text fill="#000000" stroke="none" font-family="Arial" font-size="13px" font-style="normal" font-weight="bold" text-decoration="none" x="37.27001953125" y="65.5">ua</text></g></g><g transform="translate(-10,-10) scale(1,1)"><path fill="none" stroke="#000000" d="M 124.0654296875 20 L 147.0654296875 20 L 147.0654296875 43 L 124.0654296875 43 L 124.0654296875 20 Z Z" stroke-miterlimit="10"/></g><g transform="translate(-10,-10) scale(1,1)"><path fill="none" stroke="#000000" d="M 124.0654296875 20 L 147.0654296875 43" stroke-miterlimit="10"/></g><g transform="translate(-10,-10) scale(1,1)"><path fill="none" stroke="#000000" d="M 147.0654296875 20 L 124.0654296875 43" stroke-miterlimit="10"/></g><g transform="translate(-10,-10) scale(1,1)"><g><path fill="none" stroke="none"/><text fill="#000000" stroke="none" font-family="Arial" font-size="13px" font-style="normal" font-weight="normal" text-decoration="none" x="135.5654296875" y="60.5"></text></g></g><g transform="translate(-10,-10) scale(1,1)"><g><path fill="none" stroke="none"/><text fill="#000000" stroke="none" font-family="Arial" font-size="13px" font-style="normal" font-weight="bold" text-decoration="none" x="106.29638671875" y="75.5">Hashtable</text></g></g><g transform="translate(-10,-10) scale(1,1)"><path fill="none" stroke="#000000" d="M 225.674072265625 20 L 248.674072265625 20 L 248.674072265625 43 L 225.674072265625 43 L 225.674072265625 20 Z Z" stroke-miterlimit="10"/></g><g transform="translate(-10,-10) scale(1,1)"><path fill="none" stroke="#000000" d="M 225.674072265625 20 L 248.674072265625 43" stroke-miterlimit="10"/></g><g transform="translate(-10,-10) scale(1,1)"><path fill="none" stroke="#000000" d="M 248.674072265625 20 L 225.674072265625 43" stroke-miterlimit="10"/></g><g transform="translate(-10,-10) scale(1,1)"><g><path fill="none" stroke="none"/><text fill="#000000" stroke="none" font-family="Arial" font-size="13px" font-style="normal" font-weight="normal" text-decoration="none" x="237.174072265625" y="60.5"></text></g></g><g transform="translate(-10,-10) scale(1,1)"><g><path fill="none" stroke="none"/><text fill="#000000" stroke="none" font-family="Arial" font-size="13px" font-style="normal" font-weight="bold" text-decoration="none" x="205.023193359375" y="75.5">HttpServlet</text></g></g><g transform="translate(-10,-10) scale(1,1)"><path fill="#C0C0C0" stroke="none" d="M 333.70361328125 45 C 333.70361328125 38.6487248 338.85233808125 33.5 345.20361328125 33.5 C 351.55488848125 33.5 356.70361328125 38.6487248 356.70361328125 45 C 356.70361328125 51.3512752 351.55488848125 56.5 345.20361328125 56.5 C 338.85233808125 56.5 333.70361328125 51.3512752 333.70361328125 45 Z" opacity="0.2"/></g><g transform="translate(-10,-10) scale(1,1)"><path fill="#ffffff" stroke="none" d="M 326.70361328125 38 C 326.70361328125 31.6487248 331.85233808125 26.5 338.20361328125 26.5 C 344.55488848125 26.5 349.70361328125 31.6487248 349.70361328125 38 C 349.70361328125 44.3512752 344.55488848125 49.5 338.20361328125 49.5 C 331.85233808125 49.5 326.70361328125 44.3512752 326.70361328125 38 Z"/></g><g transform="translate(-10,-10) scale(1,1)"><path fill="none" stroke="#000000" d="M 326.70361328125 38 C 326.70361328125 31.6487248 331.85233808125 26.5 338.20361328125 26.5 C 344.55488848125 26.5 349.70361328125 31.6487248 349.70361328125 38 C 349.70361328125 44.3512752 344.55488848125 49.5 338.20361328125 49.5 C 331.85233808125 49.5 326.70361328125 44.3512752 326.70361328125 38 Z" stroke-miterlimit="10"/></g><g transform="translate(-10,-10) scale(1,1)"><g><path fill="none" stroke="none"/><text fill="#000000" stroke="none" font-family="Arial" font-size="13px" font-style="normal" font-weight="bold" text-decoration="none" x="309.2900390625" y="69">Paginable</text></g></g><g transform="translate(-10,-10) scale(1,1)"><path fill="none" stroke="#000000" d="M 424.062255859375 20 L 447.062255859375 20 L 447.062255859375 43 L 424.062255859375 43 L 424.062255859375 20 Z Z" stroke-miterlimit="10"/></g><g transform="translate(-10,-10) scale(1,1)"><path fill="none" stroke="#000000" d="M 424.062255859375 20 L 447.062255859375 43" stroke-miterlimit="10"/></g><g transform="translate(-10,-10) scale(1,1)"><path fill="none" stroke="#000000" d="M 447.062255859375 20 L 424.062255859375 43" stroke-miterlimit="10"/></g><g transform="translate(-10,-10) scale(1,1)"><g><path fill="none" stroke="none"/><text fill="#000000" stroke="none" font-family="Arial" font-size="13px" font-style="normal" font-weight="normal" text-decoration="none" x="435.562255859375" y="60.5"></text></g></g><g transform="translate(-10,-10) scale(1,1)"><g><path fill="none" stroke="none"/><text fill="#000000" stroke="none" font-family="Arial" font-size="13px" font-style="normal" font-weight="bold" text-decoration="none" x="407.016845703125" y="75.5">Exception</text></g></g><g transform="translate(-10,-10) scale(1,1)"><path fill="#C0C0C0" stroke="none" d="M 533.76904296875 45 C 533.76904296875 38.6487248 538.91776776875 33.5 545.26904296875 33.5 C 551.62031816875 33.5 556.76904296875 38.6487248 556.76904296875 45 C 556.76904296875 51.3512752 551.62031816875 56.5 545.26904296875 56.5 C 538.91776776875 56.5 533.76904296875 51.3512752 533.76904296875 45 Z" opacity="0.2"/></g><g transform="translate(-10,-10) scale(1,1)"><path fill="#ffffff" stroke="none" d="M 526.76904296875 38 C 526.76904296875 31.6487248 531.91776776875 26.5 538.26904296875 26.5 C 544.62031816875 26.5 549.76904296875 31.6487248 549.76904296875 38 C 549.76904296875 44.3512752 544.62031816875 49.5 538.26904296875 49.5 C 531.91776776875 49.5 526.76904296875 44.3512752 526.76904296875 38 Z"/></g><g transform="translate(-10,-10) scale(1,1)"><path fill="none" stroke="#000000" d="M 526.76904296875 38 C 526.76904296875 31.6487248 531.91776776875 26.5 538.26904296875 26.5 C 544.62031816875 26.5 549.76904296875 31.6487248 549.76904296875 38 C 549.76904296875 44.3512752 544.62031816875 49.5 538.26904296875 49.5 C 531.91776776875 49.5 526.76904296875 44.3512752 526.76904296875 38 Z" stroke-miterlimit="10"/></g><g transform="translate(-10,-10) scale(1,1)"><g><path fill="none" stroke="none"/><text fill="#000000" stroke="none" font-family="Arial" font-size="13px" font-style="normal" font-weight="bold" text-decoration="none" x="504.667724609375" y="69">Serializable</text></g></g><g transform="translate(-10,-10) scale(1,1)"><path fill="#C0C0C0" stroke="none" d="M 633.9072265625 45 C 633.9072265625 38.6487248 639.0559513625 33.5 645.4072265625 33.5 C 651.7585017625 33.5 656.9072265625 38.6487248 656.9072265625 45 C 656.9072265625 51.3512752 651.7585017625 56.5 645.4072265625 56.5 C 639.0559513625 56.5 633.9072265625 51.3512752 633.9072265625 45 Z" opacity="0.2"/></g><g transform="translate(-10,-10) scale(1,1)"><path fill="#ffffff" stroke="none" d="M 626.9072265625 38 C 626.9072265625 31.6487248 632.0559513625 26.5 638.4072265625 26.5 C 644.7585017625 26.5 649.9072265625 31.6487248 649.9072265625 38 C 649.9072265625 44.3512752 644.7585017625 49.5 638.4072265625 49.5 C 632.0559513625 49.5 626.9072265625 44.3512752 626.9072265625 38 Z"/></g><g transform="translate(-10,-10) scale(1,1)"><path fill="none" stroke="#000000" d="M 626.9072265625 38 C 626.9072265625 31.6487248 632.0559513625 26.5 638.4072265625 26.5 C 644.7585017625 26.5 649.9072265625 31.6487248 649.9072265625 38 C 649.9072265625 44.3512752 644.7585017625 49.5 638.4072265625 49.5 C 632.0559513625 49.5 626.9072265625 44.3512752 626.9072265625 38 Z" stroke-miterlimit="10"/></g><g transform="translate(-10,-10) scale(1,1)"><g><path fill="none" stroke="none"/><text fill="#000000" stroke="none" font-family="Arial" font-size="13px" font-style="normal" font-weight="bold" text-decoration="none" x="611.30908203125" y="69">Priceable</text></g></g><g transform="translate(-10,-10) scale(1,1)"><path fill="#C0C0C0" stroke="none" d="M 714.891357421875 45 C 714.891357421875 38.6487248 720.040082221875 33.5 726.391357421875 33.5 C 732.742632621875 33.5 737.891357421875 38.6487248 737.891357421875 45 C 737.891357421875 51.3512752 732.742632621875 56.5 726.391357421875 56.5 C 720.040082221875 56.5 714.891357421875 51.3512752 714.891357421875 45 Z" opacity="0.2"/></g><g transform="translate(-10,-10) scale(1,1)"><path fill="#ffffff" stroke="none" d="M 707.891357421875 38 C 707.891357421875 31.6487248 713.040082221875 26.5 719.391357421875 26.5 C 725.742632621875 26.5 730.891357421875 31.6487248 730.891357421875 38 C 730.891357421875 44.3512752 725.742632621875 49.5 719.391357421875 49.5 C 713.040082221875 49.5 707.891357421875 44.3512752 707.891357421875 38 Z"/></g><g transform="translate(-10,-10) scale(1,1)"><path fill="none" stroke="#000000" d="M 707.891357421875 38 C 707.891357421875 31.6487248 713.040082221875 26.5 719.391357421875 26.5 C 725.742632621875 26.5 730.891357421875 31.6487248 730.891357421875 38 C 730.891357421875 44.3512752 725.742632621875 49.5 719.391357421875 49.5 C 713.040082221875 49.5 707.891357421875 44.3512752 707.891357421875 38 Z" stroke-miterlimit="10"/></g><g transform="translate(-10,-10) scale(1,1)"><g><path fill="none" stroke="none"/><text fill="#000000" stroke="none" font-family="Arial" font-size="13px" font-style="normal" font-weight="bold" text-decoration="none" x="704.947265625" y="69">Filter</text></g></g><g transform="translate(-10,-10) scale(1,1)"><path fill="#C0C0C0" stroke="none" d="M 839.160400390625 45 C 839.160400390625 38.6487248 844.309125190625 33.5 850.660400390625 33.5 C 857.011675590625 33.5 862.160400390625 38.6487248 862.160400390625 45 C 862.160400390625 51.3512752 857.011675590625 56.5 850.660400390625 56.5 C 844.309125190625 56.5 839.160400390625 51.3512752 839.160400390625 45 Z" opacity="0.2"/></g><g transform="translate(-10,-10) scale(1,1)"><path fill="#ffffff" stroke="none" d="M 832.160400390625 38 C 832.160400390625 31.6487248 837.309125190625 26.5 843.660400390625 26.5 C 850.011675590625 26.5 855.160400390625 31.6487248 855.160400390625 38 C 855.160400390625 44.3512752 850.011675590625 49.5 843.660400390625 49.5 C 837.309125190625 49.5 832.160400390625 44.3512752 832.160400390625 38 Z"/></g><g transform="translate(-10,-10) scale(1,1)"><path fill="none" stroke="#000000" d="M 832.160400390625 38 C 832.160400390625 31.6487248 837.309125190625 26.5 843.660400390625 26.5 C 850.011675590625 26.5 855.160400390625 31.6487248 855.160400390625 38 C 855.160400390625 44.3512752 850.011675590625 49.5 843.660400390625 49.5 C 837.309125190625 49.5 832.160400390625 44.3512752 832.160400390625 38 Z" stroke-miterlimit="10"/></g><g transform="translate(-10,-10) scale(1,1)"><g><path fill="none" stroke="none"/><text fill="#000000" stroke="none" font-family="Arial" font-size="13px" font-style="normal" font-weight="bold" text-decoration="none" x="777.905029296875" y="69">ServletContextListener</text></g></g><g transform="translate(-10,-10) scale(1,1)"><path fill="#C0C0C0" stroke="none" d="M 1030.285888671875 45 C 1030.285888671875 38.6487248 1035.434613471875 33.5 1041.785888671875 33.5 C 1048.137163871875 33.5 1053.285888671875 38.6487248 1053.285888671875 45 C 1053.285888671875 51.3512752 1048.137163871875 56.5 1041.785888671875 56.5 C 1035.434613471875 56.5 1030.285888671875 51.3512752 1030.285888671875 45 Z" opacity="0.2"/></g><g transform="translate(-10,-10) scale(1,1)"><path fill="#ffffff" stroke="none" d="M 1023.285888671875 38 C 1023.285888671875 31.6487248 1028.434613471875 26.5 1034.785888671875 26.5 C 1041.137163871875 26.5 1046.285888671875 31.6487248 1046.285888671875 38 C 1046.285888671875 44.3512752 1041.137163871875 49.5 1034.785888671875 49.5 C 1028.434613471875 49.5 1023.285888671875 44.3512752 1023.285888671875 38 Z"/></g><g transform="translate(-10,-10) scale(1,1)"><path fill="none" stroke="#000000" d="M 1023.285888671875 38 C 1023.285888671875 31.6487248 1028.434613471875 26.5 1034.785888671875 26.5 C 1041.137163871875 26.5 1046.285888671875 31.6487248 1046.285888671875 38 C 1046.285888671875 44.3512752 1041.137163871875 49.5 1034.785888671875 49.5 C 1028.434613471875 49.5 1023.285888671875 44.3512752 1023.285888671875 38 Z" stroke-miterlimit="10"/></g><g transform="translate(-10,-10) scale(1,1)"><g><path fill="none" stroke="none"/><text fill="#000000" stroke="none" font-family="Arial" font-size="13px" font-style="normal" font-weight="bold" text-decoration="none" x="952.4091796875" y="69">HttpSessionAttributeListener</text></g></g><g transform="translate(-10,-10) scale(1,1)"><path fill="#C0C0C0" stroke="none" d="M 1209.206787109375 45 C 1209.206787109375 38.6487248 1214.355511909375 33.5 1220.706787109375 33.5 C 1227.058062309375 33.5 1232.206787109375 38.6487248 1232.206787109375 45 C 1232.206787109375 51.3512752 1227.058062309375 56.5 1220.706787109375 56.5 C 1214.355511909375 56.5 1209.206787109375 51.3512752 1209.206787109375 45 Z" opacity="0.2"/></g><g transform="translate(-10,-10) scale(1,1)"><path fill="#ffffff" stroke="none" d="M 1202.206787109375 38 C 1202.206787109375 31.6487248 1207.355511909375 26.5 1213.706787109375 26.5 C 1220.058062309375 26.5 1225.206787109375 31.6487248 1225.206787109375 38 C 1225.206787109375 44.3512752 1220.058062309375 49.5 1213.706787109375 49.5 C 1207.355511909375 49.5 1202.206787109375 44.3512752 1202.206787109375 38 Z"/></g><g transform="translate(-10,-10) scale(1,1)"><path fill="none" stroke="#000000" d="M 1202.206787109375 38 C 1202.206787109375 31.6487248 1207.355511909375 26.5 1213.706787109375 26.5 C 1220.058062309375 26.5 1225.206787109375 31.6487248 1225.206787109375 38 C 1225.206787109375 44.3512752 1220.058062309375 49.5 1213.706787109375 49.5 C 1207.355511909375 49.5 1202.206787109375 44.3512752 1202.206787109375 38 Z" stroke-miterlimit="10"/></g><g transform="translate(-10,-10) scale(1,1)"><g><path fill="none" stroke="none"/><text fill="#000000" stroke="none" font-family="Arial" font-size="13px" font-style="normal" font-weight="bold" text-decoration="none" x="1155.536865234375" y="69">HttpSessionListener</text></g></g><g transform="translate(-10,-10) scale(1,1)"><path fill="none" stroke="#000000" d="M 1341.50634765625 20 L 1364.50634765625 20 L 1364.50634765625 43 L 1341.50634765625 43 L 1341.50634765625 20 Z Z" stroke-miterlimit="10"/></g><g transform="translate(-10,-10) scale(1,1)"><path fill="none" stroke="#000000" d="M 1341.50634765625 20 L 1364.50634765625 43" stroke-miterlimit="10"/></g><g transform="translate(-10,-10) scale(1,1)"><path fill="none" stroke="#000000" d="M 1364.50634765625 20 L 1341.50634765625 43" stroke-miterlimit="10"/></g><g transform="translate(-10,-10) scale(1,1)"><g><path fill="none" stroke="none"/><text fill="#000000" stroke="none" font-family="Arial" font-size="13px" font-style="normal" font-weight="normal" text-decoration="none" x="1353.00634765625" y="60.5"></text></g></g><g transform="translate(-10,-10) scale(1,1)"><g><path fill="none" stroke="none"/><text fill="#000000" stroke="none" font-family="Arial" font-size="13px" font-style="normal" font-weight="bold" text-decoration="none" x="1310.37548828125" y="75.5">DAOException</text></g></g><g transform="translate(-10,-10) scale(1,1)"><path fill="none" stroke="#000000" d="M 1474.74267578125 20 L 1497.74267578125 20 L 1497.74267578125 43 L 1474.74267578125 43 L 1474.74267578125 20 Z Z" stroke-miterlimit="10"/></g><g transform="translate(-10,-10) scale(1,1)"><path fill="none" stroke="#000000" d="M 1474.74267578125 20 L 1497.74267578125 43" stroke-miterlimit="10"/></g><g transform="translate(-10,-10) scale(1,1)"><path fill="none" stroke="#000000" d="M 1497.74267578125 20 L 1474.74267578125 43" stroke-miterlimit="10"/></g><g transform="translate(-10,-10) scale(1,1)"><g><path fill="none" stroke="none"/><text fill="#000000" stroke="none" font-family="Arial" font-size="13px" font-style="normal" font-weight="normal" text-decoration="none" x="1486.24267578125" y="60.5"></text></g></g><g transform="translate(-10,-10) scale(1,1)"><g><path fill="none" stroke="none"/><text fill="#000000" stroke="none" font-family="Arial" font-size="13px" font-style="normal" font-weight="bold" text-decoration="none" x="1437.46728515625" y="75.5">ServletException</text></g></g><g transform="translate(-10,-10) scale(1,1)"><path fill="none" stroke="#000000" d="M 1598.924072265625 20 L 1621.924072265625 20 L 1621.924072265625 43 L 1598.924072265625 43 L 1598.924072265625 20 Z Z" stroke-miterlimit="10"/></g><g transform="translate(-10,-10) scale(1,1)"><path fill="none" stroke="#000000" d="M 1598.924072265625 20 L 1621.924072265625 43" stroke-miterlimit="10"/></g><g transform="translate(-10,-10) scale(1,1)"><path fill="none" stroke="#000000" d="M 1621.924072265625 20 L 1598.924072265625 43" stroke-miterlimit="10"/></g><g transform="translate(-10,-10) scale(1,1)"><g><path fill="none" stroke="none"/><text fill="#000000" stroke="none" font-family="Arial" font-size="13px" font-style="normal" font-weight="normal" text-decoration="none" x="1610.424072265625" y="60.5"></text></g></g><g transform="translate(-10,-10) scale(1,1)"><g><path fill="none" stroke="none"/><text fill="#000000" stroke="none" font-family="Arial" font-size="13px" font-style="normal" font-weight="bold" text-decoration="none" x="1575.016845703125" y="75.5">IOException</text></g></g><g transform="translate(-10,-10) scale(1,1)"><path fill="none" stroke="#000000" d="M 1759.30908203125 20 L 1782.30908203125 20 L 1782.30908203125 43 L 1759.30908203125 43 L 1759.30908203125 20 Z Z" stroke-miterlimit="10"/></g><g transform="translate(-10,-10) scale(1,1)"><path fill="none" stroke="#000000" d="M 1759.30908203125 20 L 1782.30908203125 43" stroke-miterlimit="10"/></g><g transform="translate(-10,-10) scale(1,1)"><path fill="none" stroke="#000000" d="M 1782.30908203125 20 L 1759.30908203125 43" stroke-miterlimit="10"/></g><g transform="translate(-10,-10) scale(1,1)"><g><path fill="none" stroke="none"/><text fill="#000000" stroke="none" font-family="Arial" font-size="13px" font-style="normal" font-weight="normal" text-decoration="none" x="1770.80908203125" y="60.5"></text></g></g><g transform="translate(-10,-10) scale(1,1)"><g><path fill="none" stroke="none"/><text fill="#000000" stroke="none" font-family="Arial" font-size="13px" font-style="normal" font-weight="bold" text-decoration="none" x="1691.685546875" y="75.5">NoSuchAlgorithmException</text></g></g><g transform="translate(-10,-10) scale(1,1)"><path fill="none" stroke="#000000" d="M 1916.424072265625 20 L 1939.424072265625 20 L 1939.424072265625 43 L 1916.424072265625 43 L 1916.424072265625 20 Z Z" stroke-miterlimit="10"/></g><g transform="translate(-10,-10) scale(1,1)"><path fill="none" stroke="#000000" d="M 1916.424072265625 20 L 1939.424072265625 43" stroke-miterlimit="10"/></g><g transform="translate(-10,-10) scale(1,1)"><path fill="none" stroke="#000000" d="M 1939.424072265625 20 L 1916.424072265625 43" stroke-miterlimit="10"/></g><g transform="translate(-10,-10) scale(1,1)"><g><path fill="none" stroke="none"/><text fill="#000000" stroke="none" font-family="Arial" font-size="13px" font-style="normal" font-weight="normal" text-decoration="none" x="1927.924072265625" y="60.5"></text></g></g><g transform="translate(-10,-10) scale(1,1)"><g><path fill="none" stroke="none"/><text fill="#000000" stroke="none" font-family="Arial" font-size="13px" font-style="normal" font-weight="bold" text-decoration="none" x="1886.372314453125" y="75.5">SQLException</text></g></g><g transform="translate(-10,-10) scale(1,1)"><path fill="none" stroke="#000000" d="M 2012.25 20 L 2035.25 20 L 2035.25 43 L 2012.25 43 L 2012.25 20 Z Z" stroke-miterlimit="10"/></g><g transform="translate(-10,-10) scale(1,1)"><path fill="none" stroke="#000000" d="M 2012.25 20 L 2035.25 43" stroke-miterlimit="10"/></g><g transform="translate(-10,-10) scale(1,1)"><path fill="none" stroke="#000000" d="M 2035.25 20 L 2012.25 43" stroke-miterlimit="10"/></g><g transform="translate(-10,-10) scale(1,1)"><g><path fill="none" stroke="none"/><text fill="#000000" stroke="none" font-family="Arial" font-size="13px" font-style="normal" font-weight="normal" text-decoration="none" x="2023.75" y="60.5"></text></g></g><g transform="translate(-10,-10) scale(1,1)"><g><path fill="none" stroke="none"/><text fill="#000000" stroke="none" font-family="Arial" font-size="13px" font-style="normal" font-weight="bold" text-decoration="none" x="2008.9345703125" y="75.5">Book</text></g></g><g transform="translate(-10,-10) scale(1,1)"><path fill="none" stroke="#000000" d="M 2073 20 L 2096 20 L 2096 43 L 2073 43 L 2073 20 Z Z" stroke-miterlimit="10"/></g><g transform="translate(-10,-10) scale(1,1)"><path fill="none" stroke="#000000" d="M 2073 20 L 2096 43" stroke-miterlimit="10"/></g><g transform="translate(-10,-10) scale(1,1)"><path fill="none" stroke="#000000" d="M 2096 20 L 2073 43" stroke-miterlimit="10"/></g><g transform="translate(-10,-10) scale(1,1)"><g><path fill="none" stroke="none"/><text fill="#000000" stroke="none" font-family="Arial" font-size="13px" font-style="normal" font-weight="normal" text-decoration="none" x="2084.5" y="60.5"></text></g></g><g transform="translate(-10,-10) scale(1,1)"><g><path fill="none" stroke="none"/><text fill="#000000" stroke="none" font-family="Arial" font-size="13px" font-style="normal" font-weight="bold" text-decoration="none" x="2080.529541015625" y="75.5">T</text></g></g><g transform="translate(-10,-10) scale(1,1)"><path fill="none" stroke="#000000" d="M 2133 20 L 2156 20 L 2156 43 L 2133 43 L 2133 20 Z Z" stroke-miterlimit="10"/></g><g transform="translate(-10,-10) scale(1,1)"><path fill="none" stroke="#000000" d="M 2133 20 L 2156 43" stroke-miterlimit="10"/></g><g transform="translate(-10,-10) scale(1,1)"><path fill="none" stroke="#000000" d="M 2156 20 L 2133 43" stroke-miterlimit="10"/></g><g transform="translate(-10,-10) scale(1,1)"><g><path fill="none" stroke="none"/><text fill="#000000" stroke="none" font-family="Arial" font-size="13px" font-style="normal" font-weight="normal" text-decoration="none" x="2144.5" y="60.5"></text></g></g><g transform="translate(-10,-10) scale(1,1)"><g><path fill="none" stroke="none"/><text fill="#000000" stroke="none" font-family="Arial" font-size="13px" font-style="normal" font-weight="bold" text-decoration="none" x="2131.85546875" y="75.5">Map</text></g></g><g transform="translate(-10,-10) scale(1,1)"><path fill="none" stroke="#000000" d="M 2222.5654296875 20 L 2245.5654296875 20 L 2245.5654296875 43 L 2222.5654296875 43 L 2222.5654296875 20 Z Z" stroke-miterlimit="10"/></g><g transform="translate(-10,-10) scale(1,1)"><path fill="none" stroke="#000000" d="M 2222.5654296875 20 L 2245.5654296875 43" stroke-miterlimit="10"/></g><g transform="translate(-10,-10) scale(1,1)"><path fill="none" stroke="#000000" d="M 2245.5654296875 20 L 2222.5654296875 43" stroke-miterlimit="10"/></g><g transform="translate(-10,-10) scale(1,1)"><g><path fill="none" stroke="none"/><text fill="#000000" stroke="none" font-family="Arial" font-size="13px" font-style="normal" font-weight="normal" text-decoration="none" x="2234.0654296875" y="60.5"></text></g></g><g transform="translate(-10,-10) scale(1,1)"><g><path fill="none" stroke="none"/><text fill="#000000" stroke="none" font-family="Arial" font-size="13px" font-style="normal" font-weight="bold" text-decoration="none" x="2199.023193359375" y="75.5">OrderStatus</text></g></g><g transform="translate(-10,-10) scale(1,1)"><path fill="none" stroke="#000000" d="M 2309.08544921875 20 L 2332.08544921875 20 L 2332.08544921875 43 L 2309.08544921875 43 L 2309.08544921875 20 Z Z" stroke-miterlimit="10"/></g><g transform="translate(-10,-10) scale(1,1)"><path fill="none" stroke="#000000" d="M 2309.08544921875 20 L 2332.08544921875 43" stroke-miterlimit="10"/></g><g transform="translate(-10,-10) scale(1,1)"><path fill="none" stroke="#000000" d="M 2332.08544921875 20 L 2309.08544921875 43" stroke-miterlimit="10"/></g><g transform="translate(-10,-10) scale(1,1)"><g><path fill="none" stroke="none"/><text fill="#000000" stroke="none" font-family="Arial" font-size="13px" font-style="normal" font-weight="normal" text-decoration="none" x="2320.58544921875" y="60.5"></text></g></g><g transform="translate(-10,-10) scale(1,1)"><g><path fill="none" stroke="none"/><text fill="#000000" stroke="none" font-family="Arial" font-size="13px" font-style="normal" font-weight="bold" text-decoration="none" x="2307.21728515625" y="75.5">Role</text></g></g><g transform="translate(-10,-10) scale(1,1)"><path fill="none" stroke="#000000" d="M 2381.226806640625 20 L 2404.226806640625 20 L 2404.226806640625 43 L 2381.226806640625 43 L 2381.226806640625 20 Z Z" stroke-miterlimit="10"/></g><g transform="translate(-10,-10) scale(1,1)"><path fill="none" stroke="#000000" d="M 2381.226806640625 20 L 2404.226806640625 43" stroke-miterlimit="10"/></g><g transform="translate(-10,-10) scale(1,1)"><path fill="none" stroke="#000000" d="M 2404.226806640625 20 L 2381.226806640625 43" stroke-miterlimit="10"/></g><g transform="translate(-10,-10) scale(1,1)"><g><path fill="none" stroke="none"/><text fill="#000000" stroke="none" font-family="Arial" font-size="13px" font-style="normal" font-weight="normal" text-decoration="none" x="2392.726806640625" y="60.5"></text></g></g><g transform="translate(-10,-10) scale(1,1)"><g><path fill="none" stroke="none"/><text fill="#000000" stroke="none" font-family="Arial" font-size="13px" font-style="normal" font-weight="bold" text-decoration="none" x="2373.94091796875" y="75.5">Object</text></g></g><g transform="translate(-10,-10) scale(1,1)"><path fill="none" stroke="#000000" d="M 2499.318603515625 20 L 2522.318603515625 20 L 2522.318603515625 43 L 2499.318603515625 43 L 2499.318603515625 20 Z Z" stroke-miterlimit="10"/></g><g transform="translate(-10,-10) scale(1,1)"><path fill="none" stroke="#000000" d="M 2499.318603515625 20 L 2522.318603515625 43" stroke-miterlimit="10"/></g><g transform="translate(-10,-10) scale(1,1)"><path fill="none" stroke="#000000" d="M 2522.318603515625 20 L 2499.318603515625 43" stroke-miterlimit="10"/></g><g transform="translate(-10,-10) scale(1,1)"><g><path fill="none" stroke="none"/><text fill="#000000" stroke="none" font-family="Arial" font-size="13px" font-style="normal" font-weight="normal" text-decoration="none" x="2510.818603515625" y="60.5"></text></g></g><g transform="translate(-10,-10) scale(1,1)"><g><path fill="none" stroke="none"/><text fill="#000000" stroke="none" font-family="Arial" font-size="13px" font-style="normal" font-weight="bold" text-decoration="none" x="2454.457763671875" y="75.5">HttpServletRequest</text></g></g><g transform="translate(-10,-10) scale(1,1)"><path fill="none" stroke="#000000" d="M 2657.739501953125 20 L 2680.739501953125 20 L 2680.739501953125 43 L 2657.739501953125 43 L 2657.739501953125 20 Z Z" stroke-miterlimit="10"/></g><g transform="translate(-10,-10) scale(1,1)"><path fill="none" stroke="#000000" d="M 2657.739501953125 20 L 2680.739501953125 43" stroke-miterlimit="10"/></g><g transform="translate(-10,-10) scale(1,1)"><path fill="none" stroke="#000000" d="M 2680.739501953125 20 L 2657.739501953125 43" stroke-miterlimit="10"/></g><g transform="translate(-10,-10) scale(1,1)"><g><path fill="none" stroke="none"/><text fill="#000000" stroke="none" font-family="Arial" font-size="13px" font-style="normal" font-weight="normal" text-decoration="none" x="2669.239501953125" y="60.5"></text></g></g><g transform="translate(-10,-10) scale(1,1)"><g><path fill="none" stroke="none"/><text fill="#000000" stroke="none" font-family="Arial" font-size="13px" font-style="normal" font-weight="bold" text-decoration="none" x="2607.819580078125" y="75.5">HttpServletResponse</text></g></g><g transform="translate(-10,-10) scale(1,1)"><path fill="none" stroke="#000000" d="M 2769.45361328125 20 L 2792.45361328125 20 L 2792.45361328125 43 L 2769.45361328125 43 L 2769.45361328125 20 Z Z" stroke-miterlimit="10"/></g><g transform="translate(-10,-10) scale(1,1)"><path fill="none" stroke="#000000" d="M 2769.45361328125 20 L 2792.45361328125 43" stroke-miterlimit="10"/></g><g transform="translate(-10,-10) scale(1,1)"><path fill="none" stroke="#000000" d="M 2792.45361328125 20 L 2769.45361328125 43" stroke-miterlimit="10"/></g><g transform="translate(-10,-10) scale(1,1)"><g><path fill="none" stroke="none"/><text fill="#000000" stroke="none" font-family="Arial" font-size="13px" font-style="normal" font-weight="normal" text-decoration="none" x="2780.95361328125" y="60.5"></text></g></g><g transform="translate(-10,-10) scale(1,1)"><g><path fill="none" stroke="none"/><text fill="#000000" stroke="none" font-family="Arial" font-size="13px" font-style="normal" font-weight="bold" text-decoration="none" x="2767.22998046875" y="75.5">User</text></g></g><g transform="translate(-10,-10) scale(1,1)"><path fill="none" stroke="#000000" d="M 2829 20 L 2852 20 L 2852 43 L 2829 43 L 2829 20 Z Z" stroke-miterlimit="10"/></g><g transform="translate(-10,-10) scale(1,1)"><path fill="none" stroke="#000000" d="M 2829 20 L 2852 43" stroke-miterlimit="10"/></g><g transform="translate(-10,-10) scale(1,1)"><path fill="none" stroke="#000000" d="M 2852 20 L 2829 43" stroke-miterlimit="10"/></g><g transform="translate(-10,-10) scale(1,1)"><g><path fill="none" stroke="none"/><text fill="#000000" stroke="none" font-family="Arial" font-size="13px" font-style="normal" font-weight="normal" text-decoration="none" x="2840.5" y="60.5"></text></g></g><g transform="translate(-10,-10) scale(1,1)"><g><path fill="none" stroke="none"/><text fill="#000000" stroke="none" font-family="Arial" font-size="13px" font-style="normal" font-weight="bold" text-decoration="none" x="2836.885009765625" y="75.5">?</text></g></g><g transform="translate(-10,-10) scale(1,1)"><path fill="none" stroke="#000000" d="M 2897.299560546875 20 L 2920.299560546875 20 L 2920.299560546875 43 L 2897.299560546875 43 L 2897.299560546875 20 Z Z" stroke-miterlimit="10"/></g><g transform="translate(-10,-10) scale(1,1)"><path fill="none" stroke="#000000" d="M 2897.299560546875 20 L 2920.299560546875 43" stroke-miterlimit="10"/></g><g transform="translate(-10,-10) scale(1,1)"><path fill="none" stroke="#000000" d="M 2920.299560546875 20 L 2897.299560546875 43" stroke-miterlimit="10"/></g><g transform="translate(-10,-10) scale(1,1)"><g><path fill="none" stroke="none"/><text fill="#000000" stroke="none" font-family="Arial" font-size="13px" font-style="normal" font-weight="normal" text-decoration="none" x="2908.799560546875" y="60.5"></text></g></g><g transform="translate(-10,-10) scale(1,1)"><g><path fill="none" stroke="none"/><text fill="#000000" stroke="none" font-family="Arial" font-size="13px" font-style="normal" font-weight="bold" text-decoration="none" x="2889.648681640625" y="75.5">Author</text></g></g><g transform="translate(-10,-10) scale(1,1)"><path fill="none" stroke="#000000" d="M 3012.496826171875 20 L 3035.496826171875 20 L 3035.496826171875 43 L 3012.496826171875 43 L 3012.496826171875 20 Z Z" stroke-miterlimit="10"/></g><g transform="translate(-10,-10) scale(1,1)"><path fill="none" stroke="#000000" d="M 3012.496826171875 20 L 3035.496826171875 43" stroke-miterlimit="10"/></g><g transform="translate(-10,-10) scale(1,1)"><path fill="none" stroke="#000000" d="M 3035.496826171875 20 L 3012.496826171875 43" stroke-miterlimit="10"/></g><g transform="translate(-10,-10) scale(1,1)"><g><path fill="none" stroke="none"/><text fill="#000000" stroke="none" font-family="Arial" font-size="13px" font-style="normal" font-weight="normal" text-decoration="none" x="3023.996826171875" y="60.5"></text></g></g><g transform="translate(-10,-10) scale(1,1)"><g><path fill="none" stroke="none"/><text fill="#000000" stroke="none" font-family="Arial" font-size="13px" font-style="normal" font-weight="bold" text-decoration="none" x="2968.721435546875" y="75.5">SQLCountWrapper</text></g></g><g transform="translate(-10,-10) scale(1,1)"><path fill="none" stroke="#000000" d="M 3134.503173828125 20 L 3157.503173828125 20 L 3157.503173828125 43 L 3134.503173828125 43 L 3134.503173828125 20 Z Z" stroke-miterlimit="10"/></g><g transform="translate(-10,-10) scale(1,1)"><path fill="none" stroke="#000000" d="M 3134.503173828125 20 L 3157.503173828125 43" stroke-miterlimit="10"/></g><g transform="translate(-10,-10) scale(1,1)"><path fill="none" stroke="#000000" d="M 3157.503173828125 20 L 3134.503173828125 43" stroke-miterlimit="10"/></g><g transform="translate(-10,-10) scale(1,1)"><g><path fill="none" stroke="none"/><text fill="#000000" stroke="none" font-family="Arial" font-size="13px" font-style="normal" font-weight="normal" text-decoration="none" x="3146.003173828125" y="60.5"></text></g></g><g transform="translate(-10,-10) scale(1,1)"><g><path fill="none" stroke="none"/><text fill="#000000" stroke="none" font-family="Arial" font-size="13px" font-style="normal" font-weight="bold" text-decoration="none" x="3115.655029296875" y="75.5">Throwable</text></g></g><g transform="translate(-10,-10) scale(1,1)"><path fill="none" stroke="#000000" d="M 3226.29541015625 20 L 3249.29541015625 20 L 3249.29541015625 43 L 3226.29541015625 43 L 3226.29541015625 20 Z Z" stroke-miterlimit="10"/></g><g transform="translate(-10,-10) scale(1,1)"><path fill="none" stroke="#000000" d="M 3226.29541015625 20 L 3249.29541015625 43" stroke-miterlimit="10"/></g><g transform="translate(-10,-10) scale(1,1)"><path fill="none" stroke="#000000" d="M 3249.29541015625 20 L 3226.29541015625 43" stroke-miterlimit="10"/></g><g transform="translate(-10,-10) scale(1,1)"><g><path fill="none" stroke="none"/><text fill="#000000" stroke="none" font-family="Arial" font-size="13px" font-style="normal" font-weight="normal" text-decoration="none" x="3237.79541015625" y="60.5"></text></g></g><g transform="translate(-10,-10) scale(1,1)"><g><path fill="none" stroke="none"/><text fill="#000000" stroke="none" font-family="Arial" font-size="13px" font-style="normal" font-weight="bold" text-decoration="none" x="3214.318603515625" y="75.5">Delivery</text></g></g><g transform="translate(-10,-10) scale(1,1)"><path fill="none" stroke="#000000" d="M 3305.700439453125 20 L 3328.700439453125 20 L 3328.700439453125 43 L 3305.700439453125 43 L 3305.700439453125 20 Z Z" stroke-miterlimit="10"/></g><g transform="translate(-10,-10) scale(1,1)"><path fill="none" stroke="#000000" d="M 3305.700439453125 20 L 3328.700439453125 43" stroke-miterlimit="10"/></g><g transform="translate(-10,-10) scale(1,1)"><path fill="none" stroke="#000000" d="M 3328.700439453125 20 L 3305.700439453125 43" stroke-miterlimit="10"/></g><g transform="translate(-10,-10) scale(1,1)"><g><path fill="none" stroke="none"/><text fill="#000000" stroke="none" font-family="Arial" font-size="13px" font-style="normal" font-weight="normal" text-decoration="none" x="3317.200439453125" y="60.5"></text></g></g><g transform="translate(-10,-10) scale(1,1)"><g><path fill="none" stroke="none"/><text fill="#000000" stroke="none" font-family="Arial" font-size="13px" font-style="normal" font-weight="bold" text-decoration="none" x="3300.58544921875" y="75.5">Order</text></g></g><g transform="translate(-10,-10) scale(1,1)"><path fill="none" stroke="#000000" d="M 3407.324951171875 20 L 3430.324951171875 20 L 3430.324951171875 43 L 3407.324951171875 43 L 3407.324951171875 20 Z Z" stroke-miterlimit="10"/></g><g transform="translate(-10,-10) scale(1,1)"><path fill="none" stroke="#000000" d="M 3407.324951171875 20 L 3430.324951171875 43" stroke-miterlimit="10"/></g><g transform="translate(-10,-10) scale(1,1)"><path fill="none" stroke="#000000" d="M 3430.324951171875 20 L 3407.324951171875 43" stroke-miterlimit="10"/></g><g transform="translate(-10,-10) scale(1,1)"><g><path fill="none" stroke="none"/><text fill="#000000" stroke="none" font-family="Arial" font-size="13px" font-style="normal" font-weight="normal" text-decoration="none" x="3418.824951171875" y="60.5"></text></g></g><g transform="translate(-10,-10) scale(1,1)"><g><path fill="none" stroke="none"/><text fill="#000000" stroke="none" font-family="Arial" font-size="13px" font-style="normal" font-weight="bold" text-decoration="none" x="3374.385009765625" y="75.5">ServletRequest</text></g></g><g transform="translate(-10,-10) scale(1,1)"><path fill="none" stroke="#000000" d="M 3541.745849609375 20 L 3564.745849609375 20 L 3564.745849609375 43 L 3541.745849609375 43 L 3541.745849609375 20 Z Z" stroke-miterlimit="10"/></g><g transform="translate(-10,-10) scale(1,1)"><path fill="none" stroke="#000000" d="M 3541.745849609375 20 L 3564.745849609375 43" stroke-miterlimit="10"/></g><g transform="translate(-10,-10) scale(1,1)"><path fill="none" stroke="#000000" d="M 3564.745849609375 20 L 3541.745849609375 43" stroke-miterlimit="10"/></g><g transform="translate(-10,-10) scale(1,1)"><g><path fill="none" stroke="none"/><text fill="#000000" stroke="none" font-family="Arial" font-size="13px" font-style="normal" font-weight="normal" text-decoration="none" x="3553.245849609375" y="60.5"></text></g></g><g transform="translate(-10,-10) scale(1,1)"><g><path fill="none" stroke="none"/><text fill="#000000" stroke="none" font-family="Arial" font-size="13px" font-style="normal" font-weight="bold" text-decoration="none" x="3503.746826171875" y="75.5">ServletResponse</text></g></g><g transform="translate(-10,-10) scale(1,1)"><path fill="none" stroke="#000000" d="M 3661.947265625 20 L 3684.947265625 20 L 3684.947265625 43 L 3661.947265625 43 L 3661.947265625 20 Z Z" stroke-miterlimit="10"/></g><g transform="translate(-10,-10) scale(1,1)"><path fill="none" stroke="#000000" d="M 3661.947265625 20 L 3684.947265625 43" stroke-miterlimit="10"/></g><g transform="translate(-10,-10) scale(1,1)"><path fill="none" stroke="#000000" d="M 3684.947265625 20 L 3661.947265625 43" stroke-miterlimit="10"/></g><g transform="translate(-10,-10) scale(1,1)"><g><path fill="none" stroke="none"/><text fill="#000000" stroke="none" font-family="Arial" font-size="13px" font-style="normal" font-weight="normal" text-decoration="none" x="3673.447265625" y="60.5"></text></g></g><g transform="translate(-10,-10) scale(1,1)"><g><path fill="none" stroke="none"/><text fill="#000000" stroke="none" font-family="Arial" font-size="13px" font-style="normal" font-weight="bold" text-decoration="none" x="3642.02001953125" y="75.5">FilterChain</text></g></g><g transform="translate(-10,-10) scale(1,1)"><path fill="none" stroke="#000000" d="M 3766.46728515625 20 L 3789.46728515625 20 L 3789.46728515625 43 L 3766.46728515625 43 L 3766.46728515625 20 Z Z" stroke-miterlimit="10"/></g><g transform="translate(-10,-10) scale(1,1)"><path fill="none" stroke="#000000" d="M 3766.46728515625 20 L 3789.46728515625 43" stroke-miterlimit="10"/></g><g transform="translate(-10,-10) scale(1,1)"><path fill="none" stroke="#000000" d="M 3789.46728515625 20 L 3766.46728515625 43" stroke-miterlimit="10"/></g><g transform="translate(-10,-10) scale(1,1)"><g><path fill="none" stroke="none"/><text fill="#000000" stroke="none" font-family="Arial" font-size="13px" font-style="normal" font-weight="normal" text-decoration="none" x="3777.96728515625" y="60.5"></text></g></g><g transform="translate(-10,-10) scale(1,1)"><g><path fill="none" stroke="none"/><text fill="#000000" stroke="none" font-family="Arial" font-size="13px" font-style="normal" font-weight="bold" text-decoration="none" x="3744.734130859375" y="75.5">FilterConfig</text></g></g><g transform="translate(-10,-10) scale(1,1)"><path fill="none" stroke="#000000" d="M 3899.574951171875 20 L 3922.574951171875 20 L 3922.574951171875 43 L 3899.574951171875 43 L 3899.574951171875 20 Z Z" stroke-miterlimit="10"/></g><g transform="translate(-10,-10) scale(1,1)"><path fill="none" stroke="#000000" d="M 3899.574951171875 20 L 3922.574951171875 43" stroke-miterlimit="10"/></g><g transform="translate(-10,-10) scale(1,1)"><path fill="none" stroke="#000000" d="M 3922.574951171875 20 L 3899.574951171875 43" stroke-miterlimit="10"/></g><g transform="translate(-10,-10) scale(1,1)"><g><path fill="none" stroke="none"/><text fill="#000000" stroke="none" font-family="Arial" font-size="13px" font-style="normal" font-weight="normal" text-decoration="none" x="3911.074951171875" y="60.5"></text></g></g><g transform="translate(-10,-10) scale(1,1)"><g><path fill="none" stroke="none"/><text fill="#000000" stroke="none" font-family="Arial" font-size="13px" font-style="normal" font-weight="bold" text-decoration="none" x="3851.82275390625" y="75.5">ServletContextEvent</text></g></g><g transform="translate(-10,-10) scale(1,1)"><path fill="none" stroke="#000000" d="M 4041.87451171875 20 L 4064.87451171875 20 L 4064.87451171875 43 L 4041.87451171875 43 L 4041.87451171875 20 Z Z" stroke-miterlimit="10"/></g><g transform="translate(-10,-10) scale(1,1)"><path fill="none" stroke="#000000" d="M 4041.87451171875 20 L 4064.87451171875 43" stroke-miterlimit="10"/></g><g transform="translate(-10,-10) scale(1,1)"><path fill="none" stroke="#000000" d="M 4064.87451171875 20 L 4041.87451171875 43" stroke-miterlimit="10"/></g><g transform="translate(-10,-10) scale(1,1)"><g><path fill="none" stroke="none"/><text fill="#000000" stroke="none" font-family="Arial" font-size="13px" font-style="normal" font-weight="normal" text-decoration="none" x="4053.37451171875" y="60.5"></text></g></g><g transform="translate(-10,-10) scale(1,1)"><g><path fill="none" stroke="none"/><text fill="#000000" stroke="none" font-family="Arial" font-size="13px" font-style="normal" font-weight="bold" text-decoration="none" x="4010.74365234375" y="75.5">ServletContext</text></g></g><g transform="translate(-10,-10) scale(1,1)"><path fill="none" stroke="#000000" d="M 4201.80908203125 20 L 4224.80908203125 20 L 4224.80908203125 43 L 4201.80908203125 43 L 4201.80908203125 20 Z Z" stroke-miterlimit="10"/></g><g transform="translate(-10,-10) scale(1,1)"><path fill="none" stroke="#000000" d="M 4201.80908203125 20 L 4224.80908203125 43" stroke-miterlimit="10"/></g><g transform="translate(-10,-10) scale(1,1)"><path fill="none" stroke="#000000" d="M 4224.80908203125 20 L 4201.80908203125 43" stroke-miterlimit="10"/></g><g transform="translate(-10,-10) scale(1,1)"><g><path fill="none" stroke="none"/><text fill="#000000" stroke="none" font-family="Arial" font-size="13px" font-style="normal" font-weight="normal" text-decoration="none" x="4213.30908203125" y="60.5"></text></g></g><g transform="translate(-10,-10) scale(1,1)"><g><path fill="none" stroke="none"/><text fill="#000000" stroke="none" font-family="Arial" font-size="13px" font-style="normal" font-weight="bold" text-decoration="none" x="4139.958740234375" y="75.5">HttpSessionBindingEvent</text></g></g><g transform="translate(-10,-10) scale(1,1)"><path fill="none" stroke="#000000" d="M 4365.621337890625 20 L 4388.621337890625 20 L 4388.621337890625 43 L 4365.621337890625 43 L 4365.621337890625 20 Z Z" stroke-miterlimit="10"/></g><g transform="translate(-10,-10) scale(1,1)"><path fill="none" stroke="#000000" d="M 4365.621337890625 20 L 4388.621337890625 43" stroke-miterlimit="10"/></g><g transform="translate(-10,-10) scale(1,1)"><path fill="none" stroke="#000000" d="M 4388.621337890625 20 L 4365.621337890625 43" stroke-miterlimit="10"/></g><g transform="translate(-10,-10) scale(1,1)"><g><path fill="none" stroke="none"/><text fill="#000000" stroke="none" font-family="Arial" font-size="13px" font-style="normal" font-weight="normal" text-decoration="none" x="4377.121337890625" y="60.5"></text></g></g><g transform="translate(-10,-10) scale(1,1)"><g><path fill="none" stroke="none"/><text fill="#000000" stroke="none" font-family="Arial" font-size="13px" font-style="normal" font-weight="bold" text-decoration="none" x="4325.45458984375" y="75.5">HttpSessionEvent</text></g></g><g transform="translate(-10,-10) scale(1,1)"><path fill="none" stroke="#000000" d="M 4490.746826171875 20 L 4513.746826171875 20 L 4513.746826171875 43 L 4490.746826171875 43 L 4490.746826171875 20 Z Z" stroke-miterlimit="10"/></g><g transform="translate(-10,-10) scale(1,1)"><path fill="none" stroke="#000000" d="M 4490.746826171875 20 L 4513.746826171875 43" stroke-miterlimit="10"/></g><g transform="translate(-10,-10) scale(1,1)"><path fill="none" stroke="#000000" d="M 4513.746826171875 20 L 4490.746826171875 43" stroke-miterlimit="10"/></g><g transform="translate(-10,-10) scale(1,1)"><g><path fill="none" stroke="none"/><text fill="#000000" stroke="none" font-family="Arial" font-size="13px" font-style="normal" font-weight="normal" text-decoration="none" x="4502.246826171875" y="60.5"></text></g></g><g transform="translate(-10,-10) scale(1,1)"><g><path fill="none" stroke="none"/><text fill="#000000" stroke="none" font-family="Arial" font-size="13px" font-style="normal" font-weight="bold" text-decoration="none" x="4469.36279296875" y="75.5">Connection</text></g></g><g transform="translate(-10,-10) scale(1,1)"><path fill="none" stroke="#000000" d="M 4619.6044921875 20 L 4642.6044921875 20 L 4642.6044921875 43 L 4619.6044921875 43 L 4619.6044921875 20 Z Z" stroke-miterlimit="10"/></g><g transform="translate(-10,-10) scale(1,1)"><path fill="none" stroke="#000000" d="M 4619.6044921875 20 L 4642.6044921875 43" stroke-miterlimit="10"/></g><g transform="translate(-10,-10) scale(1,1)"><path fill="none" stroke="#000000" d="M 4642.6044921875 20 L 4619.6044921875 43" stroke-miterlimit="10"/></g><g transform="translate(-10,-10) scale(1,1)"><g><path fill="none" stroke="none"/><text fill="#000000" stroke="none" font-family="Arial" font-size="13px" font-style="normal" font-weight="normal" text-decoration="none" x="4631.1044921875" y="60.5"></text></g></g><g transform="translate(-10,-10) scale(1,1)"><g><path fill="none" stroke="none"/><text fill="#000000" stroke="none" font-family="Arial" font-size="13px" font-style="normal" font-weight="bold" text-decoration="none" x="4574.7373046875" y="75.5">PreparedStatement</text></g></g><g transform="translate(-10,-10) scale(1,1)"><path fill="none" stroke="#000000" d="M 4741.97998046875 20 L 4764.97998046875 20 L 4764.97998046875 43 L 4741.97998046875 43 L 4741.97998046875 20 Z Z" stroke-miterlimit="10"/></g><g transform="translate(-10,-10) scale(1,1)"><path fill="none" stroke="#000000" d="M 4741.97998046875 20 L 4764.97998046875 43" stroke-miterlimit="10"/></g><g transform="translate(-10,-10) scale(1,1)"><path fill="none" stroke="#000000" d="M 4764.97998046875 20 L 4741.97998046875 43" stroke-miterlimit="10"/></g><g transform="translate(-10,-10) scale(1,1)"><g><path fill="none" stroke="none"/><text fill="#000000" stroke="none" font-family="Arial" font-size="13px" font-style="normal" font-weight="normal" text-decoration="none" x="4753.47998046875" y="60.5"></text></g></g><g transform="translate(-10,-10) scale(1,1)"><g><path fill="none" stroke="none"/><text fill="#000000" stroke="none" font-family="Arial" font-size="13px" font-style="normal" font-weight="bold" text-decoration="none" x="4725.299560546875" y="75.5">ResultSet</text></g></g><g transform="translate(-10,-10) scale(1,1)"><path fill="none" stroke="#000000" d="M 4840.424072265625 20 L 4863.424072265625 20 L 4863.424072265625 43 L 4840.424072265625 43 L 4840.424072265625 20 Z Z" stroke-miterlimit="10"/></g><g transform="translate(-10,-10) scale(1,1)"><path fill="none" stroke="#000000" d="M 4840.424072265625 20 L 4863.424072265625 43" stroke-miterlimit="10"/></g><g transform="translate(-10,-10) scale(1,1)"><path fill="none" stroke="#000000" d="M 4863.424072265625 20 L 4840.424072265625 43" stroke-miterlimit="10"/></g><g transform="translate(-10,-10) scale(1,1)"><g><path fill="none" stroke="none"/><text fill="#000000" stroke="none" font-family="Arial" font-size="13px" font-style="normal" font-weight="normal" text-decoration="none" x="4851.924072265625" y="60.5"></text></g></g><g transform="translate(-10,-10) scale(1,1)"><g><path fill="none" stroke="none"/><text fill="#000000" stroke="none" font-family="Arial" font-size="13px" font-style="normal" font-weight="bold" text-decoration="none" x="4822.29638671875" y="75.5">Statement</text></g></g><g transform="translate(-10,-10) scale(1,1)"><path fill="none" stroke="#000000" d="M 4933.555908203125 20 L 4956.555908203125 20 L 4956.555908203125 43 L 4933.555908203125 43 L 4933.555908203125 20 Z Z" stroke-miterlimit="10"/></g><g transform="translate(-10,-10) scale(1,1)"><path fill="none" stroke="#000000" d="M 4933.555908203125 20 L 4956.555908203125 43" stroke-miterlimit="10"/></g><g transform="translate(-10,-10) scale(1,1)"><path fill="none" stroke="#000000" d="M 4956.555908203125 20 L 4933.555908203125 43" stroke-miterlimit="10"/></g><g transform="translate(-10,-10) scale(1,1)"><g><path fill="none" stroke="none"/><text fill="#000000" stroke="none" font-family="Arial" font-size="13px" font-style="normal" font-weight="normal" text-decoration="none" x="4945.055908203125" y="60.5"></text></g></g><g transform="translate(-10,-10) scale(1,1)"><g><path fill="none" stroke="none"/><text fill="#000000" stroke="none" font-family="Arial" font-size="13px" font-style="normal" font-weight="bold" text-decoration="none" x="4922.655029296875" y="75.5">Product</text></g></g><g transform="translate(-10,-10) scale(1,1)"><path fill="none" stroke="#000000" d="M 5001 20 L 5024 20 L 5024 43 L 5001 43 L 5001 20 Z Z" stroke-miterlimit="10"/></g><g transform="translate(-10,-10) scale(1,1)"><path fill="none" stroke="#000000" d="M 5001 20 L 5024 43" stroke-miterlimit="10"/></g><g transform="translate(-10,-10) scale(1,1)"><path fill="none" stroke="#000000" d="M 5024 20 L 5001 43" stroke-miterlimit="10"/></g><g transform="translate(-10,-10) scale(1,1)"><g><path fill="none" stroke="none"/><text fill="#000000" stroke="none" font-family="Arial" font-size="13px" font-style="normal" font-weight="normal" text-decoration="none" x="5012.5" y="60.5"></text></g></g><g transform="translate(-10,-10) scale(1,1)"><g><path fill="none" stroke="none"/><text fill="#000000" stroke="none" font-family="Arial" font-size="13px" font-style="normal" font-weight="bold" text-decoration="none" x="5007.805908203125" y="75.5">R</text></g></g><g transform="translate(-10,-10) scale(1,1)"><path fill="none" stroke="#000000" d="M 5084.838623046875 20 L 5107.838623046875 20 L 5107.838623046875 43 L 5084.838623046875 43 L 5084.838623046875 20 Z Z" stroke-miterlimit="10"/></g><g transform="translate(-10,-10) scale(1,1)"><path fill="none" stroke="#000000" d="M 5084.838623046875 20 L 5107.838623046875 43" stroke-miterlimit="10"/></g><g transform="translate(-10,-10) scale(1,1)"><path fill="none" stroke="#000000" d="M 5107.838623046875 20 L 5084.838623046875 43" stroke-miterlimit="10"/></g><g transform="translate(-10,-10) scale(1,1)"><g><path fill="none" stroke="none"/><text fill="#000000" stroke="none" font-family="Arial" font-size="13px" font-style="normal" font-weight="normal" text-decoration="none" x="5096.338623046875" y="60.5"></text></g></g><g transform="translate(-10,-10) scale(1,1)"><g><path fill="none" stroke="none"/><text fill="#000000" stroke="none" font-family="Arial" font-size="13px" font-style="normal" font-weight="bold" text-decoration="none" x="5062.02001953125" y="75.5">Comparator</text></g></g><g transform="translate(-10,-10) scale(1,1)"><path fill="none" stroke="#000000" d="M 5204.841796875 20 L 5227.841796875 20 L 5227.841796875 43 L 5204.841796875 43 L 5204.841796875 20 Z Z" stroke-miterlimit="10"/></g><g transform="translate(-10,-10) scale(1,1)"><path fill="none" stroke="#000000" d="M 5204.841796875 20 L 5227.841796875 43" stroke-miterlimit="10"/></g><g transform="translate(-10,-10) scale(1,1)"><path fill="none" stroke="#000000" d="M 5227.841796875 20 L 5204.841796875 43" stroke-miterlimit="10"/></g><g transform="translate(-10,-10) scale(1,1)"><g><path fill="none" stroke="none"/><text fill="#000000" stroke="none" font-family="Arial" font-size="13px" font-style="normal" font-weight="normal" text-decoration="none" x="5216.341796875" y="60.5"></text></g></g><g transform="translate(-10,-10) scale(1,1)"><g><path fill="none" stroke="none"/><text fill="#000000" stroke="none" font-family="Arial" font-size="13px" font-style="normal" font-weight="bold" text-decoration="none" x="5169.369140625" y="75.5">LinkedHashMap</text></g></g><g transform="translate(-10,-10) scale(1,1)"><path fill="none" stroke="#000000" d="M 5310.0263671875 20 L 5333.0263671875 20 L 5333.0263671875 43 L 5310.0263671875 43 L 5310.0263671875 20 Z Z" stroke-miterlimit="10"/></g><g transform="translate(-10,-10) scale(1,1)"><path fill="none" stroke="#000000" d="M 5310.0263671875 20 L 5333.0263671875 43" stroke-miterlimit="10"/></g><g transform="translate(-10,-10) scale(1,1)"><path fill="none" stroke="#000000" d="M 5333.0263671875 20 L 5310.0263671875 43" stroke-miterlimit="10"/></g><g transform="translate(-10,-10) scale(1,1)"><g><path fill="none" stroke="none"/><text fill="#000000" stroke="none" font-family="Arial" font-size="13px" font-style="normal" font-weight="normal" text-decoration="none" x="5321.5263671875" y="60.5"></text></g></g><g transform="translate(-10,-10) scale(1,1)"><g><path fill="none" stroke="none"/><text fill="#000000" stroke="none" font-family="Arial" font-size="13px" font-style="normal" font-weight="bold" text-decoration="none" x="5301.286865234375" y="75.5">Logger</text></g></g><g transform="translate(-10,-10) scale(1,1)"><path fill="none" stroke="#000000" d="M 5397.694091796875 20 L 5420.694091796875 20 L 5420.694091796875 43 L 5397.694091796875 43 L 5397.694091796875 20 Z Z" stroke-miterlimit="10"/></g><g transform="translate(-10,-10) scale(1,1)"><path fill="none" stroke="#000000" d="M 5397.694091796875 20 L 5420.694091796875 43" stroke-miterlimit="10"/></g><g transform="translate(-10,-10) scale(1,1)"><path fill="none" stroke="#000000" d="M 5420.694091796875 20 L 5397.694091796875 43" stroke-miterlimit="10"/></g><g transform="translate(-10,-10) scale(1,1)"><g><path fill="none" stroke="none"/><text fill="#000000" stroke="none" font-family="Arial" font-size="13px" font-style="normal" font-weight="normal" text-decoration="none" x="5409.194091796875" y="60.5"></text></g></g><g transform="translate(-10,-10) scale(1,1)"><g><path fill="none" stroke="none"/><text fill="#000000" stroke="none" font-family="Arial" font-size="13px" font-style="normal" font-weight="bold" text-decoration="none" x="5380.293212890625" y="75.5">BookDAO</text></g></g><g transform="translate(-10,-10) scale(1,1)"><path fill="none" stroke="#000000" d="M 5493.897705078125 20 L 5516.897705078125 20 L 5516.897705078125 43 L 5493.897705078125 43 L 5493.897705078125 20 Z Z" stroke-miterlimit="10"/></g><g transform="translate(-10,-10) scale(1,1)"><path fill="none" stroke="#000000" d="M 5493.897705078125 20 L 5516.897705078125 43" stroke-miterlimit="10"/></g><g transform="translate(-10,-10) scale(1,1)"><path fill="none" stroke="#000000" d="M 5516.897705078125 20 L 5493.897705078125 43" stroke-miterlimit="10"/></g><g transform="translate(-10,-10) scale(1,1)"><g><path fill="none" stroke="none"/><text fill="#000000" stroke="none" font-family="Arial" font-size="13px" font-style="normal" font-weight="normal" text-decoration="none" x="5505.397705078125" y="60.5"></text></g></g><g transform="translate(-10,-10) scale(1,1)"><g><path fill="none" stroke="none"/><text fill="#000000" stroke="none" font-family="Arial" font-size="13px" font-style="normal" font-weight="bold" text-decoration="none" x="5477.588623046875" y="75.5">UserDAO</text></g></g><g transform="translate(-10,-10) scale(1,1)"><path fill="none" stroke="#000000" d="M 5602.265869140625 20 L 5625.265869140625 20 L 5625.265869140625 43 L 5602.265869140625 43 L 5602.265869140625 20 Z Z" stroke-miterlimit="10"/></g><g transform="translate(-10,-10) scale(1,1)"><path fill="none" stroke="#000000" d="M 5602.265869140625 20 L 5625.265869140625 43" stroke-miterlimit="10"/></g><g transform="translate(-10,-10) scale(1,1)"><path fill="none" stroke="#000000" d="M 5625.265869140625 20 L 5602.265869140625 43" stroke-miterlimit="10"/></g><g transform="translate(-10,-10) scale(1,1)"><g><path fill="none" stroke="none"/><text fill="#000000" stroke="none" font-family="Arial" font-size="13px" font-style="normal" font-weight="normal" text-decoration="none" x="5613.765869140625" y="60.5"></text></g></g><g transform="translate(-10,-10) scale(1,1)"><g><path fill="none" stroke="none"/><text fill="#000000" stroke="none" font-family="Arial" font-size="13px" font-style="normal" font-weight="bold" text-decoration="none" x="5574.38818359375" y="75.5">UserValidator</text></g></g><g transform="translate(-10,-10) scale(1,1)"><path fill="none" stroke="#000000" d="M 5710.14453125 20 L 5733.14453125 20 L 5733.14453125 43 L 5710.14453125 43 L 5710.14453125 20 Z Z" stroke-miterlimit="10"/></g><g transform="translate(-10,-10) scale(1,1)"><path fill="none" stroke="#000000" d="M 5710.14453125 20 L 5733.14453125 43" stroke-miterlimit="10"/></g><g transform="translate(-10,-10) scale(1,1)"><path fill="none" stroke="#000000" d="M 5733.14453125 20 L 5710.14453125 43" stroke-miterlimit="10"/></g><g transform="translate(-10,-10) scale(1,1)"><g><path fill="none" stroke="none"/><text fill="#000000" stroke="none" font-family="Arial" font-size="13px" font-style="normal" font-weight="normal" text-decoration="none" x="5721.64453125" y="60.5"></text></g></g><g transform="translate(-10,-10) scale(1,1)"><g><path fill="none" stroke="none"/><text fill="#000000" stroke="none" font-family="Arial" font-size="13px" font-style="normal" font-weight="bold" text-decoration="none" x="5690.944091796875" y="75.5">OrderDAO</text></g></g></g></svg>