<svg version="1.1" xmlns="http://www.w3.org/2000/svg" xmlns:xlink="http://www.w3.org/1999/xlink" width="475.24267578125" height="409"><defs/><g><g transform="translate(-10,-10) scale(1,1)"><rect fill="#C0C0C0" stroke="none" x="227" y="27" width="19.599999999999994" height="15" opacity="0.2"/></g><g transform="translate(-10,-10) scale(1,1)"><rect fill="#C0C0C0" stroke="none" x="227" y="41" width="49" height="25" opacity="0.2"/></g><g transform="translate(-10,-10) scale(1,1)"><rect fill="#ffffff" stroke="none" x="220" y="35" width="49" height="24"/></g><g transform="translate(-10,-10) scale(1,1)"><path fill="none" stroke="#000000" d="M 220 35 L 269 35 L 269 59 L 220 59 L 220 35 Z Z" stroke-miterlimit="10"/></g><g transform="translate(-10,-10) scale(1,1)"><rect fill="#ffffff" stroke="none" x="220" y="20" width="19.599999999999994" height="15"/></g><g transform="translate(-10,-10) scale(1,1)"><path fill="none" stroke="#000000" d="M 220 20 L 239.6 20 L 239.6 35 L 220 35 L 220 20 Z Z" stroke-miterlimit="10"/></g><g transform="translate(-10,-10) scale(1,1)"><rect fill="#ffffff" stroke="none" x="220" y="34" width="49" height="25"/></g><g transform="translate(-10,-10) scale(1,1)"><path fill="none" stroke="#000000" d="M 220 34 L 269 34 L 269 59 L 220 59 L 220 34 Z Z" stroke-miterlimit="10"/></g><g transform="translate(-10,-10) scale(1,1)"><g><path fill="none" stroke="none"/><text fill="#000000" stroke="none" font-family="Arial" font-size="13px" font-style="normal" font-weight="bold" text-decoration="none" x="237.27001953125" y="54.5">ua</text></g></g><g transform="translate(-10,-10) scale(1,1)"><rect fill="#C0C0C0" stroke="none" x="227" y="97" width="19.599999999999994" height="15" opacity="0.2"/></g><g transform="translate(-10,-10) scale(1,1)"><rect fill="#C0C0C0" stroke="none" x="227" y="111" width="49" height="25" opacity="0.2"/></g><g transform="translate(-10,-10) scale(1,1)"><rect fill="#ffffff" stroke="none" x="220" y="105" width="49" height="24"/></g><g transform="translate(-10,-10) scale(1,1)"><path fill="none" stroke="#000000" d="M 220 105 L 269 105 L 269 129 L 220 129 L 220 105 Z Z" stroke-miterlimit="10"/></g><g transform="translate(-10,-10) scale(1,1)"><rect fill="#ffffff" stroke="none" x="220" y="90" width="19.599999999999994" height="15"/></g><g transform="translate(-10,-10) scale(1,1)"><path fill="none" stroke="#000000" d="M 220 90 L 239.6 90 L 239.6 105 L 220 105 L 220 90 Z Z" stroke-miterlimit="10"/></g><g transform="translate(-10,-10) scale(1,1)"><rect fill="#ffffff" stroke="none" x="220" y="104" width="49" height="25"/></g><g transform="translate(-10,-10) scale(1,1)"><path fill="none" stroke="#000000" d="M 220 104 L 269 104 L 269 129 L 220 129 L 220 104 Z Z" stroke-miterlimit="10"/></g><g transform="translate(-10,-10) scale(1,1)"><g><path fill="none" stroke="none"/><text fill="#000000" stroke="none" font-family="Arial" font-size="13px" font-style="normal" font-weight="bold" text-decoration="none" x="231.490478515625" y="124.5">nure</text></g></g><g transform="translate(-10,-10) scale(1,1)"><rect fill="#C0C0C0" stroke="none" x="227" y="167" width="19.599999999999994" height="15" opacity="0.2"/></g><g transform="translate(-10,-10) scale(1,1)"><rect fill="#C0C0C0" stroke="none" x="227" y="181" width="49" height="25" opacity="0.2"/></g><g transform="translate(-10,-10) scale(1,1)"><rect fill="#ffffff" stroke="none" x="220" y="175" width="49" height="24"/></g><g transform="translate(-10,-10) scale(1,1)"><path fill="none" stroke="#000000" d="M 220 175 L 269 175 L 269 199 L 220 199 L 220 175 Z Z" stroke-miterlimit="10"/></g><g transform="translate(-10,-10) scale(1,1)"><rect fill="#ffffff" stroke="none" x="220" y="160" width="19.599999999999994" height="15"/></g><g transform="translate(-10,-10) scale(1,1)"><path fill="none" stroke="#000000" d="M 220 160 L 239.6 160 L 239.6 175 L 220 175 L 220 160 Z Z" stroke-miterlimit="10"/></g><g transform="translate(-10,-10) scale(1,1)"><rect fill="#ffffff" stroke="none" x="220" y="174" width="49" height="25"/></g><g transform="translate(-10,-10) scale(1,1)"><path fill="none" stroke="#000000" d="M 220 174 L 269 174 L 269 199 L 220 199 L 220 174 Z Z" stroke-miterlimit="10"/></g><g transform="translate(-10,-10) scale(1,1)"><g><path fill="none" stroke="none"/><text fill="#000000" stroke="none" font-family="Arial" font-size="13px" font-style="normal" font-weight="bold" text-decoration="none" x="229.325927734375" y="194.5">order</text></g></g><g transform="translate(-10,-10) scale(1,1)"><rect fill="#C0C0C0" stroke="none" x="27" y="237" width="19.6" height="15" opacity="0.2"/></g><g transform="translate(-10,-10) scale(1,1)"><rect fill="#C0C0C0" stroke="none" x="27" y="251" width="49" height="25" opacity="0.2"/></g><g transform="translate(-10,-10) scale(1,1)"><rect fill="#ffffff" stroke="none" x="20" y="245" width="49" height="24"/></g><g transform="translate(-10,-10) scale(1,1)"><path fill="none" stroke="#000000" d="M 20 245 L 69 245 L 69 269 L 20 269 L 20 245 Z Z" stroke-miterlimit="10"/></g><g transform="translate(-10,-10) scale(1,1)"><rect fill="#ffffff" stroke="none" x="20" y="230" width="19.6" height="15"/></g><g transform="translate(-10,-10) scale(1,1)"><path fill="none" stroke="#000000" d="M 20 230 L 39.6 230 L 39.6 245 L 20 245 L 20 230 Z Z" stroke-miterlimit="10"/></g><g transform="translate(-10,-10) scale(1,1)"><rect fill="#ffffff" stroke="none" x="20" y="244" width="49" height="25"/></g><g transform="translate(-10,-10) scale(1,1)"><path fill="none" stroke="#000000" d="M 20 244 L 69 244 L 69 269 L 20 269 L 20 244 Z Z" stroke-miterlimit="10"/></g><g transform="translate(-10,-10) scale(1,1)"><g><path fill="none" stroke="none"/><text fill="#000000" stroke="none" font-family="Arial" font-size="13px" font-style="normal" font-weight="bold" text-decoration="none" x="29.325927734375" y="264.5">client</text></g></g><g transform="translate(-10,-10) scale(1,1)"><rect fill="#C0C0C0" stroke="none" x="107" y="237" width="19.599999999999994" height="15" opacity="0.2"/></g><g transform="translate(-10,-10) scale(1,1)"><rect fill="#C0C0C0" stroke="none" x="107" y="251" width="49" height="25" opacity="0.2"/></g><g transform="translate(-10,-10) scale(1,1)"><rect fill="#ffffff" stroke="none" x="100" y="245" width="49" height="24"/></g><g transform="translate(-10,-10) scale(1,1)"><path fill="none" stroke="#000000" d="M 100 245 L 149 245 L 149 269 L 100 269 L 100 245 Z Z" stroke-miterlimit="10"/></g><g transform="translate(-10,-10) scale(1,1)"><rect fill="#ffffff" stroke="none" x="100" y="230" width="19.599999999999994" height="15"/></g><g transform="translate(-10,-10) scale(1,1)"><path fill="none" stroke="#000000" d="M 100 230 L 119.6 230 L 119.6 245 L 100 245 L 100 230 Z Z" stroke-miterlimit="10"/></g><g transform="translate(-10,-10) scale(1,1)"><rect fill="#ffffff" stroke="none" x="100" y="244" width="49" height="25"/></g><g transform="translate(-10,-10) scale(1,1)"><path fill="none" stroke="#000000" d="M 100 244 L 149 244 L 149 269 L 100 269 L 100 244 Z Z" stroke-miterlimit="10"/></g><g transform="translate(-10,-10) scale(1,1)"><g><path fill="none" stroke="none"/><text fill="#000000" stroke="none" font-family="Arial" font-size="13px" font-style="normal" font-weight="bold" text-decoration="none" x="108.964111328125" y="264.5">entity</text></g></g><g transform="translate(-10,-10) scale(1,1)"><rect fill="#C0C0C0" stroke="none" x="27" y="307" width="19.6" height="15" opacity="0.2"/></g><g transform="translate(-10,-10) scale(1,1)"><rect fill="#C0C0C0" stroke="none" x="27" y="321" width="49" height="25" opacity="0.2"/></g><g transform="translate(-10,-10) scale(1,1)"><rect fill="#ffffff" stroke="none" x="20" y="315" width="49" height="24"/></g><g transform="translate(-10,-10) scale(1,1)"><path fill="none" stroke="#000000" d="M 20 315 L 69 315 L 69 339 L 20 339 L 20 315 Z Z" stroke-miterlimit="10"/></g><g transform="translate(-10,-10) scale(1,1)"><rect fill="#ffffff" stroke="none" x="20" y="300" width="19.6" height="15"/></g><g transform="translate(-10,-10) scale(1,1)"><path fill="none" stroke="#000000" d="M 20 300 L 39.6 300 L 39.6 315 L 20 315 L 20 300 Z Z" stroke-miterlimit="10"/></g><g transform="translate(-10,-10) scale(1,1)"><rect fill="#ffffff" stroke="none" x="20" y="314" width="49" height="25"/></g><g transform="translate(-10,-10) scale(1,1)"><path fill="none" stroke="#000000" d="M 20 314 L 69 314 L 69 339 L 20 339 L 20 314 Z Z" stroke-miterlimit="10"/></g><g transform="translate(-10,-10) scale(1,1)"><g><path fill="none" stroke="none"/><text fill="#000000" stroke="none" font-family="Arial" font-size="13px" font-style="normal" font-weight="bold" text-decoration="none" x="30.405029296875" y="334.5">book</text></g></g><g transform="translate(-10,-10) scale(1,1)"><rect fill="#C0C0C0" stroke="none" x="107" y="307" width="19.599999999999994" height="15" opacity="0.2"/></g><g transform="translate(-10,-10) scale(1,1)"><rect fill="#C0C0C0" stroke="none" x="107" y="321" width="49" height="25" opacity="0.2"/></g><g transform="translate(-10,-10) scale(1,1)"><rect fill="#ffffff" stroke="none" x="100" y="315" width="49" height="24"/></g><g transform="translate(-10,-10) scale(1,1)"><path fill="none" stroke="#000000" d="M 100 315 L 149 315 L 149 339 L 100 339 L 100 315 Z Z" stroke-miterlimit="10"/></g><g transform="translate(-10,-10) scale(1,1)"><rect fill="#ffffff" stroke="none" x="100" y="300" width="19.599999999999994" height="15"/></g><g transform="translate(-10,-10) scale(1,1)"><path fill="none" stroke="#000000" d="M 100 300 L 119.6 300 L 119.6 315 L 100 315 L 100 300 Z Z" stroke-miterlimit="10"/></g><g transform="translate(-10,-10) scale(1,1)"><rect fill="#ffffff" stroke="none" x="100" y="314" width="49" height="25"/></g><g transform="translate(-10,-10) scale(1,1)"><path fill="none" stroke="#000000" d="M 100 314 L 149 314 L 149 339 L 100 339 L 100 314 Z Z" stroke-miterlimit="10"/></g><g transform="translate(-10,-10) scale(1,1)"><g><path fill="none" stroke="none"/><text fill="#000000" stroke="none" font-family="Arial" font-size="13px" font-style="normal" font-weight="bold" text-decoration="none" x="109.325927734375" y="334.5">order</text></g></g><g transform="translate(-10,-10) scale(1,1)"><rect fill="#C0C0C0" stroke="none" x="187" y="307" width="19.599999999999994" height="15" opacity="0.2"/></g><g transform="translate(-10,-10) scale(1,1)"><rect fill="#C0C0C0" stroke="none" x="187" y="321" width="49" height="25" opacity="0.2"/></g><g transform="translate(-10,-10) scale(1,1)"><rect fill="#ffffff" stroke="none" x="180" y="315" width="49" height="24"/></g><g transform="translate(-10,-10) scale(1,1)"><path fill="none" stroke="#000000" d="M 180 315 L 229 315 L 229 339 L 180 339 L 180 315 Z Z" stroke-miterlimit="10"/></g><g transform="translate(-10,-10) scale(1,1)"><rect fill="#ffffff" stroke="none" x="180" y="300" width="19.599999999999994" height="15"/></g><g transform="translate(-10,-10) scale(1,1)"><path fill="none" stroke="#000000" d="M 180 300 L 199.6 300 L 199.6 315 L 180 315 L 180 300 Z Z" stroke-miterlimit="10"/></g><g transform="translate(-10,-10) scale(1,1)"><rect fill="#ffffff" stroke="none" x="180" y="314" width="49" height="25"/></g><g transform="translate(-10,-10) scale(1,1)"><path fill="none" stroke="#000000" d="M 180 314 L 229 314 L 229 339 L 180 339 L 180 314 Z Z" stroke-miterlimit="10"/></g><g transform="translate(-10,-10) scale(1,1)"><g><path fill="none" stroke="none"/><text fill="#000000" stroke="none" font-family="Arial" font-size="13px" font-style="normal" font-weight="bold" text-decoration="none" x="191.85546875" y="334.5">user</text></g></g><g transform="translate(-10,-10) scale(1,1)"><rect fill="#C0C0C0" stroke="none" x="347" y="237" width="19.600000000000023" height="15" opacity="0.2"/></g><g transform="translate(-10,-10) scale(1,1)"><rect fill="#C0C0C0" stroke="none" x="347" y="251" width="49" height="25" opacity="0.2"/></g><g transform="translate(-10,-10) scale(1,1)"><rect fill="#ffffff" stroke="none" x="340" y="245" width="49" height="24"/></g><g transform="translate(-10,-10) scale(1,1)"><path fill="none" stroke="#000000" d="M 340 245 L 389 245 L 389 269 L 340 269 L 340 245 Z Z" stroke-miterlimit="10"/></g><g transform="translate(-10,-10) scale(1,1)"><rect fill="#ffffff" stroke="none" x="340" y="230" width="19.600000000000023" height="15"/></g><g transform="translate(-10,-10) scale(1,1)"><path fill="none" stroke="#000000" d="M 340 230 L 359.6 230 L 359.6 245 L 340 245 L 340 230 Z Z" stroke-miterlimit="10"/></g><g transform="translate(-10,-10) scale(1,1)"><rect fill="#ffffff" stroke="none" x="340" y="244" width="49" height="25"/></g><g transform="translate(-10,-10) scale(1,1)"><path fill="none" stroke="#000000" d="M 340 244 L 389 244 L 389 269 L 340 269 L 340 244 Z Z" stroke-miterlimit="10"/></g><g transform="translate(-10,-10) scale(1,1)"><g><path fill="none" stroke="none"/><text fill="#000000" stroke="none" font-family="Arial" font-size="13px" font-style="normal" font-weight="bold" text-decoration="none" x="346.44091796875" y="264.5">server</text></g></g><g transform="translate(-10,-10) scale(1,1)"><rect fill="#C0C0C0" stroke="none" x="267" y="307" width="19.600000000000023" height="15" opacity="0.2"/></g><g transform="translate(-10,-10) scale(1,1)"><rect fill="#C0C0C0" stroke="none" x="267" y="321" width="49" height="25" opacity="0.2"/></g><g transform="translate(-10,-10) scale(1,1)"><rect fill="#ffffff" stroke="none" x="260" y="315" width="49" height="24"/></g><g transform="translate(-10,-10) scale(1,1)"><path fill="none" stroke="#000000" d="M 260 315 L 309 315 L 309 339 L 260 339 L 260 315 Z Z" stroke-miterlimit="10"/></g><g transform="translate(-10,-10) scale(1,1)"><rect fill="#ffffff" stroke="none" x="260" y="300" width="19.600000000000023" height="15"/></g><g transform="translate(-10,-10) scale(1,1)"><path fill="none" stroke="#000000" d="M 260 300 L 279.6 300 L 279.6 315 L 260 315 L 260 300 Z Z" stroke-miterlimit="10"/></g><g transform="translate(-10,-10) scale(1,1)"><rect fill="#ffffff" stroke="none" x="260" y="314" width="49" height="25"/></g><g transform="translate(-10,-10) scale(1,1)"><path fill="none" stroke="#000000" d="M 260 314 L 309 314 L 309 339 L 260 339 L 260 314 Z Z" stroke-miterlimit="10"/></g><g transform="translate(-10,-10) scale(1,1)"><g><path fill="none" stroke="none"/><text fill="#000000" stroke="none" font-family="Arial" font-size="13px" font-style="normal" font-weight="bold" text-decoration="none" x="273.655029296875" y="334.5">dao</text></g></g><g transform="translate(-10,-10) scale(1,1)"><rect fill="#C0C0C0" stroke="none" x="267" y="377" width="19.600000000000023" height="15" opacity="0.2"/></g><g transform="translate(-10,-10) scale(1,1)"><rect fill="#C0C0C0" stroke="none" x="267" y="391" width="49" height="25" opacity="0.2"/></g><g transform="translate(-10,-10) scale(1,1)"><rect fill="#ffffff" stroke="none" x="260" y="385" width="49" height="24"/></g><g transform="translate(-10,-10) scale(1,1)"><path fill="none" stroke="#000000" d="M 260 385 L 309 385 L 309 409 L 260 409 L 260 385 Z Z" stroke-miterlimit="10"/></g><g transform="translate(-10,-10) scale(1,1)"><rect fill="#ffffff" stroke="none" x="260" y="370" width="19.600000000000023" height="15"/></g><g transform="translate(-10,-10) scale(1,1)"><path fill="none" stroke="#000000" d="M 260 370 L 279.6 370 L 279.6 385 L 260 385 L 260 370 Z Z" stroke-miterlimit="10"/></g><g transform="translate(-10,-10) scale(1,1)"><rect fill="#ffffff" stroke="none" x="260" y="384" width="49" height="25"/></g><g transform="translate(-10,-10) scale(1,1)"><path fill="none" stroke="#000000" d="M 260 384 L 309 384 L 309 409 L 260 409 L 260 384 Z Z" stroke-miterlimit="10"/></g><g transform="translate(-10,-10) scale(1,1)"><g><path fill="none" stroke="none"/><text fill="#000000" stroke="none" font-family="Arial" font-size="13px" font-style="normal" font-weight="bold" text-decoration="none" x="267.5263671875" y="404.5">mysql</text></g></g><g transform="translate(-10,-10) scale(1,1)"><rect fill="#C0C0C0" stroke="none" x="347" y="307" width="19.600000000000023" height="15" opacity="0.2"/></g><g transform="translate(-10,-10) scale(1,1)"><rect fill="#C0C0C0" stroke="none" x="347" y="321" width="49" height="25" opacity="0.2"/></g><g transform="translate(-10,-10) scale(1,1)"><rect fill="#ffffff" stroke="none" x="340" y="315" width="49" height="24"/></g><g transform="translate(-10,-10) scale(1,1)"><path fill="none" stroke="#000000" d="M 340 315 L 389 315 L 389 339 L 340 339 L 340 315 Z Z" stroke-miterlimit="10"/></g><g transform="translate(-10,-10) scale(1,1)"><rect fill="#ffffff" stroke="none" x="340" y="300" width="19.600000000000023" height="15"/></g><g transform="translate(-10,-10) scale(1,1)"><path fill="none" stroke="#000000" d="M 340 300 L 359.6 300 L 359.6 315 L 340 315 L 340 300 Z Z" stroke-miterlimit="10"/></g><g transform="translate(-10,-10) scale(1,1)"><rect fill="#ffffff" stroke="none" x="340" y="314" width="49" height="25"/></g><g transform="translate(-10,-10) scale(1,1)"><path fill="none" stroke="#000000" d="M 340 314 L 389 314 L 389 339 L 340 339 L 340 314 Z Z" stroke-miterlimit="10"/></g><g transform="translate(-10,-10) scale(1,1)"><g><path fill="none" stroke="none"/><text fill="#000000" stroke="none" font-family="Arial" font-size="13px" font-style="normal" font-weight="bold" text-decoration="none" x="352.220458984375" y="334.5">filter</text></g></g><g transform="translate(-10,-10) scale(1,1)"><rect fill="#C0C0C0" stroke="none" x="427" y="307" width="22.097070312500023" height="15" opacity="0.2"/></g><g transform="translate(-10,-10) scale(1,1)"><rect fill="#C0C0C0" stroke="none" x="427" y="321" width="55.24267578125" height="25" opacity="0.2"/></g><g transform="translate(-10,-10) scale(1,1)"><rect fill="#ffffff" stroke="none" x="420" y="315" width="55.24267578125" height="24"/></g><g transform="translate(-10,-10) scale(1,1)"><path fill="none" stroke="#000000" d="M 420 315 L 475.24267578125 315 L 475.24267578125 339 L 420 339 L 420 315 Z Z" stroke-miterlimit="10"/></g><g transform="translate(-10,-10) scale(1,1)"><rect fill="#ffffff" stroke="none" x="420" y="300" width="22.097070312500023" height="15"/></g><g transform="translate(-10,-10) scale(1,1)"><path fill="none" stroke="#000000" d="M 420 300 L 442.0970703125 300 L 442.0970703125 315 L 420 315 L 420 300 Z Z" stroke-miterlimit="10"/></g><g transform="translate(-10,-10) scale(1,1)"><rect fill="#ffffff" stroke="none" x="420" y="314" width="55.24267578125" height="25"/></g><g transform="translate(-10,-10) scale(1,1)"><path fill="none" stroke="#000000" d="M 420 314 L 475.24267578125 314 L 475.24267578125 339 L 420 339 L 420 314 Z Z" stroke-miterlimit="10"/></g><g transform="translate(-10,-10) scale(1,1)"><g><path fill="none" stroke="none"/><text fill="#000000" stroke="none" font-family="Arial" font-size="13px" font-style="normal" font-weight="bold" text-decoration="none" x="426.667724609375" y="334.5">listener</text></g></g><g transform="translate(-10,-10) scale(1,1)"><rect fill="#C0C0C0" stroke="none" x="427" y="237" width="20.65234375" height="15" opacity="0.2"/></g><g transform="translate(-10,-10) scale(1,1)"><rect fill="#C0C0C0" stroke="none" x="427" y="251" width="51.630859375" height="25" opacity="0.2"/></g><g transform="translate(-10,-10) scale(1,1)"><rect fill="#ffffff" stroke="none" x="420" y="245" width="51.630859375" height="24"/></g><g transform="translate(-10,-10) scale(1,1)"><path fill="none" stroke="#000000" d="M 420 245 L 471.630859375 245 L 471.630859375 269 L 420 269 L 420 245 Z Z" stroke-miterlimit="10"/></g><g transform="translate(-10,-10) scale(1,1)"><rect fill="#ffffff" stroke="none" x="420" y="230" width="20.65234375" height="15"/></g><g transform="translate(-10,-10) scale(1,1)"><path fill="none" stroke="#000000" d="M 420 230 L 440.65234375 230 L 440.65234375 245 L 420 245 L 420 230 Z Z" stroke-miterlimit="10"/></g><g transform="translate(-10,-10) scale(1,1)"><rect fill="#ffffff" stroke="none" x="420" y="244" width="51.630859375" height="25"/></g><g transform="translate(-10,-10) scale(1,1)"><path fill="none" stroke="#000000" d="M 420 244 L 471.630859375 244 L 471.630859375 269 L 420 269 L 420 244 Z Z" stroke-miterlimit="10"/></g><g transform="translate(-10,-10) scale(1,1)"><g><path fill="none" stroke="none"/><text fill="#000000" stroke="none" font-family="Arial" font-size="13px" font-style="normal" font-weight="bold" text-decoration="none" x="425.94091796875" y="264.5">shared</text></g></g><g transform="translate(-10,-10) scale(1,1)"><path fill="none" stroke="#000000" d="M 245 89 Q 245 75 245 60" stroke-miterlimit="10"/></g><g transform="translate(-10,-10) scale(1,1)"><path fill="#FFFFFF" stroke="none" d="M 238 67 C 238 63.1340064 241.1340064 60 245 60 C 248.8659936 60 252 63.1340064 252 67 C 252 70.8659936 248.8659936 74 245 74 C 241.1340064 74 238 70.8659936 238 67 Z"/></g><g transform="translate(-10,-10) scale(1,1)"><path fill="none" stroke="#000000" d="M 238 67 C 238 63.1340064 241.1340064 60 245 60 C 248.8659936 60 252 63.1340064 252 67 C 252 70.8659936 248.8659936 74 245 74 C 241.1340064 74 238 70.8659936 238 67 Z" stroke-miterlimit="10"/></g><g transform="translate(-10,-10) scale(1,1)"><path fill="none" stroke="#000000" d="M 245 74 L 245 60" stroke-miterlimit="10"/></g><g transform="translate(-10,-10) scale(1,1)"><path fill="none" stroke="#000000" d="M 252 67 L 238 67" stroke-miterlimit="10"/></g><g transform="translate(-10,-10) scale(1,1)"><path fill="none" stroke="#000000" d="M 245 159 Q 245 145 245 130" stroke-miterlimit="10"/></g><g transform="translate(-10,-10) scale(1,1)"><path fill="#FFFFFF" stroke="none" d="M 238 137 C 238 133.1340064 241.1340064 130 245 130 C 248.8659936 130 252 133.1340064 252 137 C 252 140.8659936 248.8659936 144 245 144 C 241.1340064 144 238 140.8659936 238 137 Z"/></g><g transform="translate(-10,-10) scale(1,1)"><path fill="none" stroke="#000000" d="M 238 137 C 238 133.1340064 241.1340064 130 245 130 C 248.8659936 130 252 133.1340064 252 137 C 252 140.8659936 248.8659936 144 245 144 C 241.1340064 144 238 140.8659936 238 137 Z" stroke-miterlimit="10"/></g><g transform="translate(-10,-10) scale(1,1)"><path fill="none" stroke="#000000" d="M 245 144 L 245 130" stroke-miterlimit="10"/></g><g transform="translate(-10,-10) scale(1,1)"><path fill="none" stroke="#000000" d="M 252 137 L 238 137" stroke-miterlimit="10"/></g><g transform="translate(-10,-10) scale(1,1)"><path fill="none" stroke="#000000" d="M 45 229 Q 45 215 219 184" stroke-miterlimit="10"/></g><g transform="translate(-10,-10) scale(1,1)"><path fill="#FFFFFF" stroke="none" d="M 205.10851794674366 185.22779277960313 C 205.10851794674366 181.36179917960314 208.24252434674366 178.22779277960313 212.10851794674366 178.22779277960313 C 215.97451154674366 178.22779277960313 219.10851794674366 181.36179917960314 219.10851794674366 185.22779277960313 C 219.10851794674366 189.09378637960313 215.97451154674366 192.22779277960313 212.10851794674366 192.22779277960313 C 208.24252434674366 192.22779277960313 205.10851794674366 189.09378637960313 205.10851794674366 185.22779277960313 Z"/></g><g transform="translate(-10,-10) scale(1,1)"><path fill="none" stroke="#000000" d="M 205.10851794674366 185.22779277960313 C 205.10851794674366 181.36179917960314 208.24252434674366 178.22779277960313 212.10851794674366 178.22779277960313 C 215.97451154674366 178.22779277960313 219.10851794674366 181.36179917960314 219.10851794674366 185.22779277960313 C 219.10851794674366 189.09378637960313 215.97451154674366 192.22779277960313 212.10851794674366 192.22779277960313 C 208.24252434674366 192.22779277960313 205.10851794674366 189.09378637960313 205.10851794674366 185.22779277960313 Z" stroke-miterlimit="10"/></g><g transform="translate(-10,-10) scale(1,1)"><path fill="none" stroke="#000000" d="M 205.2170358934873 186.4555855592063 L 219 184" stroke-miterlimit="10"/></g><g transform="translate(-10,-10) scale(1,1)"><path fill="none" stroke="#000000" d="M 213.3363107263468 192.11927483285947 L 210.88072516714053 178.3363107263468" stroke-miterlimit="10"/></g><g transform="translate(-10,-10) scale(1,1)"><path fill="none" stroke="#000000" d="M 125 229 Q 125 215 219 187" stroke-miterlimit="10"/></g><g transform="translate(-10,-10) scale(1,1)"><path fill="#FFFFFF" stroke="none" d="M 205.29130021489613 188.99833610620115 C 205.29130021489613 185.13234250620116 208.42530661489613 181.99833610620115 212.29130021489613 181.99833610620115 C 216.15729381489612 181.99833610620115 219.29130021489613 185.13234250620116 219.29130021489613 188.99833610620115 C 219.29130021489613 192.86432970620115 216.15729381489612 195.99833610620115 212.29130021489613 195.99833610620115 C 208.42530661489613 195.99833610620115 205.29130021489613 192.86432970620115 205.29130021489613 188.99833610620115 Z"/></g><g transform="translate(-10,-10) scale(1,1)"><path fill="none" stroke="#000000" d="M 205.29130021489613 188.99833610620115 C 205.29130021489613 185.13234250620116 208.42530661489613 181.99833610620115 212.29130021489613 181.99833610620115 C 216.15729381489612 181.99833610620115 219.29130021489613 185.13234250620116 219.29130021489613 188.99833610620115 C 219.29130021489613 192.86432970620115 216.15729381489612 195.99833610620115 212.29130021489613 195.99833610620115 C 208.42530661489613 195.99833610620115 205.29130021489613 192.86432970620115 205.29130021489613 188.99833610620115 Z" stroke-miterlimit="10"/></g><g transform="translate(-10,-10) scale(1,1)"><path fill="none" stroke="#000000" d="M 205.58260042979225 190.9966722124023 L 219 187" stroke-miterlimit="10"/></g><g transform="translate(-10,-10) scale(1,1)"><path fill="none" stroke="#000000" d="M 214.28963632109728 195.70703589130503 L 210.29296410869497 182.28963632109728" stroke-miterlimit="10"/></g><g transform="translate(-10,-10) scale(1,1)"><path fill="none" stroke="#000000" d="M 45 299 Q 45 285 99 260" stroke-miterlimit="10"/></g><g transform="translate(-10,-10) scale(1,1)"><path fill="#FFFFFF" stroke="none" d="M 85.64773165016112 262.9408649767773 C 85.64773165016112 259.07487137677725 88.78173805016112 255.94086497677728 92.64773165016112 255.94086497677728 C 96.51372525016112 255.94086497677728 99.64773165016112 259.07487137677725 99.64773165016112 262.9408649767773 C 99.64773165016112 266.8068585767773 96.51372525016112 269.9408649767773 92.64773165016112 269.9408649767773 C 88.78173805016112 269.9408649767773 85.64773165016112 266.8068585767773 85.64773165016112 262.9408649767773 Z"/></g><g transform="translate(-10,-10) scale(1,1)"><path fill="none" stroke="#000000" d="M 85.64773165016112 262.9408649767773 C 85.64773165016112 259.07487137677725 88.78173805016112 255.94086497677728 92.64773165016112 255.94086497677728 C 96.51372525016112 255.94086497677728 99.64773165016112 259.07487137677725 99.64773165016112 262.9408649767773 C 99.64773165016112 266.8068585767773 96.51372525016112 269.9408649767773 92.64773165016112 269.9408649767773 C 88.78173805016112 269.9408649767773 85.64773165016112 266.8068585767773 85.64773165016112 262.9408649767773 Z" stroke-miterlimit="10"/></g><g transform="translate(-10,-10) scale(1,1)"><path fill="none" stroke="#000000" d="M 86.29546330032223 265.88172995355455 L 99 260" stroke-miterlimit="10"/></g><g transform="translate(-10,-10) scale(1,1)"><path fill="none" stroke="#000000" d="M 95.58859662693838 269.29313332661616 L 89.70686667338386 256.5885966269384" stroke-miterlimit="10"/></g><g transform="translate(-10,-10) scale(1,1)"><path fill="none" stroke="#000000" d="M 125 299 Q 125 285 125 270" stroke-miterlimit="10"/></g><g transform="translate(-10,-10) scale(1,1)"><path fill="#FFFFFF" stroke="none" d="M 118 277 C 118 273.1340064 121.1340064 270 125 270 C 128.8659936 270 132 273.1340064 132 277 C 132 280.8659936 128.8659936 284 125 284 C 121.1340064 284 118 280.8659936 118 277 Z"/></g><g transform="translate(-10,-10) scale(1,1)"><path fill="none" stroke="#000000" d="M 118 277 C 118 273.1340064 121.1340064 270 125 270 C 128.8659936 270 132 273.1340064 132 277 C 132 280.8659936 128.8659936 284 125 284 C 121.1340064 284 118 280.8659936 118 277 Z" stroke-miterlimit="10"/></g><g transform="translate(-10,-10) scale(1,1)"><path fill="none" stroke="#000000" d="M 125 284 L 125 270" stroke-miterlimit="10"/></g><g transform="translate(-10,-10) scale(1,1)"><path fill="none" stroke="#000000" d="M 132 277 L 118 277" stroke-miterlimit="10"/></g><g transform="translate(-10,-10) scale(1,1)"><path fill="none" stroke="#000000" d="M 205 299 Q 205 285 150 261" stroke-miterlimit="10"/></g><g transform="translate(-10,-10) scale(1,1)"><path fill="#FFFFFF" stroke="none" d="M 149.41577564858744 263.7996111921109 C 149.41577564858744 259.93361759211086 152.54978204858745 256.7996111921109 156.41577564858744 256.7996111921109 C 160.28176924858744 256.7996111921109 163.41577564858744 259.93361759211086 163.41577564858744 263.7996111921109 C 163.41577564858744 267.6656047921109 160.28176924858744 270.7996111921109 156.41577564858744 270.7996111921109 C 152.54978204858745 270.7996111921109 149.41577564858744 267.6656047921109 149.41577564858744 263.7996111921109 Z"/></g><g transform="translate(-10,-10) scale(1,1)"><path fill="none" stroke="#000000" d="M 149.41577564858744 263.7996111921109 C 149.41577564858744 259.93361759211086 152.54978204858745 256.7996111921109 156.41577564858744 256.7996111921109 C 160.28176924858744 256.7996111921109 163.41577564858744 259.93361759211086 163.41577564858744 263.7996111921109 C 163.41577564858744 267.6656047921109 160.28176924858744 270.7996111921109 156.41577564858744 270.7996111921109 C 152.54978204858745 270.7996111921109 149.41577564858744 267.6656047921109 149.41577564858744 263.7996111921109 Z" stroke-miterlimit="10"/></g><g transform="translate(-10,-10) scale(1,1)"><path fill="none" stroke="#000000" d="M 162.83155129717485 266.5992223842218 L 150 261" stroke-miterlimit="10"/></g><g transform="translate(-10,-10) scale(1,1)"><path fill="none" stroke="#000000" d="M 159.21538684069833 257.38383554352345 L 153.61616445647655 270.21538684069833" stroke-miterlimit="10"/></g><g transform="translate(-10,-10) scale(1,1)"><path fill="none" stroke="#000000" d="M 365 229 Q 365 215 270 187" stroke-miterlimit="10"/></g><g transform="translate(-10,-10) scale(1,1)"><path fill="#FFFFFF" stroke="none" d="M 269.7144319712773 188.9789904757449 C 269.7144319712773 185.1129968757449 272.84843837127727 181.9789904757449 276.7144319712773 181.9789904757449 C 280.5804255712773 181.9789904757449 283.7144319712773 185.1129968757449 283.7144319712773 188.9789904757449 C 283.7144319712773 192.8449840757449 280.5804255712773 195.9789904757449 276.7144319712773 195.9789904757449 C 272.84843837127727 195.9789904757449 269.7144319712773 192.8449840757449 269.7144319712773 188.9789904757449 Z"/></g><g transform="translate(-10,-10) scale(1,1)"><path fill="none" stroke="#000000" d="M 269.7144319712773 188.9789904757449 C 269.7144319712773 185.1129968757449 272.84843837127727 181.9789904757449 276.7144319712773 181.9789904757449 C 280.5804255712773 181.9789904757449 283.7144319712773 185.1129968757449 283.7144319712773 188.9789904757449 C 283.7144319712773 192.8449840757449 280.5804255712773 195.9789904757449 276.7144319712773 195.9789904757449 C 272.84843837127727 195.9789904757449 269.7144319712773 192.8449840757449 269.7144319712773 188.9789904757449 Z" stroke-miterlimit="10"/></g><g transform="translate(-10,-10) scale(1,1)"><path fill="none" stroke="#000000" d="M 283.42886394255464 190.9579809514898 L 270 187" stroke-miterlimit="10"/></g><g transform="translate(-10,-10) scale(1,1)"><path fill="none" stroke="#000000" d="M 278.6934224470222 182.26455850446757 L 274.7354414955324 195.69342244702221" stroke-miterlimit="10"/></g><g transform="translate(-10,-10) scale(1,1)"><path fill="none" stroke="#000000" d="M 285 299 Q 285 285 339 260" stroke-miterlimit="10"/></g><g transform="translate(-10,-10) scale(1,1)"><path fill="#FFFFFF" stroke="none" d="M 325.6477316501611 262.9408649767773 C 325.6477316501611 259.07487137677725 328.7817380501611 255.94086497677728 332.6477316501611 255.94086497677728 C 336.51372525016114 255.94086497677728 339.6477316501611 259.07487137677725 339.6477316501611 262.9408649767773 C 339.6477316501611 266.8068585767773 336.51372525016114 269.9408649767773 332.6477316501611 269.9408649767773 C 328.7817380501611 269.9408649767773 325.6477316501611 266.8068585767773 325.6477316501611 262.9408649767773 Z"/></g><g transform="translate(-10,-10) scale(1,1)"><path fill="none" stroke="#000000" d="M 325.6477316501611 262.9408649767773 C 325.6477316501611 259.07487137677725 328.7817380501611 255.94086497677728 332.6477316501611 255.94086497677728 C 336.51372525016114 255.94086497677728 339.6477316501611 259.07487137677725 339.6477316501611 262.9408649767773 C 339.6477316501611 266.8068585767773 336.51372525016114 269.9408649767773 332.6477316501611 269.9408649767773 C 328.7817380501611 269.9408649767773 325.6477316501611 266.8068585767773 325.6477316501611 262.9408649767773 Z" stroke-miterlimit="10"/></g><g transform="translate(-10,-10) scale(1,1)"><path fill="none" stroke="#000000" d="M 326.29546330032224 265.88172995355455 L 339 260" stroke-miterlimit="10"/></g><g transform="translate(-10,-10) scale(1,1)"><path fill="none" stroke="#000000" d="M 335.5885966269384 269.29313332661616 L 329.70686667338384 256.5885966269384" stroke-miterlimit="10"/></g><g transform="translate(-10,-10) scale(1,1)"><path fill="none" stroke="#000000" d="M 285 369 Q 285 355 285 340" stroke-miterlimit="10"/></g><g transform="translate(-10,-10) scale(1,1)"><path fill="#FFFFFF" stroke="none" d="M 278 347 C 278 343.1340064 281.1340064 340 285 340 C 288.8659936 340 292 343.1340064 292 347 C 292 350.8659936 288.8659936 354 285 354 C 281.1340064 354 278 350.8659936 278 347 Z"/></g><g transform="translate(-10,-10) scale(1,1)"><path fill="none" stroke="#000000" d="M 278 347 C 278 343.1340064 281.1340064 340 285 340 C 288.8659936 340 292 343.1340064 292 347 C 292 350.8659936 288.8659936 354 285 354 C 281.1340064 354 278 350.8659936 278 347 Z" stroke-miterlimit="10"/></g><g transform="translate(-10,-10) scale(1,1)"><path fill="none" stroke="#000000" d="M 285 354 L 285 340" stroke-miterlimit="10"/></g><g transform="translate(-10,-10) scale(1,1)"><path fill="none" stroke="#000000" d="M 292 347 L 278 347" stroke-miterlimit="10"/></g><g transform="translate(-10,-10) scale(1,1)"><path fill="none" stroke="#000000" d="M 365 299 Q 365 285 365 270" stroke-miterlimit="10"/></g><g transform="translate(-10,-10) scale(1,1)"><path fill="#FFFFFF" stroke="none" d="M 358 277 C 358 273.1340064 361.1340064 270 365 270 C 368.8659936 270 372 273.1340064 372 277 C 372 280.8659936 368.8659936 284 365 284 C 361.1340064 284 358 280.8659936 358 277 Z"/></g><g transform="translate(-10,-10) scale(1,1)"><path fill="none" stroke="#000000" d="M 358 277 C 358 273.1340064 361.1340064 270 365 270 C 368.8659936 270 372 273.1340064 372 277 C 372 280.8659936 368.8659936 284 365 284 C 361.1340064 284 358 280.8659936 358 277 Z" stroke-miterlimit="10"/></g><g transform="translate(-10,-10) scale(1,1)"><path fill="none" stroke="#000000" d="M 365 284 L 365 270" stroke-miterlimit="10"/></g><g transform="translate(-10,-10) scale(1,1)"><path fill="none" stroke="#000000" d="M 372 277 L 358 277" stroke-miterlimit="10"/></g><g transform="translate(-10,-10) scale(1,1)"><path fill="none" stroke="#000000" d="M 446 299 Q 446 285 390 260" stroke-miterlimit="10"/></g><g transform="translate(-10,-10) scale(1,1)"><path fill="#FFFFFF" stroke="none" d="M 389.39196517706256 262.85355588261723 C 389.39196517706256 258.9875622826172 392.52597157706253 255.85355588261723 396.39196517706256 255.85355588261723 C 400.2579587770626 255.85355588261723 403.39196517706256 258.9875622826172 403.39196517706256 262.85355588261723 C 403.39196517706256 266.71954948261725 400.2579587770626 269.85355588261723 396.39196517706256 269.85355588261723 C 392.52597157706253 269.85355588261723 389.39196517706256 266.71954948261725 389.39196517706256 262.85355588261723 Z"/></g><g transform="translate(-10,-10) scale(1,1)"><path fill="none" stroke="#000000" d="M 389.39196517706256 262.85355588261723 C 389.39196517706256 258.9875622826172 392.52597157706253 255.85355588261723 396.39196517706256 255.85355588261723 C 400.2579587770626 255.85355588261723 403.39196517706256 258.9875622826172 403.39196517706256 262.85355588261723 C 403.39196517706256 266.71954948261725 400.2579587770626 269.85355588261723 396.39196517706256 269.85355588261723 C 392.52597157706253 269.85355588261723 389.39196517706256 266.71954948261725 389.39196517706256 262.85355588261723 Z" stroke-miterlimit="10"/></g><g transform="translate(-10,-10) scale(1,1)"><path fill="none" stroke="#000000" d="M 402.7839303541252 265.70711176523446 L 390 260" stroke-miterlimit="10"/></g><g transform="translate(-10,-10) scale(1,1)"><path fill="none" stroke="#000000" d="M 399.2455210596798 256.46159070555467 L 393.53840929444533 269.2455210596798" stroke-miterlimit="10"/></g><g transform="translate(-10,-10) scale(1,1)"><path fill="none" stroke="#000000" d="M 445 229 Q 445 215 270 184" stroke-miterlimit="10"/></g><g transform="translate(-10,-10) scale(1,1)"><path fill="#FFFFFF" stroke="none" d="M 269.8926904241266 185.220990875131 C 269.8926904241266 181.354997275131 273.0266968241266 178.220990875131 276.8926904241266 178.220990875131 C 280.75868402412664 178.220990875131 283.8926904241266 181.354997275131 283.8926904241266 185.220990875131 C 283.8926904241266 189.086984475131 280.75868402412664 192.220990875131 276.8926904241266 192.220990875131 C 273.0266968241266 192.220990875131 269.8926904241266 189.086984475131 269.8926904241266 185.220990875131 Z"/></g><g transform="translate(-10,-10) scale(1,1)"><path fill="none" stroke="#000000" d="M 269.8926904241266 185.220990875131 C 269.8926904241266 181.354997275131 273.0266968241266 178.220990875131 276.8926904241266 178.220990875131 C 280.75868402412664 178.220990875131 283.8926904241266 181.354997275131 283.8926904241266 185.220990875131 C 283.8926904241266 189.086984475131 280.75868402412664 192.220990875131 276.8926904241266 192.220990875131 C 273.0266968241266 192.220990875131 269.8926904241266 189.086984475131 269.8926904241266 185.220990875131 Z" stroke-miterlimit="10"/></g><g transform="translate(-10,-10) scale(1,1)"><path fill="none" stroke="#000000" d="M 283.7853808482532 186.44198175026202 L 270 184" stroke-miterlimit="10"/></g><g transform="translate(-10,-10) scale(1,1)"><path fill="none" stroke="#000000" d="M 278.1136812992576 178.3283004510044 L 275.6716995489956 192.11368129925762" stroke-miterlimit="10"/></g></g></svg>