<svg version="1.1" xmlns="http://www.w3.org/2000/svg" xmlns:xlink="http://www.w3.org/1999/xlink" width="1171.525390625" height="2440"><defs/><g><g transform="translate(-41,-41) scale(1,1)"><path fill="none" stroke="#000000" d="M 780.30908203125 2384 L 803.30908203125 2384 L 803.30908203125 2407 L 780.30908203125 2407 L 780.30908203125 2384 Z Z" stroke-miterlimit="10"/></g><g transform="translate(-41,-41) scale(1,1)"><path fill="none" stroke="#000000" d="M 780.30908203125 2384 L 803.30908203125 2407" stroke-miterlimit="10"/></g><g transform="translate(-41,-41) scale(1,1)"><path fill="none" stroke="#000000" d="M 803.30908203125 2384 L 780.30908203125 2407" stroke-miterlimit="10"/></g><g transform="translate(-41,-41) scale(1,1)"><g><path fill="none" stroke="none"/><text fill="#000000" stroke="none" font-family="Arial" font-size="13px" font-style="normal" font-weight="normal" text-decoration="none" x="791.80908203125" y="2424.5"></text></g></g><g transform="translate(-41,-41) scale(1,1)"><g><path fill="none" stroke="none"/><text fill="#000000" stroke="none" font-family="Arial" font-size="13px" font-style="normal" font-weight="bold" text-decoration="none" x="779.529541015625" y="2439.5">Cart</text></g></g><g transform="translate(-41,-41) scale(1,1)"><g><path fill="none" stroke="none"/><text fill="#000000" stroke="none" font-family="Arial" font-size="13px" font-style="normal" font-weight="normal" text-decoration="none" x="757.5" y="2454.5">(from client)</text></g></g><g transform="translate(-41,-41) scale(1,1)"><path fill="none" stroke="#000000" d="M 401.697265625 456 L 424.697265625 456 L 424.697265625 479 L 401.697265625 479 L 401.697265625 456 Z Z" stroke-miterlimit="10"/></g><g transform="translate(-41,-41) scale(1,1)"><path fill="none" stroke="#000000" d="M 401.697265625 456 L 424.697265625 479" stroke-miterlimit="10"/></g><g transform="translate(-41,-41) scale(1,1)"><path fill="none" stroke="#000000" d="M 424.697265625 456 L 401.697265625 479" stroke-miterlimit="10"/></g><g transform="translate(-41,-41) scale(1,1)"><g><path fill="none" stroke="none"/><text fill="#000000" stroke="none" font-family="Arial" font-size="13px" font-style="normal" font-weight="normal" text-decoration="none" x="413.197265625" y="496.5"></text></g></g><g transform="translate(-41,-41) scale(1,1)"><g><path fill="none" stroke="none"/><text fill="#000000" stroke="none" font-family="Arial" font-size="13px" font-style="normal" font-weight="bold" text-decoration="none" x="372.016845703125" y="511.5">CartBookDAO</text></g></g><g transform="translate(-41,-41) scale(1,1)"><g><path fill="none" stroke="none"/><text fill="#000000" stroke="none" font-family="Arial" font-size="13px" font-style="normal" font-weight="normal" text-decoration="none" x="378.88818359375" y="526.5">(from client)</text></g></g><g transform="translate(-41,-41) scale(1,1)"><path fill="#C0C0C0" stroke="none" d="M 162.30908203125 402.5 C 162.30908203125 396.1487248 167.45780683125 391 173.80908203125 391 C 180.16035723125 391 185.30908203125 396.1487248 185.30908203125 402.5 C 185.30908203125 408.8512752 180.16035723125 414 173.80908203125 414 C 167.45780683125 414 162.30908203125 408.8512752 162.30908203125 402.5 Z" opacity="0.2"/></g><g transform="translate(-41,-41) scale(1,1)"><path fill="#ffffff" stroke="none" d="M 155.30908203125 395.5 C 155.30908203125 389.1487248 160.45780683125 384 166.80908203125 384 C 173.16035723125 384 178.30908203125 389.1487248 178.30908203125 395.5 C 178.30908203125 401.8512752 173.16035723125 407 166.80908203125 407 C 160.45780683125 407 155.30908203125 401.8512752 155.30908203125 395.5 Z"/></g><g transform="translate(-41,-41) scale(1,1)"><path fill="none" stroke="#000000" d="M 155.30908203125 395.5 C 155.30908203125 389.1487248 160.45780683125 384 166.80908203125 384 C 173.16035723125 384 178.30908203125 389.1487248 178.30908203125 395.5 C 178.30908203125 401.8512752 173.16035723125 407 166.80908203125 407 C 160.45780683125 407 155.30908203125 401.8512752 155.30908203125 395.5 Z" stroke-miterlimit="10"/></g><g transform="translate(-41,-41) scale(1,1)"><g><path fill="none" stroke="none"/><text fill="#000000" stroke="none" font-family="Arial" font-size="13px" font-style="normal" font-weight="bold" text-decoration="none" x="137.8955078125" y="426.5">Paginable</text></g></g><g transform="translate(-41,-41) scale(1,1)"><g><path fill="none" stroke="none"/><text fill="#000000" stroke="none" font-family="Arial" font-size="13px" font-style="normal" font-weight="normal" text-decoration="none" x="132.5" y="441.5">(from client)</text></g></g><g transform="translate(-41,-41) scale(1,1)"><path fill="none" stroke="#000000" d="M 364 484 L 304 472 L 178.30908203125 406.1081959794207" stroke-miterlimit="10"/></g><g transform="translate(-41,-41) scale(1,1)"><path fill="#C0C0C0" stroke="none" d="M 591.30908203125 2426.5 C 591.30908203125 2420.1487248 596.45780683125 2415 602.80908203125 2415 C 609.16035723125 2415 614.30908203125 2420.1487248 614.30908203125 2426.5 C 614.30908203125 2432.8512752 609.16035723125 2438 602.80908203125 2438 C 596.45780683125 2438 591.30908203125 2432.8512752 591.30908203125 2426.5 Z" opacity="0.2"/></g><g transform="translate(-41,-41) scale(1,1)"><path fill="#ffffff" stroke="none" d="M 584.30908203125 2419.5 C 584.30908203125 2413.1487248 589.45780683125 2408 595.80908203125 2408 C 602.16035723125 2408 607.30908203125 2413.1487248 607.30908203125 2419.5 C 607.30908203125 2425.8512752 602.16035723125 2431 595.80908203125 2431 C 589.45780683125 2431 584.30908203125 2425.8512752 584.30908203125 2419.5 Z"/></g><g transform="translate(-41,-41) scale(1,1)"><path fill="none" stroke="#000000" d="M 584.30908203125 2419.5 C 584.30908203125 2413.1487248 589.45780683125 2408 595.80908203125 2408 C 602.16035723125 2408 607.30908203125 2413.1487248 607.30908203125 2419.5 C 607.30908203125 2425.8512752 602.16035723125 2431 595.80908203125 2431 C 589.45780683125 2431 584.30908203125 2425.8512752 584.30908203125 2419.5 Z" stroke-miterlimit="10"/></g><g transform="translate(-41,-41) scale(1,1)"><g><path fill="none" stroke="none"/><text fill="#000000" stroke="none" font-family="Arial" font-size="13px" font-style="normal" font-weight="bold" text-decoration="none" x="568.7109375" y="2450.5">Priceable</text></g></g><g transform="translate(-41,-41) scale(1,1)"><g><path fill="none" stroke="none"/><text fill="#000000" stroke="none" font-family="Arial" font-size="13px" font-style="normal" font-weight="normal" text-decoration="none" x="561.5" y="2465.5">(from client)</text></g></g><g transform="translate(-41,-41) scale(1,1)"><path fill="none" stroke="#000000" d="M 752 2425 L 607.30908203125 2423.803544207317" stroke-miterlimit="10"/></g><g transform="translate(-41,-41) scale(1,1)"><path fill="none" stroke="#000000" d="M 355.1708984375 2090.25 L 378.1708984375 2090.25 L 378.1708984375 2113.25 L 355.1708984375 2113.25 L 355.1708984375 2090.25 Z Z" stroke-miterlimit="10"/></g><g transform="translate(-41,-41) scale(1,1)"><path fill="none" stroke="#000000" d="M 355.1708984375 2090.25 L 378.1708984375 2113.25" stroke-miterlimit="10"/></g><g transform="translate(-41,-41) scale(1,1)"><path fill="none" stroke="#000000" d="M 378.1708984375 2090.25 L 355.1708984375 2113.25" stroke-miterlimit="10"/></g><g transform="translate(-41,-41) scale(1,1)"><g><path fill="none" stroke="none"/><text fill="#000000" stroke="none" font-family="Arial" font-size="13px" font-style="normal" font-weight="normal" text-decoration="none" x="366.6708984375" y="2130.75"></text></g></g><g transform="translate(-41,-41) scale(1,1)"><g><path fill="none" stroke="none"/><text fill="#000000" stroke="none" font-family="Arial" font-size="13px" font-style="normal" font-weight="bold" text-decoration="none" x="350.41455078125" y="2145.75">Entity</text></g></g><g transform="translate(-41,-41) scale(1,1)"><g><path fill="none" stroke="none"/><text fill="#000000" stroke="none" font-family="Arial" font-size="13px" font-style="normal" font-weight="normal" text-decoration="none" x="332" y="2160.75">(from entity)</text></g></g><g transform="translate(-41,-41) scale(1,1)"><path fill="none" stroke="#000000" d="M 583.6708984375 2289.75 L 606.6708984375 2289.75 L 606.6708984375 2312.75 L 583.6708984375 2312.75 L 583.6708984375 2289.75 Z Z" stroke-miterlimit="10"/></g><g transform="translate(-41,-41) scale(1,1)"><path fill="none" stroke="#000000" d="M 583.6708984375 2289.75 L 606.6708984375 2312.75" stroke-miterlimit="10"/></g><g transform="translate(-41,-41) scale(1,1)"><path fill="none" stroke="#000000" d="M 606.6708984375 2289.75 L 583.6708984375 2312.75" stroke-miterlimit="10"/></g><g transform="translate(-41,-41) scale(1,1)"><g><path fill="none" stroke="none"/><text fill="#000000" stroke="none" font-family="Arial" font-size="13px" font-style="normal" font-weight="normal" text-decoration="none" x="595.1708984375" y="2330.25"></text></g></g><g transform="translate(-41,-41) scale(1,1)"><g><path fill="none" stroke="none"/><text fill="#000000" stroke="none" font-family="Arial" font-size="13px" font-style="italic" font-weight="bold" text-decoration="none" x="572.77001953125" y="2345.25">Product</text></g></g><g transform="translate(-41,-41) scale(1,1)"><g><path fill="none" stroke="none"/><text fill="#000000" stroke="none" font-family="Arial" font-size="13px" font-style="normal" font-weight="normal" text-decoration="none" x="560.5" y="2360.25">(from entity)</text></g></g><g transform="translate(-41,-41) scale(1,1)"><path fill="none" stroke="#000000" d="M 555 2292 L 407 2163" stroke-miterlimit="10"/></g><g transform="translate(-41,-41) scale(1,1)"><path fill="#FFFFFF" stroke="none" d="M 427.853828970882 2170.0084104655193 L 407 2163 L 416.79018931350754 2182.7015784445225"/></g><g transform="translate(-41,-41) scale(1,1)"><path fill="none" stroke="#000000" d="M 427.853828970882 2170.0084104655193 L 407 2163 L 416.79018931350754 2182.7015784445225 L 427.853828970882 2170.0084104655193" stroke-miterlimit="10"/></g><g transform="translate(-41,-41) scale(1,1)"><path fill="none" stroke="#000000" d="M 584.22998046875 1998.25 L 607.22998046875 1998.25 L 607.22998046875 2021.25 L 584.22998046875 2021.25 L 584.22998046875 1998.25 Z Z" stroke-miterlimit="10"/></g><g transform="translate(-41,-41) scale(1,1)"><path fill="none" stroke="#000000" d="M 584.22998046875 1998.25 L 607.22998046875 2021.25" stroke-miterlimit="10"/></g><g transform="translate(-41,-41) scale(1,1)"><path fill="none" stroke="#000000" d="M 607.22998046875 1998.25 L 584.22998046875 2021.25" stroke-miterlimit="10"/></g><g transform="translate(-41,-41) scale(1,1)"><g><path fill="none" stroke="none"/><text fill="#000000" stroke="none" font-family="Arial" font-size="13px" font-style="normal" font-weight="normal" text-decoration="none" x="595.72998046875" y="2038.75"></text></g></g><g transform="translate(-41,-41) scale(1,1)"><g><path fill="none" stroke="none"/><text fill="#000000" stroke="none" font-family="Arial" font-size="13px" font-style="normal" font-weight="bold" text-decoration="none" x="576.5791015625" y="2053.75">Author</text></g></g><g transform="translate(-41,-41) scale(1,1)"><g><path fill="none" stroke="none"/><text fill="#000000" stroke="none" font-family="Arial" font-size="13px" font-style="normal" font-weight="normal" text-decoration="none" x="562.5" y="2068.75">(from book)</text></g></g><g transform="translate(-41,-41) scale(1,1)"><path fill="none" stroke="#000000" d="M 557 2036 L 488 2037 L 407 2098" stroke-miterlimit="10"/></g><g transform="translate(-41,-41) scale(1,1)"><path fill="#FFFFFF" stroke="none" d="M 418.17149859222786 2079.047490424647 L 407 2098 L 428.30089045181546 2092.497994369345"/></g><g transform="translate(-41,-41) scale(1,1)"><path fill="none" stroke="#000000" d="M 418.17149859222786 2079.047490424647 L 407 2098 L 428.30089045181546 2092.497994369345 L 418.17149859222786 2079.047490424647" stroke-miterlimit="10"/></g><g transform="translate(-41,-41) scale(1,1)"><path fill="none" stroke="#000000" d="M 780.22998046875 2137.75 L 803.22998046875 2137.75 L 803.22998046875 2160.75 L 780.22998046875 2160.75 L 780.22998046875 2137.75 Z Z" stroke-miterlimit="10"/></g><g transform="translate(-41,-41) scale(1,1)"><path fill="none" stroke="#000000" d="M 780.22998046875 2137.75 L 803.22998046875 2160.75" stroke-miterlimit="10"/></g><g transform="translate(-41,-41) scale(1,1)"><path fill="none" stroke="#000000" d="M 803.22998046875 2137.75 L 780.22998046875 2160.75" stroke-miterlimit="10"/></g><g transform="translate(-41,-41) scale(1,1)"><g><path fill="none" stroke="none"/><text fill="#000000" stroke="none" font-family="Arial" font-size="13px" font-style="normal" font-weight="normal" text-decoration="none" x="791.72998046875" y="2178.25"></text></g></g><g transform="translate(-41,-41) scale(1,1)"><g><path fill="none" stroke="none"/><text fill="#000000" stroke="none" font-family="Arial" font-size="13px" font-style="normal" font-weight="bold" text-decoration="none" x="776.91455078125" y="2193.25">Book</text></g></g><g transform="translate(-41,-41) scale(1,1)"><g><path fill="none" stroke="none"/><text fill="#000000" stroke="none" font-family="Arial" font-size="13px" font-style="normal" font-weight="normal" text-decoration="none" x="758.5" y="2208.25">(from book)</text></g></g><g transform="translate(-41,-41) scale(1,1)"><path fill="none" stroke="#000000" d="M 753 2204 L 635 2296" stroke-miterlimit="10"/></g><g transform="translate(-41,-41) scale(1,1)"><path fill="#FFFFFF" stroke="none" d="M 645.8526447197848 2276.8631219216372 L 635 2296 L 656.2057949351188 2290.1421624152176"/></g><g transform="translate(-41,-41) scale(1,1)"><path fill="none" stroke="#000000" d="M 645.8526447197848 2276.8631219216372 L 635 2296 L 656.2057949351188 2290.1421624152176 L 645.8526447197848 2276.8631219216372" stroke-miterlimit="10"/></g><g transform="translate(-41,-41) scale(1,1)"><path fill="none" stroke="#000000" d="M 584.30908203125 2085.25 L 607.30908203125 2085.25 L 607.30908203125 2108.25 L 584.30908203125 2108.25 L 584.30908203125 2085.25 Z Z" stroke-miterlimit="10"/></g><g transform="translate(-41,-41) scale(1,1)"><path fill="none" stroke="#000000" d="M 584.30908203125 2085.25 L 607.30908203125 2108.25" stroke-miterlimit="10"/></g><g transform="translate(-41,-41) scale(1,1)"><path fill="none" stroke="#000000" d="M 607.30908203125 2085.25 L 584.30908203125 2108.25" stroke-miterlimit="10"/></g><g transform="translate(-41,-41) scale(1,1)"><g><path fill="none" stroke="none"/><text fill="#000000" stroke="none" font-family="Arial" font-size="13px" font-style="normal" font-weight="normal" text-decoration="none" x="595.80908203125" y="2125.75"></text></g></g><g transform="translate(-41,-41) scale(1,1)"><g><path fill="none" stroke="none"/><text fill="#000000" stroke="none" font-family="Arial" font-size="13px" font-style="normal" font-weight="bold" text-decoration="none" x="572.332275390625" y="2140.75">Delivery</text></g></g><g transform="translate(-41,-41) scale(1,1)"><g><path fill="none" stroke="none"/><text fill="#000000" stroke="none" font-family="Arial" font-size="13px" font-style="normal" font-weight="normal" text-decoration="none" x="561.5" y="2155.75">(from order)</text></g></g><g transform="translate(-41,-41) scale(1,1)"><path fill="none" stroke="#000000" d="M 556 2123 L 488 2124 L 407 2127" stroke-miterlimit="10"/></g><g transform="translate(-41,-41) scale(1,1)"><path fill="#FFFFFF" stroke="none" d="M 426.9998209877528 2117.834457983412 L 407 2127 L 427.6230259561367 2134.6609921297772"/></g><g transform="translate(-41,-41) scale(1,1)"><path fill="none" stroke="#000000" d="M 426.9998209877528 2117.834457983412 L 407 2127 L 427.6230259561367 2134.6609921297772 L 426.9998209877528 2117.834457983412" stroke-miterlimit="10"/></g><g transform="translate(-41,-41) scale(1,1)"><path fill="none" stroke="#000000" d="M 780.30908203125 2280 L 803.30908203125 2280 L 803.30908203125 2303 L 780.30908203125 2303 L 780.30908203125 2280 Z Z" stroke-miterlimit="10"/></g><g transform="translate(-41,-41) scale(1,1)"><path fill="none" stroke="#000000" d="M 780.30908203125 2280 L 803.30908203125 2303" stroke-miterlimit="10"/></g><g transform="translate(-41,-41) scale(1,1)"><path fill="none" stroke="#000000" d="M 803.30908203125 2280 L 780.30908203125 2303" stroke-miterlimit="10"/></g><g transform="translate(-41,-41) scale(1,1)"><g><path fill="none" stroke="none"/><text fill="#000000" stroke="none" font-family="Arial" font-size="13px" font-style="normal" font-weight="normal" text-decoration="none" x="791.80908203125" y="2320.5"></text></g></g><g transform="translate(-41,-41) scale(1,1)"><g><path fill="none" stroke="none"/><text fill="#000000" stroke="none" font-family="Arial" font-size="13px" font-style="normal" font-weight="bold" text-decoration="none" x="775.194091796875" y="2335.5">Order</text></g></g><g transform="translate(-41,-41) scale(1,1)"><g><path fill="none" stroke="none"/><text fill="#000000" stroke="none" font-family="Arial" font-size="13px" font-style="normal" font-weight="normal" text-decoration="none" x="757.5" y="2350.5">(from order)</text></g></g><g transform="translate(-41,-41) scale(1,1)"><path fill="none" stroke="#000000" d="M 752 2320 L 635 2325" stroke-miterlimit="10"/></g><g transform="translate(-41,-41) scale(1,1)"><path fill="#FFFFFF" stroke="none" d="M 654.9473554148051 2315.720829134268 L 635 2325 L 655.6662749234945 2332.5435456375994"/></g><g transform="translate(-41,-41) scale(1,1)"><path fill="none" stroke="#000000" d="M 654.9473554148051 2315.720829134268 L 635 2325 L 655.6662749234945 2332.5435456375994 L 654.9473554148051 2315.720829134268" stroke-miterlimit="10"/></g><g transform="translate(-41,-41) scale(1,1)"><path fill="#ffffff" stroke="none" d="M 586.079541015625 2195.5 C 586.079541015625 2190.4189798400002 590.198520855625 2186.3 595.279541015625 2186.3 C 600.360561175625 2186.3 604.479541015625 2190.4189798400002 604.479541015625 2195.5 C 604.479541015625 2200.5810201599998 600.360561175625 2204.7 595.279541015625 2204.7 C 590.198520855625 2204.7 586.079541015625 2200.5810201599998 586.079541015625 2195.5 Z"/></g><g transform="translate(-41,-41) scale(1,1)"><path fill="none" stroke="#000000" d="M 586.079541015625 2195.5 C 586.079541015625 2190.4189798400002 590.198520855625 2186.3 595.279541015625 2186.3 C 600.360561175625 2186.3 604.479541015625 2190.4189798400002 604.479541015625 2195.5 C 604.479541015625 2200.5810201599998 600.360561175625 2204.7 595.279541015625 2204.7 C 590.198520855625 2204.7 586.079541015625 2200.5810201599998 586.079541015625 2195.5 Z" stroke-miterlimit="10"/></g><g transform="translate(-41,-41) scale(1,1)"><path fill="none" stroke="#000000" d="M 586.079541015625 2204.7 L 604.479541015625 2204.7" stroke-miterlimit="10"/></g><g transform="translate(-41,-41) scale(1,1)"><g><path fill="none" stroke="none"/><text fill="#000000" stroke="none" font-family="Arial" font-size="13px" font-style="normal" font-weight="normal" text-decoration="none" x="572.513671875" y="2224.5">«entity»</text></g></g><g transform="translate(-41,-41) scale(1,1)"><g><path fill="none" stroke="none"/><text fill="#000000" stroke="none" font-family="Arial" font-size="13px" font-style="normal" font-weight="bold" text-decoration="none" x="581.555908203125" y="2239.5">User</text></g></g><g transform="translate(-41,-41) scale(1,1)"><g><path fill="none" stroke="none"/><text fill="#000000" stroke="none" font-family="Arial" font-size="13px" font-style="normal" font-weight="normal" text-decoration="none" x="563.5" y="2254.5">(from user)</text></g></g><g transform="translate(-41,-41) scale(1,1)"><path fill="none" stroke="#000000" d="M 558 2207 L 407 2145" stroke-miterlimit="10"/></g><g transform="translate(-41,-41) scale(1,1)"><path fill="#FFFFFF" stroke="none" d="M 428.9998948550836 2144.931982610552 L 407 2145 L 422.604370394738 2160.5081792801034"/></g><g transform="translate(-41,-41) scale(1,1)"><path fill="none" stroke="#000000" d="M 428.9998948550836 2144.931982610552 L 407 2145 L 422.604370394738 2160.5081792801034 L 428.9998948550836 2144.931982610552" stroke-miterlimit="10"/></g><g transform="translate(-41,-41) scale(1,1)"><path fill="none" stroke="#000000" d="M 82.194091796875 912 L 105.194091796875 912 L 105.194091796875 935 L 82.194091796875 935 L 82.194091796875 912 Z Z" stroke-miterlimit="10"/></g><g transform="translate(-41,-41) scale(1,1)"><path fill="none" stroke="#000000" d="M 82.194091796875 912 L 105.194091796875 935" stroke-miterlimit="10"/></g><g transform="translate(-41,-41) scale(1,1)"><path fill="none" stroke="#000000" d="M 105.194091796875 912 L 82.194091796875 935" stroke-miterlimit="10"/></g><g transform="translate(-41,-41) scale(1,1)"><g><path fill="none" stroke="none"/><text fill="#000000" stroke="none" font-family="Arial" font-size="13px" font-style="normal" font-weight="normal" text-decoration="none" x="93.694091796875" y="952.5"></text></g></g><g transform="translate(-41,-41) scale(1,1)"><g><path fill="none" stroke="none"/><text fill="#000000" stroke="none" font-family="Arial" font-size="13px" font-style="normal" font-weight="bold" text-decoration="none" x="62.263671875" y="967.5">AddToCart</text></g></g><g transform="translate(-41,-41) scale(1,1)"><g><path fill="none" stroke="none"/><text fill="#000000" stroke="none" font-family="Arial" font-size="13px" font-style="normal" font-weight="normal" text-decoration="none" x="56.5" y="982.5">(from server)</text></g></g><g transform="translate(-41,-41) scale(1,1)"><path fill="none" stroke="#000000" d="M 726.194091796875 936 L 749.194091796875 936 L 749.194091796875 959 L 726.194091796875 959 L 726.194091796875 936 Z Z" stroke-miterlimit="10"/></g><g transform="translate(-41,-41) scale(1,1)"><path fill="none" stroke="#000000" d="M 726.194091796875 936 L 749.194091796875 959" stroke-miterlimit="10"/></g><g transform="translate(-41,-41) scale(1,1)"><path fill="none" stroke="#000000" d="M 749.194091796875 936 L 726.194091796875 959" stroke-miterlimit="10"/></g><g transform="translate(-41,-41) scale(1,1)"><g><path fill="none" stroke="none"/><text fill="#000000" stroke="none" font-family="Arial" font-size="13px" font-style="normal" font-weight="normal" text-decoration="none" x="737.694091796875" y="976.5"></text></g></g><g transform="translate(-41,-41) scale(1,1)"><g><path fill="none" stroke="none"/><text fill="#000000" stroke="none" font-family="Arial" font-size="13px" font-style="normal" font-weight="bold" text-decoration="none" x="712.405029296875" y="991.5">AddUser</text></g></g><g transform="translate(-41,-41) scale(1,1)"><g><path fill="none" stroke="none"/><text fill="#000000" stroke="none" font-family="Arial" font-size="13px" font-style="normal" font-weight="normal" text-decoration="none" x="700.5" y="1006.5">(from server)</text></g></g><g transform="translate(-41,-41) scale(1,1)"><path fill="none" stroke="#000000" d="M 718.194091796875 1144 L 741.194091796875 1144 L 741.194091796875 1167 L 718.194091796875 1167 L 718.194091796875 1144 Z Z" stroke-miterlimit="10"/></g><g transform="translate(-41,-41) scale(1,1)"><path fill="none" stroke="#000000" d="M 718.194091796875 1144 L 741.194091796875 1167" stroke-miterlimit="10"/></g><g transform="translate(-41,-41) scale(1,1)"><path fill="none" stroke="#000000" d="M 741.194091796875 1144 L 718.194091796875 1167" stroke-miterlimit="10"/></g><g transform="translate(-41,-41) scale(1,1)"><g><path fill="none" stroke="none"/><text fill="#000000" stroke="none" font-family="Arial" font-size="13px" font-style="normal" font-weight="normal" text-decoration="none" x="729.694091796875" y="1184.5"></text></g></g><g transform="translate(-41,-41) scale(1,1)"><g><path fill="none" stroke="none"/><text fill="#000000" stroke="none" font-family="Arial" font-size="13px" font-style="normal" font-weight="bold" text-decoration="none" x="697.91455078125" y="1199.5">FillDelivery</text></g></g><g transform="translate(-41,-41) scale(1,1)"><g><path fill="none" stroke="none"/><text fill="#000000" stroke="none" font-family="Arial" font-size="13px" font-style="normal" font-weight="normal" text-decoration="none" x="692.5" y="1214.5">(from server)</text></g></g><g transform="translate(-41,-41) scale(1,1)"><path fill="none" stroke="#000000" d="M 548.194091796875 600 L 571.194091796875 600 L 571.194091796875 623 L 548.194091796875 623 L 548.194091796875 600 Z Z" stroke-miterlimit="10"/></g><g transform="translate(-41,-41) scale(1,1)"><path fill="none" stroke="#000000" d="M 548.194091796875 600 L 571.194091796875 623" stroke-miterlimit="10"/></g><g transform="translate(-41,-41) scale(1,1)"><path fill="none" stroke="#000000" d="M 571.194091796875 600 L 548.194091796875 623" stroke-miterlimit="10"/></g><g transform="translate(-41,-41) scale(1,1)"><g><path fill="none" stroke="none"/><text fill="#000000" stroke="none" font-family="Arial" font-size="13px" font-style="normal" font-weight="normal" text-decoration="none" x="559.694091796875" y="640.5"></text></g></g><g transform="translate(-41,-41) scale(1,1)"><g><path fill="none" stroke="none"/><text fill="#000000" stroke="none" font-family="Arial" font-size="13px" font-style="normal" font-weight="bold" text-decoration="none" x="534.40185546875" y="655.5">GetBook</text></g></g><g transform="translate(-41,-41) scale(1,1)"><g><path fill="none" stroke="none"/><text fill="#000000" stroke="none" font-family="Arial" font-size="13px" font-style="normal" font-weight="normal" text-decoration="none" x="522.5" y="670.5">(from server)</text></g></g><g transform="translate(-41,-41) scale(1,1)"><path fill="none" stroke="#000000" d="M 727.6044921875 696 L 750.6044921875 696 L 750.6044921875 719 L 727.6044921875 719 L 727.6044921875 696 Z Z" stroke-miterlimit="10"/></g><g transform="translate(-41,-41) scale(1,1)"><path fill="none" stroke="#000000" d="M 727.6044921875 696 L 750.6044921875 719" stroke-miterlimit="10"/></g><g transform="translate(-41,-41) scale(1,1)"><path fill="none" stroke="#000000" d="M 750.6044921875 696 L 727.6044921875 719" stroke-miterlimit="10"/></g><g transform="translate(-41,-41) scale(1,1)"><g><path fill="none" stroke="none"/><text fill="#000000" stroke="none" font-family="Arial" font-size="13px" font-style="normal" font-weight="normal" text-decoration="none" x="692.5" y="736.5">«SystemModel»</text></g></g><g transform="translate(-41,-41) scale(1,1)"><g><path fill="none" stroke="none"/><text fill="#000000" stroke="none" font-family="Arial" font-size="13px" font-style="normal" font-weight="bold" text-decoration="none" x="723.200439453125" y="751.5">Login</text></g></g><g transform="translate(-41,-41) scale(1,1)"><g><path fill="none" stroke="none"/><text fill="#000000" stroke="none" font-family="Arial" font-size="13px" font-style="normal" font-weight="normal" text-decoration="none" x="701.910400390625" y="766.5">(from server)</text></g></g><g transform="translate(-41,-41) scale(1,1)"><path fill="none" stroke="#000000" d="M 718.194091796875 808 L 741.194091796875 808 L 741.194091796875 831 L 718.194091796875 831 L 718.194091796875 808 Z Z" stroke-miterlimit="10"/></g><g transform="translate(-41,-41) scale(1,1)"><path fill="none" stroke="#000000" d="M 718.194091796875 808 L 741.194091796875 831" stroke-miterlimit="10"/></g><g transform="translate(-41,-41) scale(1,1)"><path fill="none" stroke="#000000" d="M 741.194091796875 808 L 718.194091796875 831" stroke-miterlimit="10"/></g><g transform="translate(-41,-41) scale(1,1)"><g><path fill="none" stroke="none"/><text fill="#000000" stroke="none" font-family="Arial" font-size="13px" font-style="normal" font-weight="normal" text-decoration="none" x="729.694091796875" y="848.5"></text></g></g><g transform="translate(-41,-41) scale(1,1)"><g><path fill="none" stroke="none"/><text fill="#000000" stroke="none" font-family="Arial" font-size="13px" font-style="normal" font-weight="bold" text-decoration="none" x="709.813232421875" y="863.5">Logout</text></g></g><g transform="translate(-41,-41) scale(1,1)"><g><path fill="none" stroke="none"/><text fill="#000000" stroke="none" font-family="Arial" font-size="13px" font-style="normal" font-weight="normal" text-decoration="none" x="692.5" y="878.5">(from server)</text></g></g><g transform="translate(-41,-41) scale(1,1)"><path fill="none" stroke="#000000" d="M 542.194091796875 1144 L 565.194091796875 1144 L 565.194091796875 1167 L 542.194091796875 1167 L 542.194091796875 1144 Z Z" stroke-miterlimit="10"/></g><g transform="translate(-41,-41) scale(1,1)"><path fill="none" stroke="#000000" d="M 542.194091796875 1144 L 565.194091796875 1167" stroke-miterlimit="10"/></g><g transform="translate(-41,-41) scale(1,1)"><path fill="none" stroke="#000000" d="M 565.194091796875 1144 L 542.194091796875 1167" stroke-miterlimit="10"/></g><g transform="translate(-41,-41) scale(1,1)"><g><path fill="none" stroke="none"/><text fill="#000000" stroke="none" font-family="Arial" font-size="13px" font-style="normal" font-weight="normal" text-decoration="none" x="553.694091796875" y="1184.5"></text></g></g><g transform="translate(-41,-41) scale(1,1)"><g><path fill="none" stroke="none"/><text fill="#000000" stroke="none" font-family="Arial" font-size="13px" font-style="normal" font-weight="bold" text-decoration="none" x="521.1845703125" y="1199.5">MakeOrder</text></g></g><g transform="translate(-41,-41) scale(1,1)"><g><path fill="none" stroke="none"/><text fill="#000000" stroke="none" font-family="Arial" font-size="13px" font-style="normal" font-weight="normal" text-decoration="none" x="516.5" y="1214.5">(from server)</text></g></g><g transform="translate(-41,-41) scale(1,1)"><path fill="none" stroke="#000000" d="M 358.194091796875 1144 L 381.194091796875 1144 L 381.194091796875 1167 L 358.194091796875 1167 L 358.194091796875 1144 Z Z" stroke-miterlimit="10"/></g><g transform="translate(-41,-41) scale(1,1)"><path fill="none" stroke="#000000" d="M 358.194091796875 1144 L 381.194091796875 1167" stroke-miterlimit="10"/></g><g transform="translate(-41,-41) scale(1,1)"><path fill="none" stroke="#000000" d="M 381.194091796875 1144 L 358.194091796875 1167" stroke-miterlimit="10"/></g><g transform="translate(-41,-41) scale(1,1)"><g><path fill="none" stroke="none"/><text fill="#000000" stroke="none" font-family="Arial" font-size="13px" font-style="normal" font-weight="normal" text-decoration="none" x="369.694091796875" y="1184.5"></text></g></g><g transform="translate(-41,-41) scale(1,1)"><g><path fill="none" stroke="none"/><text fill="#000000" stroke="none" font-family="Arial" font-size="13px" font-style="normal" font-weight="bold" text-decoration="none" x="337.905029296875" y="1199.5">OrderDetal</text></g></g><g transform="translate(-41,-41) scale(1,1)"><g><path fill="none" stroke="none"/><text fill="#000000" stroke="none" font-family="Arial" font-size="13px" font-style="normal" font-weight="normal" text-decoration="none" x="332.5" y="1214.5">(from server)</text></g></g><g transform="translate(-41,-41) scale(1,1)"><path fill="none" stroke="#000000" d="M 422.279541015625 600 L 445.279541015625 600 L 445.279541015625 623 L 422.279541015625 623 L 422.279541015625 600 Z Z" stroke-miterlimit="10"/></g><g transform="translate(-41,-41) scale(1,1)"><path fill="none" stroke="#000000" d="M 422.279541015625 600 L 445.279541015625 623" stroke-miterlimit="10"/></g><g transform="translate(-41,-41) scale(1,1)"><path fill="none" stroke="#000000" d="M 445.279541015625 600 L 422.279541015625 623" stroke-miterlimit="10"/></g><g transform="translate(-41,-41) scale(1,1)"><g><path fill="none" stroke="none"/><text fill="#000000" stroke="none" font-family="Arial" font-size="13px" font-style="normal" font-weight="normal" text-decoration="none" x="433.779541015625" y="640.5"></text></g></g><g transform="translate(-41,-41) scale(1,1)"><g><path fill="none" stroke="none"/><text fill="#000000" stroke="none" font-family="Arial" font-size="13px" font-style="normal" font-weight="bold" text-decoration="none" x="398.004150390625" y="655.5">UpdateBook</text></g></g><g transform="translate(-41,-41) scale(1,1)"><g><path fill="none" stroke="none"/><text fill="#000000" stroke="none" font-family="Arial" font-size="13px" font-style="normal" font-weight="normal" text-decoration="none" x="396.58544921875" y="670.5">(from server)</text></g></g><g transform="translate(-41,-41) scale(1,1)"><path fill="none" stroke="#000000" d="M 82.194091796875 784 L 105.194091796875 784 L 105.194091796875 807 L 82.194091796875 807 L 82.194091796875 784 Z Z" stroke-miterlimit="10"/></g><g transform="translate(-41,-41) scale(1,1)"><path fill="none" stroke="#000000" d="M 82.194091796875 784 L 105.194091796875 807" stroke-miterlimit="10"/></g><g transform="translate(-41,-41) scale(1,1)"><path fill="none" stroke="#000000" d="M 105.194091796875 784 L 82.194091796875 807" stroke-miterlimit="10"/></g><g transform="translate(-41,-41) scale(1,1)"><g><path fill="none" stroke="none"/><text fill="#000000" stroke="none" font-family="Arial" font-size="13px" font-style="normal" font-weight="normal" text-decoration="none" x="93.694091796875" y="824.5"></text></g></g><g transform="translate(-41,-41) scale(1,1)"><g><path fill="none" stroke="none"/><text fill="#000000" stroke="none" font-family="Arial" font-size="13px" font-style="normal" font-weight="bold" text-decoration="none" x="60.45458984375" y="839.5">UpdateCart</text></g></g><g transform="translate(-41,-41) scale(1,1)"><g><path fill="none" stroke="none"/><text fill="#000000" stroke="none" font-family="Arial" font-size="13px" font-style="normal" font-weight="normal" text-decoration="none" x="56.5" y="854.5">(from server)</text></g></g><g transform="translate(-41,-41) scale(1,1)"><path fill="none" stroke="#000000" d="M 188.594970703125 1144 L 211.594970703125 1144 L 211.594970703125 1167 L 188.594970703125 1167 L 188.594970703125 1144 Z Z" stroke-miterlimit="10"/></g><g transform="translate(-41,-41) scale(1,1)"><path fill="none" stroke="#000000" d="M 188.594970703125 1144 L 211.594970703125 1167" stroke-miterlimit="10"/></g><g transform="translate(-41,-41) scale(1,1)"><path fill="none" stroke="#000000" d="M 211.594970703125 1144 L 188.594970703125 1167" stroke-miterlimit="10"/></g><g transform="translate(-41,-41) scale(1,1)"><g><path fill="none" stroke="none"/><text fill="#000000" stroke="none" font-family="Arial" font-size="13px" font-style="normal" font-weight="normal" text-decoration="none" x="200.094970703125" y="1184.5"></text></g></g><g transform="translate(-41,-41) scale(1,1)"><g><path fill="none" stroke="none"/><text fill="#000000" stroke="none" font-family="Arial" font-size="13px" font-style="normal" font-weight="bold" text-decoration="none" x="144.0927734375" y="1199.5">UpdateOrderStatus</text></g></g><g transform="translate(-41,-41) scale(1,1)"><g><path fill="none" stroke="none"/><text fill="#000000" stroke="none" font-family="Arial" font-size="13px" font-style="normal" font-weight="normal" text-decoration="none" x="162.90087890625" y="1214.5">(from server)</text></g></g><g transform="translate(-41,-41) scale(1,1)"><path fill="none" stroke="#000000" d="M 296.194091796875 600 L 319.194091796875 600 L 319.194091796875 623 L 296.194091796875 623 L 296.194091796875 600 Z Z" stroke-miterlimit="10"/></g><g transform="translate(-41,-41) scale(1,1)"><path fill="none" stroke="#000000" d="M 296.194091796875 600 L 319.194091796875 623" stroke-miterlimit="10"/></g><g transform="translate(-41,-41) scale(1,1)"><path fill="none" stroke="#000000" d="M 319.194091796875 600 L 296.194091796875 623" stroke-miterlimit="10"/></g><g transform="translate(-41,-41) scale(1,1)"><g><path fill="none" stroke="none"/><text fill="#000000" stroke="none" font-family="Arial" font-size="13px" font-style="normal" font-weight="normal" text-decoration="none" x="307.694091796875" y="640.5"></text></g></g><g transform="translate(-41,-41) scale(1,1)"><g><path fill="none" stroke="none"/><text fill="#000000" stroke="none" font-family="Arial" font-size="13px" font-style="normal" font-weight="bold" text-decoration="none" x="278.7900390625" y="655.5">ViewBook</text></g></g><g transform="translate(-41,-41) scale(1,1)"><g><path fill="none" stroke="none"/><text fill="#000000" stroke="none" font-family="Arial" font-size="13px" font-style="normal" font-weight="normal" text-decoration="none" x="270.5" y="670.5">(from server)</text></g></g><g transform="translate(-41,-41) scale(1,1)"><path fill="#C0C0C0" stroke="none" d="M 408.694091796875 278.5 C 408.694091796875 272.1487248 413.842816596875 267 420.194091796875 267 C 426.545366996875 267 431.694091796875 272.1487248 431.694091796875 278.5 C 431.694091796875 284.8512752 426.545366996875 290 420.194091796875 290 C 413.842816596875 290 408.694091796875 284.8512752 408.694091796875 278.5 Z" opacity="0.2"/></g><g transform="translate(-41,-41) scale(1,1)"><path fill="#ffffff" stroke="none" d="M 401.694091796875 271.5 C 401.694091796875 265.1487248 406.842816596875 260 413.194091796875 260 C 419.545366996875 260 424.694091796875 265.1487248 424.694091796875 271.5 C 424.694091796875 277.8512752 419.545366996875 283 413.194091796875 283 C 406.842816596875 283 401.694091796875 277.8512752 401.694091796875 271.5 Z"/></g><g transform="translate(-41,-41) scale(1,1)"><path fill="none" stroke="#000000" d="M 401.694091796875 271.5 C 401.694091796875 265.1487248 406.842816596875 260 413.194091796875 260 C 419.545366996875 260 424.694091796875 265.1487248 424.694091796875 271.5 C 424.694091796875 277.8512752 419.545366996875 283 413.194091796875 283 C 406.842816596875 283 401.694091796875 277.8512752 401.694091796875 271.5 Z" stroke-miterlimit="10"/></g><g transform="translate(-41,-41) scale(1,1)"><g><path fill="none" stroke="none"/><text fill="#000000" stroke="none" font-family="Arial" font-size="13px" font-style="normal" font-weight="bold" text-decoration="none" x="384.293212890625" y="302.5">BookDAO</text></g></g><g transform="translate(-41,-41) scale(1,1)"><g><path fill="none" stroke="none"/><text fill="#000000" stroke="none" font-family="Arial" font-size="13px" font-style="normal" font-weight="normal" text-decoration="none" x="383.214111328125" y="317.5">(from dao)</text></g></g><g transform="translate(-41,-41) scale(1,1)"><path fill="none" stroke="#000000" d="M 1033.50634765625 240 L 1056.50634765625 240 L 1056.50634765625 263 L 1033.50634765625 263 L 1033.50634765625 240 Z Z" stroke-miterlimit="10"/></g><g transform="translate(-41,-41) scale(1,1)"><path fill="none" stroke="#000000" d="M 1033.50634765625 240 L 1056.50634765625 263" stroke-miterlimit="10"/></g><g transform="translate(-41,-41) scale(1,1)"><path fill="none" stroke="#000000" d="M 1056.50634765625 240 L 1033.50634765625 263" stroke-miterlimit="10"/></g><g transform="translate(-41,-41) scale(1,1)"><g><path fill="none" stroke="none"/><text fill="#000000" stroke="none" font-family="Arial" font-size="13px" font-style="normal" font-weight="normal" text-decoration="none" x="1045.00634765625" y="280.5"></text></g></g><g transform="translate(-41,-41) scale(1,1)"><g><path fill="none" stroke="none"/><text fill="#000000" stroke="none" font-family="Arial" font-size="13px" font-style="normal" font-weight="bold" text-decoration="none" x="1002.37548828125" y="295.5">DAOException</text></g></g><g transform="translate(-41,-41) scale(1,1)"><g><path fill="none" stroke="none"/><text fill="#000000" stroke="none" font-family="Arial" font-size="13px" font-style="normal" font-weight="normal" text-decoration="none" x="1015.0263671875" y="310.5">(from dao)</text></g></g><g transform="translate(-41,-41) scale(1,1)"><path fill="none" stroke="#000000" d="M 401.924072265625 51 L 424.924072265625 51 L 424.924072265625 74 L 401.924072265625 74 L 401.924072265625 51 Z Z" stroke-miterlimit="10"/></g><g transform="translate(-41,-41) scale(1,1)"><path fill="none" stroke="#000000" d="M 401.924072265625 51 L 424.924072265625 74" stroke-miterlimit="10"/></g><g transform="translate(-41,-41) scale(1,1)"><path fill="none" stroke="#000000" d="M 424.924072265625 51 L 401.924072265625 74" stroke-miterlimit="10"/></g><g transform="translate(-41,-41) scale(1,1)"><g><path fill="none" stroke="none"/><text fill="#000000" stroke="none" font-family="Arial" font-size="13px" font-style="normal" font-weight="normal" text-decoration="none" x="413.424072265625" y="91.5"></text></g></g><g transform="translate(-41,-41) scale(1,1)"><g><path fill="none" stroke="none"/><text fill="#000000" stroke="none" font-family="Arial" font-size="13px" font-style="italic" font-weight="bold" text-decoration="none" x="377.667724609375" y="106.5">DAOFactory</text></g></g><g transform="translate(-41,-41) scale(1,1)"><g><path fill="none" stroke="none"/><text fill="#000000" stroke="none" font-family="Arial" font-size="13px" font-style="normal" font-weight="normal" text-decoration="none" x="383.444091796875" y="121.5">(from dao)</text></g></g><g transform="translate(-41,-41) scale(1,1)"><path fill="none" stroke="#000000" d="M 1137.7626953125 464 L 1160.7626953125 464 L 1160.7626953125 487 L 1137.7626953125 487 L 1137.7626953125 464 Z Z" stroke-miterlimit="10"/></g><g transform="translate(-41,-41) scale(1,1)"><path fill="none" stroke="#000000" d="M 1137.7626953125 464 L 1160.7626953125 487" stroke-miterlimit="10"/></g><g transform="translate(-41,-41) scale(1,1)"><path fill="none" stroke="#000000" d="M 1160.7626953125 464 L 1137.7626953125 487" stroke-miterlimit="10"/></g><g transform="translate(-41,-41) scale(1,1)"><g><path fill="none" stroke="none"/><text fill="#000000" stroke="none" font-family="Arial" font-size="13px" font-style="normal" font-weight="normal" text-decoration="none" x="1149.2626953125" y="504.5"></text></g></g><g transform="translate(-41,-41) scale(1,1)"><g><path fill="none" stroke="none"/><text fill="#000000" stroke="none" font-family="Arial" font-size="13px" font-style="normal" font-weight="bold" text-decoration="none" x="1104.4609375" y="519.5">InsertException</text></g></g><g transform="translate(-41,-41) scale(1,1)"><g><path fill="none" stroke="none"/><text fill="#000000" stroke="none" font-family="Arial" font-size="13px" font-style="normal" font-weight="normal" text-decoration="none" x="1119.28271484375" y="534.5">(from dao)</text></g></g><g transform="translate(-41,-41) scale(1,1)"><path fill="none" stroke="#000000" d="M 1144 463 Q 1144 463 1066 317" stroke-miterlimit="10"/></g><g transform="translate(-41,-41) scale(1,1)"><path fill="#FFFFFF" stroke="none" d="M 1083.0033574194929 330.96015173502695 L 1066 317 L 1068.1518713760313 338.89450729249273"/></g><g transform="translate(-41,-41) scale(1,1)"><path fill="none" stroke="#000000" d="M 1083.0033574194929 330.96015173502695 L 1066 317 L 1068.1518713760313 338.89450729249273 L 1083.0033574194929 330.96015173502695" stroke-miterlimit="10"/></g><g transform="translate(-41,-41) scale(1,1)"><path fill="#C0C0C0" stroke="none" d="M 409.14453125 376.5 C 409.14453125 370.1487248 414.29325605 365 420.64453125 365 C 426.99580645 365 432.14453125 370.1487248 432.14453125 376.5 C 432.14453125 382.8512752 426.99580645 388 420.64453125 388 C 414.29325605 388 409.14453125 382.8512752 409.14453125 376.5 Z" opacity="0.2"/></g><g transform="translate(-41,-41) scale(1,1)"><path fill="#ffffff" stroke="none" d="M 402.14453125 369.5 C 402.14453125 363.1487248 407.29325605 358 413.64453125 358 C 419.99580645 358 425.14453125 363.1487248 425.14453125 369.5 C 425.14453125 375.8512752 419.99580645 381 413.64453125 381 C 407.29325605 381 402.14453125 375.8512752 402.14453125 369.5 Z"/></g><g transform="translate(-41,-41) scale(1,1)"><path fill="none" stroke="#000000" d="M 402.14453125 369.5 C 402.14453125 363.1487248 407.29325605 358 413.64453125 358 C 419.99580645 358 425.14453125 363.1487248 425.14453125 369.5 C 425.14453125 375.8512752 419.99580645 381 413.64453125 381 C 407.29325605 381 402.14453125 375.8512752 402.14453125 369.5 Z" stroke-miterlimit="10"/></g><g transform="translate(-41,-41) scale(1,1)"><g><path fill="none" stroke="none"/><text fill="#000000" stroke="none" font-family="Arial" font-size="13px" font-style="normal" font-weight="bold" text-decoration="none" x="382.944091796875" y="400.5">OrderDAO</text></g></g><g transform="translate(-41,-41) scale(1,1)"><g><path fill="none" stroke="none"/><text fill="#000000" stroke="none" font-family="Arial" font-size="13px" font-style="normal" font-weight="normal" text-decoration="none" x="383.66455078125" y="415.5">(from dao)</text></g></g><g transform="translate(-41,-41) scale(1,1)"><path fill="none" stroke="#000000" d="M 966.091796875 464 L 989.091796875 464 L 989.091796875 487 L 966.091796875 487 L 966.091796875 464 Z Z" stroke-miterlimit="10"/></g><g transform="translate(-41,-41) scale(1,1)"><path fill="none" stroke="#000000" d="M 966.091796875 464 L 989.091796875 487" stroke-miterlimit="10"/></g><g transform="translate(-41,-41) scale(1,1)"><path fill="none" stroke="#000000" d="M 989.091796875 464 L 966.091796875 487" stroke-miterlimit="10"/></g><g transform="translate(-41,-41) scale(1,1)"><g><path fill="none" stroke="none"/><text fill="#000000" stroke="none" font-family="Arial" font-size="13px" font-style="normal" font-weight="normal" text-decoration="none" x="977.591796875" y="504.5"></text></g></g><g transform="translate(-41,-41) scale(1,1)"><g><path fill="none" stroke="none"/><text fill="#000000" stroke="none" font-family="Arial" font-size="13px" font-style="normal" font-weight="bold" text-decoration="none" x="928.08642578125" y="519.5">UpdateException</text></g></g><g transform="translate(-41,-41) scale(1,1)"><g><path fill="none" stroke="none"/><text fill="#000000" stroke="none" font-family="Arial" font-size="13px" font-style="normal" font-weight="normal" text-decoration="none" x="947.61181640625" y="534.5">(from dao)</text></g></g><g transform="translate(-41,-41) scale(1,1)"><path fill="none" stroke="#000000" d="M 989 463 L 1033 317" stroke-miterlimit="10"/></g><g transform="translate(-41,-41) scale(1,1)"><path fill="#FFFFFF" stroke="none" d="M 1035.1960288464647 338.89012236844496 L 1033 317 L 1019.0741729212857 334.0314808567472"/></g><g transform="translate(-41,-41) scale(1,1)"><path fill="none" stroke="#000000" d="M 1035.1960288464647 338.89012236844496 L 1033 317 L 1019.0741729212857 334.0314808567472 L 1035.1960288464647 338.89012236844496" stroke-miterlimit="10"/></g><g transform="translate(-41,-41) scale(1,1)"><path fill="#C0C0C0" stroke="none" d="M 408.97998046875 180.5 C 408.97998046875 174.1487248 414.12870526875 169 420.47998046875 169 C 426.83125566875 169 431.97998046875 174.1487248 431.97998046875 180.5 C 431.97998046875 186.8512752 426.83125566875 192 420.47998046875 192 C 414.12870526875 192 408.97998046875 186.8512752 408.97998046875 180.5 Z" opacity="0.2"/></g><g transform="translate(-41,-41) scale(1,1)"><path fill="#ffffff" stroke="none" d="M 401.97998046875 173.5 C 401.97998046875 167.1487248 407.12870526875 162 413.47998046875 162 C 419.83125566875 162 424.97998046875 167.1487248 424.97998046875 173.5 C 424.97998046875 179.8512752 419.83125566875 185 413.47998046875 185 C 407.12870526875 185 401.97998046875 179.8512752 401.97998046875 173.5 Z"/></g><g transform="translate(-41,-41) scale(1,1)"><path fill="none" stroke="#000000" d="M 401.97998046875 173.5 C 401.97998046875 167.1487248 407.12870526875 162 413.47998046875 162 C 419.83125566875 162 424.97998046875 167.1487248 424.97998046875 173.5 C 424.97998046875 179.8512752 419.83125566875 185 413.47998046875 185 C 407.12870526875 185 401.97998046875 179.8512752 401.97998046875 173.5 Z" stroke-miterlimit="10"/></g><g transform="translate(-41,-41) scale(1,1)"><g><path fill="none" stroke="none"/><text fill="#000000" stroke="none" font-family="Arial" font-size="13px" font-style="normal" font-weight="bold" text-decoration="none" x="385.6708984375" y="204.5">UserDAO</text></g></g><g transform="translate(-41,-41) scale(1,1)"><g><path fill="none" stroke="none"/><text fill="#000000" stroke="none" font-family="Arial" font-size="13px" font-style="normal" font-weight="normal" text-decoration="none" x="383.5" y="219.5">(from dao)</text></g></g><g transform="translate(-41,-41) scale(1,1)"><path fill="none" stroke="#000000" d="M 645.114990234375 241 L 668.114990234375 241 L 668.114990234375 264 L 645.114990234375 264 L 645.114990234375 241 Z Z" stroke-miterlimit="10"/></g><g transform="translate(-41,-41) scale(1,1)"><path fill="none" stroke="#000000" d="M 645.114990234375 241 L 668.114990234375 264" stroke-miterlimit="10"/></g><g transform="translate(-41,-41) scale(1,1)"><path fill="none" stroke="#000000" d="M 668.114990234375 241 L 645.114990234375 264" stroke-miterlimit="10"/></g><g transform="translate(-41,-41) scale(1,1)"><g><path fill="none" stroke="none"/><text fill="#000000" stroke="none" font-family="Arial" font-size="13px" font-style="normal" font-weight="normal" text-decoration="none" x="656.614990234375" y="281.5"></text></g></g><g transform="translate(-41,-41) scale(1,1)"><g><path fill="none" stroke="none"/><text fill="#000000" stroke="none" font-family="Arial" font-size="13px" font-style="normal" font-weight="bold" text-decoration="none" x="610.740478515625" y="296.5">MysqlBookDAO</text></g></g><g transform="translate(-41,-41) scale(1,1)"><g><path fill="none" stroke="none"/><text fill="#000000" stroke="none" font-family="Arial" font-size="13px" font-style="normal" font-weight="normal" text-decoration="none" x="620.50634765625" y="311.5">(from mysql)</text></g></g><g transform="translate(-41,-41) scale(1,1)"><path fill="none" stroke="#000000" d="M 602 282 L 424.694091796875 276.8470458984375" stroke-miterlimit="10"/></g><g transform="translate(-41,-41) scale(1,1)"><path fill="none" stroke="#000000" d="M 645.344970703125 51 L 668.344970703125 51 L 668.344970703125 74 L 645.344970703125 74 L 645.344970703125 51 Z Z" stroke-miterlimit="10"/></g><g transform="translate(-41,-41) scale(1,1)"><path fill="none" stroke="#000000" d="M 645.344970703125 51 L 668.344970703125 74" stroke-miterlimit="10"/></g><g transform="translate(-41,-41) scale(1,1)"><path fill="none" stroke="#000000" d="M 668.344970703125 51 L 645.344970703125 74" stroke-miterlimit="10"/></g><g transform="translate(-41,-41) scale(1,1)"><g><path fill="none" stroke="none"/><text fill="#000000" stroke="none" font-family="Arial" font-size="13px" font-style="normal" font-weight="normal" text-decoration="none" x="656.844970703125" y="91.5"></text></g></g><g transform="translate(-41,-41) scale(1,1)"><g><path fill="none" stroke="none"/><text fill="#000000" stroke="none" font-family="Arial" font-size="13px" font-style="normal" font-weight="bold" text-decoration="none" x="604.114990234375" y="106.5">MysqlDAOFactory</text></g></g><g transform="translate(-41,-41) scale(1,1)"><g><path fill="none" stroke="none"/><text fill="#000000" stroke="none" font-family="Arial" font-size="13px" font-style="normal" font-weight="normal" text-decoration="none" x="620.736328125" y="121.5">(from mysql)</text></g></g><g transform="translate(-41,-41) scale(1,1)"><path fill="none" stroke="#000000" d="M 595 89 Q 526 90 457 89" stroke-miterlimit="10"/></g><g transform="translate(-41,-41) scale(1,1)"><path fill="#FFFFFF" stroke="none" d="M 477.4452176795884 80.87638787027302 L 457 89 L 477.20121328873125 97.71269083941277"/></g><g transform="translate(-41,-41) scale(1,1)"><path fill="none" stroke="#000000" d="M 477.4452176795884 80.87638787027302 L 457 89 L 477.20121328873125 97.71269083941277 L 477.4452176795884 80.87638787027302" stroke-miterlimit="10"/></g><g transform="translate(-41,-41) scale(1,1)"><path fill="none" stroke="#000000" d="M 643.5654296875 352 L 666.5654296875 352 L 666.5654296875 375 L 643.5654296875 375 L 643.5654296875 352 Z Z" stroke-miterlimit="10"/></g><g transform="translate(-41,-41) scale(1,1)"><path fill="none" stroke="#000000" d="M 643.5654296875 352 L 666.5654296875 375" stroke-miterlimit="10"/></g><g transform="translate(-41,-41) scale(1,1)"><path fill="none" stroke="#000000" d="M 666.5654296875 352 L 643.5654296875 375" stroke-miterlimit="10"/></g><g transform="translate(-41,-41) scale(1,1)"><g><path fill="none" stroke="none"/><text fill="#000000" stroke="none" font-family="Arial" font-size="13px" font-style="normal" font-weight="normal" text-decoration="none" x="655.0654296875" y="392.5"></text></g></g><g transform="translate(-41,-41) scale(1,1)"><g><path fill="none" stroke="none"/><text fill="#000000" stroke="none" font-family="Arial" font-size="13px" font-style="normal" font-weight="bold" text-decoration="none" x="607.391357421875" y="407.5">MysqlOrderDAO</text></g></g><g transform="translate(-41,-41) scale(1,1)"><g><path fill="none" stroke="none"/><text fill="#000000" stroke="none" font-family="Arial" font-size="13px" font-style="normal" font-weight="normal" text-decoration="none" x="618.956787109375" y="422.5">(from mysql)</text></g></g><g transform="translate(-41,-41) scale(1,1)"><path fill="none" stroke="#000000" d="M 599 390 L 425.14453125 375.39185855263156" stroke-miterlimit="10"/></g><g transform="translate(-41,-41) scale(1,1)"><path fill="none" stroke="#000000" d="M 665.923095703125 146 L 688.923095703125 146 L 688.923095703125 169 L 665.923095703125 169 L 665.923095703125 146 Z Z" stroke-miterlimit="10"/></g><g transform="translate(-41,-41) scale(1,1)"><path fill="none" stroke="#000000" d="M 665.923095703125 146 L 688.923095703125 169" stroke-miterlimit="10"/></g><g transform="translate(-41,-41) scale(1,1)"><path fill="none" stroke="#000000" d="M 688.923095703125 146 L 665.923095703125 169" stroke-miterlimit="10"/></g><g transform="translate(-41,-41) scale(1,1)"><g><path fill="none" stroke="none"/><text fill="#000000" stroke="none" font-family="Arial" font-size="13px" font-style="normal" font-weight="normal" text-decoration="none" x="609.5" y="186.5">«ImplementationClass»</text></g></g><g transform="translate(-41,-41) scale(1,1)"><g><path fill="none" stroke="none"/><text fill="#000000" stroke="none" font-family="Arial" font-size="13px" font-style="normal" font-weight="bold" text-decoration="none" x="632.640380859375" y="201.5">MysqlUserDAO</text></g></g><g transform="translate(-41,-41) scale(1,1)"><g><path fill="none" stroke="none"/><text fill="#000000" stroke="none" font-family="Arial" font-size="13px" font-style="normal" font-weight="normal" text-decoration="none" x="641.314453125" y="216.5">(from mysql)</text></g></g><g transform="translate(-41,-41) scale(1,1)"><path fill="none" stroke="#000000" d="M 604 186 L 424.97998046875 179.32276746961804" stroke-miterlimit="10"/></g><g transform="translate(-41,-41) scale(1,1)"><path fill="none" stroke="#000000" d="M 383 1305.25 L 406 1305.25 L 406 1328.25 L 383 1328.25 L 383 1305.25 Z Z" stroke-miterlimit="10"/></g><g transform="translate(-41,-41) scale(1,1)"><path fill="none" stroke="#000000" d="M 383 1305.25 L 406 1328.25" stroke-miterlimit="10"/></g><g transform="translate(-41,-41) scale(1,1)"><path fill="none" stroke="#000000" d="M 406 1305.25 L 383 1328.25" stroke-miterlimit="10"/></g><g transform="translate(-41,-41) scale(1,1)"><g><path fill="none" stroke="none"/><text fill="#000000" stroke="none" font-family="Arial" font-size="13px" font-style="normal" font-weight="normal" text-decoration="none" x="394.5" y="1345.75"></text></g></g><g transform="translate(-41,-41) scale(1,1)"><g><path fill="none" stroke="none"/><text fill="#000000" stroke="none" font-family="Arial" font-size="13px" font-style="normal" font-weight="bold" text-decoration="none" x="352.951416015625" y="1360.75">EncodingFilter</text></g></g><g transform="translate(-41,-41) scale(1,1)"><g><path fill="none" stroke="none"/><text fill="#000000" stroke="none" font-family="Arial" font-size="13px" font-style="normal" font-weight="normal" text-decoration="none" x="363.08544921875" y="1375.75">(from filter)</text></g></g><g transform="translate(-41,-41) scale(1,1)"><path fill="none" stroke="#000000" d="M 382.042236328125 1392.25 L 405.042236328125 1392.25 L 405.042236328125 1415.25 L 382.042236328125 1415.25 L 382.042236328125 1392.25 Z Z" stroke-miterlimit="10"/></g><g transform="translate(-41,-41) scale(1,1)"><path fill="none" stroke="#000000" d="M 382.042236328125 1392.25 L 405.042236328125 1415.25" stroke-miterlimit="10"/></g><g transform="translate(-41,-41) scale(1,1)"><path fill="none" stroke="#000000" d="M 405.042236328125 1392.25 L 382.042236328125 1415.25" stroke-miterlimit="10"/></g><g transform="translate(-41,-41) scale(1,1)"><g><path fill="none" stroke="none"/><text fill="#000000" stroke="none" font-family="Arial" font-size="13px" font-style="normal" font-weight="normal" text-decoration="none" x="393.542236328125" y="1432.75"></text></g></g><g transform="translate(-41,-41) scale(1,1)"><g><path fill="none" stroke="none"/><text fill="#000000" stroke="none" font-family="Arial" font-size="13px" font-style="normal" font-weight="bold" text-decoration="none" x="355.6181640625" y="1447.75">SecurityFilter</text></g></g><g transform="translate(-41,-41) scale(1,1)"><g><path fill="none" stroke="none"/><text fill="#000000" stroke="none" font-family="Arial" font-size="13px" font-style="normal" font-weight="normal" text-decoration="none" x="362.127685546875" y="1462.75">(from filter)</text></g></g><g transform="translate(-41,-41) scale(1,1)"><path fill="none" stroke="#000000" d="M 383.8017578125 1479.25 L 406.8017578125 1479.25 L 406.8017578125 1502.25 L 383.8017578125 1502.25 L 383.8017578125 1479.25 Z Z" stroke-miterlimit="10"/></g><g transform="translate(-41,-41) scale(1,1)"><path fill="none" stroke="#000000" d="M 383.8017578125 1479.25 L 406.8017578125 1502.25" stroke-miterlimit="10"/></g><g transform="translate(-41,-41) scale(1,1)"><path fill="none" stroke="#000000" d="M 406.8017578125 1479.25 L 383.8017578125 1502.25" stroke-miterlimit="10"/></g><g transform="translate(-41,-41) scale(1,1)"><g><path fill="none" stroke="none"/><text fill="#000000" stroke="none" font-family="Arial" font-size="13px" font-style="normal" font-weight="normal" text-decoration="none" x="395.3017578125" y="1519.75"></text></g></g><g transform="translate(-41,-41) scale(1,1)"><g><path fill="none" stroke="none"/><text fill="#000000" stroke="none" font-family="Arial" font-size="13px" font-style="normal" font-weight="bold" text-decoration="none" x="329.908203125" y="1534.75">SessionInvalidateFilter</text></g></g><g transform="translate(-41,-41) scale(1,1)"><g><path fill="none" stroke="none"/><text fill="#000000" stroke="none" font-family="Arial" font-size="13px" font-style="normal" font-weight="normal" text-decoration="none" x="363.88720703125" y="1549.75">(from filter)</text></g></g><g transform="translate(-41,-41) scale(1,1)"><path fill="none" stroke="#000000" d="M 910.97998046875 1326.25 L 933.97998046875 1326.25 L 933.97998046875 1349.25 L 910.97998046875 1349.25 L 910.97998046875 1326.25 Z Z" stroke-miterlimit="10"/></g><g transform="translate(-41,-41) scale(1,1)"><path fill="none" stroke="#000000" d="M 910.97998046875 1326.25 L 933.97998046875 1349.25" stroke-miterlimit="10"/></g><g transform="translate(-41,-41) scale(1,1)"><path fill="none" stroke="#000000" d="M 933.97998046875 1326.25 L 910.97998046875 1349.25" stroke-miterlimit="10"/></g><g transform="translate(-41,-41) scale(1,1)"><g><path fill="none" stroke="none"/><text fill="#000000" stroke="none" font-family="Arial" font-size="13px" font-style="normal" font-weight="normal" text-decoration="none" x="922.47998046875" y="1366.75"></text></g></g><g transform="translate(-41,-41) scale(1,1)"><g><path fill="none" stroke="none"/><text fill="#000000" stroke="none" font-family="Arial" font-size="13px" font-style="normal" font-weight="bold" text-decoration="none" x="876.95458984375" y="1381.75">ContextListener</text></g></g><g transform="translate(-41,-41) scale(1,1)"><g><path fill="none" stroke="none"/><text fill="#000000" stroke="none" font-family="Arial" font-size="13px" font-style="normal" font-weight="normal" text-decoration="none" x="882.391357421875" y="1396.75">(from listener)</text></g></g><g transform="translate(-41,-41) scale(1,1)"><path fill="none" stroke="#000000" d="M 910.713134765625 1443.75 L 933.713134765625 1443.75 L 933.713134765625 1466.75 L 910.713134765625 1466.75 L 910.713134765625 1443.75 Z Z" stroke-miterlimit="10"/></g><g transform="translate(-41,-41) scale(1,1)"><path fill="none" stroke="#000000" d="M 910.713134765625 1443.75 L 933.713134765625 1466.75" stroke-miterlimit="10"/></g><g transform="translate(-41,-41) scale(1,1)"><path fill="none" stroke="#000000" d="M 933.713134765625 1443.75 L 910.713134765625 1466.75" stroke-miterlimit="10"/></g><g transform="translate(-41,-41) scale(1,1)"><g><path fill="none" stroke="none"/><text fill="#000000" stroke="none" font-family="Arial" font-size="13px" font-style="normal" font-weight="normal" text-decoration="none" x="922.213134765625" y="1484.25"></text></g></g><g transform="translate(-41,-41) scale(1,1)"><g><path fill="none" stroke="none"/><text fill="#000000" stroke="none" font-family="Arial" font-size="13px" font-style="normal" font-weight="bold" text-decoration="none" x="875.964111328125" y="1499.25">SessionListener</text></g></g><g transform="translate(-41,-41) scale(1,1)"><g><path fill="none" stroke="none"/><text fill="#000000" stroke="none" font-family="Arial" font-size="13px" font-style="normal" font-weight="normal" text-decoration="none" x="882.12451171875" y="1514.25">(from listener)</text></g></g><g transform="translate(-41,-41) scale(1,1)"><path fill="none" stroke="#000000" d="M 519.082275390625 1686.75 L 542.082275390625 1686.75 L 542.082275390625 1709.75 L 519.082275390625 1709.75 L 519.082275390625 1686.75 Z Z" stroke-miterlimit="10"/></g><g transform="translate(-41,-41) scale(1,1)"><path fill="none" stroke="#000000" d="M 519.082275390625 1686.75 L 542.082275390625 1709.75" stroke-miterlimit="10"/></g><g transform="translate(-41,-41) scale(1,1)"><path fill="none" stroke="#000000" d="M 542.082275390625 1686.75 L 519.082275390625 1709.75" stroke-miterlimit="10"/></g><g transform="translate(-41,-41) scale(1,1)"><g><path fill="none" stroke="none"/><text fill="#000000" stroke="none" font-family="Arial" font-size="13px" font-style="normal" font-weight="normal" text-decoration="none" x="530.582275390625" y="1727.25"></text></g></g><g transform="translate(-41,-41) scale(1,1)"><g><path fill="none" stroke="none"/><text fill="#000000" stroke="none" font-family="Arial" font-size="13px" font-style="normal" font-weight="bold" text-decoration="none" x="487.583251953125" y="1742.25">CountValidator</text></g></g><g transform="translate(-41,-41) scale(1,1)"><g><path fill="none" stroke="none"/><text fill="#000000" stroke="none" font-family="Arial" font-size="13px" font-style="normal" font-weight="normal" text-decoration="none" x="491.57275390625" y="1757.25">(from shared)</text></g></g><g transform="translate(-41,-41) scale(1,1)"><path fill="none" stroke="#000000" d="M 518.265869140625 1773.75 L 541.265869140625 1773.75 L 541.265869140625 1796.75 L 518.265869140625 1796.75 L 518.265869140625 1773.75 Z Z" stroke-miterlimit="10"/></g><g transform="translate(-41,-41) scale(1,1)"><path fill="none" stroke="#000000" d="M 518.265869140625 1773.75 L 541.265869140625 1796.75" stroke-miterlimit="10"/></g><g transform="translate(-41,-41) scale(1,1)"><path fill="none" stroke="#000000" d="M 541.265869140625 1773.75 L 518.265869140625 1796.75" stroke-miterlimit="10"/></g><g transform="translate(-41,-41) scale(1,1)"><g><path fill="none" stroke="none"/><text fill="#000000" stroke="none" font-family="Arial" font-size="13px" font-style="normal" font-weight="normal" text-decoration="none" x="529.765869140625" y="1814.25"></text></g></g><g transform="translate(-41,-41) scale(1,1)"><g><path fill="none" stroke="none"/><text fill="#000000" stroke="none" font-family="Arial" font-size="13px" font-style="normal" font-weight="bold" text-decoration="none" x="490.38818359375" y="1829.25">UserValidator</text></g></g><g transform="translate(-41,-41) scale(1,1)"><g><path fill="none" stroke="none"/><text fill="#000000" stroke="none" font-family="Arial" font-size="13px" font-style="normal" font-weight="normal" text-decoration="none" x="490.75634765625" y="1844.25">(from shared)</text></g></g><g transform="translate(-41,-41) scale(1,1)"><path fill="#C0C0C0" stroke="none" d="M 266.009521484375 1755.25 C 266.009521484375 1748.8987248 271.158246284375 1743.75 277.509521484375 1743.75 C 283.860796684375 1743.75 289.009521484375 1748.8987248 289.009521484375 1755.25 C 289.009521484375 1761.6012752 283.860796684375 1766.75 277.509521484375 1766.75 C 271.158246284375 1766.75 266.009521484375 1761.6012752 266.009521484375 1755.25 Z" opacity="0.2"/></g><g transform="translate(-41,-41) scale(1,1)"><path fill="#ffffff" stroke="none" d="M 259.009521484375 1748.25 C 259.009521484375 1741.8987248 264.158246284375 1736.75 270.509521484375 1736.75 C 276.860796684375 1736.75 282.009521484375 1741.8987248 282.009521484375 1748.25 C 282.009521484375 1754.6012752 276.860796684375 1759.75 270.509521484375 1759.75 C 264.158246284375 1759.75 259.009521484375 1754.6012752 259.009521484375 1748.25 Z"/></g><g transform="translate(-41,-41) scale(1,1)"><path fill="none" stroke="#000000" d="M 259.009521484375 1748.25 C 259.009521484375 1741.8987248 264.158246284375 1736.75 270.509521484375 1736.75 C 276.860796684375 1736.75 282.009521484375 1741.8987248 282.009521484375 1748.25 C 282.009521484375 1754.6012752 276.860796684375 1759.75 270.509521484375 1759.75 C 264.158246284375 1759.75 259.009521484375 1754.6012752 259.009521484375 1748.25 Z" stroke-miterlimit="10"/></g><g transform="translate(-41,-41) scale(1,1)"><g><path fill="none" stroke="none"/><text fill="#000000" stroke="none" font-family="Arial" font-size="13px" font-style="normal" font-weight="bold" text-decoration="none" x="244.85546875" y="1779.25">Validator</text></g></g><g transform="translate(-41,-41) scale(1,1)"><g><path fill="none" stroke="none"/><text fill="#000000" stroke="none" font-family="Arial" font-size="13px" font-style="normal" font-weight="normal" text-decoration="none" x="231.5" y="1794.25">(from shared)</text></g></g><g transform="translate(-41,-41) scale(1,1)"><path fill="none" stroke="#000000" d="M 479 1724 Q 406 1725 282.009521484375 1749.60126953125" stroke-miterlimit="10"/></g><g transform="translate(-41,-41) scale(1,1)"><path fill="none" stroke="#000000" d="M 482 1811 Q 406 1812 282.009521484375 1757.3407389322917" stroke-miterlimit="10"/></g><g transform="translate(-41,-41) scale(1,1)"><path fill="none" stroke="#000000" d="M 960.733154296875 2384 L 983.733154296875 2384 L 983.733154296875 2407 L 960.733154296875 2407 L 960.733154296875 2384 Z Z" stroke-miterlimit="10"/></g><g transform="translate(-41,-41) scale(1,1)"><path fill="none" stroke="#000000" d="M 960.733154296875 2384 L 983.733154296875 2407" stroke-miterlimit="10"/></g><g transform="translate(-41,-41) scale(1,1)"><path fill="none" stroke="#000000" d="M 983.733154296875 2384 L 960.733154296875 2407" stroke-miterlimit="10"/></g><g transform="translate(-41,-41) scale(1,1)"><g><path fill="none" stroke="none"/><text fill="#000000" stroke="none" font-family="Arial" font-size="13px" font-style="normal" font-weight="normal" text-decoration="none" x="972.233154296875" y="2424.5"></text></g></g><g transform="translate(-41,-41) scale(1,1)"><g><path fill="none" stroke="none"/><text fill="#000000" stroke="none" font-family="Arial" font-size="13px" font-style="normal" font-weight="bold" text-decoration="none" x="942.964111328125" y="2439.5">Hashtable</text></g></g><g transform="translate(-41,-41) scale(1,1)"><g><path fill="none" stroke="none"/><text fill="#000000" stroke="none" font-family="Arial" font-size="13px" font-style="normal" font-weight="normal" text-decoration="none" x="932.5" y="2454.5">(from Logical)</text></g></g><g transform="translate(-41,-41) scale(1,1)"><path fill="none" stroke="#000000" d="M 832 2422 L 927 2422" stroke-miterlimit="10"/></g><g transform="translate(-41,-41) scale(1,1)"><path fill="#FFFFFF" stroke="none" d="M 906.6746502847517 2430.4190355120318 L 927 2422 L 906.6746502847517 2413.5809644879682"/></g><g transform="translate(-41,-41) scale(1,1)"><path fill="none" stroke="#000000" d="M 906.6746502847517 2430.4190355120318 L 927 2422 L 906.6746502847517 2413.5809644879682 L 906.6746502847517 2430.4190355120318" stroke-miterlimit="10"/></g><g transform="translate(-41,-41) scale(1,1)"><path fill="none" stroke="#000000" d="M 416.733154296875 936 L 439.733154296875 936 L 439.733154296875 959 L 416.733154296875 959 L 416.733154296875 936 Z Z" stroke-miterlimit="10"/></g><g transform="translate(-41,-41) scale(1,1)"><path fill="none" stroke="#000000" d="M 416.733154296875 936 L 439.733154296875 959" stroke-miterlimit="10"/></g><g transform="translate(-41,-41) scale(1,1)"><path fill="none" stroke="#000000" d="M 439.733154296875 936 L 416.733154296875 959" stroke-miterlimit="10"/></g><g transform="translate(-41,-41) scale(1,1)"><g><path fill="none" stroke="none"/><text fill="#000000" stroke="none" font-family="Arial" font-size="13px" font-style="normal" font-weight="normal" text-decoration="none" x="428.233154296875" y="976.5"></text></g></g><g transform="translate(-41,-41) scale(1,1)"><g><path fill="none" stroke="none"/><text fill="#000000" stroke="none" font-family="Arial" font-size="13px" font-style="normal" font-weight="bold" text-decoration="none" x="396.082275390625" y="991.5">HttpServlet</text></g></g><g transform="translate(-41,-41) scale(1,1)"><g><path fill="none" stroke="none"/><text fill="#000000" stroke="none" font-family="Arial" font-size="13px" font-style="normal" font-weight="normal" text-decoration="none" x="388.5" y="1006.5">(from Logical)</text></g></g><g transform="translate(-41,-41) scale(1,1)"><path fill="none" stroke="#000000" d="M 136 953 L 383 971" stroke-miterlimit="10"/></g><g transform="translate(-41,-41) scale(1,1)"><path fill="#FFFFFF" stroke="none" d="M 362.1164968291596 977.9194866365576 L 383 971 L 363.3403173699284 961.1259492160076"/></g><g transform="translate(-41,-41) scale(1,1)"><path fill="none" stroke="#000000" d="M 362.1164968291596 977.9194866365576 L 383 971 L 363.3403173699284 961.1259492160076 L 362.1164968291596 977.9194866365576" stroke-miterlimit="10"/></g><g transform="translate(-41,-41) scale(1,1)"><path fill="none" stroke="#000000" d="M 695 974 L 473 974" stroke-miterlimit="10"/></g><g transform="translate(-41,-41) scale(1,1)"><path fill="#FFFFFF" stroke="none" d="M 493.3253497152483 965.580964487968 L 473 974 L 493.3253497152483 982.419035512032"/></g><g transform="translate(-41,-41) scale(1,1)"><path fill="none" stroke="#000000" d="M 493.3253497152483 965.580964487968 L 473 974 L 493.3253497152483 982.419035512032 L 493.3253497152483 965.580964487968" stroke-miterlimit="10"/></g><g transform="translate(-41,-41) scale(1,1)"><path fill="none" stroke="#000000" d="M 687 1153 L 473 1005" stroke-miterlimit="10"/></g><g transform="translate(-41,-41) scale(1,1)"><path fill="#FFFFFF" stroke="none" d="M 494.5057995865774 1009.6368722369684 L 473 1005 L 484.92813292025164 1023.4856605247637"/></g><g transform="translate(-41,-41) scale(1,1)"><path fill="none" stroke="#000000" d="M 494.5057995865774 1009.6368722369684 L 473 1005 L 484.92813292025164 1023.4856605247637 L 494.5057995865774 1009.6368722369684" stroke-miterlimit="10"/></g><g transform="translate(-41,-41) scale(1,1)"><path fill="none" stroke="#000000" d="M 544 677 L 443 935" stroke-miterlimit="10"/></g><g transform="translate(-41,-41) scale(1,1)"><path fill="#FFFFFF" stroke="none" d="M 442.569592507487 913.0042106440712 L 443 935 L 458.2490277544987 919.1422841322425"/></g><g transform="translate(-41,-41) scale(1,1)"><path fill="none" stroke="#000000" d="M 442.569592507487 913.0042106440712 L 443 935 L 458.2490277544987 919.1422841322425 L 442.569592507487 913.0042106440712" stroke-miterlimit="10"/></g><g transform="translate(-41,-41) scale(1,1)"><path fill="none" stroke="#000000" d="M 688 773 L 473 939" stroke-miterlimit="10"/></g><g transform="translate(-41,-41) scale(1,1)"><path fill="#FFFFFF" stroke="none" d="M 483.94292860765796 919.914604707062 L 473 939 L 494.2332314577775 933.2424065912529"/></g><g transform="translate(-41,-41) scale(1,1)"><path fill="none" stroke="#000000" d="M 483.94292860765796 919.914604707062 L 473 939 L 494.2332314577775 933.2424065912529 L 483.94292860765796 919.914604707062" stroke-miterlimit="10"/></g><g transform="translate(-41,-41) scale(1,1)"><path fill="none" stroke="#000000" d="M 687 864 L 473 955" stroke-miterlimit="10"/></g><g transform="translate(-41,-41) scale(1,1)"><path fill="#FFFFFF" stroke="none" d="M 488.409914093511 939.2985813497438 L 473 955 L 494.9990343548688 954.7938751511788"/></g><g transform="translate(-41,-41) scale(1,1)"><path fill="none" stroke="#000000" d="M 488.409914093511 939.2985813497438 L 473 955 L 494.9990343548688 954.7938751511788 L 488.409914093511 939.2985813497438" stroke-miterlimit="10"/></g><g transform="translate(-41,-41) scale(1,1)"><path fill="none" stroke="#000000" d="M 530 1143 L 451 1013" stroke-miterlimit="10"/></g><g transform="translate(-41,-41) scale(1,1)"><path fill="#FFFFFF" stroke="none" d="M 468.75011665968384 1025.9974366152567 L 451 1013 L 454.36065228822446 1034.741803425605"/></g><g transform="translate(-41,-41) scale(1,1)"><path fill="none" stroke="#000000" d="M 468.75011665968384 1025.9974366152567 L 451 1013 L 454.36065228822446 1034.741803425605 L 468.75011665968384 1025.9974366152567" stroke-miterlimit="10"/></g><g transform="translate(-41,-41) scale(1,1)"><path fill="none" stroke="#000000" d="M 380 1143 L 417 1013" stroke-miterlimit="10"/></g><g transform="translate(-41,-41) scale(1,1)"><path fill="#FFFFFF" stroke="none" d="M 419.533511536641 1034.8536340065837 L 417 1013 L 403.338610388149 1030.2443159873974"/></g><g transform="translate(-41,-41) scale(1,1)"><path fill="none" stroke="#000000" d="M 419.533511536641 1034.8536340065837 L 417 1013 L 403.338610388149 1030.2443159873974 L 419.533511536641 1034.8536340065837" stroke-miterlimit="10"/></g><g transform="translate(-41,-41) scale(1,1)"><path fill="none" stroke="#000000" d="M 432 677 L 429 935" stroke-miterlimit="10"/></g><g transform="translate(-41,-41) scale(1,1)"><path fill="#FFFFFF" stroke="none" d="M 420.81785889140076 914.5781350783292 L 429 935 L 437.6547917080734 914.7739133668952"/></g><g transform="translate(-41,-41) scale(1,1)"><path fill="none" stroke="#000000" d="M 420.81785889140076 914.5781350783292 L 429 935 L 437.6547917080734 914.7739133668952 L 420.81785889140076 914.5781350783292" stroke-miterlimit="10"/></g><g transform="translate(-41,-41) scale(1,1)"><path fill="none" stroke="#000000" d="M 136 842 L 383 954" stroke-miterlimit="10"/></g><g transform="translate(-41,-41) scale(1,1)"><path fill="#FFFFFF" stroke="none" d="M 361.011987307678 953.2738472321289 L 383 954 L 367.9655946667823 937.9386595741041"/></g><g transform="translate(-41,-41) scale(1,1)"><path fill="none" stroke="#000000" d="M 361.011987307678 953.2738472321289 L 383 954 L 367.9655946667823 937.9386595741041 L 361.011987307678 953.2738472321289" stroke-miterlimit="10"/></g><g transform="translate(-41,-41) scale(1,1)"><path fill="none" stroke="#000000" d="M 243 1143 L 385 1013" stroke-miterlimit="10"/></g><g transform="translate(-41,-41) scale(1,1)"><path fill="#FFFFFF" stroke="none" d="M 375.69331059560363 1032.9345311540076 L 385 1013 L 364.32333465298115 1020.5150189705275"/></g><g transform="translate(-41,-41) scale(1,1)"><path fill="none" stroke="#000000" d="M 375.69331059560363 1032.9345311540076 L 385 1013 L 364.32333465298115 1020.5150189705275 L 375.69331059560363 1032.9345311540076" stroke-miterlimit="10"/></g><g transform="translate(-41,-41) scale(1,1)"><path fill="none" stroke="#000000" d="M 321 677 L 414 935" stroke-miterlimit="10"/></g><g transform="translate(-41,-41) scale(1,1)"><path fill="#FFFFFF" stroke="none" d="M 399.187345949017 918.7339224160864 L 414 935 L 415.02772563607135 913.0240181102877"/></g><g transform="translate(-41,-41) scale(1,1)"><path fill="none" stroke="#000000" d="M 399.187345949017 918.7339224160864 L 414 935 L 415.02772563607135 913.0240181102877 L 399.187345949017 918.7339224160864" stroke-miterlimit="10"/></g><g transform="translate(-41,-41) scale(1,1)"><path fill="none" stroke="#000000" d="M 1016.733154296875 64 L 1039.733154296875 64 L 1039.733154296875 87 L 1016.733154296875 87 L 1016.733154296875 64 Z Z" stroke-miterlimit="10"/></g><g transform="translate(-41,-41) scale(1,1)"><path fill="none" stroke="#000000" d="M 1016.733154296875 64 L 1039.733154296875 87" stroke-miterlimit="10"/></g><g transform="translate(-41,-41) scale(1,1)"><path fill="none" stroke="#000000" d="M 1039.733154296875 64 L 1016.733154296875 87" stroke-miterlimit="10"/></g><g transform="translate(-41,-41) scale(1,1)"><g><path fill="none" stroke="none"/><text fill="#000000" stroke="none" font-family="Arial" font-size="13px" font-style="normal" font-weight="normal" text-decoration="none" x="1028.233154296875" y="104.5"></text></g></g><g transform="translate(-41,-41) scale(1,1)"><g><path fill="none" stroke="none"/><text fill="#000000" stroke="none" font-family="Arial" font-size="13px" font-style="normal" font-weight="bold" text-decoration="none" x="999.687744140625" y="119.5">Exception</text></g></g><g transform="translate(-41,-41) scale(1,1)"><g><path fill="none" stroke="none"/><text fill="#000000" stroke="none" font-family="Arial" font-size="13px" font-style="normal" font-weight="normal" text-decoration="none" x="988.5" y="134.5">(from Logical)</text></g></g><g transform="translate(-41,-41) scale(1,1)"><path fill="none" stroke="#000000" d="M 1041 239 L 1032 141" stroke-miterlimit="10"/></g><g transform="translate(-41,-41) scale(1,1)"><path fill="#FFFFFF" stroke="none" d="M 1042.2425472020834 160.47023951606892 L 1032 141 L 1025.4750361900778 162.01011297635515"/></g><g transform="translate(-41,-41) scale(1,1)"><path fill="none" stroke="#000000" d="M 1042.2425472020834 160.47023951606892 L 1032 141 L 1025.4750361900778 162.01011297635515 L 1042.2425472020834 160.47023951606892" stroke-miterlimit="10"/></g><g transform="translate(-41,-41) scale(1,1)"><path fill="#C0C0C0" stroke="none" d="M 90.733154296875 2115.25 C 90.733154296875 2108.8987248 95.881879096875 2103.75 102.233154296875 2103.75 C 108.584429496875 2103.75 113.733154296875 2108.8987248 113.733154296875 2115.25 C 113.733154296875 2121.6012752 108.584429496875 2126.75 102.233154296875 2126.75 C 95.881879096875 2126.75 90.733154296875 2121.6012752 90.733154296875 2115.25 Z" opacity="0.2"/></g><g transform="translate(-41,-41) scale(1,1)"><path fill="#ffffff" stroke="none" d="M 83.733154296875 2108.25 C 83.733154296875 2101.8987248 88.881879096875 2096.75 95.233154296875 2096.75 C 101.584429496875 2096.75 106.733154296875 2101.8987248 106.733154296875 2108.25 C 106.733154296875 2114.6012752 101.584429496875 2119.75 95.233154296875 2119.75 C 88.881879096875 2119.75 83.733154296875 2114.6012752 83.733154296875 2108.25 Z"/></g><g transform="translate(-41,-41) scale(1,1)"><path fill="none" stroke="#000000" d="M 83.733154296875 2108.25 C 83.733154296875 2101.8987248 88.881879096875 2096.75 95.233154296875 2096.75 C 101.584429496875 2096.75 106.733154296875 2101.8987248 106.733154296875 2108.25 C 106.733154296875 2114.6012752 101.584429496875 2119.75 95.233154296875 2119.75 C 88.881879096875 2119.75 83.733154296875 2114.6012752 83.733154296875 2108.25 Z" stroke-miterlimit="10"/></g><g transform="translate(-41,-41) scale(1,1)"><g><path fill="none" stroke="none"/><text fill="#000000" stroke="none" font-family="Arial" font-size="13px" font-style="normal" font-weight="bold" text-decoration="none" x="61.6318359375" y="2139.25">Serializable</text></g></g><g transform="translate(-41,-41) scale(1,1)"><g><path fill="none" stroke="none"/><text fill="#000000" stroke="none" font-family="Arial" font-size="13px" font-style="normal" font-weight="normal" text-decoration="none" x="55.5" y="2154.25">(from Logical)</text></g></g><g transform="translate(-41,-41) scale(1,1)"><path fill="none" stroke="#000000" d="M 327 2128 L 106.733154296875 2113.2147352430557" stroke-miterlimit="10"/></g><g transform="translate(-41,-41) scale(1,1)"><path fill="#C0C0C0" stroke="none" d="M 114.733154296875 1417.25 C 114.733154296875 1410.8987248 119.881879096875 1405.75 126.233154296875 1405.75 C 132.584429496875 1405.75 137.733154296875 1410.8987248 137.733154296875 1417.25 C 137.733154296875 1423.6012752 132.584429496875 1428.75 126.233154296875 1428.75 C 119.881879096875 1428.75 114.733154296875 1423.6012752 114.733154296875 1417.25 Z" opacity="0.2"/></g><g transform="translate(-41,-41) scale(1,1)"><path fill="#ffffff" stroke="none" d="M 107.733154296875 1410.25 C 107.733154296875 1403.8987248 112.881879096875 1398.75 119.233154296875 1398.75 C 125.584429496875 1398.75 130.733154296875 1403.8987248 130.733154296875 1410.25 C 130.733154296875 1416.6012752 125.584429496875 1421.75 119.233154296875 1421.75 C 112.881879096875 1421.75 107.733154296875 1416.6012752 107.733154296875 1410.25 Z"/></g><g transform="translate(-41,-41) scale(1,1)"><path fill="none" stroke="#000000" d="M 107.733154296875 1410.25 C 107.733154296875 1403.8987248 112.881879096875 1398.75 119.233154296875 1398.75 C 125.584429496875 1398.75 130.733154296875 1403.8987248 130.733154296875 1410.25 C 130.733154296875 1416.6012752 125.584429496875 1421.75 119.233154296875 1421.75 C 112.881879096875 1421.75 107.733154296875 1416.6012752 107.733154296875 1410.25 Z" stroke-miterlimit="10"/></g><g transform="translate(-41,-41) scale(1,1)"><g><path fill="none" stroke="none"/><text fill="#000000" stroke="none" font-family="Arial" font-size="13px" font-style="normal" font-weight="bold" text-decoration="none" x="104.7890625" y="1441.25">Filter</text></g></g><g transform="translate(-41,-41) scale(1,1)"><g><path fill="none" stroke="none"/><text fill="#000000" stroke="none" font-family="Arial" font-size="13px" font-style="normal" font-weight="normal" text-decoration="none" x="79.5" y="1456.25">(from Logical)</text></g></g><g transform="translate(-41,-41) scale(1,1)"><path fill="none" stroke="#000000" d="M 344 1343 Q 270 1344 130.733154296875 1408.4355794270834" stroke-miterlimit="10"/></g><g transform="translate(-41,-41) scale(1,1)"><path fill="none" stroke="#000000" d="M 347 1430 Q 270 1431 130.733154296875 1415.2147352430557" stroke-miterlimit="10"/></g><g transform="translate(-41,-41) scale(1,1)"><path fill="none" stroke="#000000" d="M 319 1518 Q 270 1518 130.4945652173913 1421.75" stroke-miterlimit="10"/></g><g transform="translate(-41,-41) scale(1,1)"><path fill="#C0C0C0" stroke="none" d="M 660.160400390625 1351.25 C 660.160400390625 1344.8987248 665.309125190625 1339.75 671.660400390625 1339.75 C 678.011675590625 1339.75 683.160400390625 1344.8987248 683.160400390625 1351.25 C 683.160400390625 1357.6012752 678.011675590625 1362.75 671.660400390625 1362.75 C 665.309125190625 1362.75 660.160400390625 1357.6012752 660.160400390625 1351.25 Z" opacity="0.2"/></g><g transform="translate(-41,-41) scale(1,1)"><path fill="#ffffff" stroke="none" d="M 653.160400390625 1344.25 C 653.160400390625 1337.8987248 658.309125190625 1332.75 664.660400390625 1332.75 C 671.011675590625 1332.75 676.160400390625 1337.8987248 676.160400390625 1344.25 C 676.160400390625 1350.6012752 671.011675590625 1355.75 664.660400390625 1355.75 C 658.309125190625 1355.75 653.160400390625 1350.6012752 653.160400390625 1344.25 Z"/></g><g transform="translate(-41,-41) scale(1,1)"><path fill="none" stroke="#000000" d="M 653.160400390625 1344.25 C 653.160400390625 1337.8987248 658.309125190625 1332.75 664.660400390625 1332.75 C 671.011675590625 1332.75 676.160400390625 1337.8987248 676.160400390625 1344.25 C 676.160400390625 1350.6012752 671.011675590625 1355.75 664.660400390625 1355.75 C 658.309125190625 1355.75 653.160400390625 1350.6012752 653.160400390625 1344.25 Z" stroke-miterlimit="10"/></g><g transform="translate(-41,-41) scale(1,1)"><g><path fill="none" stroke="none"/><text fill="#000000" stroke="none" font-family="Arial" font-size="13px" font-style="normal" font-weight="bold" text-decoration="none" x="598.905029296875" y="1375.25">ServletContextListener</text></g></g><g transform="translate(-41,-41) scale(1,1)"><g><path fill="none" stroke="none"/><text fill="#000000" stroke="none" font-family="Arial" font-size="13px" font-style="normal" font-weight="normal" text-decoration="none" x="624.92724609375" y="1390.25">(from Logical)</text></g></g><g transform="translate(-41,-41) scale(1,1)"><path fill="none" stroke="#000000" d="M 868 1364 Q 798 1365 676.160400390625 1347.3164728338068" stroke-miterlimit="10"/></g><g transform="translate(-41,-41) scale(1,1)"><path fill="#C0C0C0" stroke="none" d="M 662.285888671875 1431.75 C 662.285888671875 1425.3987248 667.434613471875 1420.25 673.785888671875 1420.25 C 680.137163871875 1420.25 685.285888671875 1425.3987248 685.285888671875 1431.75 C 685.285888671875 1438.1012752 680.137163871875 1443.25 673.785888671875 1443.25 C 667.434613471875 1443.25 662.285888671875 1438.1012752 662.285888671875 1431.75 Z" opacity="0.2"/></g><g transform="translate(-41,-41) scale(1,1)"><path fill="#ffffff" stroke="none" d="M 655.285888671875 1424.75 C 655.285888671875 1418.3987248 660.434613471875 1413.25 666.785888671875 1413.25 C 673.137163871875 1413.25 678.285888671875 1418.3987248 678.285888671875 1424.75 C 678.285888671875 1431.1012752 673.137163871875 1436.25 666.785888671875 1436.25 C 660.434613471875 1436.25 655.285888671875 1431.1012752 655.285888671875 1424.75 Z"/></g><g transform="translate(-41,-41) scale(1,1)"><path fill="none" stroke="#000000" d="M 655.285888671875 1424.75 C 655.285888671875 1418.3987248 660.434613471875 1413.25 666.785888671875 1413.25 C 673.137163871875 1413.25 678.285888671875 1418.3987248 678.285888671875 1424.75 C 678.285888671875 1431.1012752 673.137163871875 1436.25 666.785888671875 1436.25 C 660.434613471875 1436.25 655.285888671875 1431.1012752 655.285888671875 1424.75 Z" stroke-miterlimit="10"/></g><g transform="translate(-41,-41) scale(1,1)"><g><path fill="none" stroke="none"/><text fill="#000000" stroke="none" font-family="Arial" font-size="13px" font-style="normal" font-weight="bold" text-decoration="none" x="584.4091796875" y="1455.75">HttpSessionAttributeListener</text></g></g><g transform="translate(-41,-41) scale(1,1)"><g><path fill="none" stroke="none"/><text fill="#000000" stroke="none" font-family="Arial" font-size="13px" font-style="normal" font-weight="normal" text-decoration="none" x="627.052734375" y="1470.75">(from Logical)</text></g></g><g transform="translate(-41,-41) scale(1,1)"><path fill="none" stroke="#000000" d="M 867 1465 Q 798 1445 678.285888671875 1426.6598315681379" stroke-miterlimit="10"/></g><g transform="translate(-41,-41) scale(1,1)"><path fill="#C0C0C0" stroke="none" d="M 659.706787109375 1505.75 C 659.706787109375 1499.3987248 664.855511909375 1494.25 671.206787109375 1494.25 C 677.558062309375 1494.25 682.706787109375 1499.3987248 682.706787109375 1505.75 C 682.706787109375 1512.1012752 677.558062309375 1517.25 671.206787109375 1517.25 C 664.855511909375 1517.25 659.706787109375 1512.1012752 659.706787109375 1505.75 Z" opacity="0.2"/></g><g transform="translate(-41,-41) scale(1,1)"><path fill="#ffffff" stroke="none" d="M 652.706787109375 1498.75 C 652.706787109375 1492.3987248 657.855511909375 1487.25 664.206787109375 1487.25 C 670.558062309375 1487.25 675.706787109375 1492.3987248 675.706787109375 1498.75 C 675.706787109375 1505.1012752 670.558062309375 1510.25 664.206787109375 1510.25 C 657.855511909375 1510.25 652.706787109375 1505.1012752 652.706787109375 1498.75 Z"/></g><g transform="translate(-41,-41) scale(1,1)"><path fill="none" stroke="#000000" d="M 652.706787109375 1498.75 C 652.706787109375 1492.3987248 657.855511909375 1487.25 664.206787109375 1487.25 C 670.558062309375 1487.25 675.706787109375 1492.3987248 675.706787109375 1498.75 C 675.706787109375 1505.1012752 670.558062309375 1510.25 664.206787109375 1510.25 C 657.855511909375 1510.25 652.706787109375 1505.1012752 652.706787109375 1498.75 Z" stroke-miterlimit="10"/></g><g transform="translate(-41,-41) scale(1,1)"><g><path fill="none" stroke="none"/><text fill="#000000" stroke="none" font-family="Arial" font-size="13px" font-style="normal" font-weight="bold" text-decoration="none" x="606.036865234375" y="1529.75">HttpSessionListener</text></g></g><g transform="translate(-41,-41) scale(1,1)"><g><path fill="none" stroke="none"/><text fill="#000000" stroke="none" font-family="Arial" font-size="13px" font-style="normal" font-weight="normal" text-decoration="none" x="624.4736328125" y="1544.75">(from Logical)</text></g></g><g transform="translate(-41,-41) scale(1,1)"><path fill="none" stroke="#000000" d="M 867 1498 Q 798 1519 675.706787109375 1501.562935207201" stroke-miterlimit="10"/></g><g transform="translate(-41,-41) scale(1,1)"><path fill="none" stroke="#000000" d="M 595 2367 L 595 2408" stroke-miterlimit="10"/></g><g transform="translate(-41,-41) scale(1,1)"><path fill="none" stroke="#000000" d="M 377 292 L 264 296 L 192 383" stroke-miterlimit="10"/></g><g transform="translate(-41,-41) scale(1,1)"><path fill="#FFFFFF" stroke="none" d="M 198.47280960708053 361.9737607787202 L 192 383 L 211.4447639027136 372.70917123027857"/></g><g transform="translate(-41,-41) scale(1,1)"><path fill="none" stroke="#000000" d="M 198.47280960708053 361.9737607787202 L 192 383 L 211.4447639027136 372.70917123027857 L 198.47280960708053 361.9737607787202" stroke-miterlimit="10"/></g><g transform="translate(-41,-41) scale(1,1)"><path fill="none" stroke="#000000" d="M 376 381 L 312 368 L 207 402" stroke-miterlimit="10"/></g><g transform="translate(-41,-41) scale(1,1)"><path fill="#FFFFFF" stroke="none" d="M 223.74327477901875 387.72895414924767 L 207 402 L 228.93043643120495 403.74812983982275"/></g><g transform="translate(-41,-41) scale(1,1)"><path fill="none" stroke="#000000" d="M 223.74327477901875 387.72895414924767 L 207 402 L 228.93043643120495 403.74812983982275 L 223.74327477901875 387.72895414924767" stroke-miterlimit="10"/></g></g></svg>