<svg version="1.1" xmlns="http://www.w3.org/2000/svg" xmlns:xlink="http://www.w3.org/1999/xlink" width="115.72802734375" height="149"><defs/><g><g transform="translate(-10,-10) scale(1,1)"><rect fill="#C0C0C0" stroke="none" x="27" y="27" width="95.72802734375" height="37" opacity="0.2"/></g><g transform="translate(-10,-10) scale(1,1)"><rect fill="#ffffff" stroke="none" x="20" y="20" width="95.72802734375" height="37"/></g><g transform="translate(-10,-10) scale(1,1)"><path fill="none" stroke="#000000" d="M 20 20 L 115.72802734375 20 L 115.72802734375 57 L 20 57 L 20 20 Z Z" stroke-miterlimit="10"/></g><g transform="translate(-10,-10) scale(1,1)"><g><path fill="none" stroke="none"/><text fill="#000000" stroke="none" font-family="Arial" font-size="13px" font-style="normal" font-weight="normal" text-decoration="none" x="24.5" y="37.5">«enumeration»</text></g></g><g transform="translate(-10,-10) scale(1,1)"><g><path fill="none" stroke="none"/><text fill="#000000" stroke="none" font-family="Arial" font-size="13px" font-style="normal" font-weight="bold" text-decoration="none" x="54.495849609375" y="52.5">Role</text></g></g><g transform="translate(-10,-10) scale(1,1)"><path fill="#ffffff" stroke="none" d="M 65.565869140625 99.5 C 65.565869140625 94.41897983999999 69.68484898062499 90.3 74.765869140625 90.3 C 79.84688930062501 90.3 83.965869140625 94.41897983999999 83.965869140625 99.5 C 83.965869140625 104.58102016000001 79.84688930062501 108.7 74.765869140625 108.7 C 69.68484898062499 108.7 65.565869140625 104.58102016000001 65.565869140625 99.5 Z"/></g><g transform="translate(-10,-10) scale(1,1)"><path fill="none" stroke="#000000" d="M 65.565869140625 99.5 C 65.565869140625 94.41897983999999 69.68484898062499 90.3 74.765869140625 90.3 C 79.84688930062501 90.3 83.965869140625 94.41897983999999 83.965869140625 99.5 C 83.965869140625 104.58102016000001 79.84688930062501 108.7 74.765869140625 108.7 C 69.68484898062499 108.7 65.565869140625 104.58102016000001 65.565869140625 99.5 Z" stroke-miterlimit="10"/></g><g transform="translate(-10,-10) scale(1,1)"><path fill="none" stroke="#000000" d="M 65.565869140625 108.7 L 83.965869140625 108.7" stroke-miterlimit="10"/></g><g transform="translate(-10,-10) scale(1,1)"><g><path fill="none" stroke="none"/><text fill="#000000" stroke="none" font-family="Arial" font-size="13px" font-style="normal" font-weight="normal" text-decoration="none" x="52" y="128.5">«entity»</text></g></g><g transform="translate(-10,-10) scale(1,1)"><g><path fill="none" stroke="none"/><text fill="#000000" stroke="none" font-family="Arial" font-size="13px" font-style="normal" font-weight="bold" text-decoration="none" x="61.042236328125" y="143.5">User</text></g></g><g transform="translate(-10,-10) scale(1,1)"><path fill="none" stroke="#000000" d="M 68 87 Q 66 73 66 58" stroke-miterlimit="10"/></g><g transform="translate(-10,-10) scale(1,1)"><path fill="none" stroke="#000000" d="M 70.20951775601598 68.16267485762415 L 66 58 L 61.790482243984016 68.16267485762415" stroke-miterlimit="10"/></g><g transform="translate(-10,-10) scale(1,1)"><g><path fill="none" stroke="none"/><text fill="#000000" stroke="none" font-family="Arial" font-size="13px" font-style="normal" font-weight="normal" text-decoration="none" x="38" y="90">-role</text></g></g></g></svg>