<svg version="1.1" xmlns="http://www.w3.org/2000/svg" xmlns:xlink="http://www.w3.org/1999/xlink" width="1097" height="324"><defs/><g><g transform="translate(-50,-47) scale(1,1)"><path fill="#C0C0C0" stroke="none" d="M 67 156.5 C 67 151.2532944 71.2532944 147 76.5 147 C 81.7467056 147 86 151.2532944 86 156.5 C 86 161.7467056 81.7467056 166 76.5 166 C 71.2532944 166 67 161.7467056 67 156.5 Z" opacity="0.2"/></g><g transform="translate(-50,-47) scale(1,1)"><path fill="#000000" stroke="none" d="M 60 149.5 C 60 144.2532944 64.2532944 140 69.5 140 C 74.7467056 140 79 144.2532944 79 149.5 C 79 154.7467056 74.7467056 159 69.5 159 C 64.2532944 159 60 154.7467056 60 149.5 Z"/></g><g transform="translate(-50,-47) scale(1,1)"><path fill="#C0C0C0" stroke="none" d="M 191 136 L 231.2890625 136 Q 241.2890625 136 241.2890625 146 L 241.2890625 166 Q 241.2890625 176 231.2890625 176 L 191 176 Q 181 176 181 166 L 181 146 Q 181 136 191 136 Z" opacity="0.2"/></g><g transform="translate(-50,-47) scale(1,1)"><path fill="#ffffd8" stroke="none" d="M 184 129 L 224.2890625 129 Q 234.2890625 129 234.2890625 139 L 234.2890625 159 Q 234.2890625 169 224.2890625 169 L 184 169 Q 174 169 174 159 L 174 139 Q 174 129 184 129 Z"/></g><g transform="translate(-50,-47) scale(1,1)"><path fill="none" stroke="#000000" d="M 184 129 L 224.2890625 129 Q 234.2890625 129 234.2890625 139 L 234.2890625 159 Q 234.2890625 169 224.2890625 169 L 184 169 Q 174 169 174 159 L 174 139 Q 174 129 184 129 Z" stroke-miterlimit="10"/></g><g transform="translate(-50,-47) scale(1,1)"><g><path fill="none" stroke="none"/><text fill="#000000" stroke="none" font-family="Arial" font-size="13px" font-style="normal" font-weight="bold" text-decoration="none" x="179.582275390625" y="148.5">Get Cart</text></g></g><g transform="translate(-50,-47) scale(1,1)"><rect fill="#C0C0C0" stroke="none" x="166.552734375" y="64" width="89.18359375" height="24" opacity="0.2"/></g><g transform="translate(-50,-47) scale(1,1)"><rect fill="#ffffd8" stroke="none" x="159.552734375" y="57" width="89.18359375" height="24"/></g><g transform="translate(-50,-47) scale(1,1)"><path fill="none" stroke="#000000" d="M 159.552734375 57 L 248.736328125 57 L 248.736328125 81 L 159.552734375 81 L 159.552734375 57 Z Z" stroke-miterlimit="10"/></g><g transform="translate(-50,-47) scale(1,1)"><rect fill="#ffffd8" stroke="none" x="159.552734375" y="57" width="89.18359375" height="24"/></g><g transform="translate(-50,-47) scale(1,1)"><path fill="none" stroke="#000000" d="M 159.552734375 57 L 248.736328125 57 L 248.736328125 81 L 159.552734375 81 L 159.552734375 57 Z Z" stroke-miterlimit="10"/></g><g transform="translate(-50,-47) scale(1,1)"><g><path fill="none" stroke="none"/><text fill="#000000" stroke="none" font-family="Arial" font-size="13px" font-style="normal" font-weight="bold" text-decoration="none" x="191.864990234375" y="76.5">Cart</text></g></g><g transform="translate(-50,-47) scale(1,1)"><path fill="none" stroke="#000000" d="M 204 82 L 204 128" stroke-miterlimit="10"/></g><g transform="translate(-50,-47) scale(1,1)"><path fill="none" stroke="#000000" d="M 199.790482243984 117.83732514237585 L 204 128 L 208.209517756016 117.83732514237585" stroke-miterlimit="10"/></g><g transform="translate(-50,-47) scale(1,1)"><path fill="#C0C0C0" stroke="none" d="M 387 136 L 451.87353515625 136 Q 461.87353515625 136 461.87353515625 146 L 461.87353515625 166 Q 461.87353515625 176 451.87353515625 176 L 387 176 Q 377 176 377 166 L 377 146 Q 377 136 387 136 Z" opacity="0.2"/></g><g transform="translate(-50,-47) scale(1,1)"><path fill="#ffffd8" stroke="none" d="M 380 129 L 444.87353515625 129 Q 454.87353515625 129 454.87353515625 139 L 454.87353515625 159 Q 454.87353515625 169 444.87353515625 169 L 380 169 Q 370 169 370 159 L 370 139 Q 370 129 380 129 Z"/></g><g transform="translate(-50,-47) scale(1,1)"><path fill="none" stroke="#000000" d="M 380 129 L 444.87353515625 129 Q 454.87353515625 129 454.87353515625 139 L 454.87353515625 159 Q 454.87353515625 169 444.87353515625 169 L 380 169 Q 370 169 370 159 L 370 139 Q 370 129 380 129 Z" stroke-miterlimit="10"/></g><g transform="translate(-50,-47) scale(1,1)"><g><path fill="none" stroke="none"/><text fill="#000000" stroke="none" font-family="Arial" font-size="13px" font-style="normal" font-weight="bold" text-decoration="none" x="376.67724609375" y="148.5">Get Delivery</text></g></g><g transform="translate(-50,-47) scale(1,1)"><rect fill="#C0C0C0" stroke="none" x="375" y="64" width="89.18359375" height="24" opacity="0.2"/></g><g transform="translate(-50,-47) scale(1,1)"><rect fill="#ffffd8" stroke="none" x="368" y="57" width="89.18359375" height="24"/></g><g transform="translate(-50,-47) scale(1,1)"><path fill="none" stroke="#000000" d="M 368 57 L 457.18359375 57 L 457.18359375 81 L 368 81 L 368 57 Z Z" stroke-miterlimit="10"/></g><g transform="translate(-50,-47) scale(1,1)"><rect fill="#ffffd8" stroke="none" x="368" y="57" width="89.18359375" height="24"/></g><g transform="translate(-50,-47) scale(1,1)"><path fill="none" stroke="#000000" d="M 368 57 L 457.18359375 57 L 457.18359375 81 L 368 81 L 368 57 Z Z" stroke-miterlimit="10"/></g><g transform="translate(-50,-47) scale(1,1)"><g><path fill="none" stroke="none"/><text fill="#000000" stroke="none" font-family="Arial" font-size="13px" font-style="normal" font-weight="bold" text-decoration="none" x="389.114990234375" y="76.5">Delivery</text></g></g><g transform="translate(-50,-47) scale(1,1)"><path fill="none" stroke="#000000" d="M 412 82 L 412 128" stroke-miterlimit="10"/></g><g transform="translate(-50,-47) scale(1,1)"><path fill="none" stroke="#000000" d="M 407.790482243984 117.83732514237585 L 412 128 L 416.209517756016 117.83732514237585" stroke-miterlimit="10"/></g><g transform="translate(-50,-47) scale(1,1)"><path fill="none" stroke="#000000" d="M 80 149 L 173 149" stroke-miterlimit="10"/></g><g transform="translate(-50,-47) scale(1,1)"><path fill="none" stroke="#000000" d="M 162.83732514237585 153.209517756016 L 173 149 L 162.83732514237585 144.790482243984" stroke-miterlimit="10"/></g><g transform="translate(-50,-47) scale(1,1)"><path fill="#C0C0C0" stroke="none" d="M 502 156.5 L 513.5 147 L 524 156.5 L 513.5 165 L 502 156.5" opacity="0.2"/></g><g transform="translate(-50,-47) scale(1,1)"><path fill="#ffffd8" stroke="none" d="M 495 149 L 506 140 L 517 149 L 506 158 L 495 149"/></g><g transform="translate(-50,-47) scale(1,1)"><path fill="none" stroke="#000000" d="M 495 149 L 506 140 L 517 149 L 506 158 L 495 149 L 495 149" stroke-miterlimit="10"/></g><g transform="translate(-50,-47) scale(1,1)"><path fill="none" stroke="#000000" d="M 456 149 L 494 149" stroke-miterlimit="10"/></g><g transform="translate(-50,-47) scale(1,1)"><path fill="none" stroke="#000000" d="M 483.83732514237585 153.209517756016 L 494 149 L 483.83732514237585 144.790482243984" stroke-miterlimit="10"/></g><g transform="translate(-50,-47) scale(1,1)"><path fill="#C0C0C0" stroke="none" d="M 449 255 L 578.8798828125 255 Q 588.8798828125 255 588.8798828125 265 L 588.8798828125 285 Q 588.8798828125 295 578.8798828125 295 L 449 295 Q 439 295 439 285 L 439 265 Q 439 255 449 255 Z" opacity="0.2"/></g><g transform="translate(-50,-47) scale(1,1)"><path fill="#ffffd8" stroke="none" d="M 442 248 L 571.8798828125 248 Q 581.8798828125 248 581.8798828125 258 L 581.8798828125 278 Q 581.8798828125 288 571.8798828125 288 L 442 288 Q 432 288 432 278 L 432 258 Q 432 248 442 248 Z"/></g><g transform="translate(-50,-47) scale(1,1)"><path fill="none" stroke="#000000" d="M 442 248 L 571.8798828125 248 Q 581.8798828125 248 581.8798828125 258 L 581.8798828125 278 Q 581.8798828125 288 571.8798828125 288 L 442 288 Q 432 288 432 278 L 432 258 Q 432 248 442 248 Z" stroke-miterlimit="10"/></g><g transform="translate(-50,-47) scale(1,1)"><g><path fill="none" stroke="none"/><text fill="#000000" stroke="none" font-family="Arial" font-size="13px" font-style="normal" font-weight="bold" text-decoration="none" x="473.3544921875" y="267.5">Fill Delivery</text></g></g><g transform="translate(-50,-47) scale(1,1)"><path fill="#C0C0C0" stroke="none" d="M 291 156.5 L 302.5 147 L 313 156.5 L 302.5 165 L 291 156.5" opacity="0.2"/></g><g transform="translate(-50,-47) scale(1,1)"><path fill="#ffffd8" stroke="none" d="M 284 149 L 295 140 L 306 149 L 295 158 L 284 149"/></g><g transform="translate(-50,-47) scale(1,1)"><path fill="none" stroke="#000000" d="M 284 149 L 295 140 L 306 149 L 295 158 L 284 149 L 284 149" stroke-miterlimit="10"/></g><g transform="translate(-50,-47) scale(1,1)"><path fill="none" stroke="#000000" d="M 235 149 L 283 149" stroke-miterlimit="10"/></g><g transform="translate(-50,-47) scale(1,1)"><path fill="none" stroke="#000000" d="M 272.83732514237585 153.209517756016 L 283 149 L 272.83732514237585 144.790482243984" stroke-miterlimit="10"/></g><g transform="translate(-50,-47) scale(1,1)"><path fill="none" stroke="#000000" d="M 506 159 L 506 247" stroke-miterlimit="10"/></g><g transform="translate(-50,-47) scale(1,1)"><path fill="none" stroke="#000000" d="M 501.790482243984 236.83732514237585 L 506 247 L 510.209517756016 236.83732514237585" stroke-miterlimit="10"/></g><g transform="translate(-50,-47) scale(1,1)"><g><path fill="none" stroke="none"/><text fill="#000000" stroke="none" font-family="Arial" font-size="13px" font-style="normal" font-weight="normal" text-decoration="none" x="511" y="221">Delivery is null or empty or not valid</text></g></g><g transform="translate(-50,-47) scale(1,1)"><path fill="#C0C0C0" stroke="none" d="M 239 255 L 365.96630859375 255 Q 375.96630859375 255 375.96630859375 265 L 375.96630859375 285 Q 375.96630859375 295 365.96630859375 295 L 239 295 Q 229 295 229 285 L 229 265 Q 229 255 239 255 Z" opacity="0.2"/></g><g transform="translate(-50,-47) scale(1,1)"><path fill="#ffffd8" stroke="none" d="M 232 248 L 358.96630859375 248 Q 368.96630859375 248 368.96630859375 258 L 368.96630859375 278 Q 368.96630859375 288 358.96630859375 288 L 232 288 Q 222 288 222 278 L 222 258 Q 222 248 232 248 Z"/></g><g transform="translate(-50,-47) scale(1,1)"><path fill="none" stroke="#000000" d="M 232 248 L 358.96630859375 248 Q 368.96630859375 248 368.96630859375 258 L 368.96630859375 278 Q 368.96630859375 288 358.96630859375 288 L 232 288 Q 222 288 222 278 L 222 258 Q 222 248 232 248 Z" stroke-miterlimit="10"/></g><g transform="translate(-50,-47) scale(1,1)"><g><path fill="none" stroke="none"/><text fill="#000000" stroke="none" font-family="Arial" font-size="13px" font-style="normal" font-weight="bold" text-decoration="none" x="265.496826171875" y="267.5">List Books</text></g></g><g transform="translate(-50,-47) scale(1,1)"><path fill="none" stroke="#000000" d="M 295 159 L 295 247" stroke-miterlimit="10"/></g><g transform="translate(-50,-47) scale(1,1)"><path fill="none" stroke="#000000" d="M 290.790482243984 236.83732514237585 L 295 247 L 299.209517756016 236.83732514237585" stroke-miterlimit="10"/></g><g transform="translate(-50,-47) scale(1,1)"><g><path fill="none" stroke="none"/><text fill="#000000" stroke="none" font-family="Arial" font-size="13px" font-style="normal" font-weight="normal" text-decoration="none" x="303" y="213">Cart is null or empty</text></g></g><g transform="translate(-50,-47) scale(1,1)"><path fill="none" stroke="#000000" d="M 307 149 L 369 149" stroke-miterlimit="10"/></g><g transform="translate(-50,-47) scale(1,1)"><path fill="none" stroke="#000000" d="M 358.83732514237585 153.209517756016 L 369 149 L 358.83732514237585 144.790482243984" stroke-miterlimit="10"/></g><g transform="translate(-50,-47) scale(1,1)"><path fill="#C0C0C0" stroke="none" d="M 590 136 L 633.18994140625 136 Q 643.18994140625 136 643.18994140625 146 L 643.18994140625 166 Q 643.18994140625 176 633.18994140625 176 L 590 176 Q 580 176 580 166 L 580 146 Q 580 136 590 136 Z" opacity="0.2"/></g><g transform="translate(-50,-47) scale(1,1)"><path fill="#ffffd8" stroke="none" d="M 583 129 L 626.18994140625 129 Q 636.18994140625 129 636.18994140625 139 L 636.18994140625 159 Q 636.18994140625 169 626.18994140625 169 L 583 169 Q 573 169 573 159 L 573 139 Q 573 129 583 129 Z"/></g><g transform="translate(-50,-47) scale(1,1)"><path fill="none" stroke="#000000" d="M 583 129 L 626.18994140625 129 Q 636.18994140625 129 636.18994140625 139 L 636.18994140625 159 Q 636.18994140625 169 626.18994140625 169 L 583 169 Q 573 169 573 159 L 573 139 Q 573 129 583 129 Z" stroke-miterlimit="10"/></g><g transform="translate(-50,-47) scale(1,1)"><g><path fill="none" stroke="none"/><text fill="#000000" stroke="none" font-family="Arial" font-size="13px" font-style="normal" font-weight="bold" text-decoration="none" x="578.588623046875" y="148.5">Get User</text></g></g><g transform="translate(-50,-47) scale(1,1)"><rect fill="#C0C0C0" stroke="none" x="567" y="64" width="89.18359375" height="24" opacity="0.2"/></g><g transform="translate(-50,-47) scale(1,1)"><rect fill="#ffffd8" stroke="none" x="560" y="57" width="89.18359375" height="24"/></g><g transform="translate(-50,-47) scale(1,1)"><path fill="none" stroke="#000000" d="M 560 57 L 649.18359375 57 L 649.18359375 81 L 560 81 L 560 57 Z Z" stroke-miterlimit="10"/></g><g transform="translate(-50,-47) scale(1,1)"><rect fill="#ffffd8" stroke="none" x="560" y="57" width="89.18359375" height="24"/></g><g transform="translate(-50,-47) scale(1,1)"><path fill="none" stroke="#000000" d="M 560 57 L 649.18359375 57 L 649.18359375 81 L 560 81 L 560 57 Z Z" stroke-miterlimit="10"/></g><g transform="translate(-50,-47) scale(1,1)"><g><path fill="none" stroke="none"/><text fill="#000000" stroke="none" font-family="Arial" font-size="13px" font-style="normal" font-weight="bold" text-decoration="none" x="590.8681640625" y="76.5">User</text></g></g><g transform="translate(-50,-47) scale(1,1)"><path fill="none" stroke="#000000" d="M 604 82 L 604 128" stroke-miterlimit="10"/></g><g transform="translate(-50,-47) scale(1,1)"><path fill="none" stroke="#000000" d="M 599.790482243984 117.83732514237585 L 604 128 L 608.209517756016 117.83732514237585" stroke-miterlimit="10"/></g><g transform="translate(-50,-47) scale(1,1)"><path fill="none" stroke="#000000" d="M 518 149 L 572 149" stroke-miterlimit="10"/></g><g transform="translate(-50,-47) scale(1,1)"><path fill="none" stroke="#000000" d="M 561.8373251423759 153.209517756016 L 572 149 L 561.8373251423758 144.790482243984" stroke-miterlimit="10"/></g><g transform="translate(-50,-47) scale(1,1)"><path fill="#C0C0C0" stroke="none" d="M 705 136 L 773.47900390625 136 Q 783.47900390625 136 783.47900390625 146 L 783.47900390625 166 Q 783.47900390625 176 773.47900390625 176 L 705 176 Q 695 176 695 166 L 695 146 Q 695 136 705 136 Z" opacity="0.2"/></g><g transform="translate(-50,-47) scale(1,1)"><path fill="#ffffd8" stroke="none" d="M 698 129 L 766.47900390625 129 Q 776.47900390625 129 776.47900390625 139 L 776.47900390625 159 Q 776.47900390625 169 766.47900390625 169 L 698 169 Q 688 169 688 159 L 688 139 Q 688 129 698 129 Z"/></g><g transform="translate(-50,-47) scale(1,1)"><path fill="none" stroke="#000000" d="M 698 129 L 766.47900390625 129 Q 776.47900390625 129 776.47900390625 139 L 776.47900390625 159 Q 776.47900390625 169 766.47900390625 169 L 698 169 Q 688 169 688 159 L 688 139 Q 688 129 698 129 Z" stroke-miterlimit="10"/></g><g transform="translate(-50,-47) scale(1,1)"><g><path fill="none" stroke="none"/><text fill="#000000" stroke="none" font-family="Arial" font-size="13px" font-style="normal" font-weight="bold" text-decoration="none" x="694.30908203125" y="148.5">Create Order</text></g></g><g transform="translate(-50,-47) scale(1,1)"><rect fill="#C0C0C0" stroke="none" x="767" y="64" width="89.18359375" height="24" opacity="0.2"/></g><g transform="translate(-50,-47) scale(1,1)"><rect fill="#ffffd8" stroke="none" x="760" y="57" width="89.18359375" height="24"/></g><g transform="translate(-50,-47) scale(1,1)"><path fill="none" stroke="#000000" d="M 760 57 L 849.18359375 57 L 849.18359375 81 L 760 81 L 760 57 Z Z" stroke-miterlimit="10"/></g><g transform="translate(-50,-47) scale(1,1)"><rect fill="#ffffd8" stroke="none" x="760" y="57" width="89.18359375" height="24"/></g><g transform="translate(-50,-47) scale(1,1)"><path fill="none" stroke="#000000" d="M 760 57 L 849.18359375 57 L 849.18359375 81 L 760 81 L 760 57 Z Z" stroke-miterlimit="10"/></g><g transform="translate(-50,-47) scale(1,1)"><g><path fill="none" stroke="none"/><text fill="#000000" stroke="none" font-family="Arial" font-size="13px" font-style="normal" font-weight="bold" text-decoration="none" x="787.976806640625" y="76.5">Order</text></g></g><g transform="translate(-50,-47) scale(1,1)"><path fill="none" stroke="#000000" d="M 728 129 L 728 65 L 760 65" stroke-miterlimit="10"/></g><g transform="translate(-50,-47) scale(1,1)"><path fill="none" stroke="#000000" d="M 749.8373251423759 69.20951775601598 L 760 65 L 749.8373251423758 60.790482243984016" stroke-miterlimit="10"/></g><g transform="translate(-50,-47) scale(1,1)"><path fill="#C0C0C0" stroke="none" d="M 829 255 L 948.75537109375 255 Q 958.75537109375 255 958.75537109375 265 L 958.75537109375 285 Q 958.75537109375 295 948.75537109375 295 L 829 295 Q 819 295 819 285 L 819 265 Q 819 255 829 255 Z" opacity="0.2"/></g><g transform="translate(-50,-47) scale(1,1)"><path fill="#ffffd8" stroke="none" d="M 822 248 L 941.75537109375 248 Q 951.75537109375 248 951.75537109375 258 L 951.75537109375 278 Q 951.75537109375 288 941.75537109375 288 L 822 288 Q 812 288 812 278 L 812 258 Q 812 248 822 248 Z"/></g><g transform="translate(-50,-47) scale(1,1)"><path fill="none" stroke="#000000" d="M 822 248 L 941.75537109375 248 Q 951.75537109375 248 951.75537109375 258 L 951.75537109375 278 Q 951.75537109375 288 941.75537109375 288 L 822 288 Q 812 288 812 278 L 812 258 Q 812 248 822 248 Z" stroke-miterlimit="10"/></g><g transform="translate(-50,-47) scale(1,1)"><g><path fill="none" stroke="none"/><text fill="#000000" stroke="none" font-family="Arial" font-size="13px" font-style="normal" font-weight="bold" text-decoration="none" x="853.70361328125" y="267.5">View Cart</text></g></g><g transform="translate(-50,-47) scale(1,1)"><path fill="#C0C0C0" stroke="none" d="M 859 136 L 917.37353515625 136 Q 927.37353515625 136 927.37353515625 146 L 927.37353515625 166 Q 927.37353515625 176 917.37353515625 176 L 859 176 Q 849 176 849 166 L 849 146 Q 849 136 859 136 Z" opacity="0.2"/></g><g transform="translate(-50,-47) scale(1,1)"><path fill="#ffffd8" stroke="none" d="M 852 129 L 910.37353515625 129 Q 920.37353515625 129 920.37353515625 139 L 920.37353515625 159 Q 920.37353515625 169 910.37353515625 169 L 852 169 Q 842 169 842 159 L 842 139 Q 842 129 852 129 Z"/></g><g transform="translate(-50,-47) scale(1,1)"><path fill="none" stroke="#000000" d="M 852 129 L 910.37353515625 129 Q 920.37353515625 129 920.37353515625 139 L 920.37353515625 159 Q 920.37353515625 169 910.37353515625 169 L 852 169 Q 842 169 842 159 L 842 139 Q 842 129 852 129 Z" stroke-miterlimit="10"/></g><g transform="translate(-50,-47) scale(1,1)"><g><path fill="none" stroke="none"/><text fill="#000000" stroke="none" font-family="Arial" font-size="13px" font-style="normal" font-weight="bold" text-decoration="none" x="847.950439453125" y="148.5">Save Order</text></g></g><g transform="translate(-50,-47) scale(1,1)"><path fill="none" stroke="#000000" d="M 881 170 L 881 247" stroke-miterlimit="10"/></g><g transform="translate(-50,-47) scale(1,1)"><path fill="none" stroke="#000000" d="M 876.790482243984 236.83732514237585 L 881 247 L 885.209517756016 236.83732514237585" stroke-miterlimit="10"/></g><g transform="translate(-50,-47) scale(1,1)"><g><path fill="none" stroke="none"/><text fill="#000000" stroke="none" font-family="Arial" font-size="13px" font-style="normal" font-weight="normal" text-decoration="none" x="887" y="221">Not enouth book</text></g></g><g transform="translate(-50,-47) scale(1,1)"><path fill="none" stroke="#000000" d="M 888 183 L 912 183" stroke-miterlimit="10"/></g><g transform="translate(-50,-47) scale(1,1)"><path fill="none" stroke="#000000" d="M 912 183 L 888 197" stroke-miterlimit="10"/></g><g transform="translate(-50,-47) scale(1,1)"><path fill="none" stroke="#000000" d="M 888 197 L 912 197" stroke-miterlimit="10"/></g><g transform="translate(-50,-47) scale(1,1)"><path fill="none" stroke="#000000" d="M 912 197 L 907 202" stroke-miterlimit="10"/></g><g transform="translate(-50,-47) scale(1,1)"><path fill="none" stroke="#000000" d="M 912 197 L 907 192" stroke-miterlimit="10"/></g><g transform="translate(-50,-47) scale(1,1)"><path fill="none" stroke="#000000" d="M 637 149 L 687 149" stroke-miterlimit="10"/></g><g transform="translate(-50,-47) scale(1,1)"><path fill="none" stroke="#000000" d="M 676.8373251423759 153.209517756016 L 687 149 L 676.8373251423758 144.790482243984" stroke-miterlimit="10"/></g><g transform="translate(-50,-47) scale(1,1)"><path fill="none" stroke="#000000" d="M 849 65 L 880 65 L 880 129" stroke-miterlimit="10"/></g><g transform="translate(-50,-47) scale(1,1)"><path fill="none" stroke="#000000" d="M 875.790482243984 118.83732514237585 L 880 129 L 884.209517756016 118.83732514237585" stroke-miterlimit="10"/></g><g transform="translate(-50,-47) scale(1,1)"><path fill="#C0C0C0" stroke="none" d="M 993 136 L 1050.63720703125 136 Q 1060.63720703125 136 1060.63720703125 146 L 1060.63720703125 166 Q 1060.63720703125 176 1050.63720703125 176 L 993 176 Q 983 176 983 166 L 983 146 Q 983 136 993 136 Z" opacity="0.2"/></g><g transform="translate(-50,-47) scale(1,1)"><path fill="#ffffd8" stroke="none" d="M 986 129 L 1043.63720703125 129 Q 1053.63720703125 129 1053.63720703125 139 L 1053.63720703125 159 Q 1053.63720703125 169 1043.63720703125 169 L 986 169 Q 976 169 976 159 L 976 139 Q 976 129 986 129 Z"/></g><g transform="translate(-50,-47) scale(1,1)"><path fill="none" stroke="#000000" d="M 986 129 L 1043.63720703125 129 Q 1053.63720703125 129 1053.63720703125 139 L 1053.63720703125 159 Q 1053.63720703125 169 1043.63720703125 169 L 986 169 Q 976 169 976 159 L 976 139 Q 976 129 986 129 Z" stroke-miterlimit="10"/></g><g transform="translate(-50,-47) scale(1,1)"><g><path fill="none" stroke="none"/><text fill="#000000" stroke="none" font-family="Arial" font-size="13px" font-style="normal" font-weight="bold" text-decoration="none" x="982.30908203125" y="148.5">View Order</text></g></g><g transform="translate(-50,-47) scale(1,1)"><path fill="none" stroke="#000000" d="M 921 149 L 975 149" stroke-miterlimit="10"/></g><g transform="translate(-50,-47) scale(1,1)"><path fill="none" stroke="#000000" d="M 964.8373251423759 153.209517756016 L 975 149 L 964.8373251423758 144.790482243984" stroke-miterlimit="10"/></g><g transform="translate(-50,-47) scale(1,1)"><path fill="#C0C0C0" stroke="none" d="M 1119 156.5 C 1119 149.59644 1124.59644 144 1131.5 144 C 1138.40356 144 1144 149.59644 1144 156.5 C 1144 163.40356 1138.40356 169 1131.5 169 C 1124.59644 169 1119 163.40356 1119 156.5 Z" opacity="0.2"/></g><g transform="translate(-50,-47) scale(1,1)"><path fill="none" stroke="#000000" d="M 1112 149.5 C 1112 142.59644 1117.59644 137 1124.5 137 C 1131.40356 137 1137 142.59644 1137 149.5 C 1137 156.40356 1131.40356 162 1124.5 162 C 1117.59644 162 1112 156.40356 1112 149.5 Z" stroke-miterlimit="10"/></g><g transform="translate(-50,-47) scale(1,1)"><path fill="#000000" stroke="none" d="M 1117 149.5 C 1117 145.357864 1120.357864 142 1124.5 142 C 1128.642136 142 1132 145.357864 1132 149.5 C 1132 153.642136 1128.642136 157 1124.5 157 C 1120.357864 157 1117 153.642136 1117 149.5 Z"/></g><g transform="translate(-50,-47) scale(1,1)"><path fill="none" stroke="#000000" d="M 1055 149 L 1111 149" stroke-miterlimit="10"/></g><g transform="translate(-50,-47) scale(1,1)"><path fill="none" stroke="#000000" d="M 1100.837325142376 153.209517756016 L 1111 149 L 1100.837325142376 144.790482243984" stroke-miterlimit="10"/></g><g transform="translate(-50,-47) scale(1,1)"><path fill="#C0C0C0" stroke="none" d="M 290 355.5 C 290 348.59644 295.59644 343 302.5 343 C 309.40356 343 315 348.59644 315 355.5 C 315 362.40356 309.40356 368 302.5 368 C 295.59644 368 290 362.40356 290 355.5 Z" opacity="0.2"/></g><g transform="translate(-50,-47) scale(1,1)"><path fill="none" stroke="#000000" d="M 283 348.5 C 283 341.59644 288.59644 336 295.5 336 C 302.40356 336 308 341.59644 308 348.5 C 308 355.40356 302.40356 361 295.5 361 C 288.59644 361 283 355.40356 283 348.5 Z" stroke-miterlimit="10"/></g><g transform="translate(-50,-47) scale(1,1)"><path fill="#000000" stroke="none" d="M 288 348.5 C 288 344.357864 291.357864 341 295.5 341 C 299.642136 341 303 344.357864 303 348.5 C 303 352.642136 299.642136 356 295.5 356 C 291.357864 356 288 352.642136 288 348.5 Z"/></g><g transform="translate(-50,-47) scale(1,1)"><path fill="#C0C0C0" stroke="none" d="M 501 355.5 C 501 348.59644 506.59644 343 513.5 343 C 520.40356 343 526 348.59644 526 355.5 C 526 362.40356 520.40356 368 513.5 368 C 506.59644 368 501 362.40356 501 355.5 Z" opacity="0.2"/></g><g transform="translate(-50,-47) scale(1,1)"><path fill="none" stroke="#000000" d="M 494 348.5 C 494 341.59644 499.59644 336 506.5 336 C 513.40356 336 519 341.59644 519 348.5 C 519 355.40356 513.40356 361 506.5 361 C 499.59644 361 494 355.40356 494 348.5 Z" stroke-miterlimit="10"/></g><g transform="translate(-50,-47) scale(1,1)"><path fill="#000000" stroke="none" d="M 499 348.5 C 499 344.357864 502.357864 341 506.5 341 C 510.642136 341 514 344.357864 514 348.5 C 514 352.642136 510.642136 356 506.5 356 C 502.357864 356 499 352.642136 499 348.5 Z"/></g><g transform="translate(-50,-47) scale(1,1)"><path fill="#C0C0C0" stroke="none" d="M 876 355.5 C 876 348.59644 881.59644 343 888.5 343 C 895.40356 343 901 348.59644 901 355.5 C 901 362.40356 895.40356 368 888.5 368 C 881.59644 368 876 362.40356 876 355.5 Z" opacity="0.2"/></g><g transform="translate(-50,-47) scale(1,1)"><path fill="none" stroke="#000000" d="M 869 348.5 C 869 341.59644 874.59644 336 881.5 336 C 888.40356 336 894 341.59644 894 348.5 C 894 355.40356 888.40356 361 881.5 361 C 874.59644 361 869 355.40356 869 348.5 Z" stroke-miterlimit="10"/></g><g transform="translate(-50,-47) scale(1,1)"><path fill="#000000" stroke="none" d="M 874 348.5 C 874 344.357864 877.357864 341 881.5 341 C 885.642136 341 889 344.357864 889 348.5 C 889 352.642136 885.642136 356 881.5 356 C 877.357864 356 874 352.642136 874 348.5 Z"/></g><g transform="translate(-50,-47) scale(1,1)"><path fill="none" stroke="#000000" d="M 295 289 L 295 335" stroke-miterlimit="10"/></g><g transform="translate(-50,-47) scale(1,1)"><path fill="none" stroke="#000000" d="M 290.790482243984 324.83732514237585 L 295 335 L 299.209517756016 324.83732514237585" stroke-miterlimit="10"/></g><g transform="translate(-50,-47) scale(1,1)"><path fill="none" stroke="#000000" d="M 506 289 L 506 335" stroke-miterlimit="10"/></g><g transform="translate(-50,-47) scale(1,1)"><path fill="none" stroke="#000000" d="M 501.790482243984 324.83732514237585 L 506 335 L 510.209517756016 324.83732514237585" stroke-miterlimit="10"/></g><g transform="translate(-50,-47) scale(1,1)"><path fill="none" stroke="#000000" d="M 881 289 L 881 335" stroke-miterlimit="10"/></g><g transform="translate(-50,-47) scale(1,1)"><path fill="none" stroke="#000000" d="M 876.790482243984 324.83732514237585 L 881 335 L 885.209517756016 324.83732514237585" stroke-miterlimit="10"/></g></g></svg>