<svg version="1.1" xmlns="http://www.w3.org/2000/svg" xmlns:xlink="http://www.w3.org/1999/xlink" width="370.41357421875" height="173"><defs/><g><g transform="translate(44,-10) scale(1,1)"><path fill="none" stroke="#000000" d="M 34.299560546875 20 L 57.299560546875 20 L 57.299560546875 43 L 34.299560546875 43 L 34.299560546875 20 Z Z" stroke-miterlimit="10"/></g><g transform="translate(44,-10) scale(1,1)"><path fill="none" stroke="#000000" d="M 34.299560546875 20 L 57.299560546875 43" stroke-miterlimit="10"/></g><g transform="translate(44,-10) scale(1,1)"><path fill="none" stroke="#000000" d="M 57.299560546875 20 L 34.299560546875 43" stroke-miterlimit="10"/></g><g transform="translate(44,-10) scale(1,1)"><g><path fill="none" stroke="none"/><text fill="#000000" stroke="none" font-family="Arial" font-size="13px" font-style="normal" font-weight="normal" text-decoration="none" x="45.799560546875" y="60.5"></text></g></g><g transform="translate(44,-10) scale(1,1)"><g><path fill="none" stroke="none"/><text fill="#000000" stroke="none" font-family="Arial" font-size="13px" font-style="normal" font-weight="bold" text-decoration="none" x="26.648681640625" y="75.5">Author</text></g></g><g transform="translate(44,-10) scale(1,1)"><path fill="none" stroke="#000000" d="M 83.25 112 L 106.25 112 L 106.25 135 L 83.25 135 L 83.25 112 Z Z" stroke-miterlimit="10"/></g><g transform="translate(44,-10) scale(1,1)"><path fill="none" stroke="#000000" d="M 83.25 112 L 106.25 135" stroke-miterlimit="10"/></g><g transform="translate(44,-10) scale(1,1)"><path fill="none" stroke="#000000" d="M 106.25 112 L 83.25 135" stroke-miterlimit="10"/></g><g transform="translate(44,-10) scale(1,1)"><g><path fill="none" stroke="none"/><text fill="#000000" stroke="none" font-family="Arial" font-size="13px" font-style="normal" font-weight="normal" text-decoration="none" x="94.75" y="152.5"></text></g></g><g transform="translate(44,-10) scale(1,1)"><g><path fill="none" stroke="none"/><text fill="#000000" stroke="none" font-family="Arial" font-size="13px" font-style="normal" font-weight="bold" text-decoration="none" x="79.9345703125" y="167.5">Book</text></g></g><g transform="translate(44,-10) scale(1,1)"><path fill="none" stroke="#000000" d="M 73 123 Q 44 97 44 82" stroke-miterlimit="10"/></g><g transform="translate(44,-10) scale(1,1)"><path fill="none" stroke="#000000" d="M 48.20951775601599 92.16267485762415 L 44 82 L 39.790482243984016 92.16267485762415" stroke-miterlimit="10"/></g><g transform="translate(44,-10) scale(1,1)"><g><path fill="none" stroke="none"/><text fill="#000000" stroke="none" font-family="Arial" font-size="13px" font-style="normal" font-weight="normal" text-decoration="none" x="7" y="114">#author</text></g></g><g transform="translate(44,-10) scale(1,1)"><g><path fill="none" stroke="none"/><text fill="#000000" stroke="none" font-family="Arial" font-size="13px" font-style="normal" font-weight="normal" text-decoration="none" x="-34" y="117">{collection="List"}</text></g></g><g transform="translate(44,-10) scale(1,1)"><g><path fill="none" stroke="none"/><text fill="#000000" stroke="none" font-family="Arial" font-size="13px" font-style="normal" font-weight="normal" text-decoration="none" x="54" y="110">*</text></g></g><g transform="translate(44,-10) scale(1,1)"><rect fill="#C0C0C0" stroke="none" x="105" y="39" width="95.72802734375" height="37" opacity="0.2"/></g><g transform="translate(44,-10) scale(1,1)"><rect fill="#ffffff" stroke="none" x="98" y="32" width="95.72802734375" height="37"/></g><g transform="translate(44,-10) scale(1,1)"><path fill="none" stroke="#000000" d="M 98 32 L 193.72802734375 32 L 193.72802734375 69 L 98 69 L 98 32 Z Z" stroke-miterlimit="10"/></g><g transform="translate(44,-10) scale(1,1)"><g><path fill="none" stroke="none"/><text fill="#000000" stroke="none" font-family="Arial" font-size="13px" font-style="normal" font-weight="normal" text-decoration="none" x="102.5" y="49.5">«enumeration»</text></g></g><g transform="translate(44,-10) scale(1,1)"><g><path fill="none" stroke="none"/><text fill="#000000" stroke="none" font-family="Arial" font-size="13px" font-style="normal" font-weight="bold" text-decoration="none" x="119.489501953125" y="64.5">Category</text></g></g><g transform="translate(44,-10) scale(1,1)"><path fill="none" stroke="#000000" d="M 117 122 Q 144 97 145 70" stroke-miterlimit="10"/></g><g transform="translate(44,-10) scale(1,1)"><path fill="none" stroke="#000000" d="M 148.83049606488868 80.31151297806836 L 145 70 L 140.41722899170594 79.99991049387641" stroke-miterlimit="10"/></g><g transform="translate(44,-10) scale(1,1)"><g><path fill="none" stroke="none"/><text fill="#000000" stroke="none" font-family="Arial" font-size="13px" font-style="normal" font-weight="normal" text-decoration="none" x="101" y="102">#category</text></g></g><g transform="translate(44,-10) scale(1,1)"><path fill="none" stroke="#000000" d="M 256.706787109375 20 L 279.706787109375 20 L 279.706787109375 43 L 256.706787109375 43 L 256.706787109375 20 Z Z" stroke-miterlimit="10"/></g><g transform="translate(44,-10) scale(1,1)"><path fill="none" stroke="#000000" d="M 256.706787109375 20 L 279.706787109375 43" stroke-miterlimit="10"/></g><g transform="translate(44,-10) scale(1,1)"><path fill="none" stroke="#000000" d="M 279.706787109375 20 L 256.706787109375 43" stroke-miterlimit="10"/></g><g transform="translate(44,-10) scale(1,1)"><g><path fill="none" stroke="none"/><text fill="#000000" stroke="none" font-family="Arial" font-size="13px" font-style="normal" font-weight="normal" text-decoration="none" x="268.206787109375" y="60.5"></text></g></g><g transform="translate(44,-10) scale(1,1)"><g><path fill="none" stroke="none"/><text fill="#000000" stroke="none" font-family="Arial" font-size="13px" font-style="normal" font-weight="bold" text-decoration="none" x="227.75" y="75.5">ObjectFactory</text></g></g></g></svg>