<svg version="1.1" xmlns="http://www.w3.org/2000/svg" xmlns:xlink="http://www.w3.org/1999/xlink" width="1197" height="756"><defs/><g><g transform="translate(-30,-22) scale(1,1)"><rect fill="#C0C0C0" stroke="none" x="911" y="39" width="107.32080078125" height="48" opacity="0.2"/></g><g transform="translate(-30,-22) scale(1,1)"><rect fill="#ffffd8" stroke="none" x="904" y="32" width="107.32080078125" height="48"/></g><g transform="translate(-30,-22) scale(1,1)"><path fill="none" stroke="#000000" d="M 904 32 L 1011.32080078125 32 L 1011.32080078125 80 L 904 80 L 904 32 Z Z" stroke-miterlimit="10"/></g><g transform="translate(-30,-22) scale(1,1)"><path fill="#ffffd8" stroke="none" d="M 985.32080078125 49 C 985.32080078125 44.0294368 989.35023758125 40 994.32080078125 40 C 999.29136398125 40 1003.32080078125 44.0294368 1003.32080078125 49 C 1003.32080078125 53.9705632 999.29136398125 58 994.32080078125 58 C 989.35023758125 58 985.32080078125 53.9705632 985.32080078125 49 Z"/></g><g transform="translate(-30,-22) scale(1,1)"><path fill="none" stroke="#000000" d="M 985.32080078125 49 C 985.32080078125 44.0294368 989.35023758125 40 994.32080078125 40 C 999.29136398125 40 1003.32080078125 44.0294368 1003.32080078125 49 C 1003.32080078125 53.9705632 999.29136398125 58 994.32080078125 58 C 989.35023758125 58 985.32080078125 53.9705632 985.32080078125 49 Z" stroke-miterlimit="10"/></g><g transform="translate(-30,-22) scale(1,1)"><g><path fill="none" stroke="none"/><text fill="#000000" stroke="none" font-family="Arial" font-size="13px" font-style="normal" font-weight="normal" text-decoration="none" x="913.5" y="49.5">«interface»</text></g></g><g transform="translate(-30,-22) scale(1,1)"><g><path fill="none" stroke="none"/><text fill="#000000" stroke="none" font-family="Arial" font-size="13px" font-style="normal" font-weight="bold" text-decoration="none" x="917.851318359375" y="64.5">UserDAO</text></g></g><g transform="translate(-30,-22) scale(1,1)"><rect fill="#C0C0C0" stroke="none" x="814" y="199" width="297" height="227" opacity="0.2"/></g><g transform="translate(-30,-22) scale(1,1)"><rect fill="#ffffd8" stroke="none" x="807" y="192" width="297" height="227"/></g><g transform="translate(-30,-22) scale(1,1)"><path fill="none" stroke="#000000" d="M 807 192 L 1104 192 L 1104 419 L 807 419 L 807 192 Z Z" stroke-miterlimit="10"/></g><g transform="translate(-30,-22) scale(1,1)"><path fill="none" stroke="#000000" d="M 1075 197 L 1099 197 L 1099 221 L 1075 221 L 1075 197 Z Z" stroke-miterlimit="10"/></g><g transform="translate(-30,-22) scale(1,1)"><path fill="none" stroke="#000000" d="M 1075 197 L 1099 221" stroke-miterlimit="10"/></g><g transform="translate(-30,-22) scale(1,1)"><path fill="none" stroke="#000000" d="M 1099 197 L 1075 221" stroke-miterlimit="10"/></g><g transform="translate(-30,-22) scale(1,1)"><path fill="none" stroke="#000000" d="M 807 245 L 1104 245" stroke-miterlimit="10"/></g><g transform="translate(-30,-22) scale(1,1)"><path fill="none" stroke="#000000" d="M 807 268 L 1104 268" stroke-miterlimit="10"/></g><g transform="translate(-30,-22) scale(1,1)"><g><path fill="none" stroke="none"/><text fill="#000000" stroke="none" font-family="Arial" font-size="13px" font-style="normal" font-weight="normal" text-decoration="none" x="875.576904296875" y="209.5">«ImplementationClass»</text></g></g><g transform="translate(-30,-22) scale(1,1)"><g><path fill="none" stroke="none"/><text fill="#000000" stroke="none" font-family="Arial" font-size="13px" font-style="normal" font-weight="bold" text-decoration="none" x="898.71728515625" y="224.5">MysqlUserDAO</text></g></g><g transform="translate(-30,-22) scale(1,1)"><g><path fill="none" stroke="none"/><text fill="#000000" stroke="none" font-family="Arial" font-size="13px" font-style="normal" font-weight="normal" text-decoration="none" x="907.391357421875" y="239.5">(from mysql)</text></g></g><g transform="translate(-30,-22) scale(1,1)"><g><path fill="none" stroke="none"/><text fill="#000000" stroke="none" font-family="Arial" font-size="13px" font-style="normal" font-weight="normal" text-decoration="none" x="812" y="262.5">-log: Logger {readOnly}</text><path fill="none" stroke="#000000" d="M 812 262.5 L 946.42431640625 262.5" stroke-miterlimit="10"/></g></g><g transform="translate(-30,-22) scale(1,1)"><g><path fill="none" stroke="none"/><text fill="#000000" stroke="none" font-family="Arial" font-size="13px" font-style="normal" font-weight="normal" text-decoration="none" x="812" y="285.5">+getInstance(): UserDAO</text><path fill="none" stroke="#000000" d="M 812 285.5 L 958.30712890625 285.5" stroke-miterlimit="10"/></g></g><g transform="translate(-30,-22) scale(1,1)"><g><path fill="none" stroke="none"/><text fill="#000000" stroke="none" font-family="Arial" font-size="13px" font-style="normal" font-weight="normal" text-decoration="none" x="812" y="300.5">+getUser(login: String): User</text></g></g><g transform="translate(-30,-22) scale(1,1)"><g><path fill="none" stroke="none"/><text fill="#000000" stroke="none" font-family="Arial" font-size="13px" font-style="normal" font-weight="normal" text-decoration="none" x="812" y="315.5">~getUser(con: Connection, login: String): User</text></g></g><g transform="translate(-30,-22) scale(1,1)"><g><path fill="none" stroke="none"/><text fill="#000000" stroke="none" font-family="Arial" font-size="13px" font-style="normal" font-weight="normal" text-decoration="none" x="812" y="330.5">~unmapUser(rs: ResultSet): User</text></g></g><g transform="translate(-30,-22) scale(1,1)"><g><path fill="none" stroke="none"/><text fill="#000000" stroke="none" font-family="Arial" font-size="13px" font-style="normal" font-weight="normal" text-decoration="none" x="812" y="345.5">+updateUser(user: User): void</text></g></g><g transform="translate(-30,-22) scale(1,1)"><g><path fill="none" stroke="none"/><text fill="#000000" stroke="none" font-family="Arial" font-size="13px" font-style="normal" font-weight="normal" text-decoration="none" x="812" y="360.5">+updateUser(con: Connection, user: User): int</text></g></g><g transform="translate(-30,-22) scale(1,1)"><g><path fill="none" stroke="none"/><text fill="#000000" stroke="none" font-family="Arial" font-size="13px" font-style="normal" font-weight="normal" text-decoration="none" x="812" y="375.5">+addUser(user: User): int</text></g></g><g transform="translate(-30,-22) scale(1,1)"><g><path fill="none" stroke="none"/><text fill="#000000" stroke="none" font-family="Arial" font-size="13px" font-style="normal" font-weight="normal" text-decoration="none" x="812" y="390.5">+addUser(con: Connection, user: User): int</text></g></g><g transform="translate(-30,-22) scale(1,1)"><path fill="none" stroke="#000000" d="M 956 191 L 957 81" stroke-miterlimit="10" stroke-dasharray="3"/></g><g transform="translate(-30,-22) scale(1,1)"><path fill="#FFFFFF" stroke="none" d="M 965.2339193679572 101.401043400816 L 957 81 L 948.3965440888278 101.24797635282391"/></g><g transform="translate(-30,-22) scale(1,1)"><path fill="none" stroke="#000000" d="M 965.2339193679572 101.401043400816 L 957 81 L 948.3965440888278 101.24797635282391 L 965.2339193679572 101.401043400816" stroke-miterlimit="10"/></g><g transform="translate(-30,-22) scale(1,1)"><path fill="none" stroke="#000000" d="M 984 419 L 984 448 L 1216 448 L 1216 305 L 1104 305" stroke-miterlimit="10"/></g><g transform="translate(-30,-22) scale(1,1)"><path fill="none" stroke="#000000" d="M 1114.162674857624 300.790482243984 L 1104 305 L 1114.162674857624 309.209517756016" stroke-miterlimit="10"/></g><g transform="translate(-30,-22) scale(1,1)"><g><path fill="none" stroke="none"/><text fill="#000000" stroke="none" font-family="Arial" font-size="13px" font-style="normal" font-weight="normal" text-decoration="none" x="1116" y="326">-dao</text></g></g><g transform="translate(-30,-22) scale(1,1)"><g><path fill="none" stroke="none"/><text fill="#000000" stroke="none" font-family="Arial" font-size="13px" font-style="normal" font-weight="normal" text-decoration="none" x="1120" y="340">{static=true}</text></g></g><g transform="translate(-30,-22) scale(1,1)"><rect fill="#C0C0C0" stroke="none" x="47" y="199" width="591.359375" height="212" opacity="0.2"/></g><g transform="translate(-30,-22) scale(1,1)"><rect fill="#ffffd8" stroke="none" x="40" y="192" width="591.359375" height="212"/></g><g transform="translate(-30,-22) scale(1,1)"><path fill="none" stroke="#000000" d="M 40 192 L 631.359375 192 L 631.359375 404 L 40 404 L 40 192 Z Z" stroke-miterlimit="10"/></g><g transform="translate(-30,-22) scale(1,1)"><path fill="none" stroke="#000000" d="M 602.359375 197 L 626.359375 197 L 626.359375 221 L 602.359375 221 L 602.359375 197 Z Z" stroke-miterlimit="10"/></g><g transform="translate(-30,-22) scale(1,1)"><path fill="none" stroke="#000000" d="M 602.359375 197 L 626.359375 221" stroke-miterlimit="10"/></g><g transform="translate(-30,-22) scale(1,1)"><path fill="none" stroke="#000000" d="M 626.359375 197 L 602.359375 221" stroke-miterlimit="10"/></g><g transform="translate(-30,-22) scale(1,1)"><path fill="none" stroke="#000000" d="M 40 232 L 631.359375 232" stroke-miterlimit="10"/></g><g transform="translate(-30,-22) scale(1,1)"><path fill="none" stroke="#000000" d="M 40 300 L 631.359375 300" stroke-miterlimit="10"/></g><g transform="translate(-30,-22) scale(1,1)"><g><path fill="none" stroke="none"/><text fill="#000000" stroke="none" font-family="Arial" font-size="13px" font-style="normal" font-weight="bold" text-decoration="none" x="307.775634765625" y="211.5">Login</text></g></g><g transform="translate(-30,-22) scale(1,1)"><g><path fill="none" stroke="none"/><text fill="#000000" stroke="none" font-family="Arial" font-size="13px" font-style="normal" font-weight="normal" text-decoration="none" x="286.485595703125" y="226.5">(from server)</text></g></g><g transform="translate(-30,-22) scale(1,1)"><g><path fill="none" stroke="none"/><text fill="#000000" stroke="none" font-family="Arial" font-size="13px" font-style="normal" font-weight="normal" text-decoration="none" x="45" y="249.5">-serialVersionUID: long = 1L {readOnly}</text><path fill="none" stroke="#000000" d="M 45 249.5 L 272.982421875 249.5" stroke-miterlimit="10"/></g></g><g transform="translate(-30,-22) scale(1,1)"><g><path fill="none" stroke="none"/><text fill="#000000" stroke="none" font-family="Arial" font-size="13px" font-style="normal" font-weight="normal" text-decoration="none" x="45" y="264.5">-log: Logger {readOnly}</text><path fill="none" stroke="#000000" d="M 45 264.5 L 179.42431640625 264.5" stroke-miterlimit="10"/></g></g><g transform="translate(-30,-22) scale(1,1)"><g><path fill="none" stroke="none"/><text fill="#000000" stroke="none" font-family="Arial" font-size="13px" font-style="normal" font-weight="normal" text-decoration="none" x="45" y="279.5">-validator: UserValidator</text><path fill="none" stroke="#000000" d="M 45 279.5 L 184.4453125 279.5" stroke-miterlimit="10"/></g></g><g transform="translate(-30,-22) scale(1,1)"><g><path fill="none" stroke="none"/><text fill="#000000" stroke="none" font-family="Arial" font-size="13px" font-style="normal" font-weight="normal" text-decoration="none" x="45" y="294.5">-dao: UserDAO = null</text></g></g><g transform="translate(-30,-22) scale(1,1)"><g><path fill="none" stroke="none"/><text fill="#000000" stroke="none" font-family="Arial" font-size="13px" font-style="normal" font-weight="normal" text-decoration="none" x="45" y="317.5">+Login()</text></g></g><g transform="translate(-30,-22) scale(1,1)"><g><path fill="none" stroke="none"/><text fill="#000000" stroke="none" font-family="Arial" font-size="13px" font-style="normal" font-weight="normal" text-decoration="none" x="45" y="332.5">+init(): void</text></g></g><g transform="translate(-30,-22) scale(1,1)"><g><path fill="none" stroke="none"/><text fill="#000000" stroke="none" font-family="Arial" font-size="13px" font-style="normal" font-weight="normal" text-decoration="none" x="45" y="347.5">#doPost(request: HttpServletRequest, response: HttpServletResponse): void</text></g></g><g transform="translate(-30,-22) scale(1,1)"><g><path fill="none" stroke="none"/><text fill="#000000" stroke="none" font-family="Arial" font-size="13px" font-style="normal" font-weight="normal" text-decoration="none" x="45" y="362.5">-goBack(request: HttpServletRequest, response: HttpServletResponse, user: User, errors: Map): void</text></g></g><g transform="translate(-30,-22) scale(1,1)"><rect fill="#C0C0C0" stroke="none" x="767" y="583" width="384.35595703125" height="192" opacity="0.2"/></g><g transform="translate(-30,-22) scale(1,1)"><rect fill="#ffffd8" stroke="none" x="760" y="576" width="384.35595703125" height="192"/></g><g transform="translate(-30,-22) scale(1,1)"><path fill="none" stroke="#000000" d="M 760 576 L 1144.35595703125 576 L 1144.35595703125 768 L 760 768 L 760 576 Z Z" stroke-miterlimit="10"/></g><g transform="translate(-30,-22) scale(1,1)"><path fill="#ffffd8" stroke="none" d="M 1117.75595703125 593 C 1117.75595703125 587.69806592 1122.05402295125 583.4 1127.35595703125 583.4 C 1132.65789111125 583.4 1136.95595703125 587.69806592 1136.95595703125 593 C 1136.95595703125 598.30193408 1132.65789111125 602.6 1127.35595703125 602.6 C 1122.05402295125 602.6 1117.75595703125 598.30193408 1117.75595703125 593 Z"/></g><g transform="translate(-30,-22) scale(1,1)"><path fill="none" stroke="#000000" d="M 1117.75595703125 593 C 1117.75595703125 587.69806592 1122.05402295125 583.4 1127.35595703125 583.4 C 1132.65789111125 583.4 1136.95595703125 587.69806592 1136.95595703125 593 C 1136.95595703125 598.30193408 1132.65789111125 602.6 1127.35595703125 602.6 C 1122.05402295125 602.6 1117.75595703125 598.30193408 1117.75595703125 593 Z" stroke-miterlimit="10"/></g><g transform="translate(-30,-22) scale(1,1)"><path fill="none" stroke="#000000" d="M 1117.75595703125 602.6 L 1136.95595703125 602.6" stroke-miterlimit="10"/></g><g transform="translate(-30,-22) scale(1,1)"><path fill="none" stroke="#000000" d="M 760 629 L 1144.35595703125 629" stroke-miterlimit="10"/></g><g transform="translate(-30,-22) scale(1,1)"><g><path fill="none" stroke="none"/><text fill="#000000" stroke="none" font-family="Arial" font-size="13px" font-style="normal" font-weight="normal" text-decoration="none" x="917.412109375" y="593.5">«entity»</text></g></g><g transform="translate(-30,-22) scale(1,1)"><g><path fill="none" stroke="none"/><text fill="#000000" stroke="none" font-family="Arial" font-size="13px" font-style="normal" font-weight="bold" text-decoration="none" x="926.454345703125" y="608.5">User</text></g></g><g transform="translate(-30,-22) scale(1,1)"><g><path fill="none" stroke="none"/><text fill="#000000" stroke="none" font-family="Arial" font-size="13px" font-style="normal" font-weight="normal" text-decoration="none" x="908.3984375" y="623.5">(from user)</text></g></g><g transform="translate(-30,-22) scale(1,1)"><g><path fill="none" stroke="none"/><text fill="#000000" stroke="none" font-family="Arial" font-size="13px" font-style="normal" font-weight="normal" text-decoration="none" x="765" y="646.5">-name: String</text></g></g><g transform="translate(-30,-22) scale(1,1)"><g><path fill="none" stroke="none"/><text fill="#000000" stroke="none" font-family="Arial" font-size="13px" font-style="normal" font-weight="normal" text-decoration="none" x="765" y="661.5">-login: String</text></g></g><g transform="translate(-30,-22) scale(1,1)"><g><path fill="none" stroke="none"/><text fill="#000000" stroke="none" font-family="Arial" font-size="13px" font-style="normal" font-weight="normal" text-decoration="none" x="765" y="676.5">-pass: String</text></g></g><g transform="translate(-30,-22) scale(1,1)"><g><path fill="none" stroke="none"/><text fill="#000000" stroke="none" font-family="Arial" font-size="13px" font-style="normal" font-weight="normal" text-decoration="none" x="765" y="691.5">-email: String</text></g></g><g transform="translate(-30,-22) scale(1,1)"><g><path fill="none" stroke="none"/><text fill="#000000" stroke="none" font-family="Arial" font-size="13px" font-style="normal" font-weight="normal" text-decoration="none" x="765" y="706.5">-phone: String</text></g></g><g transform="translate(-30,-22) scale(1,1)"><g><path fill="none" stroke="none"/><text fill="#000000" stroke="none" font-family="Arial" font-size="13px" font-style="normal" font-weight="normal" text-decoration="none" x="765" y="721.5">-address: String</text></g></g><g transform="translate(-30,-22) scale(1,1)"><g><path fill="none" stroke="none"/><text fill="#000000" stroke="none" font-family="Arial" font-size="13px" font-style="normal" font-weight="normal" text-decoration="none" x="765" y="736.5">-avatar: String</text></g></g><g transform="translate(-30,-22) scale(1,1)"><g><path fill="none" stroke="none"/><text fill="#000000" stroke="none" font-family="Arial" font-size="13px" font-style="normal" font-weight="normal" text-decoration="none" x="765" y="751.5">-description: String</text></g></g><g transform="translate(-30,-22) scale(1,1)"><path fill="none" stroke="#000000" d="M 954 420 L 953 575" stroke-miterlimit="10" stroke-dasharray="3"/></g><g transform="translate(-30,-22) scale(1,1)"><path fill="none" stroke="#000000" d="M 948.8561341280343 564.8103790239696 L 953 575 L 957.2749944314774 564.8646942517338" stroke-miterlimit="10"/></g><g transform="translate(-30,-22) scale(1,1)"><g><path fill="none" stroke="none"/><text fill="#000000" stroke="none" font-family="Arial" font-size="13px" font-style="normal" font-weight="normal" text-decoration="none" x="959" y="515">+create</text></g></g><g transform="translate(-30,-22) scale(1,1)"><path fill="none" stroke="#000000" d="M 512 405 L 792 575" stroke-miterlimit="10" stroke-dasharray="3"/></g><g transform="translate(-30,-22) scale(1,1)"><path fill="none" stroke="#000000" d="M 781.1284247393703 573.3240371864312 L 792 575 L 785.4977200815199 566.1275507405379" stroke-miterlimit="10"/></g><g transform="translate(-30,-22) scale(1,1)"><g><path fill="none" stroke="none"/><text fill="#000000" stroke="none" font-family="Arial" font-size="13px" font-style="normal" font-weight="normal" text-decoration="none" x="653" y="481">+obtain</text></g></g><g transform="translate(-30,-22) scale(1,1)"><path fill="none" stroke="#000000" d="M 632 301 L 806 303" stroke-miterlimit="10"/></g><g transform="translate(-30,-22) scale(1,1)"><g><path fill="none" stroke="none"/><text fill="#000000" stroke="none" font-family="Arial" font-size="13px" font-style="normal" font-weight="normal" text-decoration="none" x="705" y="294">+use</text></g></g></g></svg>