<svg version="1.1" xmlns="http://www.w3.org/2000/svg" xmlns:xlink="http://www.w3.org/1999/xlink" width="214.72802734375" height="173"><defs/><g><g transform="translate(2,-10) scale(1,1)"><path fill="none" stroke="#000000" d="M 38.29541015625 20 L 61.29541015625 20 L 61.29541015625 43 L 38.29541015625 43 L 38.29541015625 20 Z Z" stroke-miterlimit="10"/></g><g transform="translate(2,-10) scale(1,1)"><path fill="none" stroke="#000000" d="M 38.29541015625 20 L 61.29541015625 43" stroke-miterlimit="10"/></g><g transform="translate(2,-10) scale(1,1)"><path fill="none" stroke="#000000" d="M 61.29541015625 20 L 38.29541015625 43" stroke-miterlimit="10"/></g><g transform="translate(2,-10) scale(1,1)"><g><path fill="none" stroke="none"/><text fill="#000000" stroke="none" font-family="Arial" font-size="13px" font-style="normal" font-weight="normal" text-decoration="none" x="49.79541015625" y="60.5"></text></g></g><g transform="translate(2,-10) scale(1,1)"><g><path fill="none" stroke="none"/><text fill="#000000" stroke="none" font-family="Arial" font-size="13px" font-style="normal" font-weight="bold" text-decoration="none" x="26.318603515625" y="75.5">Delivery</text></g></g><g transform="translate(2,-10) scale(1,1)"><path fill="none" stroke="#000000" d="M 90.450439453125 112 L 113.450439453125 112 L 113.450439453125 135 L 90.450439453125 135 L 90.450439453125 112 Z Z" stroke-miterlimit="10"/></g><g transform="translate(2,-10) scale(1,1)"><path fill="none" stroke="#000000" d="M 90.450439453125 112 L 113.450439453125 135" stroke-miterlimit="10"/></g><g transform="translate(2,-10) scale(1,1)"><path fill="none" stroke="#000000" d="M 113.450439453125 112 L 90.450439453125 135" stroke-miterlimit="10"/></g><g transform="translate(2,-10) scale(1,1)"><g><path fill="none" stroke="none"/><text fill="#000000" stroke="none" font-family="Arial" font-size="13px" font-style="normal" font-weight="normal" text-decoration="none" x="101.950439453125" y="152.5"></text></g></g><g transform="translate(2,-10) scale(1,1)"><g><path fill="none" stroke="none"/><text fill="#000000" stroke="none" font-family="Arial" font-size="13px" font-style="normal" font-weight="bold" text-decoration="none" x="85.33544921875" y="167.5">Order</text></g></g><g transform="translate(2,-10) scale(1,1)"><path fill="none" stroke="#000000" d="M 79 123 Q 49 97 49 82" stroke-miterlimit="10"/></g><g transform="translate(2,-10) scale(1,1)"><path fill="none" stroke="#000000" d="M 53.20951775601599 92.16267485762415 L 49 82 L 44.790482243984016 92.16267485762415" stroke-miterlimit="10"/></g><g transform="translate(2,-10) scale(1,1)"><g><path fill="none" stroke="none"/><text fill="#000000" stroke="none" font-family="Arial" font-size="13px" font-style="normal" font-weight="normal" text-decoration="none" x="8" y="114">#delivery</text></g></g><g transform="translate(2,-10) scale(1,1)"><rect fill="#C0C0C0" stroke="none" x="114" y="39" width="95.72802734375" height="37" opacity="0.2"/></g><g transform="translate(2,-10) scale(1,1)"><rect fill="#ffffff" stroke="none" x="107" y="32" width="95.72802734375" height="37"/></g><g transform="translate(2,-10) scale(1,1)"><path fill="none" stroke="#000000" d="M 107 32 L 202.72802734375 32 L 202.72802734375 69 L 107 69 L 107 32 Z Z" stroke-miterlimit="10"/></g><g transform="translate(2,-10) scale(1,1)"><g><path fill="none" stroke="none"/><text fill="#000000" stroke="none" font-family="Arial" font-size="13px" font-style="normal" font-weight="normal" text-decoration="none" x="111.5" y="49.5">«enumeration»</text></g></g><g transform="translate(2,-10) scale(1,1)"><g><path fill="none" stroke="none"/><text fill="#000000" stroke="none" font-family="Arial" font-size="13px" font-style="normal" font-weight="bold" text-decoration="none" x="119.82177734375" y="64.5">OrderStatus</text></g></g><g transform="translate(2,-10) scale(1,1)"><path fill="none" stroke="#000000" d="M 125 121 Q 153 97 154 70" stroke-miterlimit="10"/></g><g transform="translate(2,-10) scale(1,1)"><path fill="none" stroke="#000000" d="M 157.83049606488868 80.31151297806836 L 154 70 L 149.41722899170594 79.99991049387641" stroke-miterlimit="10"/></g><g transform="translate(2,-10) scale(1,1)"><g><path fill="none" stroke="none"/><text fill="#000000" stroke="none" font-family="Arial" font-size="13px" font-style="normal" font-weight="normal" text-decoration="none" x="118" y="102">#status</text></g></g></g></svg>