<svg version="1.1" xmlns="http://www.w3.org/2000/svg" xmlns:xlink="http://www.w3.org/1999/xlink" width="600" height="173"><defs/><g><g transform="translate(-10,-10) scale(1,1)"><path fill="#C0C0C0" stroke="none" d="M 50.694091796875 45 C 50.694091796875 38.6487248 55.842816596875 33.5 62.194091796875 33.5 C 68.545366996875 33.5 73.694091796875 38.6487248 73.694091796875 45 C 73.694091796875 51.3512752 68.545366996875 56.5 62.194091796875 56.5 C 55.842816596875 56.5 50.694091796875 51.3512752 50.694091796875 45 Z" opacity="0.2"/></g><g transform="translate(-10,-10) scale(1,1)"><path fill="#ffffff" stroke="none" d="M 43.694091796875 38 C 43.694091796875 31.6487248 48.842816596875 26.5 55.194091796875 26.5 C 61.545366996875 26.5 66.694091796875 31.6487248 66.694091796875 38 C 66.694091796875 44.3512752 61.545366996875 49.5 55.194091796875 49.5 C 48.842816596875 49.5 43.694091796875 44.3512752 43.694091796875 38 Z"/></g><g transform="translate(-10,-10) scale(1,1)"><path fill="none" stroke="#000000" d="M 43.694091796875 38 C 43.694091796875 31.6487248 48.842816596875 26.5 55.194091796875 26.5 C 61.545366996875 26.5 66.694091796875 31.6487248 66.694091796875 38 C 66.694091796875 44.3512752 61.545366996875 49.5 55.194091796875 49.5 C 48.842816596875 49.5 43.694091796875 44.3512752 43.694091796875 38 Z" stroke-miterlimit="10"/></g><g transform="translate(-10,-10) scale(1,1)"><g><path fill="none" stroke="none"/><text fill="#000000" stroke="none" font-family="Arial" font-size="13px" font-style="normal" font-weight="bold" text-decoration="none" x="26.293212890625" y="69">BookDAO</text></g></g><g transform="translate(-10,-10) scale(1,1)"><path fill="none" stroke="#000000" d="M 156.50634765625 20 L 179.50634765625 20 L 179.50634765625 43 L 156.50634765625 43 L 156.50634765625 20 Z Z" stroke-miterlimit="10"/></g><g transform="translate(-10,-10) scale(1,1)"><path fill="none" stroke="#000000" d="M 156.50634765625 20 L 179.50634765625 43" stroke-miterlimit="10"/></g><g transform="translate(-10,-10) scale(1,1)"><path fill="none" stroke="#000000" d="M 179.50634765625 20 L 156.50634765625 43" stroke-miterlimit="10"/></g><g transform="translate(-10,-10) scale(1,1)"><g><path fill="none" stroke="none"/><text fill="#000000" stroke="none" font-family="Arial" font-size="13px" font-style="normal" font-weight="normal" text-decoration="none" x="168.00634765625" y="60.5"></text></g></g><g transform="translate(-10,-10) scale(1,1)"><g><path fill="none" stroke="none"/><text fill="#000000" stroke="none" font-family="Arial" font-size="13px" font-style="normal" font-weight="bold" text-decoration="none" x="125.37548828125" y="75.5">DAOException</text></g></g><g transform="translate(-10,-10) scale(1,1)"><path fill="none" stroke="#000000" d="M 274.924072265625 20 L 297.924072265625 20 L 297.924072265625 43 L 274.924072265625 43 L 274.924072265625 20 Z Z" stroke-miterlimit="10"/></g><g transform="translate(-10,-10) scale(1,1)"><path fill="none" stroke="#000000" d="M 274.924072265625 20 L 297.924072265625 43" stroke-miterlimit="10"/></g><g transform="translate(-10,-10) scale(1,1)"><path fill="none" stroke="#000000" d="M 297.924072265625 20 L 274.924072265625 43" stroke-miterlimit="10"/></g><g transform="translate(-10,-10) scale(1,1)"><g><path fill="none" stroke="none"/><text fill="#000000" stroke="none" font-family="Arial" font-size="13px" font-style="normal" font-weight="normal" text-decoration="none" x="286.424072265625" y="60.5"></text></g></g><g transform="translate(-10,-10) scale(1,1)"><g><path fill="none" stroke="none"/><text fill="#000000" stroke="none" font-family="Arial" font-size="13px" font-style="italic" font-weight="bold" text-decoration="none" x="250.667724609375" y="75.5">DAOFactory</text></g></g><g transform="translate(-10,-10) scale(1,1)"><path fill="none" stroke="#000000" d="M 89.7626953125 112 L 112.7626953125 112 L 112.7626953125 135 L 89.7626953125 135 L 89.7626953125 112 Z Z" stroke-miterlimit="10"/></g><g transform="translate(-10,-10) scale(1,1)"><path fill="none" stroke="#000000" d="M 89.7626953125 112 L 112.7626953125 135" stroke-miterlimit="10"/></g><g transform="translate(-10,-10) scale(1,1)"><path fill="none" stroke="#000000" d="M 112.7626953125 112 L 89.7626953125 135" stroke-miterlimit="10"/></g><g transform="translate(-10,-10) scale(1,1)"><g><path fill="none" stroke="none"/><text fill="#000000" stroke="none" font-family="Arial" font-size="13px" font-style="normal" font-weight="normal" text-decoration="none" x="101.2626953125" y="152.5"></text></g></g><g transform="translate(-10,-10) scale(1,1)"><g><path fill="none" stroke="none"/><text fill="#000000" stroke="none" font-family="Arial" font-size="13px" font-style="normal" font-weight="bold" text-decoration="none" x="56.4609375" y="167.5">InsertException</text></g></g><g transform="translate(-10,-10) scale(1,1)"><path fill="none" stroke="#000000" d="M 100 111 Q 99 97 121 82" stroke-miterlimit="10"/></g><g transform="translate(-10,-10) scale(1,1)"><path fill="#FFFFFF" stroke="none" d="M 108.94939304502844 100.40605530842475 L 121 82 L 99.46388758124405 86.49398062820764"/></g><g transform="translate(-10,-10) scale(1,1)"><path fill="none" stroke="#000000" d="M 108.94939304502844 100.40605530842475 L 121 82 L 99.46388758124405 86.49398062820764 L 108.94939304502844 100.40605530842475" stroke-miterlimit="10"/></g><g transform="translate(-10,-10) scale(1,1)"><path fill="#C0C0C0" stroke="none" d="M 388.14453125 45 C 388.14453125 38.6487248 393.29325605 33.5 399.64453125 33.5 C 405.99580645 33.5 411.14453125 38.6487248 411.14453125 45 C 411.14453125 51.3512752 405.99580645 56.5 399.64453125 56.5 C 393.29325605 56.5 388.14453125 51.3512752 388.14453125 45 Z" opacity="0.2"/></g><g transform="translate(-10,-10) scale(1,1)"><path fill="#ffffff" stroke="none" d="M 381.14453125 38 C 381.14453125 31.6487248 386.29325605 26.5 392.64453125 26.5 C 398.99580645 26.5 404.14453125 31.6487248 404.14453125 38 C 404.14453125 44.3512752 398.99580645 49.5 392.64453125 49.5 C 386.29325605 49.5 381.14453125 44.3512752 381.14453125 38 Z"/></g><g transform="translate(-10,-10) scale(1,1)"><path fill="none" stroke="#000000" d="M 381.14453125 38 C 381.14453125 31.6487248 386.29325605 26.5 392.64453125 26.5 C 398.99580645 26.5 404.14453125 31.6487248 404.14453125 38 C 404.14453125 44.3512752 398.99580645 49.5 392.64453125 49.5 C 386.29325605 49.5 381.14453125 44.3512752 381.14453125 38 Z" stroke-miterlimit="10"/></g><g transform="translate(-10,-10) scale(1,1)"><g><path fill="none" stroke="none"/><text fill="#000000" stroke="none" font-family="Arial" font-size="13px" font-style="normal" font-weight="bold" text-decoration="none" x="361.944091796875" y="69">OrderDAO</text></g></g><g transform="translate(-10,-10) scale(1,1)"><path fill="none" stroke="#000000" d="M 225.091796875 112 L 248.091796875 112 L 248.091796875 135 L 225.091796875 135 L 225.091796875 112 Z Z" stroke-miterlimit="10"/></g><g transform="translate(-10,-10) scale(1,1)"><path fill="none" stroke="#000000" d="M 225.091796875 112 L 248.091796875 135" stroke-miterlimit="10"/></g><g transform="translate(-10,-10) scale(1,1)"><path fill="none" stroke="#000000" d="M 248.091796875 112 L 225.091796875 135" stroke-miterlimit="10"/></g><g transform="translate(-10,-10) scale(1,1)"><g><path fill="none" stroke="none"/><text fill="#000000" stroke="none" font-family="Arial" font-size="13px" font-style="normal" font-weight="normal" text-decoration="none" x="236.591796875" y="152.5"></text></g></g><g transform="translate(-10,-10) scale(1,1)"><g><path fill="none" stroke="none"/><text fill="#000000" stroke="none" font-family="Arial" font-size="13px" font-style="normal" font-weight="bold" text-decoration="none" x="187.08642578125" y="167.5">UpdateException</text></g></g><g transform="translate(-10,-10) scale(1,1)"><path fill="none" stroke="#000000" d="M 235 111 Q 234 97 213 82" stroke-miterlimit="10"/></g><g transform="translate(-10,-10) scale(1,1)"><path fill="#FFFFFF" stroke="none" d="M 234.4328823711502 86.96301856378133 L 213 82 L 224.64595238340945 100.66472054661843"/></g><g transform="translate(-10,-10) scale(1,1)"><path fill="none" stroke="#000000" d="M 234.4328823711502 86.96301856378133 L 213 82 L 224.64595238340945 100.66472054661843 L 234.4328823711502 86.96301856378133" stroke-miterlimit="10"/></g><g transform="translate(-10,-10) scale(1,1)"><path fill="#C0C0C0" stroke="none" d="M 484.897705078125 45 C 484.897705078125 38.6487248 490.046429878125 33.5 496.397705078125 33.5 C 502.748980278125 33.5 507.897705078125 38.6487248 507.897705078125 45 C 507.897705078125 51.3512752 502.748980278125 56.5 496.397705078125 56.5 C 490.046429878125 56.5 484.897705078125 51.3512752 484.897705078125 45 Z" opacity="0.2"/></g><g transform="translate(-10,-10) scale(1,1)"><path fill="#ffffff" stroke="none" d="M 477.897705078125 38 C 477.897705078125 31.6487248 483.046429878125 26.5 489.397705078125 26.5 C 495.748980278125 26.5 500.897705078125 31.6487248 500.897705078125 38 C 500.897705078125 44.3512752 495.748980278125 49.5 489.397705078125 49.5 C 483.046429878125 49.5 477.897705078125 44.3512752 477.897705078125 38 Z"/></g><g transform="translate(-10,-10) scale(1,1)"><path fill="none" stroke="#000000" d="M 477.897705078125 38 C 477.897705078125 31.6487248 483.046429878125 26.5 489.397705078125 26.5 C 495.748980278125 26.5 500.897705078125 31.6487248 500.897705078125 38 C 500.897705078125 44.3512752 495.748980278125 49.5 489.397705078125 49.5 C 483.046429878125 49.5 477.897705078125 44.3512752 477.897705078125 38 Z" stroke-miterlimit="10"/></g><g transform="translate(-10,-10) scale(1,1)"><g><path fill="none" stroke="none"/><text fill="#000000" stroke="none" font-family="Arial" font-size="13px" font-style="normal" font-weight="bold" text-decoration="none" x="461.588623046875" y="69">UserDAO</text></g></g><g transform="translate(-10,-10) scale(1,1)"><rect fill="#C0C0C0" stroke="none" x="558" y="38" width="19.600000000000023" height="15" opacity="0.2"/></g><g transform="translate(-10,-10) scale(1,1)"><rect fill="#C0C0C0" stroke="none" x="558" y="52" width="49" height="25" opacity="0.2"/></g><g transform="translate(-10,-10) scale(1,1)"><rect fill="#ffffff" stroke="none" x="551" y="46" width="49" height="24"/></g><g transform="translate(-10,-10) scale(1,1)"><path fill="none" stroke="#000000" d="M 551 46 L 600 46 L 600 70 L 551 70 L 551 46 Z Z" stroke-miterlimit="10"/></g><g transform="translate(-10,-10) scale(1,1)"><rect fill="#ffffff" stroke="none" x="551" y="31" width="19.600000000000023" height="15"/></g><g transform="translate(-10,-10) scale(1,1)"><path fill="none" stroke="#000000" d="M 551 31 L 570.6 31 L 570.6 46 L 551 46 L 551 31 Z Z" stroke-miterlimit="10"/></g><g transform="translate(-10,-10) scale(1,1)"><rect fill="#ffffff" stroke="none" x="551" y="45" width="49" height="25"/></g><g transform="translate(-10,-10) scale(1,1)"><path fill="none" stroke="#000000" d="M 551 45 L 600 45 L 600 70 L 551 70 L 551 45 Z Z" stroke-miterlimit="10"/></g><g transform="translate(-10,-10) scale(1,1)"><g><path fill="none" stroke="none"/><text fill="#000000" stroke="none" font-family="Arial" font-size="13px" font-style="normal" font-weight="bold" text-decoration="none" x="558.5263671875" y="65.5">mysql</text></g></g></g></svg>