<svg version="1.1" xmlns="http://www.w3.org/2000/svg" xmlns:xlink="http://www.w3.org/1999/xlink" width="1572" height="556"><defs/><g><g transform="translate(-14,-6) scale(1,1)"><path fill="none" stroke="#000000" d="M 24 16 L 1576 16 L 1576 552 L 24 552 L 24 16" stroke-miterlimit="10"/></g><g transform="translate(-14,-6) scale(1,1)"><path fill="#ffffff" stroke="none" d="M 24 16 L 24 38 L 220.62890625 38 L 231.62890625 27 L 231.62890625 16 L 24 16"/></g><g transform="translate(-14,-6) scale(1,1)"><path fill="none" stroke="#000000" d="M 24 16 L 24 38 L 220.62890625 38 L 231.62890625 27 L 231.62890625 16 L 24 16 L 24 16" stroke-miterlimit="10"/></g><g transform="translate(-14,-6) scale(1,1)"><g><path fill="none" stroke="none"/><text fill="#000000" stroke="none" font-family="Arial" font-size="13px" font-style="normal" font-weight="normal" text-decoration="none" x="94.97900390625" y="33.5">Get object from DAO</text></g></g><g transform="translate(-14,-6) scale(1,1)"><g><path fill="none" stroke="none"/><text fill="#000000" stroke="none" font-family="Arial" font-size="13px" font-style="normal" font-weight="bold" text-decoration="none" x="29" y="33.5">interaction</text></g></g><g transform="translate(-14,-6) scale(1,1)"><rect fill="#C0C0C0" stroke="none" x="367" y="47" width="115.052734375" height="39" opacity="0.2"/></g><g transform="translate(-14,-6) scale(1,1)"><rect fill="#ffffd8" stroke="none" x="360" y="40" width="115.052734375" height="39"/></g><g transform="translate(-14,-6) scale(1,1)"><path fill="none" stroke="#000000" d="M 360 40 L 475.052734375 40 L 475.052734375 79 L 360 79 L 360 40 Z Z" stroke-miterlimit="10"/></g><g transform="translate(-14,-6) scale(1,1)"><g><path fill="none" stroke="none"/><text fill="#000000" stroke="none" font-family="Arial" font-size="13px" font-style="normal" font-weight="bold" text-decoration="none" x="377.780517578125" y="59.5">Servlet: Login</text></g></g><g transform="translate(-14,-6) scale(1,1)"><path fill="none" stroke="#000000" d="M 418.5 80 L 418.5 520" stroke-miterlimit="10" stroke-dasharray="3"/></g><g transform="translate(-14,-6) scale(1,1)"><rect fill="#C0C0C0" stroke="none" x="647" y="47" width="172.86083984375" height="39" opacity="0.2"/></g><g transform="translate(-14,-6) scale(1,1)"><rect fill="#ffffd8" stroke="none" x="640" y="40" width="172.86083984375" height="39"/></g><g transform="translate(-14,-6) scale(1,1)"><path fill="none" stroke="#000000" d="M 640 40 L 812.86083984375 40 L 812.86083984375 79 L 640 79 L 640 40 Z Z" stroke-miterlimit="10"/></g><g transform="translate(-14,-6) scale(1,1)"><g><path fill="none" stroke="none"/><text fill="#000000" stroke="none" font-family="Arial" font-size="13px" font-style="normal" font-weight="bold" text-decoration="none" x="654.54638671875" y="59.5">daoFactory: DAOFactory</text></g></g><g transform="translate(-14,-6) scale(1,1)"><path fill="none" stroke="#000000" d="M 727.5 80 L 727.5 520" stroke-miterlimit="10" stroke-dasharray="3"/></g><g transform="translate(-14,-6) scale(1,1)"><rect fill="#C0C0C0" stroke="none" x="847" y="155" width="253.05078125" height="39" opacity="0.2"/></g><g transform="translate(-14,-6) scale(1,1)"><rect fill="#ffffd8" stroke="none" x="840" y="148" width="253.05078125" height="39"/></g><g transform="translate(-14,-6) scale(1,1)"><path fill="none" stroke="#000000" d="M 840 148 L 1093.05078125 148 L 1093.05078125 187 L 840 187 L 840 148 Z Z" stroke-miterlimit="10"/></g><g transform="translate(-14,-6) scale(1,1)"><g><path fill="none" stroke="none"/><text fill="#000000" stroke="none" font-family="Arial" font-size="13px" font-style="normal" font-weight="bold" text-decoration="none" x="857.45361328125" y="167.5">mysqlDAOFactory: MysqlDAOFactory</text></g></g><g transform="translate(-14,-6) scale(1,1)"><path fill="none" stroke="#000000" d="M 967.5 188 L 967.5 520" stroke-miterlimit="10" stroke-dasharray="3"/></g><g transform="translate(-14,-6) scale(1,1)"><rect fill="#C0C0C0" stroke="none" x="1111" y="219" width="177.92626953125" height="39" opacity="0.2"/></g><g transform="translate(-14,-6) scale(1,1)"><rect fill="#ffffd8" stroke="none" x="1104" y="212" width="177.92626953125" height="39"/></g><g transform="translate(-14,-6) scale(1,1)"><path fill="none" stroke="#000000" d="M 1104 212 L 1281.92626953125 212 L 1281.92626953125 251 L 1104 251 L 1104 212 Z Z" stroke-miterlimit="10"/></g><g transform="translate(-14,-6) scale(1,1)"><g><path fill="none" stroke="none"/><text fill="#000000" stroke="none" font-family="Arial" font-size="13px" font-style="normal" font-weight="bold" text-decoration="none" x="1120" y="231.5">userDao: MysqlUserDAO</text></g></g><g transform="translate(-14,-6) scale(1,1)"><path fill="none" stroke="#000000" d="M 1193.5 252 L 1193.5 520" stroke-miterlimit="10" stroke-dasharray="3"/></g><g transform="translate(-14,-6) scale(1,1)"><rect fill="#C0C0C0" stroke="none" x="55" y="47" width="183.708984375" height="39" opacity="0.2"/></g><g transform="translate(-14,-6) scale(1,1)"><rect fill="#ffffd8" stroke="none" x="48" y="40" width="183.708984375" height="39"/></g><g transform="translate(-14,-6) scale(1,1)"><path fill="none" stroke="#000000" d="M 48 40 L 231.708984375 40 L 231.708984375 79 L 48 79 L 48 40 Z Z" stroke-miterlimit="10"/></g><g transform="translate(-14,-6) scale(1,1)"><g><path fill="none" stroke="none"/><text fill="#000000" stroke="none" font-family="Arial" font-size="13px" font-style="normal" font-weight="bold" text-decoration="none" x="89.635009765625" y="59.5">Servlet Container</text></g></g><g transform="translate(-14,-6) scale(1,1)"><path fill="none" stroke="#000000" d="M 140.5 80 L 140.5 520" stroke-miterlimit="10" stroke-dasharray="3"/></g><g transform="translate(-14,-6) scale(1,1)"><rect fill="#C0C0C0" stroke="none" x="1447" y="363" width="108.58447265625" height="39" opacity="0.2"/></g><g transform="translate(-14,-6) scale(1,1)"><rect fill="#ffffd8" stroke="none" x="1440" y="356" width="108.58447265625" height="39"/></g><g transform="translate(-14,-6) scale(1,1)"><path fill="none" stroke="#000000" d="M 1440 356 L 1548.58447265625 356 L 1548.58447265625 395 L 1440 395 L 1440 356 Z Z" stroke-miterlimit="10"/></g><g transform="translate(-14,-6) scale(1,1)"><g><path fill="none" stroke="none"/><text fill="#000000" stroke="none" font-family="Arial" font-size="13px" font-style="normal" font-weight="bold" text-decoration="none" x="1464.312255859375" y="375.5">user: User</text></g></g><g transform="translate(-14,-6) scale(1,1)"><path fill="none" stroke="#000000" d="M 1495.5 396 L 1495.5 520" stroke-miterlimit="10" stroke-dasharray="3"/></g><g transform="translate(-14,-6) scale(1,1)"><path fill="none" stroke="#000000" d="M 140 136 L 411 136" stroke-miterlimit="10"/></g><g transform="translate(-14,-6) scale(1,1)"><path fill="#000000" stroke="none" d="M 400.83732514237585 140.209517756016 L 411 136 L 400.83732514237585 131.790482243984"/></g><g transform="translate(-14,-6) scale(1,1)"><path fill="none" stroke="#000000" d="M 400.83732514237585 140.209517756016 L 411 136 L 400.83732514237585 131.790482243984 L 400.83732514237585 140.209517756016" stroke-miterlimit="10"/></g><g transform="translate(-14,-6) scale(1,1)"><g><path fill="none" stroke="none"/><text fill="#000000" stroke="none" font-family="Arial" font-size="13px" font-style="normal" font-weight="normal" text-decoration="none" x="236" y="133">1 : Message5</text></g></g><g transform="translate(-14,-6) scale(1,1)"><rect fill="#ffffd8" stroke="none" x="411" y="136" width="13" height="296"/></g><g transform="translate(-14,-6) scale(1,1)"><path fill="none" stroke="#000000" d="M 411 136 L 424 136 L 424 432 L 411 432 L 411 136 Z Z" stroke-miterlimit="10"/></g><g transform="translate(-14,-6) scale(1,1)"><path fill="none" stroke="#000000" d="M 424 144 L 720 144" stroke-miterlimit="10"/></g><g transform="translate(-14,-6) scale(1,1)"><path fill="#000000" stroke="none" d="M 709.8373251423759 148.209517756016 L 720 144 L 709.8373251423758 139.790482243984"/></g><g transform="translate(-14,-6) scale(1,1)"><path fill="none" stroke="#000000" d="M 709.8373251423759 148.209517756016 L 720 144 L 709.8373251423758 139.790482243984 L 709.8373251423759 148.209517756016" stroke-miterlimit="10"/></g><g transform="translate(-14,-6) scale(1,1)"><g><path fill="none" stroke="none"/><text fill="#000000" stroke="none" font-family="Arial" font-size="13px" font-style="normal" font-weight="normal" text-decoration="none" x="466" y="141">2 : getDAOFactory(whichFactory: int)</text></g></g><g transform="translate(-14,-6) scale(1,1)"><rect fill="#ffffd8" stroke="none" x="720" y="144" width="13" height="28"/></g><g transform="translate(-14,-6) scale(1,1)"><path fill="none" stroke="#000000" d="M 720 144 L 733 144 L 733 172 L 720 172 L 720 144 Z Z" stroke-miterlimit="10"/></g><g transform="translate(-14,-6) scale(1,1)"><path fill="none" stroke="#000000" d="M 733 168 L 840 168" stroke-miterlimit="10" stroke-dasharray="3"/></g><g transform="translate(-14,-6) scale(1,1)"><path fill="none" stroke="#000000" d="M 829.8373251423759 172.209517756016 L 840 168 L 829.8373251423758 163.790482243984" stroke-miterlimit="10"/></g><g transform="translate(-14,-6) scale(1,1)"><g><path fill="none" stroke="none"/><text fill="#000000" stroke="none" font-family="Arial" font-size="13px" font-style="normal" font-weight="normal" text-decoration="none" x="777" y="165">3 : </text></g></g><g transform="translate(-14,-6) scale(1,1)"><g><path fill="none" stroke="none"/><text fill="#000000" stroke="none" font-family="Arial" font-size="13px" font-style="normal" font-weight="normal" text-decoration="none" x="761" y="150">«create»</text></g></g><g transform="translate(-14,-6) scale(1,1)"><path fill="none" stroke="#000000" d="M 424 224 L 960 224" stroke-miterlimit="10"/></g><g transform="translate(-14,-6) scale(1,1)"><path fill="#000000" stroke="none" d="M 949.8373251423759 228.209517756016 L 960 224 L 949.8373251423758 219.790482243984"/></g><g transform="translate(-14,-6) scale(1,1)"><path fill="none" stroke="#000000" d="M 949.8373251423759 228.209517756016 L 960 224 L 949.8373251423758 219.790482243984 L 949.8373251423759 228.209517756016" stroke-miterlimit="10"/></g><g transform="translate(-14,-6) scale(1,1)"><g><path fill="none" stroke="none"/><text fill="#000000" stroke="none" font-family="Arial" font-size="13px" font-style="normal" font-weight="normal" text-decoration="none" x="550" y="220">4 : getUserDAO()</text></g></g><g transform="translate(-14,-6) scale(1,1)"><rect fill="#ffffd8" stroke="none" x="960" y="224" width="13" height="48"/></g><g transform="translate(-14,-6) scale(1,1)"><path fill="none" stroke="#000000" d="M 960 224 L 973 224 L 973 272 L 960 272 L 960 224 Z Z" stroke-miterlimit="10"/></g><g transform="translate(-14,-6) scale(1,1)"><path fill="none" stroke="#000000" d="M 973 232 L 1104 232" stroke-miterlimit="10" stroke-dasharray="3"/></g><g transform="translate(-14,-6) scale(1,1)"><path fill="none" stroke="#000000" d="M 1093.837325142376 236.209517756016 L 1104 232 L 1093.837325142376 227.790482243984" stroke-miterlimit="10"/></g><g transform="translate(-14,-6) scale(1,1)"><g><path fill="none" stroke="none"/><text fill="#000000" stroke="none" font-family="Arial" font-size="13px" font-style="normal" font-weight="normal" text-decoration="none" x="1029" y="229">5 : </text></g></g><g transform="translate(-14,-6) scale(1,1)"><g><path fill="none" stroke="none"/><text fill="#000000" stroke="none" font-family="Arial" font-size="13px" font-style="normal" font-weight="normal" text-decoration="none" x="1013" y="214">«create»</text></g></g><g transform="translate(-14,-6) scale(1,1)"><path fill="none" stroke="#000000" d="M 424 306 L 1186 306" stroke-miterlimit="10"/></g><g transform="translate(-14,-6) scale(1,1)"><path fill="#000000" stroke="none" d="M 1175.837325142376 310.209517756016 L 1186 306 L 1175.837325142376 301.790482243984"/></g><g transform="translate(-14,-6) scale(1,1)"><path fill="none" stroke="#000000" d="M 1175.837325142376 310.209517756016 L 1186 306 L 1175.837325142376 301.790482243984 L 1175.837325142376 310.209517756016" stroke-miterlimit="10"/></g><g transform="translate(-14,-6) scale(1,1)"><g><path fill="none" stroke="none"/><text fill="#000000" stroke="none" font-family="Arial" font-size="13px" font-style="normal" font-weight="normal" text-decoration="none" x="735" y="303">6 : getUser(login: String)</text></g></g><g transform="translate(-14,-6) scale(1,1)"><rect fill="#ffffd8" stroke="none" x="1186" y="306" width="13" height="118"/></g><g transform="translate(-14,-6) scale(1,1)"><path fill="none" stroke="#000000" d="M 1186 306 L 1199 306 L 1199 424 L 1186 424 L 1186 306 Z Z" stroke-miterlimit="10"/></g><g transform="translate(-14,-6) scale(1,1)"><path fill="none" stroke="#000000" d="M 1199 312 L 1229 312 L 1229 332 L 1206 332" stroke-miterlimit="10"/></g><g transform="translate(-14,-6) scale(1,1)"><path fill="#000000" stroke="none" d="M 1216.162674857624 327.790482243984 L 1206 332 L 1216.162674857624 336.209517756016"/></g><g transform="translate(-14,-6) scale(1,1)"><path fill="none" stroke="#000000" d="M 1216.162674857624 327.790482243984 L 1206 332 L 1216.162674857624 336.209517756016 L 1216.162674857624 327.790482243984" stroke-miterlimit="10"/></g><g transform="translate(-14,-6) scale(1,1)"><g><path fill="none" stroke="none"/><text fill="#000000" stroke="none" font-family="Arial" font-size="13px" font-style="normal" font-weight="normal" text-decoration="none" x="1231" y="333">7 : getUser(con: Connection, login: String)</text></g></g><g transform="translate(-14,-6) scale(1,1)"><rect fill="#ffffd8" stroke="none" x="1193" y="332" width="13" height="68"/></g><g transform="translate(-14,-6) scale(1,1)"><path fill="none" stroke="#000000" d="M 1193 332 L 1206 332 L 1206 400 L 1193 400 L 1193 332 Z Z" stroke-miterlimit="10"/></g><g transform="translate(-14,-6) scale(1,1)"><path fill="none" stroke="#000000" d="M 1206 376 L 1440 376" stroke-miterlimit="10" stroke-dasharray="3"/></g><g transform="translate(-14,-6) scale(1,1)"><path fill="none" stroke="#000000" d="M 1429.837325142376 380.209517756016 L 1440 376 L 1429.837325142376 371.790482243984" stroke-miterlimit="10"/></g><g transform="translate(-14,-6) scale(1,1)"><g><path fill="none" stroke="none"/><text fill="#000000" stroke="none" font-family="Arial" font-size="13px" font-style="normal" font-weight="normal" text-decoration="none" x="1314" y="373">8 : </text></g></g><g transform="translate(-14,-6) scale(1,1)"><g><path fill="none" stroke="none"/><text fill="#000000" stroke="none" font-family="Arial" font-size="13px" font-style="normal" font-weight="normal" text-decoration="none" x="1298" y="358">«create»</text></g></g><g transform="translate(-14,-6) scale(1,1)"><path fill="none" stroke="#000000" d="M 1186 416 L 424 416" stroke-miterlimit="10" stroke-dasharray="3"/></g><g transform="translate(-14,-6) scale(1,1)"><path fill="none" stroke="#000000" d="M 434.16267485762415 411.790482243984 L 424 416 L 434.16267485762415 420.209517756016" stroke-miterlimit="10"/></g><g transform="translate(-14,-6) scale(1,1)"><g><path fill="none" stroke="none"/><text fill="#000000" stroke="none" font-family="Arial" font-size="13px" font-style="normal" font-weight="normal" text-decoration="none" x="777" y="429">9 : user</text></g></g></g></svg>