<svg version="1.1" xmlns="http://www.w3.org/2000/svg" xmlns:xlink="http://www.w3.org/1999/xlink" width="1159" height="548"><defs/><g><g transform="translate(5,2) scale(1,1)"><path fill="none" stroke="#000000" d="M 5 8 L 1144 8 L 1144 536 L 5 536 L 5 8" stroke-miterlimit="10"/></g><g transform="translate(5,2) scale(1,1)"><path fill="#ffffd8" stroke="none" d="M 5 8 L 5 30 L 217.59326171875 30 L 228.59326171875 19 L 228.59326171875 8 L 5 8"/></g><g transform="translate(5,2) scale(1,1)"><path fill="none" stroke="#000000" d="M 5 8 L 5 30 L 217.59326171875 30 L 228.59326171875 19 L 228.59326171875 8 L 5 8 L 5 8" stroke-miterlimit="10"/></g><g transform="translate(5,2) scale(1,1)"><g><path fill="none" stroke="none"/><text fill="#000000" stroke="none" font-family="Arial" font-size="13px" font-style="normal" font-weight="normal" text-decoration="none" x="75.97900390625" y="25.5">Login Sequence default</text></g></g><g transform="translate(5,2) scale(1,1)"><g><path fill="none" stroke="none"/><text fill="#000000" stroke="none" font-family="Arial" font-size="13px" font-style="normal" font-weight="bold" text-decoration="none" x="10" y="25.5">interaction</text></g></g><g transform="translate(5,2) scale(1,1)"><path fill="#ffffd8" stroke="none" d="M 53.03404385653409 47.3 C 53.03404385653409 43.82060576 55.91244557871591 41 59.463134765625 41 C 63.01382395253409 41 65.8922256747159 43.82060576 65.8922256747159 47.3 C 65.8922256747159 50.779394239999995 63.01382395253409 53.6 59.463134765625 53.6 C 55.91244557871591 53.6 53.03404385653409 50.779394239999995 53.03404385653409 47.3 Z"/></g><g transform="translate(5,2) scale(1,1)"><path fill="none" stroke="#000000" d="M 53.03404385653409 47.3 C 53.03404385653409 43.82060576 55.91244557871591 41 59.463134765625 41 C 63.01382395253409 41 65.8922256747159 43.82060576 65.8922256747159 47.3 C 65.8922256747159 50.779394239999995 63.01382395253409 53.6 59.463134765625 53.6 C 55.91244557871591 53.6 53.03404385653409 50.779394239999995 53.03404385653409 47.3 Z" stroke-miterlimit="10"/></g><g transform="translate(5,2) scale(1,1)"><path fill="none" stroke="#000000" d="M 59.463134765625 53.6 L 59.463134765625 66.4" stroke-miterlimit="10"/></g><g transform="translate(5,2) scale(1,1)"><path fill="none" stroke="#000000" d="M 52.655862038352275 58.4 L 66.27040749289773 58.4" stroke-miterlimit="10"/></g><g transform="translate(5,2) scale(1,1)"><path fill="none" stroke="#000000" d="M 59.463134765625 66.4 L 50.00858931107955 79" stroke-miterlimit="10"/></g><g transform="translate(5,2) scale(1,1)"><path fill="none" stroke="#000000" d="M 59.463134765625 66.4 L 68.91768022017045 79" stroke-miterlimit="10"/></g><g transform="translate(5,2) scale(1,1)"><g><path fill="none" stroke="none"/><text fill="#000000" stroke="none" font-family="Arial" font-size="13px" font-style="normal" font-weight="bold" text-decoration="none" x="15.397705078125" y="99.5">Any User: User</text></g></g><g transform="translate(5,2) scale(1,1)"><path fill="none" stroke="#000000" d="M 60.5 105 L 60.5 520" stroke-miterlimit="10" stroke-dasharray="3"/></g><g transform="translate(5,2) scale(1,1)"><rect fill="#C0C0C0" stroke="none" x="231" y="47" width="86.87548828125" height="39" opacity="0.2"/></g><g transform="translate(5,2) scale(1,1)"><rect fill="#ffffd8" stroke="none" x="224" y="40" width="86.87548828125" height="39"/></g><g transform="translate(5,2) scale(1,1)"><path fill="none" stroke="#000000" d="M 224 40 L 310.87548828125 40 L 310.87548828125 79 L 224 79 L 224 40 Z Z" stroke-miterlimit="10"/></g><g transform="translate(5,2) scale(1,1)"><g><path fill="none" stroke="none"/><text fill="#000000" stroke="none" font-family="Arial" font-size="13px" font-style="normal" font-weight="bold" text-decoration="none" x="236.727783203125" y="59.5">Login form</text></g></g><g transform="translate(5,2) scale(1,1)"><path fill="none" stroke="#000000" d="M 268.5 80 L 268.5 512" stroke-miterlimit="10" stroke-dasharray="3"/></g><g transform="translate(5,2) scale(1,1)"><rect fill="#C0C0C0" stroke="none" x="399" y="47" width="115.052734375" height="39" opacity="0.2"/></g><g transform="translate(5,2) scale(1,1)"><rect fill="#ffffd8" stroke="none" x="392" y="40" width="115.052734375" height="39"/></g><g transform="translate(5,2) scale(1,1)"><path fill="none" stroke="#000000" d="M 392 40 L 507.052734375 40 L 507.052734375 79 L 392 79 L 392 40 Z Z" stroke-miterlimit="10"/></g><g transform="translate(5,2) scale(1,1)"><g><path fill="none" stroke="none"/><text fill="#000000" stroke="none" font-family="Arial" font-size="13px" font-style="normal" font-weight="bold" text-decoration="none" x="410.865966796875" y="59.5">servlet: Login</text></g></g><g transform="translate(5,2) scale(1,1)"><path fill="none" stroke="#000000" d="M 450.5 80 L 450.5 504" stroke-miterlimit="10" stroke-dasharray="3"/></g><g transform="translate(5,2) scale(1,1)"><rect fill="#C0C0C0" stroke="none" x="775" y="211" width="165.65625" height="39" opacity="0.2"/></g><g transform="translate(5,2) scale(1,1)"><rect fill="#ffffd8" stroke="none" x="768" y="204" width="165.65625" height="39"/></g><g transform="translate(5,2) scale(1,1)"><path fill="none" stroke="#000000" d="M 768 204 L 933.65625 204 L 933.65625 243 L 768 243 L 768 204 Z Z" stroke-miterlimit="10"/></g><g transform="translate(5,2) scale(1,1)"><g><path fill="none" stroke="none"/><text fill="#000000" stroke="none" font-family="Arial" font-size="13px" font-style="normal" font-weight="bold" text-decoration="none" x="783.27001953125" y="223.5">validator: UserValidator</text></g></g><g transform="translate(5,2) scale(1,1)"><path fill="none" stroke="#000000" d="M 851.5 244 L 851.5 354" stroke-miterlimit="10" stroke-dasharray="3"/></g><g transform="translate(5,2) scale(1,1)"><rect fill="#C0C0C0" stroke="none" x="623" y="147" width="108.58447265625" height="39" opacity="0.2"/></g><g transform="translate(5,2) scale(1,1)"><rect fill="#ffffd8" stroke="none" x="616" y="140" width="108.58447265625" height="39"/></g><g transform="translate(5,2) scale(1,1)"><path fill="none" stroke="#000000" d="M 616 140 L 724.58447265625 140 L 724.58447265625 179 L 616 179 L 616 140 Z Z" stroke-miterlimit="10"/></g><g transform="translate(5,2) scale(1,1)"><g><path fill="none" stroke="none"/><text fill="#000000" stroke="none" font-family="Arial" font-size="13px" font-style="normal" font-weight="bold" text-decoration="none" x="640.312255859375" y="159.5">user: User</text></g></g><g transform="translate(5,2) scale(1,1)"><path fill="none" stroke="#000000" d="M 671.5 180 L 671.5 232" stroke-miterlimit="10" stroke-dasharray="3"/></g><g transform="translate(5,2) scale(1,1)"><path fill="#ffffd8" stroke="none" d="M 931.736328125 60 C 931.736328125 48.954304 940.690632125 40 951.736328125 40 C 962.782024125 40 971.736328125 48.954304 971.736328125 60 C 971.736328125 71.04569599999999 962.782024125 80 951.736328125 80 C 940.690632125 80 931.736328125 71.04569599999999 931.736328125 60 Z"/></g><g transform="translate(5,2) scale(1,1)"><path fill="none" stroke="#000000" d="M 931.736328125 60 C 931.736328125 48.954304 940.690632125 40 951.736328125 40 C 962.782024125 40 971.736328125 48.954304 971.736328125 60 C 971.736328125 71.04569599999999 962.782024125 80 951.736328125 80 C 940.690632125 80 931.736328125 71.04569599999999 931.736328125 60 Z" stroke-miterlimit="10"/></g><g transform="translate(5,2) scale(1,1)"><g><path fill="none" stroke="none"/><text fill="#000000" stroke="none" font-family="Arial" font-size="13px" font-style="normal" font-weight="bold" text-decoration="none" x="895.746826171875" y="99.5">userDao: UserDAO</text></g></g><g transform="translate(5,2) scale(1,1)"><path fill="none" stroke="#000000" d="M 952.5 105 L 952.5 520" stroke-miterlimit="10" stroke-dasharray="3"/></g><g transform="translate(5,2) scale(1,1)"><rect fill="#C0C0C0" stroke="none" x="1055" y="47" width="71.736328125" height="39" opacity="0.2"/></g><g transform="translate(5,2) scale(1,1)"><rect fill="#ffffd8" stroke="none" x="1048" y="40" width="71.736328125" height="39"/></g><g transform="translate(5,2) scale(1,1)"><path fill="none" stroke="#000000" d="M 1048 40 L 1119.736328125 40 L 1119.736328125 79 L 1048 79 L 1048 40 Z Z" stroke-miterlimit="10"/></g><g transform="translate(5,2) scale(1,1)"><g><path fill="none" stroke="none"/><text fill="#000000" stroke="none" font-family="Arial" font-size="13px" font-style="normal" font-weight="bold" text-decoration="none" x="1061.8291015625" y="59.5">session</text></g></g><g transform="translate(5,2) scale(1,1)"><path fill="none" stroke="#000000" d="M 1084.5 80 L 1084.5 520" stroke-miterlimit="10" stroke-dasharray="3"/></g><g transform="translate(5,2) scale(1,1)"><path fill="none" stroke="#000000" d="M 60 147 L 261 147" stroke-miterlimit="10"/></g><g transform="translate(5,2) scale(1,1)"><path fill="#000000" stroke="none" d="M 250.83732514237585 151.209517756016 L 261 147 L 250.83732514237585 142.790482243984"/></g><g transform="translate(5,2) scale(1,1)"><path fill="none" stroke="#000000" d="M 250.83732514237585 151.209517756016 L 261 147 L 250.83732514237585 142.790482243984 L 250.83732514237585 151.209517756016" stroke-miterlimit="10"/></g><g transform="translate(5,2) scale(1,1)"><g><path fill="none" stroke="none"/><text fill="#000000" stroke="none" font-family="Arial" font-size="13px" font-style="normal" font-weight="normal" text-decoration="none" x="131" y="144">1 : Submit</text></g></g><g transform="translate(5,2) scale(1,1)"><rect fill="#ffffd8" stroke="none" x="261" y="147" width="13" height="28"/></g><g transform="translate(5,2) scale(1,1)"><path fill="none" stroke="#000000" d="M 261 147 L 274 147 L 274 175 L 261 175 L 261 147 Z Z" stroke-miterlimit="10"/></g><g transform="translate(5,2) scale(1,1)"><path fill="none" stroke="#000000" d="M 274 152 L 443 152" stroke-miterlimit="10"/></g><g transform="translate(5,2) scale(1,1)"><path fill="#000000" stroke="none" d="M 432.83732514237585 156.209517756016 L 443 152 L 432.83732514237585 147.790482243984"/></g><g transform="translate(5,2) scale(1,1)"><path fill="none" stroke="#000000" d="M 432.83732514237585 156.209517756016 L 443 152 L 432.83732514237585 147.790482243984 L 432.83732514237585 156.209517756016" stroke-miterlimit="10"/></g><g transform="translate(5,2) scale(1,1)"><g><path fill="none" stroke="none"/><text fill="#000000" stroke="none" font-family="Arial" font-size="13px" font-style="normal" font-weight="normal" text-decoration="none" x="336" y="149">2 : login</text></g></g><g transform="translate(5,2) scale(1,1)"><rect fill="#ffffd8" stroke="none" x="443" y="152" width="13" height="312"/></g><g transform="translate(5,2) scale(1,1)"><path fill="none" stroke="#000000" d="M 443 152 L 456 152 L 456 464 L 443 464 L 443 152 Z Z" stroke-miterlimit="10"/></g><g transform="translate(5,2) scale(1,1)"><path fill="none" stroke="#000000" d="M 456 160 L 616 160" stroke-miterlimit="10" stroke-dasharray="3"/></g><g transform="translate(5,2) scale(1,1)"><path fill="none" stroke="#000000" d="M 605.8373251423759 164.209517756016 L 616 160 L 605.8373251423758 155.790482243984" stroke-miterlimit="10"/></g><g transform="translate(5,2) scale(1,1)"><g><path fill="none" stroke="none"/><text fill="#000000" stroke="none" font-family="Arial" font-size="13px" font-style="normal" font-weight="normal" text-decoration="none" x="460" y="157">3 : User(l: String, p: String)</text></g></g><g transform="translate(5,2) scale(1,1)"><g><path fill="none" stroke="none"/><text fill="#000000" stroke="none" font-family="Arial" font-size="13px" font-style="normal" font-weight="normal" text-decoration="none" x="511" y="142">«create»</text></g></g><g transform="translate(5,2) scale(1,1)"><path fill="none" stroke="#000000" d="M 443 456 L 268 456" stroke-miterlimit="10" stroke-dasharray="3"/></g><g transform="translate(5,2) scale(1,1)"><path fill="none" stroke="#000000" d="M 278.16267485762415 451.790482243984 L 268 456 L 278.16267485762415 460.209517756016" stroke-miterlimit="10"/></g><g transform="translate(5,2) scale(1,1)"><g><path fill="none" stroke="none"/><text fill="#000000" stroke="none" font-family="Arial" font-size="13px" font-style="normal" font-weight="normal" text-decoration="none" x="284" y="473">11 : redirect to list books</text></g></g><g transform="translate(5,2) scale(1,1)"><path fill="none" stroke="#000000" d="M 456 376 L 945 376" stroke-miterlimit="10"/></g><g transform="translate(5,2) scale(1,1)"><path fill="#000000" stroke="none" d="M 934.8373251423759 380.209517756016 L 945 376 L 934.8373251423758 371.790482243984"/></g><g transform="translate(5,2) scale(1,1)"><path fill="none" stroke="#000000" d="M 934.8373251423759 380.209517756016 L 945 376 L 934.8373251423758 371.790482243984 L 934.8373251423759 380.209517756016" stroke-miterlimit="10"/></g><g transform="translate(5,2) scale(1,1)"><g><path fill="none" stroke="none"/><text fill="#000000" stroke="none" font-family="Arial" font-size="13px" font-style="normal" font-weight="normal" text-decoration="none" x="630" y="373">9 : getUser(login: String)</text></g></g><g transform="translate(5,2) scale(1,1)"><rect fill="#ffffd8" stroke="none" x="945" y="376" width="13" height="28"/></g><g transform="translate(5,2) scale(1,1)"><path fill="none" stroke="#000000" d="M 945 376 L 958 376 L 958 404 L 945 404 L 945 376 Z Z" stroke-miterlimit="10"/></g><g transform="translate(5,2) scale(1,1)"><path fill="none" stroke="#000000" d="M 456 432 L 1077 432" stroke-miterlimit="10"/></g><g transform="translate(5,2) scale(1,1)"><path fill="#000000" stroke="none" d="M 1066.837325142376 436.209517756016 L 1077 432 L 1066.837325142376 427.790482243984"/></g><g transform="translate(5,2) scale(1,1)"><path fill="none" stroke="#000000" d="M 1066.837325142376 436.209517756016 L 1077 432 L 1066.837325142376 427.790482243984 L 1066.837325142376 436.209517756016" stroke-miterlimit="10"/></g><g transform="translate(5,2) scale(1,1)"><g><path fill="none" stroke="none"/><text fill="#000000" stroke="none" font-family="Arial" font-size="13px" font-style="normal" font-weight="normal" text-decoration="none" x="704" y="429">10 : setAttribute(user)</text></g></g><g transform="translate(5,2) scale(1,1)"><rect fill="#ffffd8" stroke="none" x="1077" y="432" width="13" height="28"/></g><g transform="translate(5,2) scale(1,1)"><path fill="none" stroke="#000000" d="M 1077 432 L 1090 432 L 1090 460 L 1077 460 L 1077 432 Z Z" stroke-miterlimit="10"/></g><g transform="translate(5,2) scale(1,1)"><path fill="none" stroke="#000000" d="M 456 224 L 768 224" stroke-miterlimit="10" stroke-dasharray="3"/></g><g transform="translate(5,2) scale(1,1)"><path fill="none" stroke="#000000" d="M 757.8373251423759 228.209517756016 L 768 224 L 757.8373251423758 219.790482243984" stroke-miterlimit="10"/></g><g transform="translate(5,2) scale(1,1)"><g><path fill="none" stroke="none"/><text fill="#000000" stroke="none" font-family="Arial" font-size="13px" font-style="normal" font-weight="normal" text-decoration="none" x="603" y="221">4 : </text></g></g><g transform="translate(5,2) scale(1,1)"><g><path fill="none" stroke="none"/><text fill="#000000" stroke="none" font-family="Arial" font-size="13px" font-style="normal" font-weight="normal" text-decoration="none" x="587" y="206">«create»</text></g></g><g transform="translate(5,2) scale(1,1)"><path fill="none" stroke="#000000" d="M 456 312 L 844 312" stroke-miterlimit="10"/></g><g transform="translate(5,2) scale(1,1)"><path fill="#000000" stroke="none" d="M 833.8373251423759 316.209517756016 L 844 312 L 833.8373251423758 307.790482243984"/></g><g transform="translate(5,2) scale(1,1)"><path fill="none" stroke="#000000" d="M 833.8373251423759 316.209517756016 L 844 312 L 833.8373251423758 307.790482243984 L 833.8373251423759 316.209517756016" stroke-miterlimit="10"/></g><g transform="translate(5,2) scale(1,1)"><path fill="none" stroke="#000000" d="M 841 344 L 861 364" stroke-miterlimit="10"/></g><g transform="translate(5,2) scale(1,1)"><path fill="none" stroke="#000000" d="M 861 344 L 841 364" stroke-miterlimit="10"/></g><g transform="translate(5,2) scale(1,1)"><g><path fill="none" stroke="none"/><text fill="#000000" stroke="none" font-family="Arial" font-size="13px" font-style="normal" font-weight="normal" text-decoration="none" x="641" y="309">6 : </text></g></g><g transform="translate(5,2) scale(1,1)"><g><path fill="none" stroke="none"/><text fill="#000000" stroke="none" font-family="Arial" font-size="13px" font-style="normal" font-weight="normal" text-decoration="none" x="622" y="294">«destroy»</text></g></g><g transform="translate(5,2) scale(1,1)"><rect fill="#ffffd8" stroke="none" x="844" y="312" width="13" height="28"/></g><g transform="translate(5,2) scale(1,1)"><path fill="none" stroke="#000000" d="M 844 312 L 857 312 L 857 340 L 844 340 L 844 312 Z Z" stroke-miterlimit="10"/></g><g transform="translate(5,2) scale(1,1)"><path fill="none" stroke="#000000" d="M 456 265 L 844 265" stroke-miterlimit="10"/></g><g transform="translate(5,2) scale(1,1)"><path fill="#000000" stroke="none" d="M 833.8373251423759 269.209517756016 L 844 265 L 833.8373251423758 260.790482243984"/></g><g transform="translate(5,2) scale(1,1)"><path fill="none" stroke="#000000" d="M 833.8373251423759 269.209517756016 L 844 265 L 833.8373251423758 260.790482243984 L 833.8373251423759 269.209517756016" stroke-miterlimit="10"/></g><g transform="translate(5,2) scale(1,1)"><g><path fill="none" stroke="none"/><text fill="#000000" stroke="none" font-family="Arial" font-size="13px" font-style="normal" font-weight="normal" text-decoration="none" x="598" y="262">5 : validate(obj: T)</text></g></g><g transform="translate(5,2) scale(1,1)"><rect fill="#ffffd8" stroke="none" x="844" y="265" width="13" height="28"/></g><g transform="translate(5,2) scale(1,1)"><path fill="none" stroke="#000000" d="M 844 265 L 857 265 L 857 293 L 844 293 L 844 265 Z Z" stroke-miterlimit="10"/></g></g></svg>