<svg version="1.1" xmlns="http://www.w3.org/2000/svg" xmlns:xlink="http://www.w3.org/1999/xlink" width="916" height="817"><defs/><g><g transform="translate(-21,-13) scale(1,1)"><path fill="#ffffff" stroke="none" d="M 508.40935031960225 313.68 C 508.40935031960225 308.886167936 512.2951926445477 305 517.088623046875 305 C 521.8820534492023 305 525.7678957741477 308.886167936 525.7678957741477 313.68 C 525.7678957741477 318.473832064 521.8820534492023 322.36 517.088623046875 322.36 C 512.2951926445477 322.36 508.40935031960225 318.473832064 508.40935031960225 313.68 Z"/></g><g transform="translate(-21,-13) scale(1,1)"><path fill="none" stroke="#000000" d="M 508.40935031960225 313.68 C 508.40935031960225 308.886167936 512.2951926445477 305 517.088623046875 305 C 521.8820534492023 305 525.7678957741477 308.886167936 525.7678957741477 313.68 C 525.7678957741477 318.473832064 521.8820534492023 322.36 517.088623046875 322.36 C 512.2951926445477 322.36 508.40935031960225 318.473832064 508.40935031960225 313.68 Z" stroke-miterlimit="10"/></g><g transform="translate(-21,-13) scale(1,1)"><path fill="none" stroke="#000000" d="M 517.088623046875 322.36 L 517.088623046875 339.64" stroke-miterlimit="10"/></g><g transform="translate(-21,-13) scale(1,1)"><path fill="none" stroke="#000000" d="M 507.89880486505683 328.84 L 526.2784412286932 328.84" stroke-miterlimit="10"/></g><g transform="translate(-21,-13) scale(1,1)"><path fill="none" stroke="#000000" d="M 517.088623046875 339.64 L 504.32498668323865 357" stroke-miterlimit="10"/></g><g transform="translate(-21,-13) scale(1,1)"><path fill="none" stroke="#000000" d="M 517.088623046875 339.64 L 529.8522594105114 357" stroke-miterlimit="10"/></g><g transform="translate(-21,-13) scale(1,1)"><g><path fill="none" stroke="none"/><text fill="#000000" stroke="none" font-family="Arial" font-size="13px" font-style="normal" font-weight="bold" text-decoration="none" x="503.364990234375" y="377.5">User</text></g></g><g transform="translate(-21,-13) scale(1,1)"><path fill="#ffffff" stroke="none" d="M 508.67521946022725 465.68 C 508.67521946022725 460.886167936 512.5610617851727 457 517.3544921875 457 C 522.1479225898273 457 526.0337649147727 460.886167936 526.0337649147727 465.68 C 526.0337649147727 470.473832064 522.1479225898273 474.36 517.3544921875 474.36 C 512.5610617851727 474.36 508.67521946022725 470.473832064 508.67521946022725 465.68 Z"/></g><g transform="translate(-21,-13) scale(1,1)"><path fill="none" stroke="#000000" d="M 508.67521946022725 465.68 C 508.67521946022725 460.886167936 512.5610617851727 457 517.3544921875 457 C 522.1479225898273 457 526.0337649147727 460.886167936 526.0337649147727 465.68 C 526.0337649147727 470.473832064 522.1479225898273 474.36 517.3544921875 474.36 C 512.5610617851727 474.36 508.67521946022725 470.473832064 508.67521946022725 465.68 Z" stroke-miterlimit="10"/></g><g transform="translate(-21,-13) scale(1,1)"><path fill="none" stroke="#000000" d="M 517.3544921875 474.36 L 517.3544921875 491.64" stroke-miterlimit="10"/></g><g transform="translate(-21,-13) scale(1,1)"><path fill="none" stroke="#000000" d="M 508.16467400568183 480.84 L 526.5443103693182 480.84" stroke-miterlimit="10"/></g><g transform="translate(-21,-13) scale(1,1)"><path fill="none" stroke="#000000" d="M 517.3544921875 491.64 L 504.59085582386365 509" stroke-miterlimit="10"/></g><g transform="translate(-21,-13) scale(1,1)"><path fill="none" stroke="#000000" d="M 517.3544921875 491.64 L 530.1181285511364 509" stroke-miterlimit="10"/></g><g transform="translate(-21,-13) scale(1,1)"><g><path fill="none" stroke="none"/><text fill="#000000" stroke="none" font-family="Arial" font-size="13px" font-style="normal" font-weight="bold" text-decoration="none" x="485.9208984375" y="529.5">Registered</text><text fill="#000000" stroke="none" font-family="Arial" font-size="13px" font-style="normal" font-weight="bold" text-decoration="none" x="503.630859375" y="542.5">User</text></g></g><g transform="translate(-21,-13) scale(1,1)"><path fill="#ffffff" stroke="none" d="M 508.40935031960225 639.6800000000001 C 508.40935031960225 634.8861679360001 512.2951926445477 631 517.088623046875 631 C 521.8820534492023 631 525.7678957741477 634.8861679360001 525.7678957741477 639.6800000000001 C 525.7678957741477 644.473832064 521.8820534492023 648.36 517.088623046875 648.36 C 512.2951926445477 648.36 508.40935031960225 644.473832064 508.40935031960225 639.6800000000001 Z"/></g><g transform="translate(-21,-13) scale(1,1)"><path fill="none" stroke="#000000" d="M 508.40935031960225 639.6800000000001 C 508.40935031960225 634.8861679360001 512.2951926445477 631 517.088623046875 631 C 521.8820534492023 631 525.7678957741477 634.8861679360001 525.7678957741477 639.6800000000001 C 525.7678957741477 644.473832064 521.8820534492023 648.36 517.088623046875 648.36 C 512.2951926445477 648.36 508.40935031960225 644.473832064 508.40935031960225 639.6800000000001 Z" stroke-miterlimit="10"/></g><g transform="translate(-21,-13) scale(1,1)"><path fill="none" stroke="#000000" d="M 517.088623046875 648.36 L 517.088623046875 665.64" stroke-miterlimit="10"/></g><g transform="translate(-21,-13) scale(1,1)"><path fill="none" stroke="#000000" d="M 507.89880486505683 654.84 L 526.2784412286932 654.84" stroke-miterlimit="10"/></g><g transform="translate(-21,-13) scale(1,1)"><path fill="none" stroke="#000000" d="M 517.088623046875 665.64 L 504.32498668323865 683" stroke-miterlimit="10"/></g><g transform="translate(-21,-13) scale(1,1)"><path fill="none" stroke="#000000" d="M 517.088623046875 665.64 L 529.8522594105114 683" stroke-miterlimit="10"/></g><g transform="translate(-21,-13) scale(1,1)"><g><path fill="none" stroke="none"/><text fill="#000000" stroke="none" font-family="Arial" font-size="13px" font-style="normal" font-weight="bold" text-decoration="none" x="498.66455078125" y="703.5">Admin</text></g></g><g transform="translate(-21,-13) scale(1,1)"><path fill="none" stroke="#000000" d="M 517 455 L 517 384" stroke-miterlimit="10"/></g><g transform="translate(-21,-13) scale(1,1)"><path fill="#FFFFFF" stroke="none" d="M 525.419035512032 404.3253497152483 L 517 384 L 508.580964487968 404.3253497152483"/></g><g transform="translate(-21,-13) scale(1,1)"><path fill="none" stroke="#000000" d="M 525.419035512032 404.3253497152483 L 517 384 L 508.580964487968 404.3253497152483 L 525.419035512032 404.3253497152483" stroke-miterlimit="10"/></g><g transform="translate(-21,-13) scale(1,1)"><path fill="none" stroke="#000000" d="M 517 629 L 517 549" stroke-miterlimit="10"/></g><g transform="translate(-21,-13) scale(1,1)"><path fill="#FFFFFF" stroke="none" d="M 525.419035512032 569.3253497152483 L 517 549 L 508.580964487968 569.3253497152483"/></g><g transform="translate(-21,-13) scale(1,1)"><path fill="none" stroke="#000000" d="M 525.419035512032 569.3253497152483 L 517 549 L 508.580964487968 569.3253497152483 L 525.419035512032 569.3253497152483" stroke-miterlimit="10"/></g><g transform="translate(-21,-13) scale(1,1)"><path fill="#C0C0C0" stroke="none" d="M 455 801 C 455 786.6405952 485.8923488 775 524 775 C 562.1076512 775 593 786.6405952 593 801 C 593 815.3594048 562.1076512 827 524 827 C 485.8923488 827 455 815.3594048 455 801 Z" opacity="0.2"/></g><g transform="translate(-21,-13) scale(1,1)"><path fill="#ffffd8" stroke="none" d="M 448 794 C 448 779.6405952 478.8923488 768 517 768 C 555.1076512 768 586 779.6405952 586 794 C 586 808.3594048 555.1076512 820 517 820 C 478.8923488 820 448 808.3594048 448 794 Z"/></g><g transform="translate(-21,-13) scale(1,1)"><path fill="none" stroke="#000000" d="M 448 794 C 448 779.6405952 478.8923488 768 517 768 C 555.1076512 768 586 779.6405952 586 794 C 586 808.3594048 555.1076512 820 517 820 C 478.8923488 820 448 808.3594048 448 794 Z" stroke-miterlimit="10"/></g><g transform="translate(-21,-13) scale(1,1)"><g><path fill="none" stroke="none"/><text fill="#000000" stroke="none" font-family="Arial" font-size="13px" font-style="normal" font-weight="bold" text-decoration="none" x="491.70458984375" y="794.5">Add new</text><text fill="#000000" stroke="none" font-family="Arial" font-size="13px" font-style="normal" font-weight="bold" text-decoration="none" x="502.905029296875" y="807.5">book</text></g></g><g transform="translate(-21,-13) scale(1,1)"><path fill="#C0C0C0" stroke="none" d="M 786 675 C 786 660.6405952 818.2354944 649 858 649 C 897.7645056 649 930 660.6405952 930 675 C 930 689.3594048 897.7645056 701 858 701 C 818.2354944 701 786 689.3594048 786 675 Z" opacity="0.2"/></g><g transform="translate(-21,-13) scale(1,1)"><path fill="#ffffd8" stroke="none" d="M 779 668 C 779 653.6405952 811.2354944 642 851 642 C 890.7645056 642 923 653.6405952 923 668 C 923 682.3594048 890.7645056 694 851 694 C 811.2354944 694 779 682.3594048 779 668 Z"/></g><g transform="translate(-21,-13) scale(1,1)"><path fill="none" stroke="#000000" d="M 779 668 C 779 653.6405952 811.2354944 642 851 642 C 890.7645056 642 923 653.6405952 923 668 C 923 682.3594048 890.7645056 694 851 694 C 811.2354944 694 779 682.3594048 779 668 Z" stroke-miterlimit="10"/></g><g transform="translate(-21,-13) scale(1,1)"><g><path fill="none" stroke="none"/><text fill="#000000" stroke="none" font-family="Arial" font-size="13px" font-style="normal" font-weight="bold" text-decoration="none" x="811.2509765625" y="668.5">Change order</text><text fill="#000000" stroke="none" font-family="Arial" font-size="13px" font-style="normal" font-weight="bold" text-decoration="none" x="833.658203125" y="681.5">status</text></g></g><g transform="translate(-21,-13) scale(1,1)"><path fill="#C0C0C0" stroke="none" d="M 38 677 C 38 662.6405952 70.2354944 651 110 651 C 149.7645056 651 182 662.6405952 182 677 C 182 691.3594048 149.7645056 703 110 703 C 70.2354944 703 38 691.3594048 38 677 Z" opacity="0.2"/></g><g transform="translate(-21,-13) scale(1,1)"><path fill="#ffffd8" stroke="none" d="M 31 670 C 31 655.6405952 63.2354944 644 103 644 C 142.7645056 644 175 655.6405952 175 670 C 175 684.3594048 142.7645056 696 103 696 C 63.2354944 696 31 684.3594048 31 670 Z"/></g><g transform="translate(-21,-13) scale(1,1)"><path fill="none" stroke="#000000" d="M 31 670 C 31 655.6405952 63.2354944 644 103 644 C 142.7645056 644 175 655.6405952 175 670 C 175 684.3594048 142.7645056 696 103 696 C 63.2354944 696 31 684.3594048 31 670 Z" stroke-miterlimit="10"/></g><g transform="translate(-21,-13) scale(1,1)"><g><path fill="none" stroke="none"/><text fill="#000000" stroke="none" font-family="Arial" font-size="13px" font-style="normal" font-weight="bold" text-decoration="none" x="75.898681640625" y="670.5">Edit book</text><text fill="#000000" stroke="none" font-family="Arial" font-size="13px" font-style="normal" font-weight="bold" text-decoration="none" x="87.4609375" y="683.5">detail</text></g></g><g transform="translate(-21,-13) scale(1,1)"><path fill="none" stroke="#000000" d="M 491 669 L 176 670" stroke-miterlimit="10"/></g><g transform="translate(-21,-13) scale(1,1)"><path fill="none" stroke="#000000" d="M 186.1492601666648 665.7582411585108 L 176 670 L 186.17598712885015 674.1772342469002" stroke-miterlimit="10"/></g><g transform="translate(-21,-13) scale(1,1)"><path fill="none" stroke="#000000" d="M 543 669 L 778 668" stroke-miterlimit="10"/></g><g transform="translate(-21,-13) scale(1,1)"><path fill="none" stroke="#000000" d="M 767.8553298320053 672.2527246774977 L 778 668 L 767.819504473332 663.833765389288" stroke-miterlimit="10"/></g><g transform="translate(-21,-13) scale(1,1)"><path fill="none" stroke="#000000" d="M 517 710 L 517 767" stroke-miterlimit="10"/></g><g transform="translate(-21,-13) scale(1,1)"><path fill="none" stroke="#000000" d="M 512.790482243984 756.8373251423759 L 517 767 L 521.209517756016 756.8373251423759" stroke-miterlimit="10"/></g><g transform="translate(-21,-13) scale(1,1)"><path fill="#C0C0C0" stroke="none" d="M 60 263 C 60 253.6111584 82.6096176 246 110.5 246 C 138.3903824 246 161 253.6111584 161 263 C 161 272.3888416 138.3903824 280 110.5 280 C 82.6096176 280 60 272.3888416 60 263 Z" opacity="0.2"/></g><g transform="translate(-21,-13) scale(1,1)"><path fill="#ffffd8" stroke="none" d="M 53 256 C 53 246.6111584 75.6096176 239 103.5 239 C 131.3903824 239 154 246.6111584 154 256 C 154 265.3888416 131.3903824 273 103.5 273 C 75.6096176 273 53 265.3888416 53 256 Z"/></g><g transform="translate(-21,-13) scale(1,1)"><path fill="none" stroke="#000000" d="M 53 256 C 53 246.6111584 75.6096176 239 103.5 239 C 131.3903824 239 154 246.6111584 154 256 C 154 265.3888416 131.3903824 273 103.5 273 C 75.6096176 273 53 265.3888416 53 256 Z" stroke-miterlimit="10"/></g><g transform="translate(-21,-13) scale(1,1)"><g><path fill="none" stroke="none"/><text fill="#000000" stroke="none" font-family="Arial" font-size="13px" font-style="normal" font-weight="bold" text-decoration="none" x="87.595947265625" y="263">Login</text></g></g><g transform="translate(-21,-13) scale(1,1)"><path fill="#C0C0C0" stroke="none" d="M 60 128 C 60 118.6111584 82.6096176 111 110.5 111 C 138.3903824 111 161 118.6111584 161 128 C 161 137.3888416 138.3903824 145 110.5 145 C 82.6096176 145 60 137.3888416 60 128 Z" opacity="0.2"/></g><g transform="translate(-21,-13) scale(1,1)"><path fill="#ffffd8" stroke="none" d="M 53 121 C 53 111.6111584 75.6096176 104 103.5 104 C 131.3903824 104 154 111.6111584 154 121 C 154 130.3888416 131.3903824 138 103.5 138 C 75.6096176 138 53 130.3888416 53 121 Z"/></g><g transform="translate(-21,-13) scale(1,1)"><path fill="none" stroke="#000000" d="M 53 121 C 53 111.6111584 75.6096176 104 103.5 104 C 131.3903824 104 154 111.6111584 154 121 C 154 130.3888416 131.3903824 138 103.5 138 C 75.6096176 138 53 130.3888416 53 121 Z" stroke-miterlimit="10"/></g><g transform="translate(-21,-13) scale(1,1)"><g><path fill="none" stroke="none"/><text fill="#000000" stroke="none" font-family="Arial" font-size="13px" font-style="normal" font-weight="bold" text-decoration="none" x="79.29638671875" y="128">Register</text></g></g><g transform="translate(-21,-13) scale(1,1)"><path fill="#C0C0C0" stroke="none" d="M 207 56 C 207 41.6405952 230.505048 30 259.5 30 C 288.494952 30 312 41.6405952 312 56 C 312 70.3594048 288.494952 82 259.5 82 C 230.505048 82 207 70.3594048 207 56 Z" opacity="0.2"/></g><g transform="translate(-21,-13) scale(1,1)"><path fill="#ffffd8" stroke="none" d="M 200 49 C 200 34.6405952 223.505048 23 252.5 23 C 281.494952 23 305 34.6405952 305 49 C 305 63.3594048 281.494952 75 252.5 75 C 223.505048 75 200 63.3594048 200 49 Z"/></g><g transform="translate(-21,-13) scale(1,1)"><path fill="none" stroke="#000000" d="M 200 49 C 200 34.6405952 223.505048 23 252.5 23 C 281.494952 23 305 34.6405952 305 49 C 305 63.3594048 281.494952 75 252.5 75 C 223.505048 75 200 63.3594048 200 49 Z" stroke-miterlimit="10"/></g><g transform="translate(-21,-13) scale(1,1)"><g><path fill="none" stroke="none"/><text fill="#000000" stroke="none" font-family="Arial" font-size="13px" font-style="normal" font-weight="bold" text-decoration="none" x="242.385009765625" y="49.5">List</text><text fill="#000000" stroke="none" font-family="Arial" font-size="13px" font-style="normal" font-weight="bold" text-decoration="none" x="235.155029296875" y="62.5">books</text></g></g><g transform="translate(-21,-13) scale(1,1)"><path fill="#C0C0C0" stroke="none" d="M 394 56 C 394 41.6405952 419.0720512 30 450 30 C 480.9279488 30 506 41.6405952 506 56 C 506 70.3594048 480.9279488 82 450 82 C 419.0720512 82 394 70.3594048 394 56 Z" opacity="0.2"/></g><g transform="translate(-21,-13) scale(1,1)"><path fill="#ffffd8" stroke="none" d="M 387 49 C 387 34.6405952 412.0720512 23 443 23 C 473.9279488 23 499 34.6405952 499 49 C 499 63.3594048 473.9279488 75 443 75 C 412.0720512 75 387 63.3594048 387 49 Z"/></g><g transform="translate(-21,-13) scale(1,1)"><path fill="none" stroke="#000000" d="M 387 49 C 387 34.6405952 412.0720512 23 443 23 C 473.9279488 23 499 34.6405952 499 49 C 499 63.3594048 473.9279488 75 443 75 C 412.0720512 75 387 63.3594048 387 49 Z" stroke-miterlimit="10"/></g><g transform="translate(-21,-13) scale(1,1)"><g><path fill="none" stroke="none"/><text fill="#000000" stroke="none" font-family="Arial" font-size="13px" font-style="normal" font-weight="bold" text-decoration="none" x="413.010498046875" y="49.5">View book</text><text fill="#000000" stroke="none" font-family="Arial" font-size="13px" font-style="normal" font-weight="bold" text-decoration="none" x="427.4609375" y="62.5">detail</text></g></g><g transform="translate(-21,-13) scale(1,1)"><path fill="#C0C0C0" stroke="none" d="M 588 56 C 588 41.6405952 618.4446336 30 656 30 C 693.5553664 30 724 41.6405952 724 56 C 724 70.3594048 693.5553664 82 656 82 C 618.4446336 82 588 70.3594048 588 56 Z" opacity="0.2"/></g><g transform="translate(-21,-13) scale(1,1)"><path fill="#ffffd8" stroke="none" d="M 581 49 C 581 34.6405952 611.4446336 23 649 23 C 686.5553664 23 717 34.6405952 717 49 C 717 63.3594048 686.5553664 75 649 75 C 611.4446336 75 581 63.3594048 581 49 Z"/></g><g transform="translate(-21,-13) scale(1,1)"><path fill="none" stroke="#000000" d="M 581 49 C 581 34.6405952 611.4446336 23 649 23 C 686.5553664 23 717 34.6405952 717 49 C 717 63.3594048 686.5553664 75 649 75 C 611.4446336 75 581 63.3594048 581 49 Z" stroke-miterlimit="10"/></g><g transform="translate(-21,-13) scale(1,1)"><g><path fill="none" stroke="none"/><text fill="#000000" stroke="none" font-family="Arial" font-size="13px" font-style="normal" font-weight="bold" text-decoration="none" x="614.306884765625" y="49.5">Add book to</text><text fill="#000000" stroke="none" font-family="Arial" font-size="13px" font-style="normal" font-weight="bold" text-decoration="none" x="627.32275390625" y="62.5">the cart</text></g></g><g transform="translate(-21,-13) scale(1,1)"><path fill="#C0C0C0" stroke="none" d="M 803 204 C 803 194.6111584 827.8481936 187 858.5 187 C 889.1518064 187 914 194.6111584 914 204 C 914 213.3888416 889.1518064 221 858.5 221 C 827.8481936 221 803 213.3888416 803 204 Z" opacity="0.2"/></g><g transform="translate(-21,-13) scale(1,1)"><path fill="#ffffd8" stroke="none" d="M 796 197 C 796 187.6111584 820.8481936 180 851.5 180 C 882.1518064 180 907 187.6111584 907 197 C 907 206.3888416 882.1518064 214 851.5 214 C 820.8481936 214 796 206.3888416 796 197 Z"/></g><g transform="translate(-21,-13) scale(1,1)"><path fill="none" stroke="#000000" d="M 796 197 C 796 187.6111584 820.8481936 180 851.5 180 C 882.1518064 180 907 187.6111584 907 197 C 907 206.3888416 882.1518064 214 851.5 214 C 820.8481936 214 796 206.3888416 796 197 Z" stroke-miterlimit="10"/></g><g transform="translate(-21,-13) scale(1,1)"><g><path fill="none" stroke="none"/><text fill="#000000" stroke="none" font-family="Arial" font-size="13px" font-style="normal" font-weight="bold" text-decoration="none" x="818.62548828125" y="204">Make order</text></g></g><g transform="translate(-21,-13) scale(1,1)"><path fill="#C0C0C0" stroke="none" d="M 801 352 C 801 342.6111584 826.5197664 335 858 335 C 889.4802336 335 915 342.6111584 915 352 C 915 361.3888416 889.4802336 369 858 369 C 826.5197664 369 801 361.3888416 801 352 Z" opacity="0.2"/></g><g transform="translate(-21,-13) scale(1,1)"><path fill="#ffffd8" stroke="none" d="M 794 345 C 794 335.6111584 819.5197664 328 851 328 C 882.4802336 328 908 335.6111584 908 345 C 908 354.3888416 882.4802336 362 851 362 C 819.5197664 362 794 354.3888416 794 345 Z"/></g><g transform="translate(-21,-13) scale(1,1)"><path fill="none" stroke="#000000" d="M 794 345 C 794 335.6111584 819.5197664 328 851 328 C 882.4802336 328 908 335.6111584 908 345 C 908 354.3888416 882.4802336 362 851 362 C 819.5197664 362 794 354.3888416 794 345 Z" stroke-miterlimit="10"/></g><g transform="translate(-21,-13) scale(1,1)"><g><path fill="none" stroke="none"/><text fill="#000000" stroke="none" font-family="Arial" font-size="13px" font-style="normal" font-weight="bold" text-decoration="none" x="818.49365234375" y="352">Fill delivery</text></g></g><g transform="translate(-21,-13) scale(1,1)"><path fill="#C0C0C0" stroke="none" d="M 56 533 C 56 523.6111584 80.4004784 516 110.5 516 C 140.5995216 516 165 523.6111584 165 533 C 165 542.3888416 140.5995216 550 110.5 550 C 80.4004784 550 56 542.3888416 56 533 Z" opacity="0.2"/></g><g transform="translate(-21,-13) scale(1,1)"><path fill="#ffffd8" stroke="none" d="M 49 526 C 49 516.6111584 73.4004784 509 103.5 509 C 133.5995216 509 158 516.6111584 158 526 C 158 535.3888416 133.5995216 543 103.5 543 C 73.4004784 543 49 535.3888416 49 526 Z"/></g><g transform="translate(-21,-13) scale(1,1)"><path fill="none" stroke="#000000" d="M 49 526 C 49 516.6111584 73.4004784 509 103.5 509 C 133.5995216 509 158 516.6111584 158 526 C 158 535.3888416 133.5995216 543 103.5 543 C 73.4004784 543 49 535.3888416 49 526 Z" stroke-miterlimit="10"/></g><g transform="translate(-21,-13) scale(1,1)"><g><path fill="none" stroke="none"/><text fill="#000000" stroke="none" font-family="Arial" font-size="13px" font-style="normal" font-weight="bold" text-decoration="none" x="72.7900390625" y="533">Edit profile</text></g></g><g transform="translate(-21,-13) scale(1,1)"><path fill="#C0C0C0" stroke="none" d="M 60 398 C 60 388.6111584 82.6096176 381 110.5 381 C 138.3903824 381 161 388.6111584 161 398 C 161 407.3888416 138.3903824 415 110.5 415 C 82.6096176 415 60 407.3888416 60 398 Z" opacity="0.2"/></g><g transform="translate(-21,-13) scale(1,1)"><path fill="#ffffd8" stroke="none" d="M 53 391 C 53 381.6111584 75.6096176 374 103.5 374 C 131.3903824 374 154 381.6111584 154 391 C 154 400.3888416 131.3903824 408 103.5 408 C 75.6096176 408 53 400.3888416 53 391 Z"/></g><g transform="translate(-21,-13) scale(1,1)"><path fill="none" stroke="#000000" d="M 53 391 C 53 381.6111584 75.6096176 374 103.5 374 C 131.3903824 374 154 381.6111584 154 391 C 154 400.3888416 131.3903824 408 103.5 408 C 75.6096176 408 53 400.3888416 53 391 Z" stroke-miterlimit="10"/></g><g transform="translate(-21,-13) scale(1,1)"><g><path fill="none" stroke="none"/><text fill="#000000" stroke="none" font-family="Arial" font-size="13px" font-style="normal" font-weight="bold" text-decoration="none" x="83.619140625" y="398">Logout</text></g></g><g transform="translate(-21,-13) scale(1,1)"><path fill="none" stroke="#000000" d="M 462 487 L 155 405" stroke-miterlimit="10"/></g><g transform="translate(-21,-13) scale(1,1)"><path fill="none" stroke="#000000" d="M 165.90475354142342 403.5555796315429 L 155 405 L 163.7321846137285 411.68946573888854" stroke-miterlimit="10"/></g><g transform="translate(-21,-13) scale(1,1)"><path fill="none" stroke="#000000" d="M 491 338 L 155 267" stroke-miterlimit="10"/></g><g transform="translate(-21,-13) scale(1,1)"><path fill="none" stroke="#000000" d="M 165.81340393475892 264.9825027029162 L 155 267 L 164.0728172697708 273.21964523018386" stroke-miterlimit="10"/></g><g transform="translate(-21,-13) scale(1,1)"><path fill="none" stroke="#000000" d="M 491 329 L 137 139" stroke-miterlimit="10"/></g><g transform="translate(-21,-13) scale(1,1)"><path fill="none" stroke="#000000" d="M 147.94516252393683 140.09700379425442 L 137 139 L 143.96369981995994 147.51509746376928" stroke-miterlimit="10"/></g><g transform="translate(-21,-13) scale(1,1)"><path fill="none" stroke="#000000" d="M 462 505 L 159 523" stroke-miterlimit="10"/></g><g transform="translate(-21,-13) scale(1,1)"><path fill="none" stroke="#000000" d="M 168.89515953897782 518.195229693505 L 159 523 L 169.39442007670036 526.5994487451676" stroke-miterlimit="10"/></g><g transform="translate(-21,-13) scale(1,1)"><path fill="none" stroke="#000000" d="M 491 314 L 276 76" stroke-miterlimit="10"/></g><g transform="translate(-21,-13) scale(1,1)"><path fill="none" stroke="#000000" d="M 285.93614782881525 80.71942436361999 L 276 76 L 279.6887805378145 86.36305447943997" stroke-miterlimit="10"/></g><g transform="translate(-21,-13) scale(1,1)"><path fill="none" stroke="#000000" d="M 507 303 L 450 76" stroke-miterlimit="10"/></g><g transform="translate(-21,-13) scale(1,1)"><path fill="none" stroke="#000000" d="M 456.5577981021293 84.83149387429495 L 450 76 L 448.39225430114647 86.88187271418931" stroke-miterlimit="10"/></g><g transform="translate(-21,-13) scale(1,1)"><path fill="none" stroke="#000000" d="M 535 303 L 637 76" stroke-miterlimit="10"/></g><g transform="translate(-21,-13) scale(1,1)"><path fill="none" stroke="#000000" d="M 636.6743904505981 86.9951797812195 L 637 76 L 628.9949930959333 83.54452546326439" stroke-miterlimit="10"/></g><g transform="translate(-21,-13) scale(1,1)"><path fill="none" stroke="#000000" d="M 543 332 L 810 215" stroke-miterlimit="10"/></g><g transform="translate(-21,-13) scale(1,1)"><path fill="none" stroke="#000000" d="M 802.3813191442902 222.93446293197215 L 810 215 L 799.0022665589606 215.22329164750224" stroke-miterlimit="10"/></g><g transform="translate(-21,-13) scale(1,1)"><path fill="none" stroke="#000000" d="M 543 343 L 793 345" stroke-miterlimit="10"/></g><g transform="translate(-21,-13) scale(1,1)"><path fill="none" stroke="#000000" d="M 782.803975267899 349.12808426057217 L 793 345 L 782.8713253968256 340.7093181447456" stroke-miterlimit="10"/></g><g transform="translate(-21,-13) scale(1,1)"><path fill="#C0C0C0" stroke="none" d="M 801 56 C 801 46.6111584 826.5197664 39 858 39 C 889.4802336 39 915 46.6111584 915 56 C 915 65.3888416 889.4802336 73 858 73 C 826.5197664 73 801 65.3888416 801 56 Z" opacity="0.2"/></g><g transform="translate(-21,-13) scale(1,1)"><path fill="#ffffd8" stroke="none" d="M 794 49 C 794 39.6111584 819.5197664 32 851 32 C 882.4802336 32 908 39.6111584 908 49 C 908 58.3888416 882.4802336 66 851 66 C 819.5197664 66 794 58.3888416 794 49 Z"/></g><g transform="translate(-21,-13) scale(1,1)"><path fill="none" stroke="#000000" d="M 794 49 C 794 39.6111584 819.5197664 32 851 32 C 882.4802336 32 908 39.6111584 908 49 C 908 58.3888416 882.4802336 66 851 66 C 819.5197664 66 794 58.3888416 794 49 Z" stroke-miterlimit="10"/></g><g transform="translate(-21,-13) scale(1,1)"><g><path fill="none" stroke="none"/><text fill="#000000" stroke="none" font-family="Arial" font-size="13px" font-style="normal" font-weight="bold" text-decoration="none" x="817.398681640625" y="56">Update cart</text></g></g><g transform="translate(-21,-13) scale(1,1)"><path fill="none" stroke="#000000" d="M 543 320 L 831 67" stroke-miterlimit="10"/></g><g transform="translate(-21,-13) scale(1,1)"><path fill="none" stroke="#000000" d="M 826.143161300848 76.86970708027442 L 831 67 L 820.5867596159134 70.54463322548727" stroke-miterlimit="10"/></g><g transform="translate(-21,-13) scale(1,1)"><path fill="#C0C0C0" stroke="none" d="M 782 509 C 782 494.6405952 816.0263552 483 858 483 C 899.9736448 483 934 494.6405952 934 509 C 934 523.3594048 899.9736448 535 858 535 C 816.0263552 535 782 523.3594048 782 509 Z" opacity="0.2"/></g><g transform="translate(-21,-13) scale(1,1)"><path fill="#ffffd8" stroke="none" d="M 775 502 C 775 487.6405952 809.0263552 476 851 476 C 892.9736448 476 927 487.6405952 927 502 C 927 516.3594048 892.9736448 528 851 528 C 809.0263552 528 775 516.3594048 775 502 Z"/></g><g transform="translate(-21,-13) scale(1,1)"><path fill="none" stroke="#000000" d="M 775 502 C 775 487.6405952 809.0263552 476 851 476 C 892.9736448 476 927 487.6405952 927 502 C 927 516.3594048 892.9736448 528 851 528 C 809.0263552 528 775 516.3594048 775 502 Z" stroke-miterlimit="10"/></g><g transform="translate(-21,-13) scale(1,1)"><g><path fill="none" stroke="none"/><text fill="#000000" stroke="none" font-family="Arial" font-size="13px" font-style="normal" font-weight="bold" text-decoration="none" x="818.49365234375" y="502.5">Fill delivery</text><text fill="#000000" stroke="none" font-family="Arial" font-size="13px" font-style="normal" font-weight="bold" text-decoration="none" x="818.490478515625" y="515.5">from profile</text></g></g><g transform="translate(-21,-13) scale(1,1)"><path fill="none" stroke="#000000" d="M 851 215 L 851 327" stroke-miterlimit="10" stroke-dasharray="3"/></g><g transform="translate(-21,-13) scale(1,1)"><path fill="none" stroke="#000000" d="M 846.790482243984 316.83732514237585 L 851 327 L 855.209517756016 316.83732514237585" stroke-miterlimit="10"/></g><g transform="translate(-21,-13) scale(1,1)"><g><path fill="none" stroke="none"/><text fill="#000000" stroke="none" font-family="Arial" font-size="13px" font-style="normal" font-weight="normal" text-decoration="none" x="853" y="277">«include»</text></g></g><g transform="translate(-21,-13) scale(1,1)"><path fill="none" stroke="#000000" d="M 851 475 L 851 363" stroke-miterlimit="10" stroke-dasharray="3"/></g><g transform="translate(-21,-13) scale(1,1)"><path fill="none" stroke="#000000" d="M 855.209517756016 373.16267485762415 L 851 363 L 846.790482243984 373.16267485762415" stroke-miterlimit="10"/></g><g transform="translate(-21,-13) scale(1,1)"><g><path fill="none" stroke="none"/><text fill="#000000" stroke="none" font-family="Arial" font-size="13px" font-style="normal" font-weight="normal" text-decoration="none" x="795" y="425">«extend»</text></g></g><g transform="translate(-21,-13) scale(1,1)"><path fill="none" stroke="#000000" d="M 573 502 L 774 502" stroke-miterlimit="10" stroke-dasharray="3"/></g><g transform="translate(-21,-13) scale(1,1)"><path fill="none" stroke="#000000" d="M 763.8373251423759 506.209517756016 L 774 502 L 763.8373251423758 497.790482243984" stroke-miterlimit="10"/></g></g></svg>