<svg version="1.1" xmlns="http://www.w3.org/2000/svg" xmlns:xlink="http://www.w3.org/1999/xlink" width="502.2470703125" height="485"><defs/><g><g transform="translate(-270,-70) scale(1,1)"><path fill="#C0C0C0" stroke="none" d="M 528 183 L 567 183 Q 577 183 577 193 L 577 212 Q 577 222 567 222 L 528 222 Q 518 222 518 212 L 518 193 Q 518 183 528 183 Z" opacity="0.2"/></g><g transform="translate(-270,-70) scale(1,1)"><path fill="#ffffd8" stroke="none" d="M 521 176 L 560 176 Q 570 176 570 186 L 570 205 Q 570 215 560 215 L 521 215 Q 511 215 511 205 L 511 186 Q 511 176 521 176 Z"/></g><g transform="translate(-270,-70) scale(1,1)"><path fill="none" stroke="#000000" d="M 521 176 L 560 176 Q 570 176 570 186 L 570 205 Q 570 215 560 215 L 521 215 Q 511 215 511 205 L 511 186 Q 511 176 521 176 Z" stroke-miterlimit="10"/></g><g transform="translate(-270,-70) scale(1,1)"><g><path fill="none" stroke="none"/><text fill="#000000" stroke="none" font-family="Arial" font-size="13px" font-style="normal" font-weight="bold" text-decoration="none" x="521.345947265625" y="195.5">newed</text></g></g><g transform="translate(-270,-70) scale(1,1)"><path fill="#C0C0C0" stroke="none" d="M 307 295 L 488.20703125 295 Q 498.20703125 295 498.20703125 305 L 498.20703125 332 Q 498.20703125 342 488.20703125 342 L 307 342 Q 297 342 297 332 L 297 305 Q 297 295 307 295 Z" opacity="0.2"/></g><g transform="translate(-270,-70) scale(1,1)"><path fill="#ffffd8" stroke="none" d="M 300 288 L 481.20703125 288 Q 491.20703125 288 491.20703125 298 L 491.20703125 325 Q 491.20703125 335 481.20703125 335 L 300 335 Q 290 335 290 325 L 290 298 Q 290 288 300 288 Z"/></g><g transform="translate(-270,-70) scale(1,1)"><path fill="none" stroke="#000000" d="M 300 288 L 481.20703125 288 Q 491.20703125 288 491.20703125 298 L 491.20703125 325 Q 491.20703125 335 481.20703125 335 L 300 335 Q 290 335 290 325 L 290 298 Q 290 288 300 288 Z" stroke-miterlimit="10"/></g><g transform="translate(-270,-70) scale(1,1)"><path fill="none" stroke="#000000" d="M 290 313 L 491.20703125 313" stroke-miterlimit="10"/></g><g transform="translate(-270,-70) scale(1,1)"><g><path fill="none" stroke="none"/><text fill="#000000" stroke="none" font-family="Arial" font-size="13px" font-style="normal" font-weight="bold" text-decoration="none" x="360.25537109375" y="307.5">inprogress</text></g></g><g transform="translate(-270,-70) scale(1,1)"><g><path fill="none" stroke="none"/><text fill="#000000" stroke="none" font-family="Arial" font-size="13px" font-style="normal" font-weight="normal" text-decoration="none" x="295" y="330.5">entry/Send notification to workers</text></g></g><g transform="translate(-270,-70) scale(1,1)"><path fill="#C0C0C0" stroke="none" d="M 297 415 L 498.42431640625 415 Q 508.42431640625 415 508.42431640625 425 L 508.42431640625 452 Q 508.42431640625 462 498.42431640625 462 L 297 462 Q 287 462 287 452 L 287 425 Q 287 415 297 415 Z" opacity="0.2"/></g><g transform="translate(-270,-70) scale(1,1)"><path fill="#ffffd8" stroke="none" d="M 290 408 L 491.42431640625 408 Q 501.42431640625 408 501.42431640625 418 L 501.42431640625 445 Q 501.42431640625 455 491.42431640625 455 L 290 455 Q 280 455 280 445 L 280 418 Q 280 408 290 408 Z"/></g><g transform="translate(-270,-70) scale(1,1)"><path fill="none" stroke="#000000" d="M 290 408 L 491.42431640625 408 Q 501.42431640625 408 501.42431640625 418 L 501.42431640625 445 Q 501.42431640625 455 491.42431640625 455 L 290 455 Q 280 455 280 445 L 280 418 Q 280 408 290 408 Z" stroke-miterlimit="10"/></g><g transform="translate(-270,-70) scale(1,1)"><path fill="none" stroke="#000000" d="M 280 433 L 501.42431640625 433" stroke-miterlimit="10"/></g><g transform="translate(-270,-70) scale(1,1)"><g><path fill="none" stroke="none"/><text fill="#000000" stroke="none" font-family="Arial" font-size="13px" font-style="normal" font-weight="bold" text-decoration="none" x="360.72265625" y="427.5">completed</text></g></g><g transform="translate(-270,-70) scale(1,1)"><g><path fill="none" stroke="none"/><text fill="#000000" stroke="none" font-family="Arial" font-size="13px" font-style="normal" font-weight="normal" text-decoration="none" x="285" y="450.5">entry/Send Email Notification to User</text></g></g><g transform="translate(-270,-70) scale(1,1)"><path fill="#C0C0C0" stroke="none" d="M 625 415 L 759.2470703125 415 Q 769.2470703125 415 769.2470703125 425 L 769.2470703125 452 Q 769.2470703125 462 759.2470703125 462 L 625 462 Q 615 462 615 452 L 615 425 Q 615 415 625 415 Z" opacity="0.2"/></g><g transform="translate(-270,-70) scale(1,1)"><path fill="#ffffd8" stroke="none" d="M 618 408 L 752.2470703125 408 Q 762.2470703125 408 762.2470703125 418 L 762.2470703125 445 Q 762.2470703125 455 752.2470703125 455 L 618 455 Q 608 455 608 445 L 608 418 Q 608 408 618 408 Z"/></g><g transform="translate(-270,-70) scale(1,1)"><path fill="none" stroke="#000000" d="M 618 408 L 752.2470703125 408 Q 762.2470703125 408 762.2470703125 418 L 762.2470703125 445 Q 762.2470703125 455 752.2470703125 455 L 618 455 Q 608 455 608 445 L 608 418 Q 608 408 618 408 Z" stroke-miterlimit="10"/></g><g transform="translate(-270,-70) scale(1,1)"><path fill="none" stroke="#000000" d="M 608 433 L 762.2470703125 433" stroke-miterlimit="10"/></g><g transform="translate(-270,-70) scale(1,1)"><g><path fill="none" stroke="none"/><text fill="#000000" stroke="none" font-family="Arial" font-size="13px" font-style="normal" font-weight="bold" text-decoration="none" x="661.9990234375" y="427.5">rejected</text></g></g><g transform="translate(-270,-70) scale(1,1)"><g><path fill="none" stroke="none"/><text fill="#000000" stroke="none" font-family="Arial" font-size="13px" font-style="normal" font-weight="normal" text-decoration="none" x="613" y="450.5">entry/Restore book count</text></g></g><g transform="translate(-270,-70) scale(1,1)"><path fill="#C0C0C0" stroke="none" d="M 535 539.5 C 535 532.59644 540.59644 527 547.5 527 C 554.40356 527 560 532.59644 560 539.5 C 560 546.40356 554.40356 552 547.5 552 C 540.59644 552 535 546.40356 535 539.5 Z" opacity="0.2"/></g><g transform="translate(-270,-70) scale(1,1)"><path fill="none" stroke="#000000" d="M 528 532.5 C 528 525.59644 533.59644 520 540.5 520 C 547.40356 520 553 525.59644 553 532.5 C 553 539.40356 547.40356 545 540.5 545 C 533.59644 545 528 539.40356 528 532.5 Z" stroke-miterlimit="10"/></g><g transform="translate(-270,-70) scale(1,1)"><path fill="#000000" stroke="none" d="M 533 532.5 C 533 528.357864 536.357864 525 540.5 525 C 544.642136 525 548 528.357864 548 532.5 C 548 536.642136 544.642136 540 540.5 540 C 536.357864 540 533 536.642136 533 532.5 Z"/></g><g transform="translate(-270,-70) scale(1,1)"><path fill="none" stroke="#000000" d="M 427 456 L 527 523" stroke-miterlimit="10"/></g><g transform="translate(-270,-70) scale(1,1)"><path fill="none" stroke="#000000" d="M 516.2140703802048 520.8404347111455 L 527 523 L 520.9002392846061 513.8461527642779" stroke-miterlimit="10"/></g><g transform="translate(-270,-70) scale(1,1)"><path fill="none" stroke="#000000" d="M 649 456 L 554 522" stroke-miterlimit="10"/></g><g transform="translate(-270,-70) scale(1,1)"><path fill="none" stroke="#000000" d="M 559.9443991859102 512.7445087478541 L 554 522 L 564.747945602042 519.6587043468318" stroke-miterlimit="10"/></g><g transform="translate(-270,-70) scale(1,1)"><path fill="#C0C0C0" stroke="none" d="M 538 96.5 C 538 91.2532944 542.2532944 87 547.5 87 C 552.7467056 87 557 91.2532944 557 96.5 C 557 101.7467056 552.7467056 106 547.5 106 C 542.2532944 106 538 101.7467056 538 96.5 Z" opacity="0.2"/></g><g transform="translate(-270,-70) scale(1,1)"><path fill="#000000" stroke="none" d="M 531 89.5 C 531 84.2532944 535.2532944 80 540.5 80 C 545.7467056 80 550 84.2532944 550 89.5 C 550 94.7467056 545.7467056 99 540.5 99 C 535.2532944 99 531 94.7467056 531 89.5 Z"/></g><g transform="translate(-270,-70) scale(1,1)"><path fill="none" stroke="#000000" d="M 540 100 L 540 175" stroke-miterlimit="10"/></g><g transform="translate(-270,-70) scale(1,1)"><path fill="none" stroke="#000000" d="M 535.790482243984 164.83732514237585 L 540 175 L 544.209517756016 164.83732514237585" stroke-miterlimit="10"/></g><g transform="translate(-270,-70) scale(1,1)"><path fill="none" stroke="#000000" d="M 513 216 L 421 287" stroke-miterlimit="10"/></g><g transform="translate(-270,-70) scale(1,1)"><path fill="none" stroke="#000000" d="M 426.47358033484966 277.45851592686193 L 421 287 L 431.61725386284087 284.12355768144215" stroke-miterlimit="10"/></g><g transform="translate(-270,-70) scale(1,1)"><path fill="none" stroke="#000000" d="M 390 336 L 390 407" stroke-miterlimit="10"/></g><g transform="translate(-270,-70) scale(1,1)"><path fill="none" stroke="#000000" d="M 385.790482243984 396.83732514237585 L 390 407 L 394.209517756016 396.83732514237585" stroke-miterlimit="10"/></g><g transform="translate(-270,-70) scale(1,1)"><path fill="none" stroke="#000000" d="M 553 216 L 670 407" stroke-miterlimit="10"/></g><g transform="translate(-270,-70) scale(1,1)"><path fill="none" stroke="#000000" d="M 661.1019195356055 400.5328395683144 L 670 407 L 668.2810799603493 396.13513396781684" stroke-miterlimit="10"/></g></g></svg>